<svg xmlns="http://www.w3.org/2000/svg" viewBox="0 0 1200 750" preserveAspectRatio="xMidYMid slice" role="img" aria-label="Illustration of garage parking"><defs><linearGradient id="sky" x1="0" y1="0" x2="0" y2="1"><stop offset="0" stop-color="#020617"/><stop offset="1" stop-color="#1e3a8a"/></linearGradient></defs><rect width="1200" height="750" fill="url(#sky)"/><circle cx="186" cy="250" r="1.5" fill="#fff" opacity="0.65"/><circle cx="35" cy="292" r="2" fill="#fff" opacity="0.41"/><circle cx="975" cy="73" r="2" fill="#fff" opacity="0.89"/><circle cx="1130" cy="108" r="2" fill="#fff" opacity="0.70"/><circle cx="1102" cy="29" r="1.5" fill="#fff" opacity="0.56"/><circle cx="630" cy="280" r="2" fill="#fff" opacity="0.54"/><circle cx="918" cy="163" r="1.5" fill="#fff" opacity="0.71"/><circle cx="0" cy="290" r="2.5" fill="#fff" opacity="0.79"/><circle cx="1190" cy="284" r="2.5" fill="#fff" opacity="0.71"/><circle cx="581" cy="65" r="1.5" fill="#fff" opacity="0.82"/><circle cx="850" cy="187" r="2" fill="#fff" opacity="0.43"/><circle cx="283" cy="112" r="2.5" fill="#fff" opacity="0.81"/><circle cx="1115" cy="32" r="2.5" fill="#fff" opacity="0.53"/><circle cx="720" cy="203" r="1.5" fill="#fff" opacity="0.79"/><circle cx="1031" cy="230" r="2" fill="#fff" opacity="0.71"/><circle cx="491" cy="95" r="2.5" fill="#fff" opacity="0.75"/><circle cx="245" cy="91" r="2.5" fill="#fff" opacity="0.88"/><circle cx="559" cy="253" r="2" fill="#fff" opacity="0.74"/><circle cx="586" cy="180" r="2.5" fill="#fff" opacity="0.78"/><circle cx="278" cy="201" r="2" fill="#fff" opacity="0.74"/><circle cx="263" cy="142" r="1.5" fill="#fff" opacity="0.40"/><circle cx="960" cy="232" r="2" fill="#fff" opacity="0.57"/><circle cx="233" cy="4" r="2" fill="#fff" opacity="0.43"/><circle cx="315" cy="159" r="2" fill="#fff" opacity="0.87"/><circle cx="521" cy="183" r="2.5" fill="#fff" opacity="0.54"/><circle cx="13" cy="238" r="1.5" fill="#fff" opacity="0.61"/><circle cx="622" cy="59" r="2.5" fill="#fff" opacity="0.44"/><circle cx="368" cy="163" r="2.5" fill="#fff" opacity="0.50"/><circle cx="213" cy="3" r="2.5" fill="#fff" opacity="0.61"/><circle cx="51" cy="164" r="2" fill="#fff" opacity="0.47"/><circle cx="979" cy="221" r="1.5" fill="#fff" opacity="0.81"/><circle cx="1034" cy="210" r="1.5" fill="#fff" opacity="0.59"/><circle cx="904" cy="26" r="2.5" fill="#fff" opacity="0.76"/><circle cx="329" cy="114" r="2.5" fill="#fff" opacity="0.88"/><circle cx="236" cy="23" r="2" fill="#fff" opacity="0.56"/><circle cx="493" cy="71" r="2.5" fill="#fff" opacity="0.75"/><circle cx="795" cy="197" r="1.5" fill="#fff" opacity="0.52"/><circle cx="339" cy="211" r="2" fill="#fff" opacity="0.59"/><circle cx="1076" cy="295" r="1.5" fill="#fff" opacity="0.75"/><circle cx="388" cy="73" r="2" fill="#fff" opacity="0.74"/><circle cx="445" cy="251" r="2.5" fill="#fff" opacity="0.62"/><circle cx="224" cy="72" r="1.5" fill="#fff" opacity="0.83"/><circle cx="209" cy="192" r="1.5" fill="#fff" opacity="0.75"/><circle cx="339" cy="59" r="2" fill="#fff" opacity="0.67"/><circle cx="134" cy="99" r="2.5" fill="#fff" opacity="0.62"/><circle cx="1108" cy="14" r="2" fill="#fff" opacity="0.63"/><circle cx="290" cy="103" r="2.5" fill="#fff" opacity="0.46"/><circle cx="292" cy="177" r="1.5" fill="#fff" opacity="0.58"/><circle cx="1060" cy="249" r="2" fill="#fff" opacity="0.72"/><circle cx="1028" cy="86" r="2.5" fill="#fff" opacity="0.89"/><circle cx="686" cy="250" r="2.5" fill="#fff" opacity="0.79"/><circle cx="1149" cy="217" r="2" fill="#fff" opacity="0.71"/><circle cx="78" cy="4" r="2.5" fill="#fff" opacity="0.64"/><circle cx="291" cy="166" r="2.5" fill="#fff" opacity="0.43"/><circle cx="265" cy="261" r="2" fill="#fff" opacity="0.48"/><circle cx="469" cy="76" r="2" fill="#fff" opacity="0.61"/><circle cx="442" cy="239" r="2" fill="#fff" opacity="0.49"/><circle cx="844" cy="196" r="1.5" fill="#fff" opacity="0.86"/><circle cx="757" cy="3" r="1.5" fill="#fff" opacity="0.75"/><circle cx="371" cy="40" r="1.5" fill="#fff" opacity="0.85"/><circle cx="948" cy="124" r="40" fill="#f8fafc" opacity=".9"/><rect x="-20" y="244" width="90" height="186" fill="#0f172a" opacity="0.65"/><rect x="12" y="260" width="10" height="12" fill="#fde68a" opacity=".8"/><rect x="34" y="260" width="10" height="12" fill="#fde68a" opacity=".8"/><rect x="-10" y="390" width="10" height="12" fill="#fde68a" opacity=".8"/><rect x="34" y="390" width="10" height="12" fill="#fde68a" opacity=".8"/><rect x="-10" y="416" width="10" height="12" fill="#fde68a" opacity=".8"/><rect x="90" y="236" width="82" height="194" fill="#0f172a" opacity="0.65"/><rect x="144" y="252" width="10" height="12" fill="#fde68a" opacity=".8"/><rect x="100" y="278" width="10" height="12" fill="#fde68a" opacity=".8"/><rect x="100" y="304" width="10" height="12" fill="#fde68a" opacity=".8"/><rect x="100" y="330" width="10" height="12" fill="#fde68a" opacity=".8"/><rect x="144" y="330" width="10" height="12" fill="#fde68a" opacity=".8"/><rect x="186" y="287" width="120" height="143" fill="#0f172a" opacity="0.65"/><rect x="284" y="303" width="10" height="12" fill="#fde68a" opacity=".8"/><rect x="284" y="329" width="10" height="12" fill="#fde68a" opacity=".8"/><rect x="196" y="355" width="10" height="12" fill="#fde68a" opacity=".8"/><rect x="218" y="355" width="10" height="12" fill="#fde68a" opacity=".8"/><rect x="240" y="355" width="10" height="12" fill="#fde68a" opacity=".8"/><rect x="262" y="355" width="10" height="12" fill="#fde68a" opacity=".8"/><rect x="284" y="355" width="10" height="12" fill="#fde68a" opacity=".8"/><rect x="196" y="381" width="10" height="12" fill="#fde68a" opacity=".8"/><rect x="218" y="381" width="10" height="12" fill="#fde68a" opacity=".8"/><rect x="284" y="381" width="10" height="12" fill="#fde68a" opacity=".8"/><rect x="218" y="407" width="10" height="12" fill="#fde68a" opacity=".8"/><rect x="262" y="407" width="10" height="12" fill="#fde68a" opacity=".8"/><rect x="284" y="407" width="10" height="12" fill="#fde68a" opacity=".8"/><rect x="313" y="212" width="128" height="218" fill="#0f172a" opacity="0.65"/><rect x="367" y="228" width="10" height="12" fill="#fde68a" opacity=".8"/><rect x="323" y="254" width="10" height="12" fill="#fde68a" opacity=".8"/><rect x="345" y="254" width="10" height="12" fill="#fde68a" opacity=".8"/><rect x="389" y="254" width="10" height="12" fill="#fde68a" opacity=".8"/><rect x="411" y="254" width="10" height="12" fill="#fde68a" opacity=".8"/><rect x="389" y="280" width="10" height="12" fill="#fde68a" opacity=".8"/><rect x="345" y="332" width="10" height="12" fill="#fde68a" opacity=".8"/><rect x="367" y="332" width="10" height="12" fill="#fde68a" opacity=".8"/><rect x="411" y="332" width="10" height="12" fill="#fde68a" opacity=".8"/><rect x="367" y="358" width="10" height="12" fill="#fde68a" opacity=".8"/><rect x="389" y="358" width="10" height="12" fill="#fde68a" opacity=".8"/><rect x="323" y="384" width="10" height="12" fill="#fde68a" opacity=".8"/><rect x="345" y="384" width="10" height="12" fill="#fde68a" opacity=".8"/><rect x="411" y="384" width="10" height="12" fill="#fde68a" opacity=".8"/><rect x="323" y="410" width="10" height="12" fill="#fde68a" opacity=".8"/><rect x="345" y="410" width="10" height="12" fill="#fde68a" opacity=".8"/><rect x="411" y="410" width="10" height="12" fill="#fde68a" opacity=".8"/><rect x="458" y="289" width="131" height="141" fill="#0f172a" opacity="0.65"/><rect x="468" y="305" width="10" height="12" fill="#fde68a" opacity=".8"/><rect x="468" y="331" width="10" height="12" fill="#fde68a" opacity=".8"/><rect x="490" y="331" width="10" height="12" fill="#fde68a" opacity=".8"/><rect x="534" y="331" width="10" height="12" fill="#fde68a" opacity=".8"/><rect x="556" y="331" width="10" height="12" fill="#fde68a" opacity=".8"/><rect x="490" y="357" width="10" height="12" fill="#fde68a" opacity=".8"/><rect x="512" y="357" width="10" height="12" fill="#fde68a" opacity=".8"/><rect x="534" y="357" width="10" height="12" fill="#fde68a" opacity=".8"/><rect x="468" y="409" width="10" height="12" fill="#fde68a" opacity=".8"/><rect x="534" y="409" width="10" height="12" fill="#fde68a" opacity=".8"/><rect x="594" y="267" width="96" height="163" fill="#0f172a" opacity="0.65"/><rect x="648" y="283" width="10" height="12" fill="#fde68a" opacity=".8"/><rect x="648" y="309" width="10" height="12" fill="#fde68a" opacity=".8"/><rect x="604" y="335" width="10" height="12" fill="#fde68a" opacity=".8"/><rect x="648" y="335" width="10" height="12" fill="#fde68a" opacity=".8"/><rect x="626" y="361" width="10" height="12" fill="#fde68a" opacity=".8"/><rect x="670" y="361" width="10" height="12" fill="#fde68a" opacity=".8"/><rect x="604" y="387" width="10" height="12" fill="#fde68a" opacity=".8"/><rect x="626" y="387" width="10" height="12" fill="#fde68a" opacity=".8"/><rect x="648" y="387" width="10" height="12" fill="#fde68a" opacity=".8"/><rect x="694" y="220" width="100" height="210" fill="#0f172a" opacity="0.65"/><rect x="704" y="236" width="10" height="12" fill="#fde68a" opacity=".8"/><rect x="748" y="236" width="10" height="12" fill="#fde68a" opacity=".8"/><rect x="770" y="236" width="10" height="12" fill="#fde68a" opacity=".8"/><rect x="726" y="262" width="10" height="12" fill="#fde68a" opacity=".8"/><rect x="748" y="262" width="10" height="12" fill="#fde68a" opacity=".8"/><rect x="748" y="288" width="10" height="12" fill="#fde68a" opacity=".8"/><rect x="770" y="288" width="10" height="12" fill="#fde68a" opacity=".8"/><rect x="726" y="314" width="10" height="12" fill="#fde68a" opacity=".8"/><rect x="748" y="314" width="10" height="12" fill="#fde68a" opacity=".8"/><rect x="770" y="314" width="10" height="12" fill="#fde68a" opacity=".8"/><rect x="726" y="340" width="10" height="12" fill="#fde68a" opacity=".8"/><rect x="770" y="340" width="10" height="12" fill="#fde68a" opacity=".8"/><rect x="704" y="366" width="10" height="12" fill="#fde68a" opacity=".8"/><rect x="748" y="366" width="10" height="12" fill="#fde68a" opacity=".8"/><rect x="770" y="366" width="10" height="12" fill="#fde68a" opacity=".8"/><rect x="704" y="392" width="10" height="12" fill="#fde68a" opacity=".8"/><rect x="726" y="392" width="10" height="12" fill="#fde68a" opacity=".8"/><rect x="748" y="392" width="10" height="12" fill="#fde68a" opacity=".8"/><rect x="770" y="392" width="10" height="12" fill="#fde68a" opacity=".8"/><rect x="806" y="235" width="83" height="195" fill="#0f172a" opacity="0.65"/><rect x="860" y="251" width="10" height="12" fill="#fde68a" opacity=".8"/><rect x="816" y="277" width="10" height="12" fill="#fde68a" opacity=".8"/><rect x="838" y="277" width="10" height="12" fill="#fde68a" opacity=".8"/><rect x="816" y="329" width="10" height="12" fill="#fde68a" opacity=".8"/><rect x="860" y="329" width="10" height="12" fill="#fde68a" opacity=".8"/><rect x="838" y="355" width="10" height="12" fill="#fde68a" opacity=".8"/><rect x="860" y="355" width="10" height="12" fill="#fde68a" opacity=".8"/><rect x="838" y="381" width="10" height="12" fill="#fde68a" opacity=".8"/><rect x="860" y="381" width="10" height="12" fill="#fde68a" opacity=".8"/><rect x="860" y="407" width="10" height="12" fill="#fde68a" opacity=".8"/><rect x="907" y="240" width="85" height="190" fill="#0f172a" opacity="0.65"/><rect x="917" y="256" width="10" height="12" fill="#fde68a" opacity=".8"/><rect x="939" y="256" width="10" height="12" fill="#fde68a" opacity=".8"/><rect x="939" y="308" width="10" height="12" fill="#fde68a" opacity=".8"/><rect x="939" y="412" width="10" height="12" fill="#fde68a" opacity=".8"/><rect x="961" y="412" width="10" height="12" fill="#fde68a" opacity=".8"/><rect x="1000" y="309" width="99" height="121" fill="#0f172a" opacity="0.65"/><rect x="1032" y="325" width="10" height="12" fill="#fde68a" opacity=".8"/><rect x="1010" y="351" width="10" height="12" fill="#fde68a" opacity=".8"/><rect x="1032" y="377" width="10" height="12" fill="#fde68a" opacity=".8"/><rect x="1054" y="377" width="10" height="12" fill="#fde68a" opacity=".8"/><rect x="1054" y="403" width="10" height="12" fill="#fde68a" opacity=".8"/><rect x="1116" y="263" width="70" height="167" fill="#0f172a" opacity="0.65"/><rect x="1170" y="279" width="10" height="12" fill="#fde68a" opacity=".8"/><rect x="1148" y="331" width="10" height="12" fill="#fde68a" opacity=".8"/><rect x="1126" y="409" width="10" height="12" fill="#fde68a" opacity=".8"/><rect y="430" width="1200" height="320" fill="#1e2533"/><rect x="60" y="170" width="1080" height="44" fill="#475569"/><rect x="40" y="150" width="1120" height="26" rx="6" fill="#94a3b8"/><rect x="60" y="214" width="1080" height="460" fill="#0f172a" opacity=".55"/><rect x="90" y="214" width="34" height="460" fill="#94a3b8" opacity=".9"/><ellipse cx="270" cy="232" rx="44" ry="8" fill="#fef9c3"/><path d="M226,236 L170,560 L370,560 L314,236 Z" fill="#fef9c3" opacity=".08"/><rect x="430" y="214" width="34" height="460" fill="#94a3b8" opacity=".9"/><ellipse cx="610" cy="232" rx="44" ry="8" fill="#fef9c3"/><path d="M566,236 L510,560 L710,560 L654,236 Z" fill="#fef9c3" opacity=".08"/><rect x="770" y="214" width="34" height="460" fill="#94a3b8" opacity=".9"/><ellipse cx="950" cy="232" rx="44" ry="8" fill="#fef9c3"/><path d="M906,236 L850,560 L1050,560 L994,236 Z" fill="#fef9c3" opacity=".08"/><rect x="1110" y="214" width="34" height="460" fill="#94a3b8" opacity=".9"/><ellipse cx="1290" cy="232" rx="44" ry="8" fill="#fef9c3"/><path d="M1246,236 L1190,560 L1390,560 L1334,236 Z" fill="#fef9c3" opacity=".08"/><g transform="translate(1090,640) scale(-1,1)"><ellipse cx="130.0" cy="4" rx="135.20000000000002" ry="9.36" fill="#000" opacity=".35"/><path d="M5.2,-16.848 Q0,-51.480000000000004 31.2,-56.16 L67.60000000000001,-59.903999999999996 L93.6,-91.728 Q104.0,-97.344 124.8,-97.344 L171.6,-97.344 Q187.2,-95.472 197.6,-87.984 L223.6,-61.775999999999996 L249.6,-56.16 Q262.6,-51.480000000000004 260,-16.848 Z" fill="#0ea5e9"/><path d="M78.0,-61.775999999999996 L101.4,-87.048 L143.0,-87.048 L143.0,-61.775999999999996 Z" fill="#bfdbfe" opacity=".75"/><path d="M150.79999999999998,-61.775999999999996 L150.79999999999998,-87.048 L182.0,-87.048 L208.0,-61.775999999999996 Z" fill="#bfdbfe" opacity=".75"/><rect x="15.6" y="-39.312" width="228.8" height="4.68" fill="#000" opacity=".15"/><rect x="247.0" y="-46.8" width="13.0" height="9.36" rx="3" fill="#fef08a"/><rect x="0" y="-46.8" width="9.100000000000001" height="9.36" rx="3" fill="#ef4444"/><circle cx="57.2" cy="-14.975999999999999" r="18.72" fill="#0b0f17"/><circle cx="57.2" cy="-14.975999999999999" r="8.424" fill="#9ca3af"/><circle cx="202.8" cy="-14.975999999999999" r="18.72" fill="#0b0f17"/><circle cx="202.8" cy="-14.975999999999999" r="8.424" fill="#9ca3af"/></g><rect y="674" width="1200" height="76" fill="#1e2533"/><rect x="20" y="700" width="70" height="8" fill="#f8fafc" opacity=".5"/><rect x="160" y="700" width="70" height="8" fill="#f8fafc" opacity=".5"/><rect x="300" y="700" width="70" height="8" fill="#f8fafc" opacity=".5"/><rect x="440" y="700" width="70" height="8" fill="#f8fafc" opacity=".5"/><rect x="580" y="700" width="70" height="8" fill="#f8fafc" opacity=".5"/><rect x="720" y="700" width="70" height="8" fill="#f8fafc" opacity=".5"/><rect x="860" y="700" width="70" height="8" fill="#f8fafc" opacity=".5"/><rect x="1000" y="700" width="70" height="8" fill="#f8fafc" opacity=".5"/><rect x="1140" y="700" width="70" height="8" fill="#f8fafc" opacity=".5"/><g transform="translate(1110,520) scale(0.8)"><rect x="-4" y="0" width="8" height="150" fill="#64748b"/><rect x="-42" y="-80" width="84" height="84" rx="14" fill="#14b88a" stroke="#fff" stroke-width="5"/><text x="0" y="-18" text-anchor="middle" font-family="Arial, sans-serif" font-weight="900" font-size="62" fill="#fff">P</text></g></svg>