<svg xmlns="http://www.w3.org/2000/svg" viewBox="0 0 1200 750" preserveAspectRatio="xMidYMid slice" role="img" aria-label="Illustration of lot parking"><rect width="1200" height="750" fill="#3f4a5c"/><circle cx="520" cy="616" r="2" fill="#fff" opacity=".04"/><circle cx="324" cy="108" r="1" fill="#fff" opacity=".04"/><circle cx="501" cy="378" r="2" fill="#fff" opacity=".04"/><circle cx="953" cy="491" r="1" fill="#fff" opacity=".04"/><circle cx="99" cy="712" r="1" fill="#fff" opacity=".04"/><circle cx="842" cy="135" r="1" fill="#fff" opacity=".04"/><circle cx="204" cy="596" r="1" fill="#fff" opacity=".04"/><circle cx="314" cy="630" r="2" fill="#fff" opacity=".04"/><circle cx="963" cy="379" r="1" fill="#fff" opacity=".04"/><circle cx="352" cy="301" r="2" fill="#fff" opacity=".04"/><circle cx="897" cy="344" r="1" fill="#fff" opacity=".04"/><circle cx="563" cy="596" r="3" fill="#fff" opacity=".04"/><circle cx="474" cy="596" r="1" fill="#fff" opacity=".04"/><circle cx="1190" cy="206" r="2" fill="#fff" opacity=".04"/><circle cx="1105" cy="358" r="3" fill="#fff" opacity=".04"/><circle cx="564" cy="239" r="3" fill="#fff" opacity=".04"/><circle cx="204" cy="695" r="3" fill="#fff" opacity=".04"/><circle cx="1111" cy="604" r="2" fill="#fff" opacity=".04"/><circle cx="159" cy="228" r="1" fill="#fff" opacity=".04"/><circle cx="220" cy="223" r="3" fill="#fff" opacity=".04"/><circle cx="320" cy="446" r="3" fill="#fff" opacity=".04"/><circle cx="387" cy="176" r="1" fill="#fff" opacity=".04"/><circle cx="441" cy="114" r="1" fill="#fff" opacity=".04"/><circle cx="233" cy="141" r="2" fill="#fff" opacity=".04"/><circle cx="221" cy="318" r="2" fill="#fff" opacity=".04"/><circle cx="438" cy="373" r="1" fill="#fff" opacity=".04"/><circle cx="537" cy="429" r="1" fill="#fff" opacity=".04"/><circle cx="526" cy="606" r="2" fill="#fff" opacity=".04"/><circle cx="893" cy="39" r="1" fill="#fff" opacity=".04"/><circle cx="343" cy="428" r="3" fill="#fff" opacity=".04"/><circle cx="1194" cy="138" r="2" fill="#fff" opacity=".04"/><circle cx="326" cy="220" r="3" fill="#fff" opacity=".04"/><circle cx="373" cy="303" r="3" fill="#fff" opacity=".04"/><circle cx="688" cy="278" r="1" fill="#fff" opacity=".04"/><circle cx="405" cy="64" r="2" fill="#fff" opacity=".04"/><circle cx="936" cy="118" r="2" fill="#fff" opacity=".04"/><circle cx="16" cy="372" r="3" fill="#fff" opacity=".04"/><circle cx="533" cy="411" r="1" fill="#fff" opacity=".04"/><circle cx="807" cy="253" r="2" fill="#fff" opacity=".04"/><circle cx="197" cy="51" r="3" fill="#fff" opacity=".04"/><circle cx="551" cy="32" r="3" fill="#fff" opacity=".04"/><circle cx="792" cy="389" r="3" fill="#fff" opacity=".04"/><circle cx="1009" cy="156" r="1" fill="#fff" opacity=".04"/><circle cx="572" cy="629" r="3" fill="#fff" opacity=".04"/><circle cx="624" cy="46" r="3" fill="#fff" opacity=".04"/><circle cx="128" cy="726" r="1" fill="#fff" opacity=".04"/><circle cx="203" cy="46" r="3" fill="#fff" opacity=".04"/><circle cx="8" cy="671" r="3" fill="#fff" opacity=".04"/><circle cx="190" cy="164" r="3" fill="#fff" opacity=".04"/><circle cx="57" cy="680" r="3" fill="#fff" opacity=".04"/><circle cx="501" cy="391" r="2" fill="#fff" opacity=".04"/><circle cx="35" cy="130" r="3" fill="#fff" opacity=".04"/><circle cx="925" cy="551" r="2" fill="#fff" opacity=".04"/><circle cx="902" cy="150" r="2" fill="#fff" opacity=".04"/><circle cx="1014" cy="280" r="1" fill="#fff" opacity=".04"/><circle cx="37" cy="517" r="3" fill="#fff" opacity=".04"/><circle cx="827" cy="449" r="2" fill="#fff" opacity=".04"/><circle cx="478" cy="145" r="1" fill="#fff" opacity=".04"/><circle cx="543" cy="361" r="3" fill="#fff" opacity=".04"/><circle cx="623" cy="517" r="1" fill="#fff" opacity=".04"/><circle cx="185" cy="458" r="3" fill="#fff" opacity=".04"/><circle cx="18" cy="604" r="3" fill="#fff" opacity=".04"/><circle cx="146" cy="205" r="2" fill="#fff" opacity=".04"/><circle cx="677" cy="686" r="1" fill="#fff" opacity=".04"/><circle cx="219" cy="274" r="1" fill="#fff" opacity=".04"/><circle cx="767" cy="5" r="1" fill="#fff" opacity=".04"/><circle cx="261" cy="440" r="1" fill="#fff" opacity=".04"/><circle cx="647" cy="699" r="1" fill="#fff" opacity=".04"/><circle cx="130" cy="161" r="2" fill="#fff" opacity=".04"/><circle cx="48" cy="234" r="2" fill="#fff" opacity=".04"/><circle cx="154" cy="543" r="1" fill="#fff" opacity=".04"/><circle cx="35" cy="599" r="3" fill="#fff" opacity=".04"/><circle cx="1200" cy="291" r="1" fill="#fff" opacity=".04"/><circle cx="660" cy="188" r="1" fill="#fff" opacity=".04"/><circle cx="943" cy="120" r="2" fill="#fff" opacity=".04"/><circle cx="151" cy="150" r="1" fill="#fff" opacity=".04"/><circle cx="118" cy="292" r="3" fill="#fff" opacity=".04"/><circle cx="82" cy="177" r="3" fill="#fff" opacity=".04"/><circle cx="200" cy="347" r="2" fill="#fff" opacity=".04"/><circle cx="310" cy="238" r="1" fill="#fff" opacity=".04"/><circle cx="486" cy="206" r="3" fill="#fff" opacity=".04"/><circle cx="368" cy="272" r="2" fill="#fff" opacity=".04"/><circle cx="733" cy="100" r="2" fill="#fff" opacity=".04"/><circle cx="834" cy="335" r="1" fill="#fff" opacity=".04"/><circle cx="949" cy="391" r="2" fill="#fff" opacity=".04"/><circle cx="574" cy="731" r="1" fill="#fff" opacity=".04"/><circle cx="186" cy="367" r="3" fill="#fff" opacity=".04"/><circle cx="1128" cy="303" r="2" fill="#fff" opacity=".04"/><circle cx="550" cy="613" r="3" fill="#fff" opacity=".04"/><circle cx="126" cy="173" r="1" fill="#fff" opacity=".04"/><circle cx="50" cy="348" r="1" fill="#fff" opacity=".04"/><circle cx="1073" cy="152" r="2" fill="#fff" opacity=".04"/><circle cx="464" cy="740" r="2" fill="#fff" opacity=".04"/><circle cx="884" cy="558" r="3" fill="#fff" opacity=".04"/><circle cx="375" cy="520" r="2" fill="#fff" opacity=".04"/><circle cx="912" cy="139" r="1" fill="#fff" opacity=".04"/><circle cx="1183" cy="262" r="3" fill="#fff" opacity=".04"/><circle cx="435" cy="560" r="3" fill="#fff" opacity=".04"/><circle cx="1046" cy="447" r="3" fill="#fff" opacity=".04"/><circle cx="862" cy="18" r="1" fill="#fff" opacity=".04"/><circle cx="564" cy="213" r="2" fill="#fff" opacity=".04"/><circle cx="851" cy="138" r="1" fill="#fff" opacity=".04"/><circle cx="591" cy="271" r="3" fill="#fff" opacity=".04"/><circle cx="659" cy="98" r="2" fill="#fff" opacity=".04"/><circle cx="1026" cy="355" r="2" fill="#fff" opacity=".04"/><circle cx="371" cy="260" r="2" fill="#fff" opacity=".04"/><circle cx="324" cy="120" r="3" fill="#fff" opacity=".04"/><circle cx="1154" cy="155" r="2" fill="#fff" opacity=".04"/><circle cx="1185" cy="106" r="2" fill="#fff" opacity=".04"/><circle cx="250" cy="537" r="3" fill="#fff" opacity=".04"/><circle cx="684" cy="640" r="1" fill="#fff" opacity=".04"/><circle cx="341" cy="301" r="2" fill="#fff" opacity=".04"/><circle cx="1029" cy="556" r="2" fill="#fff" opacity=".04"/><circle cx="231" cy="87" r="2" fill="#fff" opacity=".04"/><circle cx="537" cy="433" r="1" fill="#fff" opacity=".04"/><circle cx="334" cy="221" r="3" fill="#fff" opacity=".04"/><circle cx="638" cy="686" r="3" fill="#fff" opacity=".04"/><circle cx="712" cy="546" r="2" fill="#fff" opacity=".04"/><circle cx="976" cy="392" r="3" fill="#fff" opacity=".04"/><circle cx="370" cy="494" r="3" fill="#fff" opacity=".04"/><circle cx="357" cy="704" r="3" fill="#fff" opacity=".04"/><circle cx="1166" cy="157" r="2" fill="#fff" opacity=".04"/><circle cx="152" cy="622" r="1" fill="#fff" opacity=".04"/><circle cx="849" cy="501" r="3" fill="#fff" opacity=".04"/><circle cx="316" cy="675" r="1" fill="#fff" opacity=".04"/><circle cx="596" cy="433" r="2" fill="#fff" opacity=".04"/><circle cx="243" cy="711" r="1" fill="#fff" opacity=".04"/><circle cx="142" cy="67" r="3" fill="#fff" opacity=".04"/><circle cx="76" cy="745" r="1" fill="#fff" opacity=".04"/><circle cx="539" cy="543" r="1" fill="#fff" opacity=".04"/><circle cx="882" cy="292" r="2" fill="#fff" opacity=".04"/><circle cx="978" cy="532" r="3" fill="#fff" opacity=".04"/><circle cx="196" cy="74" r="3" fill="#fff" opacity=".04"/><circle cx="923" cy="485" r="3" fill="#fff" opacity=".04"/><circle cx="1063" cy="633" r="3" fill="#fff" opacity=".04"/><circle cx="708" cy="416" r="2" fill="#fff" opacity=".04"/><circle cx="798" cy="674" r="3" fill="#fff" opacity=".04"/><circle cx="700" cy="663" r="2" fill="#fff" opacity=".04"/><circle cx="462" cy="376" r="2" fill="#fff" opacity=".04"/><circle cx="52" cy="57" r="3" fill="#fff" opacity=".04"/><circle cx="1141" cy="257" r="1" fill="#fff" opacity=".04"/><circle cx="277" cy="608" r="2" fill="#fff" opacity=".04"/><circle cx="705" cy="677" r="1" fill="#fff" opacity=".04"/><circle cx="823" cy="517" r="1" fill="#fff" opacity=".04"/><circle cx="984" cy="488" r="3" fill="#fff" opacity=".04"/><circle cx="512" cy="519" r="1" fill="#fff" opacity=".04"/><circle cx="511" cy="658" r="3" fill="#fff" opacity=".04"/><circle cx="207" cy="666" r="2" fill="#fff" opacity=".04"/><circle cx="1062" cy="260" r="2" fill="#fff" opacity=".04"/><circle cx="87" cy="530" r="3" fill="#fff" opacity=".04"/><circle cx="564" cy="594" r="2" fill="#fff" opacity=".04"/><circle cx="321" cy="368" r="3" fill="#fff" opacity=".04"/><circle cx="378" cy="640" r="3" fill="#fff" opacity=".04"/><circle cx="879" cy="228" r="2" fill="#fff" opacity=".04"/><circle cx="1157" cy="459" r="3" fill="#fff" opacity=".04"/><circle cx="758" cy="729" r="1" fill="#fff" opacity=".04"/><circle cx="773" cy="712" r="3" fill="#fff" opacity=".04"/><circle cx="643" cy="311" r="2" fill="#fff" opacity=".04"/><circle cx="123" cy="355" r="1" fill="#fff" opacity=".04"/><circle cx="356" cy="39" r="2" fill="#fff" opacity=".04"/><circle cx="1165" cy="337" r="3" fill="#fff" opacity=".04"/><circle cx="73" cy="498" r="2" fill="#fff" opacity=".04"/><circle cx="685" cy="74" r="2" fill="#fff" opacity=".04"/><circle cx="777" cy="165" r="3" fill="#fff" opacity=".04"/><circle cx="425" cy="303" r="1" fill="#fff" opacity=".04"/><circle cx="46" cy="391" r="3" fill="#fff" opacity=".04"/><circle cx="28" cy="60" r="3" fill="#fff" opacity=".04"/><circle cx="147" cy="744" r="3" fill="#fff" opacity=".04"/><circle cx="618" cy="526" r="3" fill="#fff" opacity=".04"/><circle cx="735" cy="477" r="1" fill="#fff" opacity=".04"/><circle cx="426" cy="436" r="2" fill="#fff" opacity=".04"/><circle cx="482" cy="537" r="3" fill="#fff" opacity=".04"/><circle cx="274" cy="472" r="2" fill="#fff" opacity=".04"/><circle cx="9" cy="738" r="3" fill="#fff" opacity=".04"/><circle cx="448" cy="45" r="2" fill="#fff" opacity=".04"/><circle cx="821" cy="651" r="2" fill="#fff" opacity=".04"/><circle cx="779" cy="508" r="1" fill="#fff" opacity=".04"/><circle cx="566" cy="408" r="1" fill="#fff" opacity=".04"/><circle cx="219" cy="661" r="3" fill="#fff" opacity=".04"/><circle cx="462" cy="343" r="3" fill="#fff" opacity=".04"/><circle cx="809" cy="550" r="1" fill="#fff" opacity=".04"/><circle cx="906" cy="608" r="2" fill="#fff" opacity=".04"/><circle cx="467" cy="707" r="2" fill="#fff" opacity=".04"/><circle cx="1087" cy="300" r="3" fill="#fff" opacity=".04"/><circle cx="686" cy="370" r="1" fill="#fff" opacity=".04"/><circle cx="249" cy="398" r="3" fill="#fff" opacity=".04"/><circle cx="281" cy="541" r="1" fill="#fff" opacity=".04"/><circle cx="617" cy="646" r="1" fill="#fff" opacity=".04"/><circle cx="761" cy="76" r="3" fill="#fff" opacity=".04"/><circle cx="992" cy="592" r="1" fill="#fff" opacity=".04"/><circle cx="1166" cy="483" r="1" fill="#fff" opacity=".04"/><circle cx="470" cy="199" r="3" fill="#fff" opacity=".04"/><circle cx="1070" cy="428" r="2" fill="#fff" opacity=".04"/><circle cx="832" cy="492" r="1" fill="#fff" opacity=".04"/><circle cx="165" cy="417" r="3" fill="#fff" opacity=".04"/><circle cx="1112" cy="191" r="3" fill="#fff" opacity=".04"/><circle cx="1037" cy="468" r="1" fill="#fff" opacity=".04"/><circle cx="987" cy="193" r="1" fill="#fff" opacity=".04"/><circle cx="652" cy="160" r="2" fill="#fff" opacity=".04"/><circle cx="586" cy="382" r="1" fill="#fff" opacity=".04"/><circle cx="1156" cy="23" r="1" fill="#fff" opacity=".04"/><circle cx="378" cy="292" r="2" fill="#fff" opacity=".04"/><circle cx="609" cy="456" r="2" fill="#fff" opacity=".04"/><circle cx="405" cy="226" r="1" fill="#fff" opacity=".04"/><circle cx="512" cy="355" r="1" fill="#fff" opacity=".04"/><circle cx="692" cy="233" r="2" fill="#fff" opacity=".04"/><circle cx="266" cy="516" r="1" fill="#fff" opacity=".04"/><circle cx="37" cy="448" r="3" fill="#fff" opacity=".04"/><circle cx="579" cy="138" r="3" fill="#fff" opacity=".04"/><circle cx="482" cy="570" r="2" fill="#fff" opacity=".04"/><circle cx="210" cy="440" r="3" fill="#fff" opacity=".04"/><circle cx="661" cy="484" r="3" fill="#fff" opacity=".04"/><circle cx="127" cy="722" r="3" fill="#fff" opacity=".04"/><circle cx="108" cy="16" r="1" fill="#fff" opacity=".04"/><circle cx="46" cy="389" r="1" fill="#fff" opacity=".04"/><circle cx="887" cy="208" r="3" fill="#fff" opacity=".04"/><circle cx="831" cy="537" r="3" fill="#fff" opacity=".04"/><circle cx="499" cy="218" r="3" fill="#fff" opacity=".04"/><circle cx="580" cy="681" r="3" fill="#fff" opacity=".04"/><circle cx="15" cy="261" r="1" fill="#fff" opacity=".04"/><circle cx="851" cy="83" r="1" fill="#fff" opacity=".04"/><circle cx="965" cy="169" r="1" fill="#fff" opacity=".04"/><circle cx="838" cy="630" r="3" fill="#fff" opacity=".04"/><circle cx="533" cy="314" r="2" fill="#fff" opacity=".04"/><circle cx="854" cy="322" r="2" fill="#fff" opacity=".04"/><circle cx="1086" cy="216" r="1" fill="#fff" opacity=".04"/><circle cx="782" cy="705" r="1" fill="#fff" opacity=".04"/><circle cx="1113" cy="302" r="2" fill="#fff" opacity=".04"/><circle cx="183" cy="200" r="1" fill="#fff" opacity=".04"/><circle cx="155" cy="383" r="3" fill="#fff" opacity=".04"/><circle cx="350" cy="277" r="1" fill="#fff" opacity=".04"/><circle cx="575" cy="385" r="1" fill="#fff" opacity=".04"/><circle cx="301" cy="224" r="2" fill="#fff" opacity=".04"/><circle cx="1015" cy="275" r="1" fill="#fff" opacity=".04"/><circle cx="1104" cy="505" r="1" fill="#fff" opacity=".04"/><circle cx="943" cy="296" r="2" fill="#fff" opacity=".04"/><circle cx="328" cy="590" r="2" fill="#fff" opacity=".04"/><circle cx="293" cy="50" r="2" fill="#fff" opacity=".04"/><circle cx="485" cy="447" r="1" fill="#fff" opacity=".04"/><circle cx="1040" cy="695" r="1" fill="#fff" opacity=".04"/><circle cx="60" cy="391" r="3" fill="#fff" opacity=".04"/><circle cx="868" cy="726" r="1" fill="#fff" opacity=".04"/><circle cx="326" cy="644" r="3" fill="#fff" opacity=".04"/><circle cx="923" cy="441" r="3" fill="#fff" opacity=".04"/><circle cx="323" cy="702" r="2" fill="#fff" opacity=".04"/><circle cx="824" cy="590" r="2" fill="#fff" opacity=".04"/><circle cx="1163" cy="7" r="1" fill="#fff" opacity=".04"/><circle cx="877" cy="639" r="3" fill="#fff" opacity=".04"/><circle cx="908" cy="748" r="3" fill="#fff" opacity=".04"/><circle cx="650" cy="77" r="1" fill="#fff" opacity=".04"/><circle cx="646" cy="230" r="1" fill="#fff" opacity=".04"/><circle cx="708" cy="508" r="2" fill="#fff" opacity=".04"/><circle cx="801" cy="366" r="3" fill="#fff" opacity=".04"/><circle cx="697" cy="50" r="2" fill="#fff" opacity=".04"/><circle cx="668" cy="269" r="2" fill="#fff" opacity=".04"/><circle cx="210" cy="373" r="3" fill="#fff" opacity=".04"/><circle cx="867" cy="237" r="1" fill="#fff" opacity=".04"/><circle cx="703" cy="20" r="1" fill="#fff" opacity=".04"/><circle cx="381" cy="300" r="1" fill="#fff" opacity=".04"/><circle cx="441" cy="745" r="3" fill="#fff" opacity=".04"/><rect x="-30" y="40" width="6" height="230" fill="#f8fafc" opacity=".85"/><rect x="120" y="40" width="6" height="230" fill="#f8fafc" opacity=".85"/><g transform="translate(198.0,155.0) rotate(180)"><rect x="-44.0" y="-89.0" width="96" height="190" rx="28.799999999999997" fill="#000" opacity=".35"/><rect x="-48.0" y="-95.0" width="96" height="190" rx="28.799999999999997" fill="#22c55e"/><rect x="-36.480000000000004" y="-49.4" width="72.96000000000001" height="38.0" rx="9.600000000000001" fill="#1e293b" opacity=".85"/><rect x="-34.56" y="30.400000000000002" width="69.12" height="26.6" rx="7.68" fill="#1e293b" opacity=".8"/><rect x="-34.56" y="-9.5" width="69.12" height="38.0" rx="7.68" fill="#fff" opacity=".12"/><rect x="-40.32" y="-93.0" width="19.200000000000003" height="7.6000000000000005" rx="2" fill="#fef08a"/><rect x="21.12" y="-93.0" width="19.200000000000003" height="7.6000000000000005" rx="2" fill="#fef08a"/></g><rect x="270" y="40" width="6" height="230" fill="#f8fafc" opacity=".85"/><g transform="translate(348.0,155.0) rotate(180)"><rect x="-44.0" y="-89.0" width="96" height="190" rx="28.799999999999997" fill="#000" opacity=".35"/><rect x="-48.0" y="-95.0" width="96" height="190" rx="28.799999999999997" fill="#94a3b8"/><rect x="-36.480000000000004" y="-49.4" width="72.96000000000001" height="38.0" rx="9.600000000000001" fill="#1e293b" opacity=".85"/><rect x="-34.56" y="30.400000000000002" width="69.12" height="26.6" rx="7.68" fill="#1e293b" opacity=".8"/><rect x="-34.56" y="-9.5" width="69.12" height="38.0" rx="7.68" fill="#fff" opacity=".12"/><rect x="-40.32" y="-93.0" width="19.200000000000003" height="7.6000000000000005" rx="2" fill="#fef08a"/><rect x="21.12" y="-93.0" width="19.200000000000003" height="7.6000000000000005" rx="2" fill="#fef08a"/></g><rect x="420" y="40" width="6" height="230" fill="#f8fafc" opacity=".85"/><g transform="translate(498.0,155.0) rotate(180)"><rect x="-44.0" y="-89.0" width="96" height="190" rx="28.799999999999997" fill="#000" opacity=".35"/><rect x="-48.0" y="-95.0" width="96" height="190" rx="28.799999999999997" fill="#22c55e"/><rect x="-36.480000000000004" y="-49.4" width="72.96000000000001" height="38.0" rx="9.600000000000001" fill="#1e293b" opacity=".85"/><rect x="-34.56" y="30.400000000000002" width="69.12" height="26.6" rx="7.68" fill="#1e293b" opacity=".8"/><rect x="-34.56" y="-9.5" width="69.12" height="38.0" rx="7.68" fill="#fff" opacity=".12"/><rect x="-40.32" y="-93.0" width="19.200000000000003" height="7.6000000000000005" rx="2" fill="#fef08a"/><rect x="21.12" y="-93.0" width="19.200000000000003" height="7.6000000000000005" rx="2" fill="#fef08a"/></g><rect x="570" y="40" width="6" height="230" fill="#f8fafc" opacity=".85"/><rect x="720" y="40" width="6" height="230" fill="#f8fafc" opacity=".85"/><g transform="translate(798.0,155.0) rotate(180)"><rect x="-44.0" y="-89.0" width="96" height="190" rx="28.799999999999997" fill="#000" opacity=".35"/><rect x="-48.0" y="-95.0" width="96" height="190" rx="28.799999999999997" fill="#f97316"/><rect x="-36.480000000000004" y="-49.4" width="72.96000000000001" height="38.0" rx="9.600000000000001" fill="#1e293b" opacity=".85"/><rect x="-34.56" y="30.400000000000002" width="69.12" height="26.6" rx="7.68" fill="#1e293b" opacity=".8"/><rect x="-34.56" y="-9.5" width="69.12" height="38.0" rx="7.68" fill="#fff" opacity=".12"/><rect x="-40.32" y="-93.0" width="19.200000000000003" height="7.6000000000000005" rx="2" fill="#fef08a"/><rect x="21.12" y="-93.0" width="19.200000000000003" height="7.6000000000000005" rx="2" fill="#fef08a"/></g><rect x="870" y="40" width="6" height="230" fill="#f8fafc" opacity=".85"/><g transform="translate(948.0,155.0) rotate(180)"><rect x="-44.0" y="-89.0" width="96" height="190" rx="28.799999999999997" fill="#000" opacity=".35"/><rect x="-48.0" y="-95.0" width="96" height="190" rx="28.799999999999997" fill="#22c55e"/><rect x="-36.480000000000004" y="-49.4" width="72.96000000000001" height="38.0" rx="9.600000000000001" fill="#1e293b" opacity=".85"/><rect x="-34.56" y="30.400000000000002" width="69.12" height="26.6" rx="7.68" fill="#1e293b" opacity=".8"/><rect x="-34.56" y="-9.5" width="69.12" height="38.0" rx="7.68" fill="#fff" opacity=".12"/><rect x="-40.32" y="-93.0" width="19.200000000000003" height="7.6000000000000005" rx="2" fill="#fef08a"/><rect x="21.12" y="-93.0" width="19.200000000000003" height="7.6000000000000005" rx="2" fill="#fef08a"/></g><rect x="1020" y="40" width="6" height="230" fill="#f8fafc" opacity=".85"/><g transform="translate(1098.0,155.0) rotate(180)"><rect x="-44.0" y="-89.0" width="96" height="190" rx="28.799999999999997" fill="#000" opacity=".35"/><rect x="-48.0" y="-95.0" width="96" height="190" rx="28.799999999999997" fill="#14b8a6"/><rect x="-36.480000000000004" y="-49.4" width="72.96000000000001" height="38.0" rx="9.600000000000001" fill="#1e293b" opacity=".85"/><rect x="-34.56" y="30.400000000000002" width="69.12" height="26.6" rx="7.68" fill="#1e293b" opacity=".8"/><rect x="-34.56" y="-9.5" width="69.12" height="38.0" rx="7.68" fill="#fff" opacity=".12"/><rect x="-40.32" y="-93.0" width="19.200000000000003" height="7.6000000000000005" rx="2" fill="#fef08a"/><rect x="21.12" y="-93.0" width="19.200000000000003" height="7.6000000000000005" rx="2" fill="#fef08a"/></g><rect x="1170" y="40" width="6" height="230" fill="#f8fafc" opacity=".85"/><g transform="translate(1248.0,155.0) rotate(180)"><rect x="-44.0" y="-89.0" width="96" height="190" rx="28.799999999999997" fill="#000" opacity=".35"/><rect x="-48.0" y="-95.0" width="96" height="190" rx="28.799999999999997" fill="#f8fafc"/><rect x="-36.480000000000004" y="-49.4" width="72.96000000000001" height="38.0" rx="9.600000000000001" fill="#1e293b" opacity=".85"/><rect x="-34.56" y="30.400000000000002" width="69.12" height="26.6" rx="7.68" fill="#1e293b" opacity=".8"/><rect x="-34.56" y="-9.5" width="69.12" height="38.0" rx="7.68" fill="#fff" opacity=".12"/><rect x="-40.32" y="-93.0" width="19.200000000000003" height="7.6000000000000005" rx="2" fill="#fef08a"/><rect x="21.12" y="-93.0" width="19.200000000000003" height="7.6000000000000005" rx="2" fill="#fef08a"/></g><rect x="-30" y="267" width="1260" height="6" fill="#f8fafc" opacity=".85"/><rect x="-30" y="480" width="6" height="230" fill="#f8fafc" opacity=".85"/><g transform="translate(48.0,595.0) rotate(0)"><rect x="-44.0" y="-89.0" width="96" height="190" rx="28.799999999999997" fill="#000" opacity=".35"/><rect x="-48.0" y="-95.0" width="96" height="190" rx="28.799999999999997" fill="#a855f7"/><rect x="-36.480000000000004" y="-49.4" width="72.96000000000001" height="38.0" rx="9.600000000000001" fill="#1e293b" opacity=".85"/><rect x="-34.56" y="30.400000000000002" width="69.12" height="26.6" rx="7.68" fill="#1e293b" opacity=".8"/><rect x="-34.56" y="-9.5" width="69.12" height="38.0" rx="7.68" fill="#fff" opacity=".12"/><rect x="-40.32" y="-93.0" width="19.200000000000003" height="7.6000000000000005" rx="2" fill="#fef08a"/><rect x="21.12" y="-93.0" width="19.200000000000003" height="7.6000000000000005" rx="2" fill="#fef08a"/></g><rect x="120" y="480" width="6" height="230" fill="#f8fafc" opacity=".85"/><g transform="translate(198.0,595.0) rotate(0)"><rect x="-44.0" y="-89.0" width="96" height="190" rx="28.799999999999997" fill="#000" opacity=".35"/><rect x="-48.0" y="-95.0" width="96" height="190" rx="28.799999999999997" fill="#1f2937"/><rect x="-36.480000000000004" y="-49.4" width="72.96000000000001" height="38.0" rx="9.600000000000001" fill="#1e293b" opacity=".85"/><rect x="-34.56" y="30.400000000000002" width="69.12" height="26.6" rx="7.68" fill="#1e293b" opacity=".8"/><rect x="-34.56" y="-9.5" width="69.12" height="38.0" rx="7.68" fill="#fff" opacity=".12"/><rect x="-40.32" y="-93.0" width="19.200000000000003" height="7.6000000000000005" rx="2" fill="#fef08a"/><rect x="21.12" y="-93.0" width="19.200000000000003" height="7.6000000000000005" rx="2" fill="#fef08a"/></g><rect x="270" y="480" width="6" height="230" fill="#f8fafc" opacity=".85"/><g transform="translate(348.0,595.0) rotate(0)"><rect x="-44.0" y="-89.0" width="96" height="190" rx="28.799999999999997" fill="#000" opacity=".35"/><rect x="-48.0" y="-95.0" width="96" height="190" rx="28.799999999999997" fill="#f8fafc"/><rect x="-36.480000000000004" y="-49.4" width="72.96000000000001" height="38.0" rx="9.600000000000001" fill="#1e293b" opacity=".85"/><rect x="-34.56" y="30.400000000000002" width="69.12" height="26.6" rx="7.68" fill="#1e293b" opacity=".8"/><rect x="-34.56" y="-9.5" width="69.12" height="38.0" rx="7.68" fill="#fff" opacity=".12"/><rect x="-40.32" y="-93.0" width="19.200000000000003" height="7.6000000000000005" rx="2" fill="#fef08a"/><rect x="21.12" y="-93.0" width="19.200000000000003" height="7.6000000000000005" rx="2" fill="#fef08a"/></g><rect x="420" y="480" width="6" height="230" fill="#f8fafc" opacity=".85"/><g transform="translate(498.0,595.0) rotate(0)"><rect x="-44.0" y="-89.0" width="96" height="190" rx="28.799999999999997" fill="#000" opacity=".35"/><rect x="-48.0" y="-95.0" width="96" height="190" rx="28.799999999999997" fill="#a855f7"/><rect x="-36.480000000000004" y="-49.4" width="72.96000000000001" height="38.0" rx="9.600000000000001" fill="#1e293b" opacity=".85"/><rect x="-34.56" y="30.400000000000002" width="69.12" height="26.6" rx="7.68" fill="#1e293b" opacity=".8"/><rect x="-34.56" y="-9.5" width="69.12" height="38.0" rx="7.68" fill="#fff" opacity=".12"/><rect x="-40.32" y="-93.0" width="19.200000000000003" height="7.6000000000000005" rx="2" fill="#fef08a"/><rect x="21.12" y="-93.0" width="19.200000000000003" height="7.6000000000000005" rx="2" fill="#fef08a"/></g><rect x="570" y="480" width="6" height="230" fill="#f8fafc" opacity=".85"/><g transform="translate(648.0,595.0) rotate(0)"><rect x="-44.0" y="-89.0" width="96" height="190" rx="28.799999999999997" fill="#000" opacity=".35"/><rect x="-48.0" y="-95.0" width="96" height="190" rx="28.799999999999997" fill="#f8fafc"/><rect x="-36.480000000000004" y="-49.4" width="72.96000000000001" height="38.0" rx="9.600000000000001" fill="#1e293b" opacity=".85"/><rect x="-34.56" y="30.400000000000002" width="69.12" height="26.6" rx="7.68" fill="#1e293b" opacity=".8"/><rect x="-34.56" y="-9.5" width="69.12" height="38.0" rx="7.68" fill="#fff" opacity=".12"/><rect x="-40.32" y="-93.0" width="19.200000000000003" height="7.6000000000000005" rx="2" fill="#fef08a"/><rect x="21.12" y="-93.0" width="19.200000000000003" height="7.6000000000000005" rx="2" fill="#fef08a"/></g><rect x="720" y="480" width="6" height="230" fill="#f8fafc" opacity=".85"/><g transform="translate(798.0,595.0) rotate(0)"><rect x="-44.0" y="-89.0" width="96" height="190" rx="28.799999999999997" fill="#000" opacity=".35"/><rect x="-48.0" y="-95.0" width="96" height="190" rx="28.799999999999997" fill="#1f2937"/><rect x="-36.480000000000004" y="-49.4" width="72.96000000000001" height="38.0" rx="9.600000000000001" fill="#1e293b" opacity=".85"/><rect x="-34.56" y="30.400000000000002" width="69.12" height="26.6" rx="7.68" fill="#1e293b" opacity=".8"/><rect x="-34.56" y="-9.5" width="69.12" height="38.0" rx="7.68" fill="#fff" opacity=".12"/><rect x="-40.32" y="-93.0" width="19.200000000000003" height="7.6000000000000005" rx="2" fill="#fef08a"/><rect x="21.12" y="-93.0" width="19.200000000000003" height="7.6000000000000005" rx="2" fill="#fef08a"/></g><rect x="870" y="480" width="6" height="230" fill="#f8fafc" opacity=".85"/><g transform="translate(948.0,595.0) rotate(0)"><rect x="-44.0" y="-89.0" width="96" height="190" rx="28.799999999999997" fill="#000" opacity=".35"/><rect x="-48.0" y="-95.0" width="96" height="190" rx="28.799999999999997" fill="#0ea5e9"/><rect x="-36.480000000000004" y="-49.4" width="72.96000000000001" height="38.0" rx="9.600000000000001" fill="#1e293b" opacity=".85"/><rect x="-34.56" y="30.400000000000002" width="69.12" height="26.6" rx="7.68" fill="#1e293b" opacity=".8"/><rect x="-34.56" y="-9.5" width="69.12" height="38.0" rx="7.68" fill="#fff" opacity=".12"/><rect x="-40.32" y="-93.0" width="19.200000000000003" height="7.6000000000000005" rx="2" fill="#fef08a"/><rect x="21.12" y="-93.0" width="19.200000000000003" height="7.6000000000000005" rx="2" fill="#fef08a"/></g><rect x="1020" y="480" width="6" height="230" fill="#f8fafc" opacity=".85"/><g transform="translate(1098.0,595.0) rotate(0)"><rect x="-44.0" y="-89.0" width="96" height="190" rx="28.799999999999997" fill="#000" opacity=".35"/><rect x="-48.0" y="-95.0" width="96" height="190" rx="28.799999999999997" fill="#22c55e"/><rect x="-36.480000000000004" y="-49.4" width="72.96000000000001" height="38.0" rx="9.600000000000001" fill="#1e293b" opacity=".85"/><rect x="-34.56" y="30.400000000000002" width="69.12" height="26.6" rx="7.68" fill="#1e293b" opacity=".8"/><rect x="-34.56" y="-9.5" width="69.12" height="38.0" rx="7.68" fill="#fff" opacity=".12"/><rect x="-40.32" y="-93.0" width="19.200000000000003" height="7.6000000000000005" rx="2" fill="#fef08a"/><rect x="21.12" y="-93.0" width="19.200000000000003" height="7.6000000000000005" rx="2" fill="#fef08a"/></g><rect x="1170" y="480" width="6" height="230" fill="#f8fafc" opacity=".85"/><g transform="translate(1248.0,595.0) rotate(0)"><rect x="-44.0" y="-89.0" width="96" height="190" rx="28.799999999999997" fill="#000" opacity=".35"/><rect x="-48.0" y="-95.0" width="96" height="190" rx="28.799999999999997" fill="#1f2937"/><rect x="-36.480000000000004" y="-49.4" width="72.96000000000001" height="38.0" rx="9.600000000000001" fill="#1e293b" opacity=".85"/><rect x="-34.56" y="30.400000000000002" width="69.12" height="26.6" rx="7.68" fill="#1e293b" opacity=".8"/><rect x="-34.56" y="-9.5" width="69.12" height="38.0" rx="7.68" fill="#fff" opacity=".12"/><rect x="-40.32" y="-93.0" width="19.200000000000003" height="7.6000000000000005" rx="2" fill="#fef08a"/><rect x="21.12" y="-93.0" width="19.200000000000003" height="7.6000000000000005" rx="2" fill="#fef08a"/></g><rect x="-30" y="477" width="1260" height="6" fill="#f8fafc" opacity=".85"/><rect x="20" y="371.0" width="60" height="8" rx="3" fill="#facc15" opacity=".8"/><rect x="140" y="371.0" width="60" height="8" rx="3" fill="#facc15" opacity=".8"/><rect x="260" y="371.0" width="60" height="8" rx="3" fill="#facc15" opacity=".8"/><rect x="380" y="371.0" width="60" height="8" rx="3" fill="#facc15" opacity=".8"/><rect x="500" y="371.0" width="60" height="8" rx="3" fill="#facc15" opacity=".8"/><rect x="620" y="371.0" width="60" height="8" rx="3" fill="#facc15" opacity=".8"/><rect x="740" y="371.0" width="60" height="8" rx="3" fill="#facc15" opacity=".8"/><rect x="860" y="371.0" width="60" height="8" rx="3" fill="#facc15" opacity=".8"/><rect x="980" y="371.0" width="60" height="8" rx="3" fill="#facc15" opacity=".8"/><rect x="1100" y="371.0" width="60" height="8" rx="3" fill="#facc15" opacity=".8"/><path d="M624.0,335.0 l40,40 l-40,40" stroke="#f8fafc" stroke-width="10" fill="none" opacity=".6" stroke-linecap="round"/><g transform="translate(360.0,375.0) rotate(90)"><rect x="-46.0" y="-92.0" width="100" height="196" rx="30.0" fill="#000" opacity=".35"/><rect x="-50.0" y="-98.0" width="100" height="196" rx="30.0" fill="#facc15"/><rect x="-38.0" y="-50.96" width="76.0" height="39.2" rx="10.0" fill="#1e293b" opacity=".85"/><rect x="-36.0" y="31.36" width="72.0" height="27.44" rx="8.0" fill="#1e293b" opacity=".8"/><rect x="-36.0" y="-9.8" width="72.0" height="39.2" rx="8.0" fill="#fff" opacity=".12"/><rect x="-42.0" y="-96.0" width="20.0" height="7.84" rx="2" fill="#fef08a"/><rect x="22.0" y="-96.0" width="20.0" height="7.84" rx="2" fill="#fef08a"/></g><circle cx="60" cy="375.0" r="70" fill="#166534" opacity=".9"/><circle cx="80" cy="355.0" r="40" fill="#22c55e" opacity=".5"/><circle cx="1140" cy="375.0" r="70" fill="#166534" opacity=".9"/><circle cx="1160" cy="355.0" r="40" fill="#22c55e" opacity=".5"/><rect x="864.0" y="317.0" width="116" height="116" rx="22" fill="#14b88a" opacity=".92"/><text x="922.0" y="411.0" text-anchor="middle" font-family="Arial, sans-serif" font-weight="900" font-size="96" fill="#fff">P</text></svg>