<svg xmlns="http://www.w3.org/2000/svg" viewBox="0 0 1200 750" preserveAspectRatio="xMidYMid slice" role="img" aria-label="Illustration of lot parking"><rect width="1200" height="750" fill="#3f4a5c"/><circle cx="498" cy="502" r="3" fill="#fff" opacity=".04"/><circle cx="594" cy="531" r="1" fill="#fff" opacity=".04"/><circle cx="126" cy="463" r="3" fill="#fff" opacity=".04"/><circle cx="335" cy="138" r="1" fill="#fff" opacity=".04"/><circle cx="129" cy="228" r="1" fill="#fff" opacity=".04"/><circle cx="1166" cy="146" r="3" fill="#fff" opacity=".04"/><circle cx="290" cy="455" r="3" fill="#fff" opacity=".04"/><circle cx="387" cy="582" r="3" fill="#fff" opacity=".04"/><circle cx="1010" cy="500" r="1" fill="#fff" opacity=".04"/><circle cx="483" cy="112" r="3" fill="#fff" opacity=".04"/><circle cx="920" cy="19" r="2" fill="#fff" opacity=".04"/><circle cx="58" cy="181" r="1" fill="#fff" opacity=".04"/><circle cx="1132" cy="293" r="1" fill="#fff" opacity=".04"/><circle cx="404" cy="283" r="2" fill="#fff" opacity=".04"/><circle cx="554" cy="693" r="2" fill="#fff" opacity=".04"/><circle cx="787" cy="651" r="2" fill="#fff" opacity=".04"/><circle cx="145" cy="439" r="2" fill="#fff" opacity=".04"/><circle cx="142" cy="534" r="3" fill="#fff" opacity=".04"/><circle cx="210" cy="437" r="1" fill="#fff" opacity=".04"/><circle cx="1172" cy="447" r="3" fill="#fff" opacity=".04"/><circle cx="263" cy="568" r="3" fill="#fff" opacity=".04"/><circle cx="692" cy="509" r="2" fill="#fff" opacity=".04"/><circle cx="584" cy="741" r="1" fill="#fff" opacity=".04"/><circle cx="674" cy="737" r="1" fill="#fff" opacity=".04"/><circle cx="747" cy="164" r="2" fill="#fff" opacity=".04"/><circle cx="169" cy="136" r="2" fill="#fff" opacity=".04"/><circle cx="591" cy="307" r="1" fill="#fff" opacity=".04"/><circle cx="184" cy="723" r="2" fill="#fff" opacity=".04"/><circle cx="604" cy="250" r="2" fill="#fff" opacity=".04"/><circle cx="316" cy="642" r="1" fill="#fff" opacity=".04"/><circle cx="1094" cy="0" r="3" fill="#fff" opacity=".04"/><circle cx="197" cy="53" r="1" fill="#fff" opacity=".04"/><circle cx="481" cy="542" r="1" fill="#fff" opacity=".04"/><circle cx="130" cy="632" r="3" fill="#fff" opacity=".04"/><circle cx="624" cy="133" r="2" fill="#fff" opacity=".04"/><circle cx="298" cy="440" r="2" fill="#fff" opacity=".04"/><circle cx="1027" cy="195" r="2" fill="#fff" opacity=".04"/><circle cx="1037" cy="215" r="3" fill="#fff" opacity=".04"/><circle cx="135" cy="172" r="1" fill="#fff" opacity=".04"/><circle cx="71" cy="587" r="2" fill="#fff" opacity=".04"/><circle cx="769" cy="667" r="1" fill="#fff" opacity=".04"/><circle cx="1047" cy="119" r="2" fill="#fff" opacity=".04"/><circle cx="1112" cy="155" r="3" fill="#fff" opacity=".04"/><circle cx="852" cy="465" r="3" fill="#fff" opacity=".04"/><circle cx="934" cy="589" r="3" fill="#fff" opacity=".04"/><circle cx="1022" cy="593" r="1" fill="#fff" opacity=".04"/><circle cx="629" cy="472" r="3" fill="#fff" opacity=".04"/><circle cx="616" cy="638" r="1" fill="#fff" opacity=".04"/><circle cx="817" cy="412" r="1" fill="#fff" opacity=".04"/><circle cx="1006" cy="69" r="2" fill="#fff" opacity=".04"/><circle cx="848" cy="120" r="2" fill="#fff" opacity=".04"/><circle cx="636" cy="409" r="3" fill="#fff" opacity=".04"/><circle cx="59" cy="636" r="1" fill="#fff" opacity=".04"/><circle cx="564" cy="560" r="2" fill="#fff" opacity=".04"/><circle cx="904" cy="174" r="2" fill="#fff" opacity=".04"/><circle cx="651" cy="52" r="2" fill="#fff" opacity=".04"/><circle cx="372" cy="644" r="3" fill="#fff" opacity=".04"/><circle cx="30" cy="431" r="2" fill="#fff" opacity=".04"/><circle cx="104" cy="535" r="2" fill="#fff" opacity=".04"/><circle cx="882" cy="1" r="2" fill="#fff" opacity=".04"/><circle cx="568" cy="419" r="1" fill="#fff" opacity=".04"/><circle cx="723" cy="211" r="3" fill="#fff" opacity=".04"/><circle cx="1066" cy="108" r="3" fill="#fff" opacity=".04"/><circle cx="650" cy="579" r="1" fill="#fff" opacity=".04"/><circle cx="1114" cy="313" r="3" fill="#fff" opacity=".04"/><circle cx="1039" cy="544" r="2" fill="#fff" opacity=".04"/><circle cx="428" cy="436" r="1" fill="#fff" opacity=".04"/><circle cx="839" cy="263" r="3" fill="#fff" opacity=".04"/><circle cx="858" cy="490" r="2" fill="#fff" opacity=".04"/><circle cx="1045" cy="518" r="3" fill="#fff" opacity=".04"/><circle cx="1161" cy="279" r="1" fill="#fff" opacity=".04"/><circle cx="650" cy="32" r="3" fill="#fff" opacity=".04"/><circle cx="876" cy="390" r="2" fill="#fff" opacity=".04"/><circle cx="467" cy="701" r="3" fill="#fff" opacity=".04"/><circle cx="586" cy="704" r="1" fill="#fff" opacity=".04"/><circle cx="852" cy="102" r="1" fill="#fff" opacity=".04"/><circle cx="999" cy="281" r="3" fill="#fff" opacity=".04"/><circle cx="195" cy="340" r="2" fill="#fff" opacity=".04"/><circle cx="1018" cy="566" r="1" fill="#fff" opacity=".04"/><circle cx="274" cy="260" r="1" fill="#fff" opacity=".04"/><circle cx="246" cy="311" r="3" fill="#fff" opacity=".04"/><circle cx="399" cy="513" r="1" fill="#fff" opacity=".04"/><circle cx="823" cy="95" r="1" fill="#fff" opacity=".04"/><circle cx="467" cy="117" r="1" fill="#fff" opacity=".04"/><circle cx="188" cy="463" r="1" fill="#fff" opacity=".04"/><circle cx="1050" cy="626" r="3" fill="#fff" opacity=".04"/><circle cx="869" cy="280" r="2" fill="#fff" opacity=".04"/><circle cx="531" cy="423" r="3" fill="#fff" opacity=".04"/><circle cx="419" cy="240" r="1" fill="#fff" opacity=".04"/><circle cx="381" cy="92" r="3" fill="#fff" opacity=".04"/><circle cx="944" cy="739" r="3" fill="#fff" opacity=".04"/><circle cx="367" cy="666" r="1" fill="#fff" opacity=".04"/><circle cx="317" cy="423" r="2" fill="#fff" opacity=".04"/><circle cx="594" cy="325" r="2" fill="#fff" opacity=".04"/><circle cx="412" cy="133" r="3" fill="#fff" opacity=".04"/><circle cx="732" cy="554" r="1" fill="#fff" opacity=".04"/><circle cx="281" cy="89" r="2" fill="#fff" opacity=".04"/><circle cx="293" cy="79" r="1" fill="#fff" opacity=".04"/><circle cx="621" cy="190" r="2" fill="#fff" opacity=".04"/><circle cx="154" cy="307" r="2" fill="#fff" opacity=".04"/><circle cx="161" cy="350" r="3" fill="#fff" opacity=".04"/><circle cx="109" cy="691" r="2" fill="#fff" opacity=".04"/><circle cx="338" cy="424" r="1" fill="#fff" opacity=".04"/><circle cx="368" cy="631" r="2" fill="#fff" opacity=".04"/><circle cx="707" cy="33" r="3" fill="#fff" opacity=".04"/><circle cx="1184" cy="190" r="2" fill="#fff" opacity=".04"/><circle cx="1083" cy="345" r="1" fill="#fff" opacity=".04"/><circle cx="788" cy="150" r="1" fill="#fff" opacity=".04"/><circle cx="54" cy="230" r="2" fill="#fff" opacity=".04"/><circle cx="556" cy="728" r="2" fill="#fff" opacity=".04"/><circle cx="705" cy="297" r="1" fill="#fff" opacity=".04"/><circle cx="868" cy="356" r="2" fill="#fff" opacity=".04"/><circle cx="1142" cy="73" r="1" fill="#fff" opacity=".04"/><circle cx="549" cy="497" r="2" fill="#fff" opacity=".04"/><circle cx="268" cy="693" r="3" fill="#fff" opacity=".04"/><circle cx="529" cy="551" r="3" fill="#fff" opacity=".04"/><circle cx="399" cy="302" r="1" fill="#fff" opacity=".04"/><circle cx="193" cy="475" r="2" fill="#fff" opacity=".04"/><circle cx="946" cy="104" r="3" fill="#fff" opacity=".04"/><circle cx="755" cy="185" r="2" fill="#fff" opacity=".04"/><circle cx="371" cy="15" r="3" fill="#fff" opacity=".04"/><circle cx="961" cy="265" r="1" fill="#fff" opacity=".04"/><circle cx="1152" cy="122" r="2" fill="#fff" opacity=".04"/><circle cx="808" cy="168" r="1" fill="#fff" opacity=".04"/><circle cx="1023" cy="0" r="1" fill="#fff" opacity=".04"/><circle cx="780" cy="10" r="1" fill="#fff" opacity=".04"/><circle cx="426" cy="366" r="2" fill="#fff" opacity=".04"/><circle cx="841" cy="60" r="1" fill="#fff" opacity=".04"/><circle cx="649" cy="698" r="3" fill="#fff" opacity=".04"/><circle cx="633" cy="606" r="1" fill="#fff" opacity=".04"/><circle cx="1031" cy="527" r="2" fill="#fff" opacity=".04"/><circle cx="831" cy="217" r="3" fill="#fff" opacity=".04"/><circle cx="36" cy="356" r="2" fill="#fff" opacity=".04"/><circle cx="257" cy="207" r="3" fill="#fff" opacity=".04"/><circle cx="733" cy="143" r="1" fill="#fff" opacity=".04"/><circle cx="284" cy="658" r="1" fill="#fff" opacity=".04"/><circle cx="481" cy="304" r="3" fill="#fff" opacity=".04"/><circle cx="608" cy="230" r="1" fill="#fff" opacity=".04"/><circle cx="967" cy="58" r="1" fill="#fff" opacity=".04"/><circle cx="812" cy="458" r="3" fill="#fff" opacity=".04"/><circle cx="782" cy="221" r="1" fill="#fff" opacity=".04"/><circle cx="139" cy="712" r="1" fill="#fff" opacity=".04"/><circle cx="729" cy="572" r="1" fill="#fff" opacity=".04"/><circle cx="828" cy="665" r="2" fill="#fff" opacity=".04"/><circle cx="103" cy="159" r="3" fill="#fff" opacity=".04"/><circle cx="233" cy="547" r="3" fill="#fff" opacity=".04"/><circle cx="55" cy="164" r="1" fill="#fff" opacity=".04"/><circle cx="692" cy="505" r="1" fill="#fff" opacity=".04"/><circle cx="822" cy="471" r="3" fill="#fff" opacity=".04"/><circle cx="272" cy="78" r="2" fill="#fff" opacity=".04"/><circle cx="961" cy="181" r="2" fill="#fff" opacity=".04"/><circle cx="727" cy="575" r="1" fill="#fff" opacity=".04"/><circle cx="116" cy="403" r="1" fill="#fff" opacity=".04"/><circle cx="236" cy="724" r="1" fill="#fff" opacity=".04"/><circle cx="858" cy="97" r="2" fill="#fff" opacity=".04"/><circle cx="564" cy="43" r="3" fill="#fff" opacity=".04"/><circle cx="558" cy="258" r="1" fill="#fff" opacity=".04"/><circle cx="742" cy="63" r="3" fill="#fff" opacity=".04"/><circle cx="965" cy="364" r="2" fill="#fff" opacity=".04"/><circle cx="12" cy="567" r="3" fill="#fff" opacity=".04"/><circle cx="502" cy="454" r="2" fill="#fff" opacity=".04"/><circle cx="613" cy="85" r="1" fill="#fff" opacity=".04"/><circle cx="918" cy="442" r="3" fill="#fff" opacity=".04"/><circle cx="112" cy="561" r="1" fill="#fff" opacity=".04"/><circle cx="348" cy="627" r="1" fill="#fff" opacity=".04"/><circle cx="837" cy="290" r="1" fill="#fff" opacity=".04"/><circle cx="1099" cy="468" r="2" fill="#fff" opacity=".04"/><circle cx="1123" cy="341" r="2" fill="#fff" opacity=".04"/><circle cx="773" cy="142" r="3" fill="#fff" opacity=".04"/><circle cx="324" cy="358" r="1" fill="#fff" opacity=".04"/><circle cx="68" cy="336" r="1" fill="#fff" opacity=".04"/><circle cx="1003" cy="123" r="3" fill="#fff" opacity=".04"/><circle cx="1185" cy="226" r="3" fill="#fff" opacity=".04"/><circle cx="1034" cy="100" r="1" fill="#fff" opacity=".04"/><circle cx="1005" cy="742" r="2" fill="#fff" opacity=".04"/><circle cx="185" cy="687" r="2" fill="#fff" opacity=".04"/><circle cx="1017" cy="389" r="1" fill="#fff" opacity=".04"/><circle cx="804" cy="19" r="1" fill="#fff" opacity=".04"/><circle cx="472" cy="70" r="2" fill="#fff" opacity=".04"/><circle cx="442" cy="138" r="1" fill="#fff" opacity=".04"/><circle cx="901" cy="469" r="3" fill="#fff" opacity=".04"/><circle cx="226" cy="347" r="3" fill="#fff" opacity=".04"/><circle cx="444" cy="188" r="1" fill="#fff" opacity=".04"/><circle cx="881" cy="470" r="2" fill="#fff" opacity=".04"/><circle cx="91" cy="124" r="3" fill="#fff" opacity=".04"/><circle cx="975" cy="294" r="1" fill="#fff" opacity=".04"/><circle cx="1102" cy="60" r="1" fill="#fff" opacity=".04"/><circle cx="1016" cy="555" r="3" fill="#fff" opacity=".04"/><circle cx="52" cy="607" r="2" fill="#fff" opacity=".04"/><circle cx="1192" cy="145" r="2" fill="#fff" opacity=".04"/><circle cx="956" cy="419" r="3" fill="#fff" opacity=".04"/><circle cx="360" cy="446" r="3" fill="#fff" opacity=".04"/><circle cx="144" cy="270" r="3" fill="#fff" opacity=".04"/><circle cx="875" cy="602" r="3" fill="#fff" opacity=".04"/><circle cx="1124" cy="68" r="1" fill="#fff" opacity=".04"/><circle cx="1031" cy="578" r="2" fill="#fff" opacity=".04"/><circle cx="724" cy="34" r="2" fill="#fff" opacity=".04"/><circle cx="203" cy="189" r="2" fill="#fff" opacity=".04"/><circle cx="278" cy="102" r="1" fill="#fff" opacity=".04"/><circle cx="215" cy="689" r="3" fill="#fff" opacity=".04"/><circle cx="1016" cy="123" r="1" fill="#fff" opacity=".04"/><circle cx="1166" cy="289" r="1" fill="#fff" opacity=".04"/><circle cx="517" cy="553" r="3" fill="#fff" opacity=".04"/><circle cx="343" cy="734" r="3" fill="#fff" opacity=".04"/><circle cx="808" cy="200" r="3" fill="#fff" opacity=".04"/><circle cx="248" cy="98" r="3" fill="#fff" opacity=".04"/><circle cx="1176" cy="40" r="3" fill="#fff" opacity=".04"/><circle cx="0" cy="563" r="1" fill="#fff" opacity=".04"/><circle cx="311" cy="61" r="1" fill="#fff" opacity=".04"/><circle cx="943" cy="417" r="3" fill="#fff" opacity=".04"/><circle cx="1152" cy="374" r="2" fill="#fff" opacity=".04"/><circle cx="457" cy="175" r="3" fill="#fff" opacity=".04"/><circle cx="56" cy="664" r="3" fill="#fff" opacity=".04"/><circle cx="996" cy="212" r="3" fill="#fff" opacity=".04"/><circle cx="943" cy="649" r="3" fill="#fff" opacity=".04"/><circle cx="916" cy="206" r="2" fill="#fff" opacity=".04"/><circle cx="1008" cy="639" r="3" fill="#fff" opacity=".04"/><circle cx="385" cy="287" r="1" fill="#fff" opacity=".04"/><circle cx="726" cy="104" r="2" fill="#fff" opacity=".04"/><circle cx="847" cy="28" r="1" fill="#fff" opacity=".04"/><circle cx="360" cy="622" r="3" fill="#fff" opacity=".04"/><circle cx="1174" cy="661" r="2" fill="#fff" opacity=".04"/><circle cx="1102" cy="135" r="3" fill="#fff" opacity=".04"/><circle cx="13" cy="732" r="2" fill="#fff" opacity=".04"/><circle cx="767" cy="166" r="2" fill="#fff" opacity=".04"/><circle cx="1046" cy="336" r="2" fill="#fff" opacity=".04"/><circle cx="497" cy="502" r="2" fill="#fff" opacity=".04"/><circle cx="234" cy="587" r="2" fill="#fff" opacity=".04"/><circle cx="237" cy="550" r="3" fill="#fff" opacity=".04"/><circle cx="233" cy="116" r="2" fill="#fff" opacity=".04"/><circle cx="686" cy="211" r="3" fill="#fff" opacity=".04"/><circle cx="739" cy="280" r="2" fill="#fff" opacity=".04"/><circle cx="951" cy="602" r="2" fill="#fff" opacity=".04"/><circle cx="225" cy="519" r="2" fill="#fff" opacity=".04"/><circle cx="1112" cy="183" r="1" fill="#fff" opacity=".04"/><circle cx="790" cy="37" r="2" fill="#fff" opacity=".04"/><circle cx="221" cy="540" r="2" fill="#fff" opacity=".04"/><circle cx="662" cy="407" r="3" fill="#fff" opacity=".04"/><circle cx="57" cy="720" r="2" fill="#fff" opacity=".04"/><circle cx="902" cy="399" r="2" fill="#fff" opacity=".04"/><circle cx="930" cy="499" r="1" fill="#fff" opacity=".04"/><circle cx="1176" cy="658" r="2" fill="#fff" opacity=".04"/><circle cx="169" cy="223" r="1" fill="#fff" opacity=".04"/><circle cx="1055" cy="627" r="2" fill="#fff" opacity=".04"/><circle cx="962" cy="565" r="1" fill="#fff" opacity=".04"/><circle cx="149" cy="305" r="3" fill="#fff" opacity=".04"/><circle cx="44" cy="95" r="2" fill="#fff" opacity=".04"/><circle cx="1032" cy="253" r="3" fill="#fff" opacity=".04"/><circle cx="756" cy="366" r="2" fill="#fff" opacity=".04"/><circle cx="485" cy="665" r="2" fill="#fff" opacity=".04"/><circle cx="711" cy="271" r="2" fill="#fff" opacity=".04"/><circle cx="847" cy="50" r="1" fill="#fff" opacity=".04"/><circle cx="479" cy="83" r="2" fill="#fff" opacity=".04"/><circle cx="406" cy="15" r="3" fill="#fff" opacity=".04"/><circle cx="282" cy="533" r="2" fill="#fff" opacity=".04"/><circle cx="718" cy="479" r="1" fill="#fff" opacity=".04"/><circle cx="23" cy="291" r="2" fill="#fff" opacity=".04"/><circle cx="596" cy="531" r="3" fill="#fff" opacity=".04"/><circle cx="1122" cy="568" r="2" fill="#fff" opacity=".04"/><circle cx="368" cy="660" r="3" fill="#fff" opacity=".04"/><rect x="-30" y="40" width="6" height="230" fill="#f8fafc" opacity=".85"/><rect x="120" y="40" width="6" height="230" fill="#f8fafc" opacity=".85"/><g transform="translate(198.0,155.0) rotate(180)"><rect x="-44.0" y="-89.0" width="96" height="190" rx="28.799999999999997" fill="#000" opacity=".35"/><rect x="-48.0" y="-95.0" width="96" height="190" rx="28.799999999999997" fill="#a855f7"/><rect x="-36.480000000000004" y="-49.4" width="72.96000000000001" height="38.0" rx="9.600000000000001" fill="#1e293b" opacity=".85"/><rect x="-34.56" y="30.400000000000002" width="69.12" height="26.6" rx="7.68" fill="#1e293b" opacity=".8"/><rect x="-34.56" y="-9.5" width="69.12" height="38.0" rx="7.68" fill="#fff" opacity=".12"/><rect x="-40.32" y="-93.0" width="19.200000000000003" height="7.6000000000000005" rx="2" fill="#fef08a"/><rect x="21.12" y="-93.0" width="19.200000000000003" height="7.6000000000000005" rx="2" fill="#fef08a"/></g><rect x="270" y="40" width="6" height="230" fill="#f8fafc" opacity=".85"/><rect x="420" y="40" width="6" height="230" fill="#f8fafc" opacity=".85"/><rect x="570" y="40" width="6" height="230" fill="#f8fafc" opacity=".85"/><rect x="720" y="40" width="6" height="230" fill="#f8fafc" opacity=".85"/><rect x="870" y="40" width="6" height="230" fill="#f8fafc" opacity=".85"/><rect x="1020" y="40" width="6" height="230" fill="#f8fafc" opacity=".85"/><rect x="1170" y="40" width="6" height="230" fill="#f8fafc" opacity=".85"/><rect x="-30" y="267" width="1260" height="6" fill="#f8fafc" opacity=".85"/><rect x="-30" y="480" width="6" height="230" fill="#f8fafc" opacity=".85"/><rect x="120" y="480" width="6" height="230" fill="#f8fafc" opacity=".85"/><rect x="270" y="480" width="6" height="230" fill="#f8fafc" opacity=".85"/><g transform="translate(348.0,595.0) rotate(0)"><rect x="-44.0" y="-89.0" width="96" height="190" rx="28.799999999999997" fill="#000" opacity=".35"/><rect x="-48.0" y="-95.0" width="96" height="190" rx="28.799999999999997" fill="#ef4444"/><rect x="-36.480000000000004" y="-49.4" width="72.96000000000001" height="38.0" rx="9.600000000000001" fill="#1e293b" opacity=".85"/><rect x="-34.56" y="30.400000000000002" width="69.12" height="26.6" rx="7.68" fill="#1e293b" opacity=".8"/><rect x="-34.56" y="-9.5" width="69.12" height="38.0" rx="7.68" fill="#fff" opacity=".12"/><rect x="-40.32" y="-93.0" width="19.200000000000003" height="7.6000000000000005" rx="2" fill="#fef08a"/><rect x="21.12" y="-93.0" width="19.200000000000003" height="7.6000000000000005" rx="2" fill="#fef08a"/></g><rect x="420" y="480" width="6" height="230" fill="#f8fafc" opacity=".85"/><rect x="570" y="480" width="6" height="230" fill="#f8fafc" opacity=".85"/><rect x="720" y="480" width="6" height="230" fill="#f8fafc" opacity=".85"/><g transform="translate(798.0,595.0) rotate(0)"><rect x="-44.0" y="-89.0" width="96" height="190" rx="28.799999999999997" fill="#000" opacity=".35"/><rect x="-48.0" y="-95.0" width="96" height="190" rx="28.799999999999997" fill="#14b8a6"/><rect x="-36.480000000000004" y="-49.4" width="72.96000000000001" height="38.0" rx="9.600000000000001" fill="#1e293b" opacity=".85"/><rect x="-34.56" y="30.400000000000002" width="69.12" height="26.6" rx="7.68" fill="#1e293b" opacity=".8"/><rect x="-34.56" y="-9.5" width="69.12" height="38.0" rx="7.68" fill="#fff" opacity=".12"/><rect x="-40.32" y="-93.0" width="19.200000000000003" height="7.6000000000000005" rx="2" fill="#fef08a"/><rect x="21.12" y="-93.0" width="19.200000000000003" height="7.6000000000000005" rx="2" fill="#fef08a"/></g><rect x="870" y="480" width="6" height="230" fill="#f8fafc" opacity=".85"/><rect x="1020" y="480" width="6" height="230" fill="#f8fafc" opacity=".85"/><rect x="1170" y="480" width="6" height="230" fill="#f8fafc" opacity=".85"/><rect x="-30" y="477" width="1260" height="6" fill="#f8fafc" opacity=".85"/><rect x="20" y="371.0" width="60" height="8" rx="3" fill="#facc15" opacity=".8"/><rect x="140" y="371.0" width="60" height="8" rx="3" fill="#facc15" opacity=".8"/><rect x="260" y="371.0" width="60" height="8" rx="3" fill="#facc15" opacity=".8"/><rect x="380" y="371.0" width="60" height="8" rx="3" fill="#facc15" opacity=".8"/><rect x="500" y="371.0" width="60" height="8" rx="3" fill="#facc15" opacity=".8"/><rect x="620" y="371.0" width="60" height="8" rx="3" fill="#facc15" opacity=".8"/><rect x="740" y="371.0" width="60" height="8" rx="3" fill="#facc15" opacity=".8"/><rect x="860" y="371.0" width="60" height="8" rx="3" fill="#facc15" opacity=".8"/><rect x="980" y="371.0" width="60" height="8" rx="3" fill="#facc15" opacity=".8"/><rect x="1100" y="371.0" width="60" height="8" rx="3" fill="#facc15" opacity=".8"/><path d="M624.0,335.0 l40,40 l-40,40" stroke="#f8fafc" stroke-width="10" fill="none" opacity=".6" stroke-linecap="round"/><g transform="translate(360.0,375.0) rotate(90)"><rect x="-46.0" y="-92.0" width="100" height="196" rx="30.0" fill="#000" opacity=".35"/><rect x="-50.0" y="-98.0" width="100" height="196" rx="30.0" fill="#94a3b8"/><rect x="-38.0" y="-50.96" width="76.0" height="39.2" rx="10.0" fill="#1e293b" opacity=".85"/><rect x="-36.0" y="31.36" width="72.0" height="27.44" rx="8.0" fill="#1e293b" opacity=".8"/><rect x="-36.0" y="-9.8" width="72.0" height="39.2" rx="8.0" fill="#fff" opacity=".12"/><rect x="-42.0" y="-96.0" width="20.0" height="7.84" rx="2" fill="#fef08a"/><rect x="22.0" y="-96.0" width="20.0" height="7.84" rx="2" fill="#fef08a"/></g><circle cx="60" cy="375.0" r="70" fill="#166534" opacity=".9"/><circle cx="80" cy="355.0" r="40" fill="#22c55e" opacity=".5"/><circle cx="1140" cy="375.0" r="70" fill="#166534" opacity=".9"/><circle cx="1160" cy="355.0" r="40" fill="#22c55e" opacity=".5"/><rect x="864.0" y="317.0" width="116" height="116" rx="22" fill="#14b88a" opacity=".92"/><text x="922.0" y="411.0" text-anchor="middle" font-family="Arial, sans-serif" font-weight="900" font-size="96" fill="#fff">P</text></svg>