<svg xmlns="http://www.w3.org/2000/svg" viewBox="0 0 1200 750" preserveAspectRatio="xMidYMid slice" role="img" aria-label="Illustration of garage parking"><defs><linearGradient id="sky" x1="0" y1="0" x2="0" y2="1"><stop offset="0" stop-color="#020617"/><stop offset="1" stop-color="#1e3a8a"/></linearGradient></defs><rect width="1200" height="750" fill="url(#sky)"/><circle cx="278" cy="181" r="2.5" fill="#fff" opacity="0.90"/><circle cx="484" cy="89" r="2" fill="#fff" opacity="0.71"/><circle cx="465" cy="65" r="2" fill="#fff" opacity="0.51"/><circle cx="718" cy="35" r="2.5" fill="#fff" opacity="0.64"/><circle cx="260" cy="76" r="1.5" fill="#fff" opacity="0.79"/><circle cx="693" cy="264" r="2" fill="#fff" opacity="0.73"/><circle cx="628" cy="95" r="2.5" fill="#fff" opacity="0.63"/><circle cx="681" cy="298" r="1.5" fill="#fff" opacity="0.60"/><circle cx="354" cy="290" r="1.5" fill="#fff" opacity="0.86"/><circle cx="364" cy="90" r="2.5" fill="#fff" opacity="0.49"/><circle cx="720" cy="19" r="2" fill="#fff" opacity="0.80"/><circle cx="29" cy="214" r="1.5" fill="#fff" opacity="0.86"/><circle cx="56" cy="119" r="2.5" fill="#fff" opacity="0.89"/><circle cx="794" cy="56" r="1.5" fill="#fff" opacity="0.79"/><circle cx="1127" cy="264" r="1.5" fill="#fff" opacity="0.87"/><circle cx="1050" cy="272" r="2" fill="#fff" opacity="0.83"/><circle cx="428" cy="163" r="1.5" fill="#fff" opacity="0.48"/><circle cx="888" cy="134" r="2" fill="#fff" opacity="0.83"/><circle cx="409" cy="57" r="2.5" fill="#fff" opacity="0.86"/><circle cx="648" cy="234" r="2" fill="#fff" opacity="0.52"/><circle cx="726" cy="137" r="2" fill="#fff" opacity="0.60"/><circle cx="601" cy="240" r="1.5" fill="#fff" opacity="0.84"/><circle cx="1140" cy="177" r="1.5" fill="#fff" opacity="0.43"/><circle cx="1047" cy="253" r="1.5" fill="#fff" opacity="0.79"/><circle cx="160" cy="224" r="2" fill="#fff" opacity="0.72"/><circle cx="795" cy="106" r="2.5" fill="#fff" opacity="0.54"/><circle cx="52" cy="112" r="2" fill="#fff" opacity="0.57"/><circle cx="39" cy="255" r="2" fill="#fff" opacity="0.71"/><circle cx="78" cy="91" r="2" fill="#fff" opacity="0.77"/><circle cx="1115" cy="110" r="2.5" fill="#fff" opacity="0.47"/><circle cx="494" cy="235" r="2.5" fill="#fff" opacity="0.49"/><circle cx="56" cy="91" r="1.5" fill="#fff" opacity="0.78"/><circle cx="1161" cy="29" r="1.5" fill="#fff" opacity="0.41"/><circle cx="137" cy="30" r="2.5" fill="#fff" opacity="0.62"/><circle cx="804" cy="209" r="1.5" fill="#fff" opacity="0.78"/><circle cx="100" cy="193" r="2" fill="#fff" opacity="0.75"/><circle cx="248" cy="144" r="2" fill="#fff" opacity="0.71"/><circle cx="505" cy="50" r="1.5" fill="#fff" opacity="0.85"/><circle cx="171" cy="178" r="2" fill="#fff" opacity="0.83"/><circle cx="450" cy="0" r="2" fill="#fff" opacity="0.54"/><circle cx="665" cy="163" r="1.5" fill="#fff" opacity="0.78"/><circle cx="31" cy="126" r="1.5" fill="#fff" opacity="0.52"/><circle cx="569" cy="276" r="1.5" fill="#fff" opacity="0.86"/><circle cx="185" cy="280" r="2.5" fill="#fff" opacity="0.80"/><circle cx="725" cy="61" r="2" fill="#fff" opacity="0.56"/><circle cx="152" cy="137" r="1.5" fill="#fff" opacity="0.48"/><circle cx="582" cy="216" r="1.5" fill="#fff" opacity="0.72"/><circle cx="370" cy="300" r="2.5" fill="#fff" opacity="0.48"/><circle cx="94" cy="113" r="1.5" fill="#fff" opacity="0.47"/><circle cx="640" cy="253" r="1.5" fill="#fff" opacity="0.43"/><circle cx="876" cy="114" r="1.5" fill="#fff" opacity="0.82"/><circle cx="537" cy="273" r="2" fill="#fff" opacity="0.82"/><circle cx="966" cy="11" r="1.5" fill="#fff" opacity="0.47"/><circle cx="326" cy="63" r="2.5" fill="#fff" opacity="0.86"/><circle cx="221" cy="4" r="2.5" fill="#fff" opacity="0.58"/><circle cx="929" cy="152" r="2.5" fill="#fff" opacity="0.65"/><circle cx="1198" cy="236" r="1.5" fill="#fff" opacity="0.71"/><circle cx="151" cy="82" r="1.5" fill="#fff" opacity="0.51"/><circle cx="199" cy="163" r="2.5" fill="#fff" opacity="0.86"/><circle cx="221" cy="1" r="2.5" fill="#fff" opacity="0.88"/><circle cx="482" cy="98" r="40" fill="#f8fafc" opacity=".9"/><rect x="-20" y="183" width="138" height="247" fill="#0f172a" opacity="0.65"/><rect x="-10" y="199" width="10" height="12" fill="#fde68a" opacity=".8"/><rect x="12" y="199" width="10" height="12" fill="#fde68a" opacity=".8"/><rect x="34" y="199" width="10" height="12" fill="#fde68a" opacity=".8"/><rect x="12" y="225" width="10" height="12" fill="#fde68a" opacity=".8"/><rect x="78" y="225" width="10" height="12" fill="#fde68a" opacity=".8"/><rect x="100" y="225" width="10" height="12" fill="#fde68a" opacity=".8"/><rect x="12" y="251" width="10" height="12" fill="#fde68a" opacity=".8"/><rect x="56" y="251" width="10" height="12" fill="#fde68a" opacity=".8"/><rect x="100" y="251" width="10" height="12" fill="#fde68a" opacity=".8"/><rect x="-10" y="277" width="10" height="12" fill="#fde68a" opacity=".8"/><rect x="56" y="277" width="10" height="12" fill="#fde68a" opacity=".8"/><rect x="12" y="303" width="10" height="12" fill="#fde68a" opacity=".8"/><rect x="34" y="303" width="10" height="12" fill="#fde68a" opacity=".8"/><rect x="56" y="303" width="10" height="12" fill="#fde68a" opacity=".8"/><rect x="78" y="303" width="10" height="12" fill="#fde68a" opacity=".8"/><rect x="100" y="303" width="10" height="12" fill="#fde68a" opacity=".8"/><rect x="12" y="329" width="10" height="12" fill="#fde68a" opacity=".8"/><rect x="34" y="329" width="10" height="12" fill="#fde68a" opacity=".8"/><rect x="34" y="355" width="10" height="12" fill="#fde68a" opacity=".8"/><rect x="100" y="355" width="10" height="12" fill="#fde68a" opacity=".8"/><rect x="12" y="381" width="10" height="12" fill="#fde68a" opacity=".8"/><rect x="100" y="381" width="10" height="12" fill="#fde68a" opacity=".8"/><rect x="12" y="407" width="10" height="12" fill="#fde68a" opacity=".8"/><rect x="56" y="407" width="10" height="12" fill="#fde68a" opacity=".8"/><rect x="125" y="277" width="120" height="153" fill="#0f172a" opacity="0.65"/><rect x="179" y="293" width="10" height="12" fill="#fde68a" opacity=".8"/><rect x="201" y="293" width="10" height="12" fill="#fde68a" opacity=".8"/><rect x="135" y="319" width="10" height="12" fill="#fde68a" opacity=".8"/><rect x="157" y="319" width="10" height="12" fill="#fde68a" opacity=".8"/><rect x="201" y="319" width="10" height="12" fill="#fde68a" opacity=".8"/><rect x="135" y="345" width="10" height="12" fill="#fde68a" opacity=".8"/><rect x="157" y="345" width="10" height="12" fill="#fde68a" opacity=".8"/><rect x="135" y="371" width="10" height="12" fill="#fde68a" opacity=".8"/><rect x="135" y="397" width="10" height="12" fill="#fde68a" opacity=".8"/><rect x="201" y="397" width="10" height="12" fill="#fde68a" opacity=".8"/><rect x="256" y="314" width="115" height="116" fill="#0f172a" opacity="0.65"/><rect x="288" y="330" width="10" height="12" fill="#fde68a" opacity=".8"/><rect x="310" y="356" width="10" height="12" fill="#fde68a" opacity=".8"/><rect x="332" y="356" width="10" height="12" fill="#fde68a" opacity=".8"/><rect x="266" y="382" width="10" height="12" fill="#fde68a" opacity=".8"/><rect x="288" y="382" width="10" height="12" fill="#fde68a" opacity=".8"/><rect x="266" y="408" width="10" height="12" fill="#fde68a" opacity=".8"/><rect x="288" y="408" width="10" height="12" fill="#fde68a" opacity=".8"/><rect x="310" y="408" width="10" height="12" fill="#fde68a" opacity=".8"/><rect x="354" y="408" width="10" height="12" fill="#fde68a" opacity=".8"/><rect x="385" y="203" width="94" height="227" fill="#0f172a" opacity="0.65"/><rect x="461" y="219" width="10" height="12" fill="#fde68a" opacity=".8"/><rect x="395" y="245" width="10" height="12" fill="#fde68a" opacity=".8"/><rect x="461" y="245" width="10" height="12" fill="#fde68a" opacity=".8"/><rect x="395" y="271" width="10" height="12" fill="#fde68a" opacity=".8"/><rect x="417" y="271" width="10" height="12" fill="#fde68a" opacity=".8"/><rect x="417" y="323" width="10" height="12" fill="#fde68a" opacity=".8"/><rect x="461" y="349" width="10" height="12" fill="#fde68a" opacity=".8"/><rect x="395" y="375" width="10" height="12" fill="#fde68a" opacity=".8"/><rect x="417" y="375" width="10" height="12" fill="#fde68a" opacity=".8"/><rect x="461" y="375" width="10" height="12" fill="#fde68a" opacity=".8"/><rect x="395" y="401" width="10" height="12" fill="#fde68a" opacity=".8"/><rect x="417" y="401" width="10" height="12" fill="#fde68a" opacity=".8"/><rect x="461" y="401" width="10" height="12" fill="#fde68a" opacity=".8"/><rect x="494" y="332" width="127" height="98" fill="#0f172a" opacity="0.65"/><rect x="504" y="348" width="10" height="12" fill="#fde68a" opacity=".8"/><rect x="570" y="348" width="10" height="12" fill="#fde68a" opacity=".8"/><rect x="592" y="348" width="10" height="12" fill="#fde68a" opacity=".8"/><rect x="504" y="400" width="10" height="12" fill="#fde68a" opacity=".8"/><rect x="526" y="400" width="10" height="12" fill="#fde68a" opacity=".8"/><rect x="570" y="400" width="10" height="12" fill="#fde68a" opacity=".8"/><rect x="625" y="243" width="125" height="187" fill="#0f172a" opacity="0.65"/><rect x="723" y="259" width="10" height="12" fill="#fde68a" opacity=".8"/><rect x="635" y="285" width="10" height="12" fill="#fde68a" opacity=".8"/><rect x="657" y="285" width="10" height="12" fill="#fde68a" opacity=".8"/><rect x="701" y="285" width="10" height="12" fill="#fde68a" opacity=".8"/><rect x="723" y="285" width="10" height="12" fill="#fde68a" opacity=".8"/><rect x="657" y="311" width="10" height="12" fill="#fde68a" opacity=".8"/><rect x="679" y="337" width="10" height="12" fill="#fde68a" opacity=".8"/><rect x="657" y="363" width="10" height="12" fill="#fde68a" opacity=".8"/><rect x="657" y="389" width="10" height="12" fill="#fde68a" opacity=".8"/><rect x="657" y="415" width="10" height="12" fill="#fde68a" opacity=".8"/><rect x="723" y="415" width="10" height="12" fill="#fde68a" opacity=".8"/><rect x="767" y="259" width="102" height="171" fill="#0f172a" opacity="0.65"/><rect x="821" y="275" width="10" height="12" fill="#fde68a" opacity=".8"/><rect x="777" y="327" width="10" height="12" fill="#fde68a" opacity=".8"/><rect x="821" y="353" width="10" height="12" fill="#fde68a" opacity=".8"/><rect x="843" y="353" width="10" height="12" fill="#fde68a" opacity=".8"/><rect x="777" y="379" width="10" height="12" fill="#fde68a" opacity=".8"/><rect x="843" y="379" width="10" height="12" fill="#fde68a" opacity=".8"/><rect x="887" y="210" width="87" height="220" fill="#0f172a" opacity="0.65"/><rect x="919" y="226" width="10" height="12" fill="#fde68a" opacity=".8"/><rect x="941" y="226" width="10" height="12" fill="#fde68a" opacity=".8"/><rect x="897" y="278" width="10" height="12" fill="#fde68a" opacity=".8"/><rect x="941" y="304" width="10" height="12" fill="#fde68a" opacity=".8"/><rect x="919" y="330" width="10" height="12" fill="#fde68a" opacity=".8"/><rect x="941" y="356" width="10" height="12" fill="#fde68a" opacity=".8"/><rect x="919" y="382" width="10" height="12" fill="#fde68a" opacity=".8"/><rect x="897" y="408" width="10" height="12" fill="#fde68a" opacity=".8"/><rect x="919" y="408" width="10" height="12" fill="#fde68a" opacity=".8"/><rect x="941" y="408" width="10" height="12" fill="#fde68a" opacity=".8"/><rect x="981" y="233" width="83" height="197" fill="#0f172a" opacity="0.65"/><rect x="991" y="249" width="10" height="12" fill="#fde68a" opacity=".8"/><rect x="1035" y="249" width="10" height="12" fill="#fde68a" opacity=".8"/><rect x="1013" y="275" width="10" height="12" fill="#fde68a" opacity=".8"/><rect x="991" y="301" width="10" height="12" fill="#fde68a" opacity=".8"/><rect x="991" y="327" width="10" height="12" fill="#fde68a" opacity=".8"/><rect x="1035" y="327" width="10" height="12" fill="#fde68a" opacity=".8"/><rect x="1035" y="353" width="10" height="12" fill="#fde68a" opacity=".8"/><rect x="991" y="379" width="10" height="12" fill="#fde68a" opacity=".8"/><rect x="991" y="405" width="10" height="12" fill="#fde68a" opacity=".8"/><rect x="1013" y="405" width="10" height="12" fill="#fde68a" opacity=".8"/><rect x="1076" y="265" width="108" height="165" fill="#0f172a" opacity="0.65"/><rect x="1086" y="281" width="10" height="12" fill="#fde68a" opacity=".8"/><rect x="1108" y="307" width="10" height="12" fill="#fde68a" opacity=".8"/><rect x="1130" y="333" width="10" height="12" fill="#fde68a" opacity=".8"/><rect x="1152" y="333" width="10" height="12" fill="#fde68a" opacity=".8"/><rect x="1086" y="359" width="10" height="12" fill="#fde68a" opacity=".8"/><rect x="1108" y="359" width="10" height="12" fill="#fde68a" opacity=".8"/><rect x="1108" y="385" width="10" height="12" fill="#fde68a" opacity=".8"/><rect x="1130" y="385" width="10" height="12" fill="#fde68a" opacity=".8"/><rect x="1188" y="292" width="105" height="138" fill="#0f172a" opacity="0.65"/><rect x="1198" y="308" width="10" height="12" fill="#fde68a" opacity=".8"/><rect x="1220" y="308" width="10" height="12" fill="#fde68a" opacity=".8"/><rect x="1242" y="308" width="10" height="12" fill="#fde68a" opacity=".8"/><rect x="1220" y="334" width="10" height="12" fill="#fde68a" opacity=".8"/><rect x="1242" y="360" width="10" height="12" fill="#fde68a" opacity=".8"/><rect x="1242" y="386" width="10" height="12" fill="#fde68a" opacity=".8"/><rect y="430" width="1200" height="320" fill="#1e2533"/><rect x="60" y="170" width="1080" height="44" fill="#475569"/><rect x="40" y="150" width="1120" height="26" rx="6" fill="#94a3b8"/><rect x="60" y="214" width="1080" height="460" fill="#0f172a" opacity=".55"/><rect x="90" y="214" width="34" height="460" fill="#94a3b8" opacity=".9"/><ellipse cx="270" cy="232" rx="44" ry="8" fill="#fef9c3"/><path d="M226,236 L170,560 L370,560 L314,236 Z" fill="#fef9c3" opacity=".08"/><rect x="430" y="214" width="34" height="460" fill="#94a3b8" opacity=".9"/><ellipse cx="610" cy="232" rx="44" ry="8" fill="#fef9c3"/><path d="M566,236 L510,560 L710,560 L654,236 Z" fill="#fef9c3" opacity=".08"/><rect x="770" y="214" width="34" height="460" fill="#94a3b8" opacity=".9"/><ellipse cx="950" cy="232" rx="44" ry="8" fill="#fef9c3"/><path d="M906,236 L850,560 L1050,560 L994,236 Z" fill="#fef9c3" opacity=".08"/><rect x="1110" y="214" width="34" height="460" fill="#94a3b8" opacity=".9"/><ellipse cx="1290" cy="232" rx="44" ry="8" fill="#fef9c3"/><path d="M1246,236 L1190,560 L1390,560 L1334,236 Z" fill="#fef9c3" opacity=".08"/><g transform="translate(410,640) scale(-1,1)"><ellipse cx="130.0" cy="4" rx="135.20000000000002" ry="9.36" fill="#000" opacity=".35"/><path d="M5.2,-16.848 Q0,-51.480000000000004 31.2,-56.16 L67.60000000000001,-59.903999999999996 L93.6,-91.728 Q104.0,-97.344 124.8,-97.344 L171.6,-97.344 Q187.2,-95.472 197.6,-87.984 L223.6,-61.775999999999996 L249.6,-56.16 Q262.6,-51.480000000000004 260,-16.848 Z" fill="#0ea5e9"/><path d="M78.0,-61.775999999999996 L101.4,-87.048 L143.0,-87.048 L143.0,-61.775999999999996 Z" fill="#bfdbfe" opacity=".75"/><path d="M150.79999999999998,-61.775999999999996 L150.79999999999998,-87.048 L182.0,-87.048 L208.0,-61.775999999999996 Z" fill="#bfdbfe" opacity=".75"/><rect x="15.6" y="-39.312" width="228.8" height="4.68" fill="#000" opacity=".15"/><rect x="247.0" y="-46.8" width="13.0" height="9.36" rx="3" fill="#fef08a"/><rect x="0" y="-46.8" width="9.100000000000001" height="9.36" rx="3" fill="#ef4444"/><circle cx="57.2" cy="-14.975999999999999" r="18.72" fill="#0b0f17"/><circle cx="57.2" cy="-14.975999999999999" r="8.424" fill="#9ca3af"/><circle cx="202.8" cy="-14.975999999999999" r="18.72" fill="#0b0f17"/><circle cx="202.8" cy="-14.975999999999999" r="8.424" fill="#9ca3af"/></g><g transform="translate(750,640) scale(-1,1)"><ellipse cx="130.0" cy="4" rx="135.20000000000002" ry="9.36" fill="#000" opacity=".35"/><path d="M5.2,-16.848 Q0,-51.480000000000004 31.2,-56.16 L67.60000000000001,-59.903999999999996 L93.6,-91.728 Q104.0,-97.344 124.8,-97.344 L171.6,-97.344 Q187.2,-95.472 197.6,-87.984 L223.6,-61.775999999999996 L249.6,-56.16 Q262.6,-51.480000000000004 260,-16.848 Z" fill="#a855f7"/><path d="M78.0,-61.775999999999996 L101.4,-87.048 L143.0,-87.048 L143.0,-61.775999999999996 Z" fill="#bfdbfe" opacity=".75"/><path d="M150.79999999999998,-61.775999999999996 L150.79999999999998,-87.048 L182.0,-87.048 L208.0,-61.775999999999996 Z" fill="#bfdbfe" opacity=".75"/><rect x="15.6" y="-39.312" width="228.8" height="4.68" fill="#000" opacity=".15"/><rect x="247.0" y="-46.8" width="13.0" height="9.36" rx="3" fill="#fef08a"/><rect x="0" y="-46.8" width="9.100000000000001" height="9.36" rx="3" fill="#ef4444"/><circle cx="57.2" cy="-14.975999999999999" r="18.72" fill="#0b0f17"/><circle cx="57.2" cy="-14.975999999999999" r="8.424" fill="#9ca3af"/><circle cx="202.8" cy="-14.975999999999999" r="18.72" fill="#0b0f17"/><circle cx="202.8" cy="-14.975999999999999" r="8.424" fill="#9ca3af"/></g><g transform="translate(830,640) scale(1,1)"><ellipse cx="130.0" cy="4" rx="135.20000000000002" ry="9.36" fill="#000" opacity=".35"/><path d="M5.2,-16.848 Q0,-51.480000000000004 31.2,-56.16 L67.60000000000001,-59.903999999999996 L93.6,-91.728 Q104.0,-97.344 124.8,-97.344 L171.6,-97.344 Q187.2,-95.472 197.6,-87.984 L223.6,-61.775999999999996 L249.6,-56.16 Q262.6,-51.480000000000004 260,-16.848 Z" fill="#94a3b8"/><path d="M78.0,-61.775999999999996 L101.4,-87.048 L143.0,-87.048 L143.0,-61.775999999999996 Z" fill="#bfdbfe" opacity=".75"/><path d="M150.79999999999998,-61.775999999999996 L150.79999999999998,-87.048 L182.0,-87.048 L208.0,-61.775999999999996 Z" fill="#bfdbfe" opacity=".75"/><rect x="15.6" y="-39.312" width="228.8" height="4.68" fill="#000" opacity=".15"/><rect x="247.0" y="-46.8" width="13.0" height="9.36" rx="3" fill="#fef08a"/><rect x="0" y="-46.8" width="9.100000000000001" height="9.36" rx="3" fill="#ef4444"/><circle cx="57.2" cy="-14.975999999999999" r="18.72" fill="#0b0f17"/><circle cx="57.2" cy="-14.975999999999999" r="8.424" fill="#9ca3af"/><circle cx="202.8" cy="-14.975999999999999" r="18.72" fill="#0b0f17"/><circle cx="202.8" cy="-14.975999999999999" r="8.424" fill="#9ca3af"/></g><rect y="674" width="1200" height="76" fill="#1e2533"/><rect x="20" y="700" width="70" height="8" fill="#f8fafc" opacity=".5"/><rect x="160" y="700" width="70" height="8" fill="#f8fafc" opacity=".5"/><rect x="300" y="700" width="70" height="8" fill="#f8fafc" opacity=".5"/><rect x="440" y="700" width="70" height="8" fill="#f8fafc" opacity=".5"/><rect x="580" y="700" width="70" height="8" fill="#f8fafc" opacity=".5"/><rect x="720" y="700" width="70" height="8" fill="#f8fafc" opacity=".5"/><rect x="860" y="700" width="70" height="8" fill="#f8fafc" opacity=".5"/><rect x="1000" y="700" width="70" height="8" fill="#f8fafc" opacity=".5"/><rect x="1140" y="700" width="70" height="8" fill="#f8fafc" opacity=".5"/><g transform="translate(1110,520) scale(0.8)"><rect x="-4" y="0" width="8" height="150" fill="#64748b"/><rect x="-42" y="-80" width="84" height="84" rx="14" fill="#14b88a" stroke="#fff" stroke-width="5"/><text x="0" y="-18" text-anchor="middle" font-family="Arial, sans-serif" font-weight="900" font-size="62" fill="#fff">P</text></g></svg>