<svg xmlns="http://www.w3.org/2000/svg" viewBox="0 0 1200 750" preserveAspectRatio="xMidYMid slice" role="img" aria-label="Illustration of lot parking"><rect width="1200" height="750" fill="#1e2533"/><circle cx="394" cy="570" r="3" fill="#fff" opacity=".04"/><circle cx="389" cy="432" r="2" fill="#fff" opacity=".04"/><circle cx="1080" cy="720" r="2" fill="#fff" opacity=".04"/><circle cx="946" cy="102" r="1" fill="#fff" opacity=".04"/><circle cx="958" cy="325" r="1" fill="#fff" opacity=".04"/><circle cx="14" cy="320" r="3" fill="#fff" opacity=".04"/><circle cx="210" cy="109" r="2" fill="#fff" opacity=".04"/><circle cx="934" cy="595" r="2" fill="#fff" opacity=".04"/><circle cx="1084" cy="683" r="1" fill="#fff" opacity=".04"/><circle cx="863" cy="163" r="3" fill="#fff" opacity=".04"/><circle cx="748" cy="508" r="3" fill="#fff" opacity=".04"/><circle cx="290" cy="57" r="2" fill="#fff" opacity=".04"/><circle cx="443" cy="69" r="3" fill="#fff" opacity=".04"/><circle cx="181" cy="107" r="3" fill="#fff" opacity=".04"/><circle cx="1182" cy="693" r="1" fill="#fff" opacity=".04"/><circle cx="649" cy="442" r="2" fill="#fff" opacity=".04"/><circle cx="524" cy="643" r="3" fill="#fff" opacity=".04"/><circle cx="887" cy="441" r="3" fill="#fff" opacity=".04"/><circle cx="1004" cy="373" r="3" fill="#fff" opacity=".04"/><circle cx="378" cy="485" r="2" fill="#fff" opacity=".04"/><circle cx="872" cy="653" r="3" fill="#fff" opacity=".04"/><circle cx="709" cy="54" r="3" fill="#fff" opacity=".04"/><circle cx="181" cy="183" r="2" fill="#fff" opacity=".04"/><circle cx="763" cy="447" r="1" fill="#fff" opacity=".04"/><circle cx="889" cy="204" r="1" fill="#fff" opacity=".04"/><circle cx="579" cy="727" r="1" fill="#fff" opacity=".04"/><circle cx="1052" cy="443" r="3" fill="#fff" opacity=".04"/><circle cx="845" cy="61" r="3" fill="#fff" opacity=".04"/><circle cx="394" cy="164" r="3" fill="#fff" opacity=".04"/><circle cx="141" cy="39" r="2" fill="#fff" opacity=".04"/><circle cx="86" cy="351" r="2" fill="#fff" opacity=".04"/><circle cx="1111" cy="428" r="3" fill="#fff" opacity=".04"/><circle cx="1077" cy="191" r="3" fill="#fff" opacity=".04"/><circle cx="591" cy="52" r="2" fill="#fff" opacity=".04"/><circle cx="719" cy="554" r="1" fill="#fff" opacity=".04"/><circle cx="1169" cy="180" r="2" fill="#fff" opacity=".04"/><circle cx="622" cy="434" r="3" fill="#fff" opacity=".04"/><circle cx="672" cy="182" r="1" fill="#fff" opacity=".04"/><circle cx="225" cy="475" r="2" fill="#fff" opacity=".04"/><circle cx="224" cy="310" r="1" fill="#fff" opacity=".04"/><circle cx="449" cy="60" r="1" fill="#fff" opacity=".04"/><circle cx="920" cy="703" r="3" fill="#fff" opacity=".04"/><circle cx="1026" cy="260" r="1" fill="#fff" opacity=".04"/><circle cx="1099" cy="696" r="3" fill="#fff" opacity=".04"/><circle cx="29" cy="218" r="2" fill="#fff" opacity=".04"/><circle cx="326" cy="64" r="2" fill="#fff" opacity=".04"/><circle cx="929" cy="153" r="2" fill="#fff" opacity=".04"/><circle cx="837" cy="561" r="1" fill="#fff" opacity=".04"/><circle cx="452" cy="450" r="1" fill="#fff" opacity=".04"/><circle cx="293" cy="554" r="1" fill="#fff" opacity=".04"/><circle cx="1104" cy="195" r="1" fill="#fff" opacity=".04"/><circle cx="184" cy="164" r="1" fill="#fff" opacity=".04"/><circle cx="162" cy="274" r="2" fill="#fff" opacity=".04"/><circle cx="386" cy="297" r="3" fill="#fff" opacity=".04"/><circle cx="1196" cy="51" r="2" fill="#fff" opacity=".04"/><circle cx="337" cy="667" r="1" fill="#fff" opacity=".04"/><circle cx="564" cy="359" r="3" fill="#fff" opacity=".04"/><circle cx="638" cy="220" r="1" fill="#fff" opacity=".04"/><circle cx="734" cy="372" r="3" fill="#fff" opacity=".04"/><circle cx="42" cy="474" r="3" fill="#fff" opacity=".04"/><circle cx="1017" cy="716" r="3" fill="#fff" opacity=".04"/><circle cx="174" cy="530" r="2" fill="#fff" opacity=".04"/><circle cx="486" cy="241" r="2" fill="#fff" opacity=".04"/><circle cx="445" cy="78" r="2" fill="#fff" opacity=".04"/><circle cx="640" cy="554" r="2" fill="#fff" opacity=".04"/><circle cx="789" cy="563" r="3" fill="#fff" opacity=".04"/><circle cx="737" cy="696" r="1" fill="#fff" opacity=".04"/><circle cx="255" cy="741" r="2" fill="#fff" opacity=".04"/><circle cx="880" cy="258" r="1" fill="#fff" opacity=".04"/><circle cx="164" cy="488" r="1" fill="#fff" opacity=".04"/><circle cx="465" cy="66" r="3" fill="#fff" opacity=".04"/><circle cx="593" cy="99" r="2" fill="#fff" opacity=".04"/><circle cx="731" cy="723" r="1" fill="#fff" opacity=".04"/><circle cx="33" cy="551" r="2" fill="#fff" opacity=".04"/><circle cx="946" cy="455" r="2" fill="#fff" opacity=".04"/><circle cx="429" cy="641" r="3" fill="#fff" opacity=".04"/><circle cx="447" cy="196" r="2" fill="#fff" opacity=".04"/><circle cx="309" cy="134" r="2" fill="#fff" opacity=".04"/><circle cx="186" cy="712" r="3" fill="#fff" opacity=".04"/><circle cx="329" cy="486" r="2" fill="#fff" opacity=".04"/><circle cx="120" cy="406" r="1" fill="#fff" opacity=".04"/><circle cx="989" cy="132" r="2" fill="#fff" opacity=".04"/><circle cx="28" cy="650" r="2" fill="#fff" opacity=".04"/><circle cx="1128" cy="610" r="3" fill="#fff" opacity=".04"/><circle cx="1055" cy="210" r="2" fill="#fff" opacity=".04"/><circle cx="574" cy="742" r="2" fill="#fff" opacity=".04"/><circle cx="997" cy="491" r="1" fill="#fff" opacity=".04"/><circle cx="858" cy="241" r="3" fill="#fff" opacity=".04"/><circle cx="915" cy="668" r="2" fill="#fff" opacity=".04"/><circle cx="164" cy="294" r="1" fill="#fff" opacity=".04"/><circle cx="731" cy="81" r="2" fill="#fff" opacity=".04"/><circle cx="284" cy="31" r="1" fill="#fff" opacity=".04"/><circle cx="326" cy="490" r="2" fill="#fff" opacity=".04"/><circle cx="730" cy="385" r="3" fill="#fff" opacity=".04"/><circle cx="1190" cy="191" r="2" fill="#fff" opacity=".04"/><circle cx="837" cy="233" r="1" fill="#fff" opacity=".04"/><circle cx="134" cy="253" r="3" fill="#fff" opacity=".04"/><circle cx="250" cy="232" r="1" fill="#fff" opacity=".04"/><circle cx="176" cy="594" r="3" fill="#fff" opacity=".04"/><circle cx="292" cy="184" r="2" fill="#fff" opacity=".04"/><circle cx="294" cy="98" r="1" fill="#fff" opacity=".04"/><circle cx="238" cy="664" r="3" fill="#fff" opacity=".04"/><circle cx="1170" cy="363" r="3" fill="#fff" opacity=".04"/><circle cx="185" cy="226" r="1" fill="#fff" opacity=".04"/><circle cx="484" cy="323" r="2" fill="#fff" opacity=".04"/><circle cx="450" cy="286" r="2" fill="#fff" opacity=".04"/><circle cx="459" cy="227" r="1" fill="#fff" opacity=".04"/><circle cx="1024" cy="244" r="1" fill="#fff" opacity=".04"/><circle cx="752" cy="80" r="2" fill="#fff" opacity=".04"/><circle cx="883" cy="492" r="2" fill="#fff" opacity=".04"/><circle cx="512" cy="647" r="2" fill="#fff" opacity=".04"/><circle cx="592" cy="707" r="1" fill="#fff" opacity=".04"/><circle cx="518" cy="299" r="2" fill="#fff" opacity=".04"/><circle cx="377" cy="508" r="3" fill="#fff" opacity=".04"/><circle cx="978" cy="459" r="2" fill="#fff" opacity=".04"/><circle cx="775" cy="98" r="3" fill="#fff" opacity=".04"/><circle cx="562" cy="102" r="1" fill="#fff" opacity=".04"/><circle cx="958" cy="521" r="3" fill="#fff" opacity=".04"/><circle cx="1073" cy="450" r="1" fill="#fff" opacity=".04"/><circle cx="221" cy="375" r="2" fill="#fff" opacity=".04"/><circle cx="885" cy="727" r="3" fill="#fff" opacity=".04"/><circle cx="249" cy="400" r="3" fill="#fff" opacity=".04"/><circle cx="353" cy="630" r="3" fill="#fff" opacity=".04"/><circle cx="525" cy="138" r="3" fill="#fff" opacity=".04"/><circle cx="58" cy="480" r="2" fill="#fff" opacity=".04"/><circle cx="685" cy="750" r="1" fill="#fff" opacity=".04"/><circle cx="1161" cy="64" r="1" fill="#fff" opacity=".04"/><circle cx="745" cy="358" r="1" fill="#fff" opacity=".04"/><circle cx="369" cy="36" r="2" fill="#fff" opacity=".04"/><circle cx="176" cy="420" r="2" fill="#fff" opacity=".04"/><circle cx="111" cy="741" r="2" fill="#fff" opacity=".04"/><circle cx="715" cy="376" r="1" fill="#fff" opacity=".04"/><circle cx="345" cy="104" r="2" fill="#fff" opacity=".04"/><circle cx="292" cy="290" r="1" fill="#fff" opacity=".04"/><circle cx="270" cy="607" r="1" fill="#fff" opacity=".04"/><circle cx="638" cy="547" r="2" fill="#fff" opacity=".04"/><circle cx="1042" cy="736" r="3" fill="#fff" opacity=".04"/><circle cx="282" cy="406" r="3" fill="#fff" opacity=".04"/><circle cx="660" cy="71" r="3" fill="#fff" opacity=".04"/><circle cx="527" cy="477" r="2" fill="#fff" opacity=".04"/><circle cx="1087" cy="306" r="1" fill="#fff" opacity=".04"/><circle cx="715" cy="213" r="2" fill="#fff" opacity=".04"/><circle cx="29" cy="561" r="2" fill="#fff" opacity=".04"/><circle cx="220" cy="380" r="3" fill="#fff" opacity=".04"/><circle cx="529" cy="276" r="2" fill="#fff" opacity=".04"/><circle cx="1177" cy="648" r="3" fill="#fff" opacity=".04"/><circle cx="821" cy="354" r="2" fill="#fff" opacity=".04"/><circle cx="19" cy="646" r="3" fill="#fff" opacity=".04"/><circle cx="739" cy="88" r="1" fill="#fff" opacity=".04"/><circle cx="650" cy="347" r="2" fill="#fff" opacity=".04"/><circle cx="774" cy="677" r="1" fill="#fff" opacity=".04"/><circle cx="1155" cy="266" r="3" fill="#fff" opacity=".04"/><circle cx="1197" cy="446" r="1" fill="#fff" opacity=".04"/><circle cx="690" cy="399" r="1" fill="#fff" opacity=".04"/><circle cx="1074" cy="154" r="2" fill="#fff" opacity=".04"/><circle cx="983" cy="245" r="1" fill="#fff" opacity=".04"/><circle cx="610" cy="710" r="3" fill="#fff" opacity=".04"/><circle cx="206" cy="182" r="3" fill="#fff" opacity=".04"/><circle cx="30" cy="362" r="3" fill="#fff" opacity=".04"/><circle cx="54" cy="708" r="3" fill="#fff" opacity=".04"/><circle cx="117" cy="296" r="3" fill="#fff" opacity=".04"/><circle cx="1070" cy="261" r="2" fill="#fff" opacity=".04"/><circle cx="972" cy="217" r="1" fill="#fff" opacity=".04"/><circle cx="713" cy="274" r="1" fill="#fff" opacity=".04"/><circle cx="593" cy="288" r="2" fill="#fff" opacity=".04"/><circle cx="528" cy="270" r="3" fill="#fff" opacity=".04"/><circle cx="238" cy="380" r="3" fill="#fff" opacity=".04"/><circle cx="366" cy="387" r="3" fill="#fff" opacity=".04"/><circle cx="800" cy="693" r="3" fill="#fff" opacity=".04"/><circle cx="1182" cy="488" r="3" fill="#fff" opacity=".04"/><circle cx="181" cy="453" r="1" fill="#fff" opacity=".04"/><circle cx="1078" cy="586" r="2" fill="#fff" opacity=".04"/><circle cx="1067" cy="241" r="3" fill="#fff" opacity=".04"/><circle cx="921" cy="188" r="2" fill="#fff" opacity=".04"/><circle cx="1076" cy="579" r="3" fill="#fff" opacity=".04"/><circle cx="236" cy="512" r="3" fill="#fff" opacity=".04"/><circle cx="387" cy="675" r="3" fill="#fff" opacity=".04"/><circle cx="256" cy="144" r="1" fill="#fff" opacity=".04"/><circle cx="646" cy="564" r="2" fill="#fff" opacity=".04"/><circle cx="788" cy="175" r="1" fill="#fff" opacity=".04"/><circle cx="280" cy="105" r="1" fill="#fff" opacity=".04"/><circle cx="1149" cy="515" r="3" fill="#fff" opacity=".04"/><circle cx="683" cy="452" r="3" fill="#fff" opacity=".04"/><circle cx="553" cy="451" r="1" fill="#fff" opacity=".04"/><circle cx="965" cy="727" r="2" fill="#fff" opacity=".04"/><circle cx="1173" cy="419" r="3" fill="#fff" opacity=".04"/><circle cx="1117" cy="148" r="2" fill="#fff" opacity=".04"/><circle cx="144" cy="681" r="3" fill="#fff" opacity=".04"/><circle cx="990" cy="86" r="1" fill="#fff" opacity=".04"/><circle cx="991" cy="45" r="3" fill="#fff" opacity=".04"/><circle cx="252" cy="179" r="3" fill="#fff" opacity=".04"/><circle cx="751" cy="721" r="1" fill="#fff" opacity=".04"/><circle cx="796" cy="152" r="1" fill="#fff" opacity=".04"/><circle cx="661" cy="455" r="1" fill="#fff" opacity=".04"/><circle cx="94" cy="206" r="3" fill="#fff" opacity=".04"/><circle cx="751" cy="314" r="2" fill="#fff" opacity=".04"/><circle cx="188" cy="503" r="3" fill="#fff" opacity=".04"/><circle cx="927" cy="443" r="3" fill="#fff" opacity=".04"/><circle cx="138" cy="597" r="3" fill="#fff" opacity=".04"/><circle cx="977" cy="317" r="2" fill="#fff" opacity=".04"/><circle cx="1172" cy="132" r="3" fill="#fff" opacity=".04"/><circle cx="757" cy="746" r="2" fill="#fff" opacity=".04"/><circle cx="1020" cy="91" r="1" fill="#fff" opacity=".04"/><circle cx="167" cy="316" r="2" fill="#fff" opacity=".04"/><circle cx="655" cy="275" r="1" fill="#fff" opacity=".04"/><circle cx="698" cy="270" r="1" fill="#fff" opacity=".04"/><circle cx="126" cy="98" r="1" fill="#fff" opacity=".04"/><circle cx="578" cy="153" r="3" fill="#fff" opacity=".04"/><circle cx="920" cy="233" r="1" fill="#fff" opacity=".04"/><circle cx="939" cy="58" r="2" fill="#fff" opacity=".04"/><circle cx="953" cy="205" r="2" fill="#fff" opacity=".04"/><circle cx="1045" cy="739" r="1" fill="#fff" opacity=".04"/><circle cx="749" cy="320" r="2" fill="#fff" opacity=".04"/><circle cx="892" cy="471" r="3" fill="#fff" opacity=".04"/><circle cx="897" cy="48" r="2" fill="#fff" opacity=".04"/><circle cx="245" cy="549" r="3" fill="#fff" opacity=".04"/><circle cx="154" cy="451" r="1" fill="#fff" opacity=".04"/><circle cx="550" cy="65" r="2" fill="#fff" opacity=".04"/><circle cx="129" cy="119" r="3" fill="#fff" opacity=".04"/><circle cx="870" cy="257" r="2" fill="#fff" opacity=".04"/><circle cx="695" cy="522" r="1" fill="#fff" opacity=".04"/><circle cx="613" cy="168" r="1" fill="#fff" opacity=".04"/><circle cx="1189" cy="205" r="1" fill="#fff" opacity=".04"/><circle cx="675" cy="411" r="2" fill="#fff" opacity=".04"/><circle cx="126" cy="268" r="1" fill="#fff" opacity=".04"/><circle cx="394" cy="654" r="1" fill="#fff" opacity=".04"/><circle cx="402" cy="542" r="3" fill="#fff" opacity=".04"/><circle cx="942" cy="550" r="3" fill="#fff" opacity=".04"/><circle cx="890" cy="418" r="2" fill="#fff" opacity=".04"/><circle cx="268" cy="493" r="2" fill="#fff" opacity=".04"/><circle cx="598" cy="307" r="3" fill="#fff" opacity=".04"/><circle cx="627" cy="502" r="2" fill="#fff" opacity=".04"/><circle cx="638" cy="415" r="2" fill="#fff" opacity=".04"/><circle cx="518" cy="211" r="3" fill="#fff" opacity=".04"/><circle cx="402" cy="677" r="2" fill="#fff" opacity=".04"/><circle cx="1170" cy="77" r="3" fill="#fff" opacity=".04"/><circle cx="1200" cy="435" r="2" fill="#fff" opacity=".04"/><circle cx="787" cy="559" r="2" fill="#fff" opacity=".04"/><circle cx="650" cy="707" r="3" fill="#fff" opacity=".04"/><circle cx="843" cy="371" r="2" fill="#fff" opacity=".04"/><circle cx="1057" cy="18" r="1" fill="#fff" opacity=".04"/><circle cx="317" cy="328" r="3" fill="#fff" opacity=".04"/><circle cx="1057" cy="558" r="1" fill="#fff" opacity=".04"/><circle cx="1191" cy="70" r="2" fill="#fff" opacity=".04"/><circle cx="887" cy="699" r="3" fill="#fff" opacity=".04"/><circle cx="248" cy="373" r="2" fill="#fff" opacity=".04"/><circle cx="909" cy="700" r="2" fill="#fff" opacity=".04"/><circle cx="1118" cy="48" r="2" fill="#fff" opacity=".04"/><circle cx="1064" cy="378" r="1" fill="#fff" opacity=".04"/><circle cx="619" cy="590" r="3" fill="#fff" opacity=".04"/><circle cx="965" cy="665" r="3" fill="#fff" opacity=".04"/><circle cx="670" cy="549" r="1" fill="#fff" opacity=".04"/><circle cx="845" cy="137" r="2" fill="#fff" opacity=".04"/><circle cx="717" cy="49" r="2" fill="#fff" opacity=".04"/><circle cx="726" cy="663" r="1" fill="#fff" opacity=".04"/><circle cx="497" cy="187" r="1" fill="#fff" opacity=".04"/><circle cx="197" cy="472" r="2" fill="#fff" opacity=".04"/><circle cx="316" cy="487" r="3" fill="#fff" opacity=".04"/><circle cx="246" cy="448" r="1" fill="#fff" opacity=".04"/><circle cx="662" cy="706" r="3" fill="#fff" opacity=".04"/><rect x="-30" y="40" width="6" height="230" fill="#f8fafc" opacity=".85"/><rect x="120" y="40" width="6" height="230" fill="#f8fafc" opacity=".85"/><g transform="translate(198.0,155.0) rotate(180)"><rect x="-44.0" y="-89.0" width="96" height="190" rx="28.799999999999997" fill="#000" opacity=".35"/><rect x="-48.0" y="-95.0" width="96" height="190" rx="28.799999999999997" fill="#f97316"/><rect x="-36.480000000000004" y="-49.4" width="72.96000000000001" height="38.0" rx="9.600000000000001" fill="#1e293b" opacity=".85"/><rect x="-34.56" y="30.400000000000002" width="69.12" height="26.6" rx="7.68" fill="#1e293b" opacity=".8"/><rect x="-34.56" y="-9.5" width="69.12" height="38.0" rx="7.68" fill="#fff" opacity=".12"/><rect x="-40.32" y="-93.0" width="19.200000000000003" height="7.6000000000000005" rx="2" fill="#fef08a"/><rect x="21.12" y="-93.0" width="19.200000000000003" height="7.6000000000000005" rx="2" fill="#fef08a"/></g><rect x="270" y="40" width="6" height="230" fill="#f8fafc" opacity=".85"/><g transform="translate(348.0,155.0) rotate(180)"><rect x="-44.0" y="-89.0" width="96" height="190" rx="28.799999999999997" fill="#000" opacity=".35"/><rect x="-48.0" y="-95.0" width="96" height="190" rx="28.799999999999997" fill="#a855f7"/><rect x="-36.480000000000004" y="-49.4" width="72.96000000000001" height="38.0" rx="9.600000000000001" fill="#1e293b" opacity=".85"/><rect x="-34.56" y="30.400000000000002" width="69.12" height="26.6" rx="7.68" fill="#1e293b" opacity=".8"/><rect x="-34.56" y="-9.5" width="69.12" height="38.0" rx="7.68" fill="#fff" opacity=".12"/><rect x="-40.32" y="-93.0" width="19.200000000000003" height="7.6000000000000005" rx="2" fill="#fef08a"/><rect x="21.12" y="-93.0" width="19.200000000000003" height="7.6000000000000005" rx="2" fill="#fef08a"/></g><rect x="420" y="40" width="6" height="230" fill="#f8fafc" opacity=".85"/><rect x="570" y="40" width="6" height="230" fill="#f8fafc" opacity=".85"/><g transform="translate(648.0,155.0) rotate(180)"><rect x="-44.0" y="-89.0" width="96" height="190" rx="28.799999999999997" fill="#000" opacity=".35"/><rect x="-48.0" y="-95.0" width="96" height="190" rx="28.799999999999997" fill="#f8fafc"/><rect x="-36.480000000000004" y="-49.4" width="72.96000000000001" height="38.0" rx="9.600000000000001" fill="#1e293b" opacity=".85"/><rect x="-34.56" y="30.400000000000002" width="69.12" height="26.6" rx="7.68" fill="#1e293b" opacity=".8"/><rect x="-34.56" y="-9.5" width="69.12" height="38.0" rx="7.68" fill="#fff" opacity=".12"/><rect x="-40.32" y="-93.0" width="19.200000000000003" height="7.6000000000000005" rx="2" fill="#fef08a"/><rect x="21.12" y="-93.0" width="19.200000000000003" height="7.6000000000000005" rx="2" fill="#fef08a"/></g><rect x="720" y="40" width="6" height="230" fill="#f8fafc" opacity=".85"/><rect x="870" y="40" width="6" height="230" fill="#f8fafc" opacity=".85"/><rect x="1020" y="40" width="6" height="230" fill="#f8fafc" opacity=".85"/><g transform="translate(1098.0,155.0) rotate(180)"><rect x="-44.0" y="-89.0" width="96" height="190" rx="28.799999999999997" fill="#000" opacity=".35"/><rect x="-48.0" y="-95.0" width="96" height="190" rx="28.799999999999997" fill="#a855f7"/><rect x="-36.480000000000004" y="-49.4" width="72.96000000000001" height="38.0" rx="9.600000000000001" fill="#1e293b" opacity=".85"/><rect x="-34.56" y="30.400000000000002" width="69.12" height="26.6" rx="7.68" fill="#1e293b" opacity=".8"/><rect x="-34.56" y="-9.5" width="69.12" height="38.0" rx="7.68" fill="#fff" opacity=".12"/><rect x="-40.32" y="-93.0" width="19.200000000000003" height="7.6000000000000005" rx="2" fill="#fef08a"/><rect x="21.12" y="-93.0" width="19.200000000000003" height="7.6000000000000005" rx="2" fill="#fef08a"/></g><rect x="1170" y="40" width="6" height="230" fill="#f8fafc" opacity=".85"/><rect x="-30" y="267" width="1260" height="6" fill="#f8fafc" opacity=".85"/><rect x="-30" y="480" width="6" height="230" fill="#f8fafc" opacity=".85"/><rect x="120" y="480" width="6" height="230" fill="#f8fafc" opacity=".85"/><rect x="270" y="480" width="6" height="230" fill="#f8fafc" opacity=".85"/><g transform="translate(348.0,595.0) rotate(0)"><rect x="-44.0" y="-89.0" width="96" height="190" rx="28.799999999999997" fill="#000" opacity=".35"/><rect x="-48.0" y="-95.0" width="96" height="190" rx="28.799999999999997" fill="#f97316"/><rect x="-36.480000000000004" y="-49.4" width="72.96000000000001" height="38.0" rx="9.600000000000001" fill="#1e293b" opacity=".85"/><rect x="-34.56" y="30.400000000000002" width="69.12" height="26.6" rx="7.68" fill="#1e293b" opacity=".8"/><rect x="-34.56" y="-9.5" width="69.12" height="38.0" rx="7.68" fill="#fff" opacity=".12"/><rect x="-40.32" y="-93.0" width="19.200000000000003" height="7.6000000000000005" rx="2" fill="#fef08a"/><rect x="21.12" y="-93.0" width="19.200000000000003" height="7.6000000000000005" rx="2" fill="#fef08a"/></g><rect x="420" y="480" width="6" height="230" fill="#f8fafc" opacity=".85"/><rect x="570" y="480" width="6" height="230" fill="#f8fafc" opacity=".85"/><g transform="translate(648.0,595.0) rotate(0)"><rect x="-44.0" y="-89.0" width="96" height="190" rx="28.799999999999997" fill="#000" opacity=".35"/><rect x="-48.0" y="-95.0" width="96" height="190" rx="28.799999999999997" fill="#ef4444"/><rect x="-36.480000000000004" y="-49.4" width="72.96000000000001" height="38.0" rx="9.600000000000001" fill="#1e293b" opacity=".85"/><rect x="-34.56" y="30.400000000000002" width="69.12" height="26.6" rx="7.68" fill="#1e293b" opacity=".8"/><rect x="-34.56" y="-9.5" width="69.12" height="38.0" rx="7.68" fill="#fff" opacity=".12"/><rect x="-40.32" y="-93.0" width="19.200000000000003" height="7.6000000000000005" rx="2" fill="#fef08a"/><rect x="21.12" y="-93.0" width="19.200000000000003" height="7.6000000000000005" rx="2" fill="#fef08a"/></g><rect x="720" y="480" width="6" height="230" fill="#f8fafc" opacity=".85"/><g transform="translate(798.0,595.0) rotate(0)"><rect x="-44.0" y="-89.0" width="96" height="190" rx="28.799999999999997" fill="#000" opacity=".35"/><rect x="-48.0" y="-95.0" width="96" height="190" rx="28.799999999999997" fill="#f97316"/><rect x="-36.480000000000004" y="-49.4" width="72.96000000000001" height="38.0" rx="9.600000000000001" fill="#1e293b" opacity=".85"/><rect x="-34.56" y="30.400000000000002" width="69.12" height="26.6" rx="7.68" fill="#1e293b" opacity=".8"/><rect x="-34.56" y="-9.5" width="69.12" height="38.0" rx="7.68" fill="#fff" opacity=".12"/><rect x="-40.32" y="-93.0" width="19.200000000000003" height="7.6000000000000005" rx="2" fill="#fef08a"/><rect x="21.12" y="-93.0" width="19.200000000000003" height="7.6000000000000005" rx="2" fill="#fef08a"/></g><rect x="870" y="480" width="6" height="230" fill="#f8fafc" opacity=".85"/><rect x="1020" y="480" width="6" height="230" fill="#f8fafc" opacity=".85"/><g transform="translate(1098.0,595.0) rotate(0)"><rect x="-44.0" y="-89.0" width="96" height="190" rx="28.799999999999997" fill="#000" opacity=".35"/><rect x="-48.0" y="-95.0" width="96" height="190" rx="28.799999999999997" fill="#94a3b8"/><rect x="-36.480000000000004" y="-49.4" width="72.96000000000001" height="38.0" rx="9.600000000000001" fill="#1e293b" opacity=".85"/><rect x="-34.56" y="30.400000000000002" width="69.12" height="26.6" rx="7.68" fill="#1e293b" opacity=".8"/><rect x="-34.56" y="-9.5" width="69.12" height="38.0" rx="7.68" fill="#fff" opacity=".12"/><rect x="-40.32" y="-93.0" width="19.200000000000003" height="7.6000000000000005" rx="2" fill="#fef08a"/><rect x="21.12" y="-93.0" width="19.200000000000003" height="7.6000000000000005" rx="2" fill="#fef08a"/></g><rect x="1170" y="480" width="6" height="230" fill="#f8fafc" opacity=".85"/><rect x="-30" y="477" width="1260" height="6" fill="#f8fafc" opacity=".85"/><rect x="20" y="371.0" width="60" height="8" rx="3" fill="#facc15" opacity=".8"/><rect x="140" y="371.0" width="60" height="8" rx="3" fill="#facc15" opacity=".8"/><rect x="260" y="371.0" width="60" height="8" rx="3" fill="#facc15" opacity=".8"/><rect x="380" y="371.0" width="60" height="8" rx="3" fill="#facc15" opacity=".8"/><rect x="500" y="371.0" width="60" height="8" rx="3" fill="#facc15" opacity=".8"/><rect x="620" y="371.0" width="60" height="8" rx="3" fill="#facc15" opacity=".8"/><rect x="740" y="371.0" width="60" height="8" rx="3" fill="#facc15" opacity=".8"/><rect x="860" y="371.0" width="60" height="8" rx="3" fill="#facc15" opacity=".8"/><rect x="980" y="371.0" width="60" height="8" rx="3" fill="#facc15" opacity=".8"/><rect x="1100" y="371.0" width="60" height="8" rx="3" fill="#facc15" opacity=".8"/><path d="M624.0,335.0 l40,40 l-40,40" stroke="#f8fafc" stroke-width="10" fill="none" opacity=".6" stroke-linecap="round"/><g transform="translate(360.0,375.0) rotate(90)"><rect x="-46.0" y="-92.0" width="100" height="196" rx="30.0" fill="#000" opacity=".35"/><rect x="-50.0" y="-98.0" width="100" height="196" rx="30.0" fill="#0ea5e9"/><rect x="-38.0" y="-50.96" width="76.0" height="39.2" rx="10.0" fill="#1e293b" opacity=".85"/><rect x="-36.0" y="31.36" width="72.0" height="27.44" rx="8.0" fill="#1e293b" opacity=".8"/><rect x="-36.0" y="-9.8" width="72.0" height="39.2" rx="8.0" fill="#fff" opacity=".12"/><rect x="-42.0" y="-96.0" width="20.0" height="7.84" rx="2" fill="#fef08a"/><rect x="22.0" y="-96.0" width="20.0" height="7.84" rx="2" fill="#fef08a"/></g><circle cx="60" cy="375.0" r="70" fill="#166534" opacity=".9"/><circle cx="80" cy="355.0" r="40" fill="#22c55e" opacity=".5"/><circle cx="1140" cy="375.0" r="70" fill="#166534" opacity=".9"/><circle cx="1160" cy="355.0" r="40" fill="#22c55e" opacity=".5"/><rect x="864.0" y="317.0" width="116" height="116" rx="22" fill="#14b88a" opacity=".92"/><text x="922.0" y="411.0" text-anchor="middle" font-family="Arial, sans-serif" font-weight="900" font-size="96" fill="#fff">P</text><rect width="1200" height="750" fill="#020617" opacity="0.35"/></svg>