<svg xmlns="http://www.w3.org/2000/svg" viewBox="0 0 1200 750" preserveAspectRatio="xMidYMid slice" role="img" aria-label="Illustration of lot parking"><rect width="1200" height="750" fill="#1e2533"/><circle cx="319" cy="510" r="3" fill="#fff" opacity=".04"/><circle cx="572" cy="264" r="2" fill="#fff" opacity=".04"/><circle cx="7" cy="51" r="3" fill="#fff" opacity=".04"/><circle cx="313" cy="73" r="2" fill="#fff" opacity=".04"/><circle cx="75" cy="556" r="2" fill="#fff" opacity=".04"/><circle cx="659" cy="537" r="1" fill="#fff" opacity=".04"/><circle cx="554" cy="17" r="1" fill="#fff" opacity=".04"/><circle cx="396" cy="575" r="2" fill="#fff" opacity=".04"/><circle cx="148" cy="262" r="1" fill="#fff" opacity=".04"/><circle cx="554" cy="261" r="2" fill="#fff" opacity=".04"/><circle cx="65" cy="426" r="3" fill="#fff" opacity=".04"/><circle cx="832" cy="326" r="1" fill="#fff" opacity=".04"/><circle cx="1" cy="23" r="1" fill="#fff" opacity=".04"/><circle cx="242" cy="716" r="3" fill="#fff" opacity=".04"/><circle cx="396" cy="215" r="3" fill="#fff" opacity=".04"/><circle cx="432" cy="147" r="2" fill="#fff" opacity=".04"/><circle cx="569" cy="138" r="3" fill="#fff" opacity=".04"/><circle cx="501" cy="645" r="1" fill="#fff" opacity=".04"/><circle cx="151" cy="110" r="1" fill="#fff" opacity=".04"/><circle cx="839" cy="627" r="1" fill="#fff" opacity=".04"/><circle cx="729" cy="298" r="2" fill="#fff" opacity=".04"/><circle cx="676" cy="224" r="2" fill="#fff" opacity=".04"/><circle cx="510" cy="444" r="2" fill="#fff" opacity=".04"/><circle cx="314" cy="205" r="3" fill="#fff" opacity=".04"/><circle cx="185" cy="520" r="1" fill="#fff" opacity=".04"/><circle cx="49" cy="149" r="1" fill="#fff" opacity=".04"/><circle cx="814" cy="76" r="3" fill="#fff" opacity=".04"/><circle cx="237" cy="180" r="2" fill="#fff" opacity=".04"/><circle cx="451" cy="56" r="2" fill="#fff" opacity=".04"/><circle cx="1133" cy="217" r="2" fill="#fff" opacity=".04"/><circle cx="914" cy="131" r="1" fill="#fff" opacity=".04"/><circle cx="470" cy="380" r="3" fill="#fff" opacity=".04"/><circle cx="772" cy="482" r="3" fill="#fff" opacity=".04"/><circle cx="562" cy="584" r="1" fill="#fff" opacity=".04"/><circle cx="323" cy="126" r="1" fill="#fff" opacity=".04"/><circle cx="820" cy="377" r="2" fill="#fff" opacity=".04"/><circle cx="741" cy="364" r="1" fill="#fff" opacity=".04"/><circle cx="279" cy="316" r="2" fill="#fff" opacity=".04"/><circle cx="1076" cy="479" r="1" fill="#fff" opacity=".04"/><circle cx="388" cy="597" r="3" fill="#fff" opacity=".04"/><circle cx="818" cy="667" r="3" fill="#fff" opacity=".04"/><circle cx="380" cy="560" r="1" fill="#fff" opacity=".04"/><circle cx="635" cy="655" r="1" fill="#fff" opacity=".04"/><circle cx="62" cy="625" r="1" fill="#fff" opacity=".04"/><circle cx="722" cy="403" r="3" fill="#fff" opacity=".04"/><circle cx="287" cy="134" r="1" fill="#fff" opacity=".04"/><circle cx="116" cy="556" r="3" fill="#fff" opacity=".04"/><circle cx="293" cy="260" r="1" fill="#fff" opacity=".04"/><circle cx="475" cy="733" r="3" fill="#fff" opacity=".04"/><circle cx="797" cy="310" r="1" fill="#fff" opacity=".04"/><circle cx="654" cy="321" r="2" fill="#fff" opacity=".04"/><circle cx="79" cy="270" r="1" fill="#fff" opacity=".04"/><circle cx="24" cy="584" r="3" fill="#fff" opacity=".04"/><circle cx="1046" cy="312" r="2" fill="#fff" opacity=".04"/><circle cx="442" cy="111" r="2" fill="#fff" opacity=".04"/><circle cx="341" cy="180" r="2" fill="#fff" opacity=".04"/><circle cx="976" cy="356" r="2" fill="#fff" opacity=".04"/><circle cx="541" cy="388" r="1" fill="#fff" opacity=".04"/><circle cx="544" cy="401" r="2" fill="#fff" opacity=".04"/><circle cx="163" cy="98" r="3" fill="#fff" opacity=".04"/><circle cx="130" cy="245" r="1" fill="#fff" opacity=".04"/><circle cx="836" cy="222" r="3" fill="#fff" opacity=".04"/><circle cx="162" cy="65" r="3" fill="#fff" opacity=".04"/><circle cx="559" cy="221" r="1" fill="#fff" opacity=".04"/><circle cx="1111" cy="529" r="3" fill="#fff" opacity=".04"/><circle cx="392" cy="12" r="1" fill="#fff" opacity=".04"/><circle cx="133" cy="489" r="3" fill="#fff" opacity=".04"/><circle cx="489" cy="154" r="1" fill="#fff" opacity=".04"/><circle cx="938" cy="560" r="2" fill="#fff" opacity=".04"/><circle cx="410" cy="117" r="3" fill="#fff" opacity=".04"/><circle cx="475" cy="383" r="3" fill="#fff" opacity=".04"/><circle cx="10" cy="550" r="2" fill="#fff" opacity=".04"/><circle cx="745" cy="233" r="1" fill="#fff" opacity=".04"/><circle cx="638" cy="428" r="3" fill="#fff" opacity=".04"/><circle cx="720" cy="295" r="2" fill="#fff" opacity=".04"/><circle cx="930" cy="249" r="3" fill="#fff" opacity=".04"/><circle cx="175" cy="577" r="2" fill="#fff" opacity=".04"/><circle cx="155" cy="202" r="1" fill="#fff" opacity=".04"/><circle cx="634" cy="376" r="3" fill="#fff" opacity=".04"/><circle cx="334" cy="365" r="1" fill="#fff" opacity=".04"/><circle cx="464" cy="646" r="1" fill="#fff" opacity=".04"/><circle cx="81" cy="94" r="1" fill="#fff" opacity=".04"/><circle cx="1050" cy="196" r="3" fill="#fff" opacity=".04"/><circle cx="911" cy="212" r="2" fill="#fff" opacity=".04"/><circle cx="1088" cy="367" r="2" fill="#fff" opacity=".04"/><circle cx="1155" cy="142" r="2" fill="#fff" opacity=".04"/><circle cx="1074" cy="270" r="2" fill="#fff" opacity=".04"/><circle cx="62" cy="245" r="3" fill="#fff" opacity=".04"/><circle cx="1157" cy="642" r="2" fill="#fff" opacity=".04"/><circle cx="827" cy="744" r="3" fill="#fff" opacity=".04"/><circle cx="1066" cy="715" r="3" fill="#fff" opacity=".04"/><circle cx="600" cy="219" r="3" fill="#fff" opacity=".04"/><circle cx="557" cy="417" r="1" fill="#fff" opacity=".04"/><circle cx="526" cy="20" r="3" fill="#fff" opacity=".04"/><circle cx="676" cy="349" r="2" fill="#fff" opacity=".04"/><circle cx="418" cy="107" r="1" fill="#fff" opacity=".04"/><circle cx="621" cy="708" r="2" fill="#fff" opacity=".04"/><circle cx="1184" cy="97" r="2" fill="#fff" opacity=".04"/><circle cx="1197" cy="308" r="3" fill="#fff" opacity=".04"/><circle cx="610" cy="464" r="1" fill="#fff" opacity=".04"/><circle cx="447" cy="144" r="2" fill="#fff" opacity=".04"/><circle cx="111" cy="556" r="1" fill="#fff" opacity=".04"/><circle cx="212" cy="174" r="3" fill="#fff" opacity=".04"/><circle cx="886" cy="389" r="2" fill="#fff" opacity=".04"/><circle cx="259" cy="720" r="3" fill="#fff" opacity=".04"/><circle cx="780" cy="234" r="1" fill="#fff" opacity=".04"/><circle cx="193" cy="93" r="1" fill="#fff" opacity=".04"/><circle cx="944" cy="6" r="3" fill="#fff" opacity=".04"/><circle cx="246" cy="137" r="1" fill="#fff" opacity=".04"/><circle cx="204" cy="638" r="3" fill="#fff" opacity=".04"/><circle cx="1055" cy="285" r="1" fill="#fff" opacity=".04"/><circle cx="794" cy="79" r="3" fill="#fff" opacity=".04"/><circle cx="925" cy="166" r="1" fill="#fff" opacity=".04"/><circle cx="984" cy="348" r="2" fill="#fff" opacity=".04"/><circle cx="139" cy="363" r="3" fill="#fff" opacity=".04"/><circle cx="80" cy="480" r="1" fill="#fff" opacity=".04"/><circle cx="1006" cy="76" r="3" fill="#fff" opacity=".04"/><circle cx="745" cy="605" r="3" fill="#fff" opacity=".04"/><circle cx="1094" cy="412" r="2" fill="#fff" opacity=".04"/><circle cx="196" cy="570" r="3" fill="#fff" opacity=".04"/><circle cx="65" cy="412" r="1" fill="#fff" opacity=".04"/><circle cx="628" cy="641" r="2" fill="#fff" opacity=".04"/><circle cx="517" cy="199" r="2" fill="#fff" opacity=".04"/><circle cx="1021" cy="344" r="3" fill="#fff" opacity=".04"/><circle cx="425" cy="653" r="1" fill="#fff" opacity=".04"/><circle cx="372" cy="177" r="1" fill="#fff" opacity=".04"/><circle cx="716" cy="288" r="3" fill="#fff" opacity=".04"/><circle cx="50" cy="94" r="2" fill="#fff" opacity=".04"/><circle cx="904" cy="345" r="2" fill="#fff" opacity=".04"/><circle cx="1072" cy="7" r="2" fill="#fff" opacity=".04"/><circle cx="658" cy="406" r="3" fill="#fff" opacity=".04"/><circle cx="1185" cy="661" r="3" fill="#fff" opacity=".04"/><circle cx="950" cy="703" r="1" fill="#fff" opacity=".04"/><circle cx="376" cy="707" r="3" fill="#fff" opacity=".04"/><circle cx="605" cy="408" r="2" fill="#fff" opacity=".04"/><circle cx="689" cy="587" r="2" fill="#fff" opacity=".04"/><circle cx="652" cy="307" r="2" fill="#fff" opacity=".04"/><circle cx="400" cy="654" r="3" fill="#fff" opacity=".04"/><circle cx="832" cy="267" r="2" fill="#fff" opacity=".04"/><circle cx="1147" cy="603" r="1" fill="#fff" opacity=".04"/><circle cx="1135" cy="726" r="1" fill="#fff" opacity=".04"/><circle cx="780" cy="203" r="2" fill="#fff" opacity=".04"/><circle cx="860" cy="721" r="1" fill="#fff" opacity=".04"/><circle cx="114" cy="692" r="1" fill="#fff" opacity=".04"/><circle cx="589" cy="114" r="2" fill="#fff" opacity=".04"/><circle cx="705" cy="646" r="2" fill="#fff" opacity=".04"/><circle cx="383" cy="168" r="3" fill="#fff" opacity=".04"/><circle cx="274" cy="245" r="3" fill="#fff" opacity=".04"/><circle cx="1074" cy="579" r="3" fill="#fff" opacity=".04"/><circle cx="434" cy="680" r="1" fill="#fff" opacity=".04"/><circle cx="783" cy="347" r="1" fill="#fff" opacity=".04"/><circle cx="610" cy="693" r="2" fill="#fff" opacity=".04"/><circle cx="1117" cy="291" r="2" fill="#fff" opacity=".04"/><circle cx="1168" cy="4" r="3" fill="#fff" opacity=".04"/><circle cx="54" cy="381" r="1" fill="#fff" opacity=".04"/><circle cx="567" cy="542" r="2" fill="#fff" opacity=".04"/><circle cx="779" cy="690" r="2" fill="#fff" opacity=".04"/><circle cx="13" cy="276" r="1" fill="#fff" opacity=".04"/><circle cx="759" cy="494" r="1" fill="#fff" opacity=".04"/><circle cx="940" cy="572" r="2" fill="#fff" opacity=".04"/><circle cx="468" cy="441" r="1" fill="#fff" opacity=".04"/><circle cx="901" cy="467" r="3" fill="#fff" opacity=".04"/><circle cx="1145" cy="257" r="1" fill="#fff" opacity=".04"/><circle cx="896" cy="257" r="3" fill="#fff" opacity=".04"/><circle cx="303" cy="581" r="1" fill="#fff" opacity=".04"/><circle cx="526" cy="172" r="3" fill="#fff" opacity=".04"/><circle cx="545" cy="453" r="2" fill="#fff" opacity=".04"/><circle cx="864" cy="329" r="2" fill="#fff" opacity=".04"/><circle cx="353" cy="165" r="2" fill="#fff" opacity=".04"/><circle cx="121" cy="478" r="1" fill="#fff" opacity=".04"/><circle cx="930" cy="528" r="3" fill="#fff" opacity=".04"/><circle cx="306" cy="225" r="3" fill="#fff" opacity=".04"/><circle cx="1032" cy="51" r="2" fill="#fff" opacity=".04"/><circle cx="477" cy="613" r="2" fill="#fff" opacity=".04"/><circle cx="240" cy="695" r="3" fill="#fff" opacity=".04"/><circle cx="910" cy="293" r="2" fill="#fff" opacity=".04"/><circle cx="160" cy="425" r="3" fill="#fff" opacity=".04"/><circle cx="485" cy="121" r="1" fill="#fff" opacity=".04"/><circle cx="346" cy="429" r="2" fill="#fff" opacity=".04"/><circle cx="233" cy="533" r="3" fill="#fff" opacity=".04"/><circle cx="524" cy="36" r="2" fill="#fff" opacity=".04"/><circle cx="182" cy="253" r="2" fill="#fff" opacity=".04"/><circle cx="843" cy="103" r="1" fill="#fff" opacity=".04"/><circle cx="1035" cy="393" r="2" fill="#fff" opacity=".04"/><circle cx="723" cy="14" r="2" fill="#fff" opacity=".04"/><circle cx="1139" cy="282" r="2" fill="#fff" opacity=".04"/><circle cx="857" cy="372" r="1" fill="#fff" opacity=".04"/><circle cx="201" cy="97" r="1" fill="#fff" opacity=".04"/><circle cx="566" cy="335" r="3" fill="#fff" opacity=".04"/><circle cx="654" cy="443" r="3" fill="#fff" opacity=".04"/><circle cx="899" cy="593" r="2" fill="#fff" opacity=".04"/><circle cx="1102" cy="278" r="3" fill="#fff" opacity=".04"/><circle cx="1110" cy="22" r="2" fill="#fff" opacity=".04"/><circle cx="624" cy="401" r="3" fill="#fff" opacity=".04"/><circle cx="804" cy="718" r="2" fill="#fff" opacity=".04"/><circle cx="868" cy="658" r="1" fill="#fff" opacity=".04"/><circle cx="1105" cy="627" r="1" fill="#fff" opacity=".04"/><circle cx="507" cy="519" r="2" fill="#fff" opacity=".04"/><circle cx="1175" cy="438" r="2" fill="#fff" opacity=".04"/><circle cx="371" cy="432" r="3" fill="#fff" opacity=".04"/><circle cx="475" cy="331" r="2" fill="#fff" opacity=".04"/><circle cx="1052" cy="409" r="1" fill="#fff" opacity=".04"/><circle cx="936" cy="534" r="2" fill="#fff" opacity=".04"/><circle cx="280" cy="315" r="3" fill="#fff" opacity=".04"/><circle cx="756" cy="630" r="2" fill="#fff" opacity=".04"/><circle cx="1136" cy="730" r="3" fill="#fff" opacity=".04"/><circle cx="500" cy="525" r="2" fill="#fff" opacity=".04"/><circle cx="427" cy="348" r="1" fill="#fff" opacity=".04"/><circle cx="829" cy="185" r="3" fill="#fff" opacity=".04"/><circle cx="625" cy="689" r="1" fill="#fff" opacity=".04"/><circle cx="1150" cy="675" r="1" fill="#fff" opacity=".04"/><circle cx="957" cy="212" r="2" fill="#fff" opacity=".04"/><circle cx="338" cy="36" r="1" fill="#fff" opacity=".04"/><circle cx="659" cy="237" r="3" fill="#fff" opacity=".04"/><circle cx="114" cy="330" r="3" fill="#fff" opacity=".04"/><circle cx="326" cy="330" r="2" fill="#fff" opacity=".04"/><circle cx="642" cy="446" r="2" fill="#fff" opacity=".04"/><circle cx="667" cy="682" r="2" fill="#fff" opacity=".04"/><circle cx="782" cy="369" r="2" fill="#fff" opacity=".04"/><circle cx="837" cy="213" r="1" fill="#fff" opacity=".04"/><circle cx="469" cy="713" r="3" fill="#fff" opacity=".04"/><circle cx="1029" cy="150" r="1" fill="#fff" opacity=".04"/><circle cx="657" cy="50" r="2" fill="#fff" opacity=".04"/><circle cx="444" cy="71" r="3" fill="#fff" opacity=".04"/><circle cx="124" cy="246" r="3" fill="#fff" opacity=".04"/><circle cx="730" cy="30" r="2" fill="#fff" opacity=".04"/><circle cx="955" cy="130" r="2" fill="#fff" opacity=".04"/><circle cx="211" cy="569" r="3" fill="#fff" opacity=".04"/><circle cx="947" cy="246" r="3" fill="#fff" opacity=".04"/><circle cx="1045" cy="353" r="2" fill="#fff" opacity=".04"/><circle cx="844" cy="457" r="2" fill="#fff" opacity=".04"/><circle cx="249" cy="93" r="2" fill="#fff" opacity=".04"/><circle cx="53" cy="444" r="3" fill="#fff" opacity=".04"/><circle cx="446" cy="232" r="1" fill="#fff" opacity=".04"/><circle cx="83" cy="618" r="1" fill="#fff" opacity=".04"/><circle cx="354" cy="389" r="3" fill="#fff" opacity=".04"/><circle cx="792" cy="460" r="2" fill="#fff" opacity=".04"/><circle cx="1062" cy="444" r="1" fill="#fff" opacity=".04"/><circle cx="310" cy="73" r="2" fill="#fff" opacity=".04"/><circle cx="531" cy="351" r="1" fill="#fff" opacity=".04"/><circle cx="1183" cy="693" r="2" fill="#fff" opacity=".04"/><circle cx="1074" cy="352" r="2" fill="#fff" opacity=".04"/><circle cx="1103" cy="263" r="2" fill="#fff" opacity=".04"/><circle cx="1081" cy="581" r="3" fill="#fff" opacity=".04"/><circle cx="1145" cy="601" r="2" fill="#fff" opacity=".04"/><circle cx="817" cy="353" r="1" fill="#fff" opacity=".04"/><circle cx="615" cy="716" r="1" fill="#fff" opacity=".04"/><circle cx="510" cy="617" r="3" fill="#fff" opacity=".04"/><circle cx="1165" cy="609" r="1" fill="#fff" opacity=".04"/><circle cx="287" cy="680" r="2" fill="#fff" opacity=".04"/><circle cx="1168" cy="604" r="3" fill="#fff" opacity=".04"/><circle cx="970" cy="511" r="1" fill="#fff" opacity=".04"/><circle cx="530" cy="282" r="3" fill="#fff" opacity=".04"/><circle cx="62" cy="372" r="1" fill="#fff" opacity=".04"/><circle cx="712" cy="341" r="3" fill="#fff" opacity=".04"/><circle cx="1103" cy="320" r="2" fill="#fff" opacity=".04"/><circle cx="379" cy="359" r="1" fill="#fff" opacity=".04"/><circle cx="596" cy="182" r="1" fill="#fff" opacity=".04"/><circle cx="259" cy="610" r="1" fill="#fff" opacity=".04"/><circle cx="422" cy="501" r="3" fill="#fff" opacity=".04"/><rect x="-30" y="40" width="6" height="230" fill="#f8fafc" opacity=".85"/><rect x="120" y="40" width="6" height="230" fill="#f8fafc" opacity=".85"/><g transform="translate(198.0,155.0) rotate(180)"><rect x="-44.0" y="-89.0" width="96" height="190" rx="28.799999999999997" fill="#000" opacity=".35"/><rect x="-48.0" y="-95.0" width="96" height="190" rx="28.799999999999997" fill="#f8fafc"/><rect x="-36.480000000000004" y="-49.4" width="72.96000000000001" height="38.0" rx="9.600000000000001" fill="#1e293b" opacity=".85"/><rect x="-34.56" y="30.400000000000002" width="69.12" height="26.6" rx="7.68" fill="#1e293b" opacity=".8"/><rect x="-34.56" y="-9.5" width="69.12" height="38.0" rx="7.68" fill="#fff" opacity=".12"/><rect x="-40.32" y="-93.0" width="19.200000000000003" height="7.6000000000000005" rx="2" fill="#fef08a"/><rect x="21.12" y="-93.0" width="19.200000000000003" height="7.6000000000000005" rx="2" fill="#fef08a"/></g><rect x="270" y="40" width="6" height="230" fill="#f8fafc" opacity=".85"/><g transform="translate(348.0,155.0) rotate(180)"><rect x="-44.0" y="-89.0" width="96" height="190" rx="28.799999999999997" fill="#000" opacity=".35"/><rect x="-48.0" y="-95.0" width="96" height="190" rx="28.799999999999997" fill="#a855f7"/><rect x="-36.480000000000004" y="-49.4" width="72.96000000000001" height="38.0" rx="9.600000000000001" fill="#1e293b" opacity=".85"/><rect x="-34.56" y="30.400000000000002" width="69.12" height="26.6" rx="7.68" fill="#1e293b" opacity=".8"/><rect x="-34.56" y="-9.5" width="69.12" height="38.0" rx="7.68" fill="#fff" opacity=".12"/><rect x="-40.32" y="-93.0" width="19.200000000000003" height="7.6000000000000005" rx="2" fill="#fef08a"/><rect x="21.12" y="-93.0" width="19.200000000000003" height="7.6000000000000005" rx="2" fill="#fef08a"/></g><rect x="420" y="40" width="6" height="230" fill="#f8fafc" opacity=".85"/><g transform="translate(498.0,155.0) rotate(180)"><rect x="-44.0" y="-89.0" width="96" height="190" rx="28.799999999999997" fill="#000" opacity=".35"/><rect x="-48.0" y="-95.0" width="96" height="190" rx="28.799999999999997" fill="#1f2937"/><rect x="-36.480000000000004" y="-49.4" width="72.96000000000001" height="38.0" rx="9.600000000000001" fill="#1e293b" opacity=".85"/><rect x="-34.56" y="30.400000000000002" width="69.12" height="26.6" rx="7.68" fill="#1e293b" opacity=".8"/><rect x="-34.56" y="-9.5" width="69.12" height="38.0" rx="7.68" fill="#fff" opacity=".12"/><rect x="-40.32" y="-93.0" width="19.200000000000003" height="7.6000000000000005" rx="2" fill="#fef08a"/><rect x="21.12" y="-93.0" width="19.200000000000003" height="7.6000000000000005" rx="2" fill="#fef08a"/></g><rect x="570" y="40" width="6" height="230" fill="#f8fafc" opacity=".85"/><g transform="translate(648.0,155.0) rotate(180)"><rect x="-44.0" y="-89.0" width="96" height="190" rx="28.799999999999997" fill="#000" opacity=".35"/><rect x="-48.0" y="-95.0" width="96" height="190" rx="28.799999999999997" fill="#1f2937"/><rect x="-36.480000000000004" y="-49.4" width="72.96000000000001" height="38.0" rx="9.600000000000001" fill="#1e293b" opacity=".85"/><rect x="-34.56" y="30.400000000000002" width="69.12" height="26.6" rx="7.68" fill="#1e293b" opacity=".8"/><rect x="-34.56" y="-9.5" width="69.12" height="38.0" rx="7.68" fill="#fff" opacity=".12"/><rect x="-40.32" y="-93.0" width="19.200000000000003" height="7.6000000000000005" rx="2" fill="#fef08a"/><rect x="21.12" y="-93.0" width="19.200000000000003" height="7.6000000000000005" rx="2" fill="#fef08a"/></g><rect x="720" y="40" width="6" height="230" fill="#f8fafc" opacity=".85"/><rect x="870" y="40" width="6" height="230" fill="#f8fafc" opacity=".85"/><g transform="translate(948.0,155.0) rotate(180)"><rect x="-44.0" y="-89.0" width="96" height="190" rx="28.799999999999997" fill="#000" opacity=".35"/><rect x="-48.0" y="-95.0" width="96" height="190" rx="28.799999999999997" fill="#14b8a6"/><rect x="-36.480000000000004" y="-49.4" width="72.96000000000001" height="38.0" rx="9.600000000000001" fill="#1e293b" opacity=".85"/><rect x="-34.56" y="30.400000000000002" width="69.12" height="26.6" rx="7.68" fill="#1e293b" opacity=".8"/><rect x="-34.56" y="-9.5" width="69.12" height="38.0" rx="7.68" fill="#fff" opacity=".12"/><rect x="-40.32" y="-93.0" width="19.200000000000003" height="7.6000000000000005" rx="2" fill="#fef08a"/><rect x="21.12" y="-93.0" width="19.200000000000003" height="7.6000000000000005" rx="2" fill="#fef08a"/></g><rect x="1020" y="40" width="6" height="230" fill="#f8fafc" opacity=".85"/><g transform="translate(1098.0,155.0) rotate(180)"><rect x="-44.0" y="-89.0" width="96" height="190" rx="28.799999999999997" fill="#000" opacity=".35"/><rect x="-48.0" y="-95.0" width="96" height="190" rx="28.799999999999997" fill="#14b8a6"/><rect x="-36.480000000000004" y="-49.4" width="72.96000000000001" height="38.0" rx="9.600000000000001" fill="#1e293b" opacity=".85"/><rect x="-34.56" y="30.400000000000002" width="69.12" height="26.6" rx="7.68" fill="#1e293b" opacity=".8"/><rect x="-34.56" y="-9.5" width="69.12" height="38.0" rx="7.68" fill="#fff" opacity=".12"/><rect x="-40.32" y="-93.0" width="19.200000000000003" height="7.6000000000000005" rx="2" fill="#fef08a"/><rect x="21.12" y="-93.0" width="19.200000000000003" height="7.6000000000000005" rx="2" fill="#fef08a"/></g><rect x="1170" y="40" width="6" height="230" fill="#f8fafc" opacity=".85"/><rect x="-30" y="267" width="1260" height="6" fill="#f8fafc" opacity=".85"/><rect x="-30" y="480" width="6" height="230" fill="#f8fafc" opacity=".85"/><rect x="120" y="480" width="6" height="230" fill="#f8fafc" opacity=".85"/><g transform="translate(198.0,595.0) rotate(0)"><rect x="-44.0" y="-89.0" width="96" height="190" rx="28.799999999999997" fill="#000" opacity=".35"/><rect x="-48.0" y="-95.0" width="96" height="190" rx="28.799999999999997" fill="#f8fafc"/><rect x="-36.480000000000004" y="-49.4" width="72.96000000000001" height="38.0" rx="9.600000000000001" fill="#1e293b" opacity=".85"/><rect x="-34.56" y="30.400000000000002" width="69.12" height="26.6" rx="7.68" fill="#1e293b" opacity=".8"/><rect x="-34.56" y="-9.5" width="69.12" height="38.0" rx="7.68" fill="#fff" opacity=".12"/><rect x="-40.32" y="-93.0" width="19.200000000000003" height="7.6000000000000005" rx="2" fill="#fef08a"/><rect x="21.12" y="-93.0" width="19.200000000000003" height="7.6000000000000005" rx="2" fill="#fef08a"/></g><rect x="270" y="480" width="6" height="230" fill="#f8fafc" opacity=".85"/><g transform="translate(348.0,595.0) rotate(0)"><rect x="-44.0" y="-89.0" width="96" height="190" rx="28.799999999999997" fill="#000" opacity=".35"/><rect x="-48.0" y="-95.0" width="96" height="190" rx="28.799999999999997" fill="#14b8a6"/><rect x="-36.480000000000004" y="-49.4" width="72.96000000000001" height="38.0" rx="9.600000000000001" fill="#1e293b" opacity=".85"/><rect x="-34.56" y="30.400000000000002" width="69.12" height="26.6" rx="7.68" fill="#1e293b" opacity=".8"/><rect x="-34.56" y="-9.5" width="69.12" height="38.0" rx="7.68" fill="#fff" opacity=".12"/><rect x="-40.32" y="-93.0" width="19.200000000000003" height="7.6000000000000005" rx="2" fill="#fef08a"/><rect x="21.12" y="-93.0" width="19.200000000000003" height="7.6000000000000005" rx="2" fill="#fef08a"/></g><rect x="420" y="480" width="6" height="230" fill="#f8fafc" opacity=".85"/><rect x="570" y="480" width="6" height="230" fill="#f8fafc" opacity=".85"/><g transform="translate(648.0,595.0) rotate(0)"><rect x="-44.0" y="-89.0" width="96" height="190" rx="28.799999999999997" fill="#000" opacity=".35"/><rect x="-48.0" y="-95.0" width="96" height="190" rx="28.799999999999997" fill="#f8fafc"/><rect x="-36.480000000000004" y="-49.4" width="72.96000000000001" height="38.0" rx="9.600000000000001" fill="#1e293b" opacity=".85"/><rect x="-34.56" y="30.400000000000002" width="69.12" height="26.6" rx="7.68" fill="#1e293b" opacity=".8"/><rect x="-34.56" y="-9.5" width="69.12" height="38.0" rx="7.68" fill="#fff" opacity=".12"/><rect x="-40.32" y="-93.0" width="19.200000000000003" height="7.6000000000000005" rx="2" fill="#fef08a"/><rect x="21.12" y="-93.0" width="19.200000000000003" height="7.6000000000000005" rx="2" fill="#fef08a"/></g><rect x="720" y="480" width="6" height="230" fill="#f8fafc" opacity=".85"/><g transform="translate(798.0,595.0) rotate(0)"><rect x="-44.0" y="-89.0" width="96" height="190" rx="28.799999999999997" fill="#000" opacity=".35"/><rect x="-48.0" y="-95.0" width="96" height="190" rx="28.799999999999997" fill="#a855f7"/><rect x="-36.480000000000004" y="-49.4" width="72.96000000000001" height="38.0" rx="9.600000000000001" fill="#1e293b" opacity=".85"/><rect x="-34.56" y="30.400000000000002" width="69.12" height="26.6" rx="7.68" fill="#1e293b" opacity=".8"/><rect x="-34.56" y="-9.5" width="69.12" height="38.0" rx="7.68" fill="#fff" opacity=".12"/><rect x="-40.32" y="-93.0" width="19.200000000000003" height="7.6000000000000005" rx="2" fill="#fef08a"/><rect x="21.12" y="-93.0" width="19.200000000000003" height="7.6000000000000005" rx="2" fill="#fef08a"/></g><rect x="870" y="480" width="6" height="230" fill="#f8fafc" opacity=".85"/><rect x="1020" y="480" width="6" height="230" fill="#f8fafc" opacity=".85"/><g transform="translate(1098.0,595.0) rotate(0)"><rect x="-44.0" y="-89.0" width="96" height="190" rx="28.799999999999997" fill="#000" opacity=".35"/><rect x="-48.0" y="-95.0" width="96" height="190" rx="28.799999999999997" fill="#ef4444"/><rect x="-36.480000000000004" y="-49.4" width="72.96000000000001" height="38.0" rx="9.600000000000001" fill="#1e293b" opacity=".85"/><rect x="-34.56" y="30.400000000000002" width="69.12" height="26.6" rx="7.68" fill="#1e293b" opacity=".8"/><rect x="-34.56" y="-9.5" width="69.12" height="38.0" rx="7.68" fill="#fff" opacity=".12"/><rect x="-40.32" y="-93.0" width="19.200000000000003" height="7.6000000000000005" rx="2" fill="#fef08a"/><rect x="21.12" y="-93.0" width="19.200000000000003" height="7.6000000000000005" rx="2" fill="#fef08a"/></g><rect x="1170" y="480" width="6" height="230" fill="#f8fafc" opacity=".85"/><g transform="translate(1248.0,595.0) rotate(0)"><rect x="-44.0" y="-89.0" width="96" height="190" rx="28.799999999999997" fill="#000" opacity=".35"/><rect x="-48.0" y="-95.0" width="96" height="190" rx="28.799999999999997" fill="#94a3b8"/><rect x="-36.480000000000004" y="-49.4" width="72.96000000000001" height="38.0" rx="9.600000000000001" fill="#1e293b" opacity=".85"/><rect x="-34.56" y="30.400000000000002" width="69.12" height="26.6" rx="7.68" fill="#1e293b" opacity=".8"/><rect x="-34.56" y="-9.5" width="69.12" height="38.0" rx="7.68" fill="#fff" opacity=".12"/><rect x="-40.32" y="-93.0" width="19.200000000000003" height="7.6000000000000005" rx="2" fill="#fef08a"/><rect x="21.12" y="-93.0" width="19.200000000000003" height="7.6000000000000005" rx="2" fill="#fef08a"/></g><rect x="-30" y="477" width="1260" height="6" fill="#f8fafc" opacity=".85"/><rect x="20" y="371.0" width="60" height="8" rx="3" fill="#facc15" opacity=".8"/><rect x="140" y="371.0" width="60" height="8" rx="3" fill="#facc15" opacity=".8"/><rect x="260" y="371.0" width="60" height="8" rx="3" fill="#facc15" opacity=".8"/><rect x="380" y="371.0" width="60" height="8" rx="3" fill="#facc15" opacity=".8"/><rect x="500" y="371.0" width="60" height="8" rx="3" fill="#facc15" opacity=".8"/><rect x="620" y="371.0" width="60" height="8" rx="3" fill="#facc15" opacity=".8"/><rect x="740" y="371.0" width="60" height="8" rx="3" fill="#facc15" opacity=".8"/><rect x="860" y="371.0" width="60" height="8" rx="3" fill="#facc15" opacity=".8"/><rect x="980" y="371.0" width="60" height="8" rx="3" fill="#facc15" opacity=".8"/><rect x="1100" y="371.0" width="60" height="8" rx="3" fill="#facc15" opacity=".8"/><path d="M624.0,335.0 l40,40 l-40,40" stroke="#f8fafc" stroke-width="10" fill="none" opacity=".6" stroke-linecap="round"/><g transform="translate(360.0,375.0) rotate(90)"><rect x="-46.0" y="-92.0" width="100" height="196" rx="30.0" fill="#000" opacity=".35"/><rect x="-50.0" y="-98.0" width="100" height="196" rx="30.0" fill="#facc15"/><rect x="-38.0" y="-50.96" width="76.0" height="39.2" rx="10.0" fill="#1e293b" opacity=".85"/><rect x="-36.0" y="31.36" width="72.0" height="27.44" rx="8.0" fill="#1e293b" opacity=".8"/><rect x="-36.0" y="-9.8" width="72.0" height="39.2" rx="8.0" fill="#fff" opacity=".12"/><rect x="-42.0" y="-96.0" width="20.0" height="7.84" rx="2" fill="#fef08a"/><rect x="22.0" y="-96.0" width="20.0" height="7.84" rx="2" fill="#fef08a"/></g><circle cx="60" cy="375.0" r="70" fill="#166534" opacity=".9"/><circle cx="80" cy="355.0" r="40" fill="#22c55e" opacity=".5"/><circle cx="1140" cy="375.0" r="70" fill="#166534" opacity=".9"/><circle cx="1160" cy="355.0" r="40" fill="#22c55e" opacity=".5"/><rect x="864.0" y="317.0" width="116" height="116" rx="22" fill="#14b88a" opacity=".92"/><text x="922.0" y="411.0" text-anchor="middle" font-family="Arial, sans-serif" font-weight="900" font-size="96" fill="#fff">P</text><rect width="1200" height="750" fill="#020617" opacity="0.35"/></svg>