<svg xmlns="http://www.w3.org/2000/svg" viewBox="0 0 1200 750" preserveAspectRatio="xMidYMid slice" role="img" aria-label="Illustration of lot parking"><rect width="1200" height="750" fill="#2a3140"/><circle cx="727" cy="260" r="2" fill="#fff" opacity=".04"/><circle cx="964" cy="352" r="3" fill="#fff" opacity=".04"/><circle cx="9" cy="670" r="3" fill="#fff" opacity=".04"/><circle cx="912" cy="410" r="3" fill="#fff" opacity=".04"/><circle cx="985" cy="312" r="2" fill="#fff" opacity=".04"/><circle cx="1106" cy="494" r="3" fill="#fff" opacity=".04"/><circle cx="1065" cy="191" r="2" fill="#fff" opacity=".04"/><circle cx="57" cy="86" r="1" fill="#fff" opacity=".04"/><circle cx="603" cy="275" r="3" fill="#fff" opacity=".04"/><circle cx="743" cy="193" r="1" fill="#fff" opacity=".04"/><circle cx="954" cy="297" r="3" fill="#fff" opacity=".04"/><circle cx="57" cy="59" r="3" fill="#fff" opacity=".04"/><circle cx="790" cy="49" r="1" fill="#fff" opacity=".04"/><circle cx="744" cy="623" r="2" fill="#fff" opacity=".04"/><circle cx="707" cy="263" r="3" fill="#fff" opacity=".04"/><circle cx="21" cy="131" r="3" fill="#fff" opacity=".04"/><circle cx="400" cy="726" r="1" fill="#fff" opacity=".04"/><circle cx="668" cy="551" r="1" fill="#fff" opacity=".04"/><circle cx="547" cy="704" r="2" fill="#fff" opacity=".04"/><circle cx="445" cy="562" r="2" fill="#fff" opacity=".04"/><circle cx="314" cy="619" r="1" fill="#fff" opacity=".04"/><circle cx="79" cy="727" r="1" fill="#fff" opacity=".04"/><circle cx="832" cy="101" r="1" fill="#fff" opacity=".04"/><circle cx="947" cy="414" r="1" fill="#fff" opacity=".04"/><circle cx="685" cy="708" r="1" fill="#fff" opacity=".04"/><circle cx="787" cy="616" r="2" fill="#fff" opacity=".04"/><circle cx="519" cy="132" r="1" fill="#fff" opacity=".04"/><circle cx="48" cy="436" r="1" fill="#fff" opacity=".04"/><circle cx="1148" cy="574" r="2" fill="#fff" opacity=".04"/><circle cx="1080" cy="601" r="2" fill="#fff" opacity=".04"/><circle cx="1061" cy="36" r="2" fill="#fff" opacity=".04"/><circle cx="268" cy="742" r="3" fill="#fff" opacity=".04"/><circle cx="304" cy="367" r="2" fill="#fff" opacity=".04"/><circle cx="531" cy="565" r="1" fill="#fff" opacity=".04"/><circle cx="234" cy="517" r="3" fill="#fff" opacity=".04"/><circle cx="12" cy="429" r="2" fill="#fff" opacity=".04"/><circle cx="817" cy="743" r="2" fill="#fff" opacity=".04"/><circle cx="626" cy="70" r="1" fill="#fff" opacity=".04"/><circle cx="834" cy="586" r="3" fill="#fff" opacity=".04"/><circle cx="909" cy="547" r="1" fill="#fff" opacity=".04"/><circle cx="506" cy="154" r="3" fill="#fff" opacity=".04"/><circle cx="150" cy="204" r="1" fill="#fff" opacity=".04"/><circle cx="251" cy="459" r="2" fill="#fff" opacity=".04"/><circle cx="1145" cy="65" r="3" fill="#fff" opacity=".04"/><circle cx="1176" cy="347" r="3" fill="#fff" opacity=".04"/><circle cx="128" cy="364" r="2" fill="#fff" opacity=".04"/><circle cx="169" cy="64" r="2" fill="#fff" opacity=".04"/><circle cx="185" cy="442" r="1" fill="#fff" opacity=".04"/><circle cx="767" cy="161" r="3" fill="#fff" opacity=".04"/><circle cx="1178" cy="551" r="1" fill="#fff" opacity=".04"/><circle cx="465" cy="515" r="1" fill="#fff" opacity=".04"/><circle cx="479" cy="127" r="2" fill="#fff" opacity=".04"/><circle cx="875" cy="138" r="3" fill="#fff" opacity=".04"/><circle cx="121" cy="620" r="1" fill="#fff" opacity=".04"/><circle cx="1033" cy="455" r="3" fill="#fff" opacity=".04"/><circle cx="38" cy="500" r="3" fill="#fff" opacity=".04"/><circle cx="597" cy="404" r="1" fill="#fff" opacity=".04"/><circle cx="46" cy="732" r="1" fill="#fff" opacity=".04"/><circle cx="662" cy="353" r="1" fill="#fff" opacity=".04"/><circle cx="619" cy="203" r="3" fill="#fff" opacity=".04"/><circle cx="1021" cy="726" r="3" fill="#fff" opacity=".04"/><circle cx="704" cy="340" r="1" fill="#fff" opacity=".04"/><circle cx="674" cy="391" r="1" fill="#fff" opacity=".04"/><circle cx="998" cy="679" r="1" fill="#fff" opacity=".04"/><circle cx="403" cy="335" r="3" fill="#fff" opacity=".04"/><circle cx="590" cy="31" r="3" fill="#fff" opacity=".04"/><circle cx="582" cy="652" r="3" fill="#fff" opacity=".04"/><circle cx="293" cy="48" r="2" fill="#fff" opacity=".04"/><circle cx="1080" cy="278" r="2" fill="#fff" opacity=".04"/><circle cx="286" cy="285" r="1" fill="#fff" opacity=".04"/><circle cx="1037" cy="24" r="2" fill="#fff" opacity=".04"/><circle cx="792" cy="255" r="2" fill="#fff" opacity=".04"/><circle cx="155" cy="408" r="2" fill="#fff" opacity=".04"/><circle cx="371" cy="659" r="1" fill="#fff" opacity=".04"/><circle cx="1037" cy="646" r="2" fill="#fff" opacity=".04"/><circle cx="285" cy="165" r="1" fill="#fff" opacity=".04"/><circle cx="559" cy="592" r="3" fill="#fff" opacity=".04"/><circle cx="1049" cy="667" r="1" fill="#fff" opacity=".04"/><circle cx="461" cy="381" r="3" fill="#fff" opacity=".04"/><circle cx="1149" cy="97" r="3" fill="#fff" opacity=".04"/><circle cx="730" cy="84" r="1" fill="#fff" opacity=".04"/><circle cx="325" cy="13" r="2" fill="#fff" opacity=".04"/><circle cx="1109" cy="186" r="3" fill="#fff" opacity=".04"/><circle cx="366" cy="550" r="2" fill="#fff" opacity=".04"/><circle cx="256" cy="639" r="3" fill="#fff" opacity=".04"/><circle cx="339" cy="289" r="3" fill="#fff" opacity=".04"/><circle cx="328" cy="282" r="2" fill="#fff" opacity=".04"/><circle cx="344" cy="689" r="2" fill="#fff" opacity=".04"/><circle cx="684" cy="403" r="1" fill="#fff" opacity=".04"/><circle cx="954" cy="133" r="1" fill="#fff" opacity=".04"/><circle cx="24" cy="352" r="3" fill="#fff" opacity=".04"/><circle cx="1180" cy="297" r="2" fill="#fff" opacity=".04"/><circle cx="1096" cy="189" r="3" fill="#fff" opacity=".04"/><circle cx="943" cy="51" r="3" fill="#fff" opacity=".04"/><circle cx="1038" cy="705" r="1" fill="#fff" opacity=".04"/><circle cx="88" cy="556" r="3" fill="#fff" opacity=".04"/><circle cx="343" cy="127" r="1" fill="#fff" opacity=".04"/><circle cx="972" cy="513" r="1" fill="#fff" opacity=".04"/><circle cx="1008" cy="639" r="1" fill="#fff" opacity=".04"/><circle cx="1089" cy="638" r="2" fill="#fff" opacity=".04"/><circle cx="702" cy="312" r="3" fill="#fff" opacity=".04"/><circle cx="474" cy="388" r="3" fill="#fff" opacity=".04"/><circle cx="94" cy="543" r="1" fill="#fff" opacity=".04"/><circle cx="1059" cy="182" r="1" fill="#fff" opacity=".04"/><circle cx="343" cy="685" r="2" fill="#fff" opacity=".04"/><circle cx="5" cy="672" r="1" fill="#fff" opacity=".04"/><circle cx="115" cy="320" r="2" fill="#fff" opacity=".04"/><circle cx="73" cy="169" r="3" fill="#fff" opacity=".04"/><circle cx="159" cy="107" r="1" fill="#fff" opacity=".04"/><circle cx="732" cy="631" r="2" fill="#fff" opacity=".04"/><circle cx="673" cy="647" r="2" fill="#fff" opacity=".04"/><circle cx="1084" cy="370" r="1" fill="#fff" opacity=".04"/><circle cx="716" cy="103" r="2" fill="#fff" opacity=".04"/><circle cx="156" cy="85" r="3" fill="#fff" opacity=".04"/><circle cx="933" cy="740" r="3" fill="#fff" opacity=".04"/><circle cx="914" cy="120" r="2" fill="#fff" opacity=".04"/><circle cx="239" cy="34" r="3" fill="#fff" opacity=".04"/><circle cx="578" cy="215" r="3" fill="#fff" opacity=".04"/><circle cx="1053" cy="583" r="2" fill="#fff" opacity=".04"/><circle cx="98" cy="423" r="1" fill="#fff" opacity=".04"/><circle cx="511" cy="434" r="3" fill="#fff" opacity=".04"/><circle cx="715" cy="612" r="3" fill="#fff" opacity=".04"/><circle cx="492" cy="534" r="2" fill="#fff" opacity=".04"/><circle cx="417" cy="636" r="3" fill="#fff" opacity=".04"/><circle cx="542" cy="431" r="2" fill="#fff" opacity=".04"/><circle cx="1011" cy="499" r="2" fill="#fff" opacity=".04"/><circle cx="59" cy="262" r="2" fill="#fff" opacity=".04"/><circle cx="682" cy="373" r="3" fill="#fff" opacity=".04"/><circle cx="845" cy="224" r="1" fill="#fff" opacity=".04"/><circle cx="1165" cy="142" r="3" fill="#fff" opacity=".04"/><circle cx="1114" cy="289" r="3" fill="#fff" opacity=".04"/><circle cx="377" cy="557" r="2" fill="#fff" opacity=".04"/><circle cx="1117" cy="33" r="1" fill="#fff" opacity=".04"/><circle cx="1004" cy="312" r="2" fill="#fff" opacity=".04"/><circle cx="376" cy="299" r="1" fill="#fff" opacity=".04"/><circle cx="606" cy="496" r="2" fill="#fff" opacity=".04"/><circle cx="1061" cy="591" r="3" fill="#fff" opacity=".04"/><circle cx="225" cy="30" r="1" fill="#fff" opacity=".04"/><circle cx="737" cy="582" r="2" fill="#fff" opacity=".04"/><circle cx="298" cy="652" r="2" fill="#fff" opacity=".04"/><circle cx="590" cy="552" r="2" fill="#fff" opacity=".04"/><circle cx="981" cy="497" r="1" fill="#fff" opacity=".04"/><circle cx="565" cy="245" r="2" fill="#fff" opacity=".04"/><circle cx="120" cy="58" r="2" fill="#fff" opacity=".04"/><circle cx="996" cy="375" r="2" fill="#fff" opacity=".04"/><circle cx="457" cy="443" r="2" fill="#fff" opacity=".04"/><circle cx="480" cy="532" r="1" fill="#fff" opacity=".04"/><circle cx="659" cy="472" r="1" fill="#fff" opacity=".04"/><circle cx="102" cy="530" r="1" fill="#fff" opacity=".04"/><circle cx="318" cy="335" r="1" fill="#fff" opacity=".04"/><circle cx="760" cy="409" r="2" fill="#fff" opacity=".04"/><circle cx="925" cy="542" r="1" fill="#fff" opacity=".04"/><circle cx="896" cy="191" r="1" fill="#fff" opacity=".04"/><circle cx="69" cy="31" r="1" fill="#fff" opacity=".04"/><circle cx="906" cy="452" r="1" fill="#fff" opacity=".04"/><circle cx="562" cy="176" r="3" fill="#fff" opacity=".04"/><circle cx="657" cy="124" r="2" fill="#fff" opacity=".04"/><circle cx="928" cy="139" r="2" fill="#fff" opacity=".04"/><circle cx="768" cy="713" r="2" fill="#fff" opacity=".04"/><circle cx="343" cy="595" r="1" fill="#fff" opacity=".04"/><circle cx="604" cy="672" r="1" fill="#fff" opacity=".04"/><circle cx="938" cy="243" r="2" fill="#fff" opacity=".04"/><circle cx="808" cy="653" r="2" fill="#fff" opacity=".04"/><circle cx="896" cy="190" r="2" fill="#fff" opacity=".04"/><circle cx="783" cy="586" r="2" fill="#fff" opacity=".04"/><circle cx="597" cy="44" r="3" fill="#fff" opacity=".04"/><circle cx="1048" cy="671" r="1" fill="#fff" opacity=".04"/><circle cx="419" cy="130" r="1" fill="#fff" opacity=".04"/><circle cx="822" cy="157" r="1" fill="#fff" opacity=".04"/><circle cx="546" cy="219" r="2" fill="#fff" opacity=".04"/><circle cx="1088" cy="143" r="1" fill="#fff" opacity=".04"/><circle cx="609" cy="303" r="1" fill="#fff" opacity=".04"/><circle cx="530" cy="508" r="3" fill="#fff" opacity=".04"/><circle cx="321" cy="672" r="1" fill="#fff" opacity=".04"/><circle cx="375" cy="127" r="3" fill="#fff" opacity=".04"/><circle cx="785" cy="573" r="3" fill="#fff" opacity=".04"/><circle cx="736" cy="174" r="1" fill="#fff" opacity=".04"/><circle cx="292" cy="700" r="2" fill="#fff" opacity=".04"/><circle cx="741" cy="657" r="2" fill="#fff" opacity=".04"/><circle cx="632" cy="596" r="1" fill="#fff" opacity=".04"/><circle cx="858" cy="220" r="2" fill="#fff" opacity=".04"/><circle cx="384" cy="665" r="1" fill="#fff" opacity=".04"/><circle cx="667" cy="667" r="1" fill="#fff" opacity=".04"/><circle cx="139" cy="223" r="3" fill="#fff" opacity=".04"/><circle cx="925" cy="218" r="1" fill="#fff" opacity=".04"/><circle cx="564" cy="587" r="2" fill="#fff" opacity=".04"/><circle cx="705" cy="545" r="3" fill="#fff" opacity=".04"/><circle cx="686" cy="12" r="1" fill="#fff" opacity=".04"/><circle cx="1121" cy="696" r="2" fill="#fff" opacity=".04"/><circle cx="1043" cy="246" r="3" fill="#fff" opacity=".04"/><circle cx="819" cy="641" r="3" fill="#fff" opacity=".04"/><circle cx="692" cy="453" r="1" fill="#fff" opacity=".04"/><circle cx="655" cy="252" r="1" fill="#fff" opacity=".04"/><circle cx="730" cy="348" r="1" fill="#fff" opacity=".04"/><circle cx="376" cy="107" r="1" fill="#fff" opacity=".04"/><circle cx="837" cy="362" r="2" fill="#fff" opacity=".04"/><circle cx="854" cy="15" r="2" fill="#fff" opacity=".04"/><circle cx="562" cy="117" r="1" fill="#fff" opacity=".04"/><circle cx="904" cy="400" r="1" fill="#fff" opacity=".04"/><circle cx="792" cy="150" r="1" fill="#fff" opacity=".04"/><circle cx="293" cy="700" r="2" fill="#fff" opacity=".04"/><circle cx="517" cy="338" r="3" fill="#fff" opacity=".04"/><circle cx="1037" cy="17" r="3" fill="#fff" opacity=".04"/><circle cx="489" cy="705" r="2" fill="#fff" opacity=".04"/><circle cx="901" cy="704" r="1" fill="#fff" opacity=".04"/><circle cx="170" cy="492" r="2" fill="#fff" opacity=".04"/><circle cx="931" cy="226" r="3" fill="#fff" opacity=".04"/><circle cx="415" cy="80" r="2" fill="#fff" opacity=".04"/><circle cx="466" cy="400" r="1" fill="#fff" opacity=".04"/><circle cx="503" cy="317" r="3" fill="#fff" opacity=".04"/><circle cx="415" cy="378" r="1" fill="#fff" opacity=".04"/><circle cx="909" cy="222" r="2" fill="#fff" opacity=".04"/><circle cx="963" cy="299" r="3" fill="#fff" opacity=".04"/><circle cx="1161" cy="572" r="3" fill="#fff" opacity=".04"/><circle cx="1149" cy="592" r="3" fill="#fff" opacity=".04"/><circle cx="64" cy="499" r="3" fill="#fff" opacity=".04"/><circle cx="741" cy="558" r="2" fill="#fff" opacity=".04"/><circle cx="1084" cy="600" r="1" fill="#fff" opacity=".04"/><circle cx="48" cy="662" r="2" fill="#fff" opacity=".04"/><circle cx="979" cy="356" r="3" fill="#fff" opacity=".04"/><circle cx="918" cy="608" r="3" fill="#fff" opacity=".04"/><circle cx="856" cy="303" r="3" fill="#fff" opacity=".04"/><circle cx="660" cy="399" r="2" fill="#fff" opacity=".04"/><circle cx="637" cy="56" r="3" fill="#fff" opacity=".04"/><circle cx="359" cy="176" r="1" fill="#fff" opacity=".04"/><circle cx="821" cy="290" r="2" fill="#fff" opacity=".04"/><circle cx="824" cy="34" r="2" fill="#fff" opacity=".04"/><circle cx="299" cy="546" r="1" fill="#fff" opacity=".04"/><circle cx="973" cy="599" r="3" fill="#fff" opacity=".04"/><circle cx="723" cy="486" r="1" fill="#fff" opacity=".04"/><circle cx="109" cy="91" r="1" fill="#fff" opacity=".04"/><circle cx="844" cy="438" r="1" fill="#fff" opacity=".04"/><circle cx="718" cy="577" r="2" fill="#fff" opacity=".04"/><circle cx="306" cy="622" r="3" fill="#fff" opacity=".04"/><circle cx="38" cy="106" r="1" fill="#fff" opacity=".04"/><circle cx="251" cy="557" r="3" fill="#fff" opacity=".04"/><circle cx="199" cy="345" r="1" fill="#fff" opacity=".04"/><circle cx="114" cy="112" r="1" fill="#fff" opacity=".04"/><circle cx="354" cy="490" r="1" fill="#fff" opacity=".04"/><circle cx="452" cy="535" r="3" fill="#fff" opacity=".04"/><circle cx="302" cy="122" r="2" fill="#fff" opacity=".04"/><circle cx="276" cy="720" r="3" fill="#fff" opacity=".04"/><circle cx="251" cy="200" r="2" fill="#fff" opacity=".04"/><circle cx="1163" cy="740" r="3" fill="#fff" opacity=".04"/><circle cx="359" cy="578" r="1" fill="#fff" opacity=".04"/><circle cx="1090" cy="708" r="1" fill="#fff" opacity=".04"/><circle cx="138" cy="196" r="1" fill="#fff" opacity=".04"/><circle cx="769" cy="295" r="3" fill="#fff" opacity=".04"/><circle cx="785" cy="463" r="1" fill="#fff" opacity=".04"/><circle cx="0" cy="361" r="2" fill="#fff" opacity=".04"/><circle cx="240" cy="610" r="2" fill="#fff" opacity=".04"/><circle cx="347" cy="543" r="1" fill="#fff" opacity=".04"/><circle cx="592" cy="114" r="3" fill="#fff" opacity=".04"/><circle cx="1052" cy="179" r="2" fill="#fff" opacity=".04"/><circle cx="278" cy="707" r="2" fill="#fff" opacity=".04"/><circle cx="583" cy="542" r="2" fill="#fff" opacity=".04"/><circle cx="647" cy="273" r="1" fill="#fff" opacity=".04"/><circle cx="407" cy="460" r="2" fill="#fff" opacity=".04"/><circle cx="1179" cy="548" r="3" fill="#fff" opacity=".04"/><circle cx="279" cy="690" r="2" fill="#fff" opacity=".04"/><rect x="-30" y="40" width="6" height="230" fill="#f8fafc" opacity=".85"/><g transform="translate(48.0,155.0) rotate(180)"><rect x="-44.0" y="-89.0" width="96" height="190" rx="28.799999999999997" fill="#000" opacity=".35"/><rect x="-48.0" y="-95.0" width="96" height="190" rx="28.799999999999997" fill="#f97316"/><rect x="-36.480000000000004" y="-49.4" width="72.96000000000001" height="38.0" rx="9.600000000000001" fill="#1e293b" opacity=".85"/><rect x="-34.56" y="30.400000000000002" width="69.12" height="26.6" rx="7.68" fill="#1e293b" opacity=".8"/><rect x="-34.56" y="-9.5" width="69.12" height="38.0" rx="7.68" fill="#fff" opacity=".12"/><rect x="-40.32" y="-93.0" width="19.200000000000003" height="7.6000000000000005" rx="2" fill="#fef08a"/><rect x="21.12" y="-93.0" width="19.200000000000003" height="7.6000000000000005" rx="2" fill="#fef08a"/></g><rect x="120" y="40" width="6" height="230" fill="#f8fafc" opacity=".85"/><g transform="translate(198.0,155.0) rotate(180)"><rect x="-44.0" y="-89.0" width="96" height="190" rx="28.799999999999997" fill="#000" opacity=".35"/><rect x="-48.0" y="-95.0" width="96" height="190" rx="28.799999999999997" fill="#a855f7"/><rect x="-36.480000000000004" y="-49.4" width="72.96000000000001" height="38.0" rx="9.600000000000001" fill="#1e293b" opacity=".85"/><rect x="-34.56" y="30.400000000000002" width="69.12" height="26.6" rx="7.68" fill="#1e293b" opacity=".8"/><rect x="-34.56" y="-9.5" width="69.12" height="38.0" rx="7.68" fill="#fff" opacity=".12"/><rect x="-40.32" y="-93.0" width="19.200000000000003" height="7.6000000000000005" rx="2" fill="#fef08a"/><rect x="21.12" y="-93.0" width="19.200000000000003" height="7.6000000000000005" rx="2" fill="#fef08a"/></g><rect x="270" y="40" width="6" height="230" fill="#f8fafc" opacity=".85"/><g transform="translate(348.0,155.0) rotate(180)"><rect x="-44.0" y="-89.0" width="96" height="190" rx="28.799999999999997" fill="#000" opacity=".35"/><rect x="-48.0" y="-95.0" width="96" height="190" rx="28.799999999999997" fill="#f97316"/><rect x="-36.480000000000004" y="-49.4" width="72.96000000000001" height="38.0" rx="9.600000000000001" fill="#1e293b" opacity=".85"/><rect x="-34.56" y="30.400000000000002" width="69.12" height="26.6" rx="7.68" fill="#1e293b" opacity=".8"/><rect x="-34.56" y="-9.5" width="69.12" height="38.0" rx="7.68" fill="#fff" opacity=".12"/><rect x="-40.32" y="-93.0" width="19.200000000000003" height="7.6000000000000005" rx="2" fill="#fef08a"/><rect x="21.12" y="-93.0" width="19.200000000000003" height="7.6000000000000005" rx="2" fill="#fef08a"/></g><rect x="420" y="40" width="6" height="230" fill="#f8fafc" opacity=".85"/><g transform="translate(498.0,155.0) rotate(180)"><rect x="-44.0" y="-89.0" width="96" height="190" rx="28.799999999999997" fill="#000" opacity=".35"/><rect x="-48.0" y="-95.0" width="96" height="190" rx="28.799999999999997" fill="#facc15"/><rect x="-36.480000000000004" y="-49.4" width="72.96000000000001" height="38.0" rx="9.600000000000001" fill="#1e293b" opacity=".85"/><rect x="-34.56" y="30.400000000000002" width="69.12" height="26.6" rx="7.68" fill="#1e293b" opacity=".8"/><rect x="-34.56" y="-9.5" width="69.12" height="38.0" rx="7.68" fill="#fff" opacity=".12"/><rect x="-40.32" y="-93.0" width="19.200000000000003" height="7.6000000000000005" rx="2" fill="#fef08a"/><rect x="21.12" y="-93.0" width="19.200000000000003" height="7.6000000000000005" rx="2" fill="#fef08a"/></g><rect x="570" y="40" width="6" height="230" fill="#f8fafc" opacity=".85"/><g transform="translate(648.0,155.0) rotate(180)"><rect x="-44.0" y="-89.0" width="96" height="190" rx="28.799999999999997" fill="#000" opacity=".35"/><rect x="-48.0" y="-95.0" width="96" height="190" rx="28.799999999999997" fill="#94a3b8"/><rect x="-36.480000000000004" y="-49.4" width="72.96000000000001" height="38.0" rx="9.600000000000001" fill="#1e293b" opacity=".85"/><rect x="-34.56" y="30.400000000000002" width="69.12" height="26.6" rx="7.68" fill="#1e293b" opacity=".8"/><rect x="-34.56" y="-9.5" width="69.12" height="38.0" rx="7.68" fill="#fff" opacity=".12"/><rect x="-40.32" y="-93.0" width="19.200000000000003" height="7.6000000000000005" rx="2" fill="#fef08a"/><rect x="21.12" y="-93.0" width="19.200000000000003" height="7.6000000000000005" rx="2" fill="#fef08a"/></g><rect x="720" y="40" width="6" height="230" fill="#f8fafc" opacity=".85"/><rect x="870" y="40" width="6" height="230" fill="#f8fafc" opacity=".85"/><rect x="1020" y="40" width="6" height="230" fill="#f8fafc" opacity=".85"/><g transform="translate(1098.0,155.0) rotate(180)"><rect x="-44.0" y="-89.0" width="96" height="190" rx="28.799999999999997" fill="#000" opacity=".35"/><rect x="-48.0" y="-95.0" width="96" height="190" rx="28.799999999999997" fill="#ef4444"/><rect x="-36.480000000000004" y="-49.4" width="72.96000000000001" height="38.0" rx="9.600000000000001" fill="#1e293b" opacity=".85"/><rect x="-34.56" y="30.400000000000002" width="69.12" height="26.6" rx="7.68" fill="#1e293b" opacity=".8"/><rect x="-34.56" y="-9.5" width="69.12" height="38.0" rx="7.68" fill="#fff" opacity=".12"/><rect x="-40.32" y="-93.0" width="19.200000000000003" height="7.6000000000000005" rx="2" fill="#fef08a"/><rect x="21.12" y="-93.0" width="19.200000000000003" height="7.6000000000000005" rx="2" fill="#fef08a"/></g><rect x="1170" y="40" width="6" height="230" fill="#f8fafc" opacity=".85"/><g transform="translate(1248.0,155.0) rotate(180)"><rect x="-44.0" y="-89.0" width="96" height="190" rx="28.799999999999997" fill="#000" opacity=".35"/><rect x="-48.0" y="-95.0" width="96" height="190" rx="28.799999999999997" fill="#f97316"/><rect x="-36.480000000000004" y="-49.4" width="72.96000000000001" height="38.0" rx="9.600000000000001" fill="#1e293b" opacity=".85"/><rect x="-34.56" y="30.400000000000002" width="69.12" height="26.6" rx="7.68" fill="#1e293b" opacity=".8"/><rect x="-34.56" y="-9.5" width="69.12" height="38.0" rx="7.68" fill="#fff" opacity=".12"/><rect x="-40.32" y="-93.0" width="19.200000000000003" height="7.6000000000000005" rx="2" fill="#fef08a"/><rect x="21.12" y="-93.0" width="19.200000000000003" height="7.6000000000000005" rx="2" fill="#fef08a"/></g><rect x="-30" y="267" width="1260" height="6" fill="#f8fafc" opacity=".85"/><rect x="-30" y="480" width="6" height="230" fill="#f8fafc" opacity=".85"/><g transform="translate(48.0,595.0) rotate(0)"><rect x="-44.0" y="-89.0" width="96" height="190" rx="28.799999999999997" fill="#000" opacity=".35"/><rect x="-48.0" y="-95.0" width="96" height="190" rx="28.799999999999997" fill="#f97316"/><rect x="-36.480000000000004" y="-49.4" width="72.96000000000001" height="38.0" rx="9.600000000000001" fill="#1e293b" opacity=".85"/><rect x="-34.56" y="30.400000000000002" width="69.12" height="26.6" rx="7.68" fill="#1e293b" opacity=".8"/><rect x="-34.56" y="-9.5" width="69.12" height="38.0" rx="7.68" fill="#fff" opacity=".12"/><rect x="-40.32" y="-93.0" width="19.200000000000003" height="7.6000000000000005" rx="2" fill="#fef08a"/><rect x="21.12" y="-93.0" width="19.200000000000003" height="7.6000000000000005" rx="2" fill="#fef08a"/></g><rect x="120" y="480" width="6" height="230" fill="#f8fafc" opacity=".85"/><rect x="270" y="480" width="6" height="230" fill="#f8fafc" opacity=".85"/><rect x="420" y="480" width="6" height="230" fill="#f8fafc" opacity=".85"/><g transform="translate(498.0,595.0) rotate(0)"><rect x="-44.0" y="-89.0" width="96" height="190" rx="28.799999999999997" fill="#000" opacity=".35"/><rect x="-48.0" y="-95.0" width="96" height="190" rx="28.799999999999997" fill="#94a3b8"/><rect x="-36.480000000000004" y="-49.4" width="72.96000000000001" height="38.0" rx="9.600000000000001" fill="#1e293b" opacity=".85"/><rect x="-34.56" y="30.400000000000002" width="69.12" height="26.6" rx="7.68" fill="#1e293b" opacity=".8"/><rect x="-34.56" y="-9.5" width="69.12" height="38.0" rx="7.68" fill="#fff" opacity=".12"/><rect x="-40.32" y="-93.0" width="19.200000000000003" height="7.6000000000000005" rx="2" fill="#fef08a"/><rect x="21.12" y="-93.0" width="19.200000000000003" height="7.6000000000000005" rx="2" fill="#fef08a"/></g><rect x="570" y="480" width="6" height="230" fill="#f8fafc" opacity=".85"/><g transform="translate(648.0,595.0) rotate(0)"><rect x="-44.0" y="-89.0" width="96" height="190" rx="28.799999999999997" fill="#000" opacity=".35"/><rect x="-48.0" y="-95.0" width="96" height="190" rx="28.799999999999997" fill="#f97316"/><rect x="-36.480000000000004" y="-49.4" width="72.96000000000001" height="38.0" rx="9.600000000000001" fill="#1e293b" opacity=".85"/><rect x="-34.56" y="30.400000000000002" width="69.12" height="26.6" rx="7.68" fill="#1e293b" opacity=".8"/><rect x="-34.56" y="-9.5" width="69.12" height="38.0" rx="7.68" fill="#fff" opacity=".12"/><rect x="-40.32" y="-93.0" width="19.200000000000003" height="7.6000000000000005" rx="2" fill="#fef08a"/><rect x="21.12" y="-93.0" width="19.200000000000003" height="7.6000000000000005" rx="2" fill="#fef08a"/></g><rect x="720" y="480" width="6" height="230" fill="#f8fafc" opacity=".85"/><rect x="870" y="480" width="6" height="230" fill="#f8fafc" opacity=".85"/><rect x="1020" y="480" width="6" height="230" fill="#f8fafc" opacity=".85"/><g transform="translate(1098.0,595.0) rotate(0)"><rect x="-44.0" y="-89.0" width="96" height="190" rx="28.799999999999997" fill="#000" opacity=".35"/><rect x="-48.0" y="-95.0" width="96" height="190" rx="28.799999999999997" fill="#ef4444"/><rect x="-36.480000000000004" y="-49.4" width="72.96000000000001" height="38.0" rx="9.600000000000001" fill="#1e293b" opacity=".85"/><rect x="-34.56" y="30.400000000000002" width="69.12" height="26.6" rx="7.68" fill="#1e293b" opacity=".8"/><rect x="-34.56" y="-9.5" width="69.12" height="38.0" rx="7.68" fill="#fff" opacity=".12"/><rect x="-40.32" y="-93.0" width="19.200000000000003" height="7.6000000000000005" rx="2" fill="#fef08a"/><rect x="21.12" y="-93.0" width="19.200000000000003" height="7.6000000000000005" rx="2" fill="#fef08a"/></g><rect x="1170" y="480" width="6" height="230" fill="#f8fafc" opacity=".85"/><g transform="translate(1248.0,595.0) rotate(0)"><rect x="-44.0" y="-89.0" width="96" height="190" rx="28.799999999999997" fill="#000" opacity=".35"/><rect x="-48.0" y="-95.0" width="96" height="190" rx="28.799999999999997" fill="#94a3b8"/><rect x="-36.480000000000004" y="-49.4" width="72.96000000000001" height="38.0" rx="9.600000000000001" fill="#1e293b" opacity=".85"/><rect x="-34.56" y="30.400000000000002" width="69.12" height="26.6" rx="7.68" fill="#1e293b" opacity=".8"/><rect x="-34.56" y="-9.5" width="69.12" height="38.0" rx="7.68" fill="#fff" opacity=".12"/><rect x="-40.32" y="-93.0" width="19.200000000000003" height="7.6000000000000005" rx="2" fill="#fef08a"/><rect x="21.12" y="-93.0" width="19.200000000000003" height="7.6000000000000005" rx="2" fill="#fef08a"/></g><rect x="-30" y="477" width="1260" height="6" fill="#f8fafc" opacity=".85"/><rect x="20" y="371.0" width="60" height="8" rx="3" fill="#facc15" opacity=".8"/><rect x="140" y="371.0" width="60" height="8" rx="3" fill="#facc15" opacity=".8"/><rect x="260" y="371.0" width="60" height="8" rx="3" fill="#facc15" opacity=".8"/><rect x="380" y="371.0" width="60" height="8" rx="3" fill="#facc15" opacity=".8"/><rect x="500" y="371.0" width="60" height="8" rx="3" fill="#facc15" opacity=".8"/><rect x="620" y="371.0" width="60" height="8" rx="3" fill="#facc15" opacity=".8"/><rect x="740" y="371.0" width="60" height="8" rx="3" fill="#facc15" opacity=".8"/><rect x="860" y="371.0" width="60" height="8" rx="3" fill="#facc15" opacity=".8"/><rect x="980" y="371.0" width="60" height="8" rx="3" fill="#facc15" opacity=".8"/><rect x="1100" y="371.0" width="60" height="8" rx="3" fill="#facc15" opacity=".8"/><path d="M624.0,335.0 l40,40 l-40,40" stroke="#f8fafc" stroke-width="10" fill="none" opacity=".6" stroke-linecap="round"/><g transform="translate(360.0,375.0) rotate(90)"><rect x="-46.0" y="-92.0" width="100" height="196" rx="30.0" fill="#000" opacity=".35"/><rect x="-50.0" y="-98.0" width="100" height="196" rx="30.0" fill="#0ea5e9"/><rect x="-38.0" y="-50.96" width="76.0" height="39.2" rx="10.0" fill="#1e293b" opacity=".85"/><rect x="-36.0" y="31.36" width="72.0" height="27.44" rx="8.0" fill="#1e293b" opacity=".8"/><rect x="-36.0" y="-9.8" width="72.0" height="39.2" rx="8.0" fill="#fff" opacity=".12"/><rect x="-42.0" y="-96.0" width="20.0" height="7.84" rx="2" fill="#fef08a"/><rect x="22.0" y="-96.0" width="20.0" height="7.84" rx="2" fill="#fef08a"/></g><circle cx="60" cy="375.0" r="70" fill="#166534" opacity=".9"/><circle cx="80" cy="355.0" r="40" fill="#22c55e" opacity=".5"/><circle cx="1140" cy="375.0" r="70" fill="#166534" opacity=".9"/><circle cx="1160" cy="355.0" r="40" fill="#22c55e" opacity=".5"/><rect x="864.0" y="317.0" width="116" height="116" rx="22" fill="#14b88a" opacity=".92"/><text x="922.0" y="411.0" text-anchor="middle" font-family="Arial, sans-serif" font-weight="900" font-size="96" fill="#fff">P</text><rect width="1200" height="750" fill="#020617" opacity="0.17"/></svg>