<svg xmlns="http://www.w3.org/2000/svg" viewBox="0 0 1200 750" preserveAspectRatio="xMidYMid slice" role="img" aria-label="Illustration of lot parking"><rect width="1200" height="750" fill="#2a3140"/><circle cx="246" cy="352" r="2" fill="#fff" opacity=".04"/><circle cx="1060" cy="132" r="1" fill="#fff" opacity=".04"/><circle cx="1138" cy="221" r="1" fill="#fff" opacity=".04"/><circle cx="639" cy="525" r="1" fill="#fff" opacity=".04"/><circle cx="151" cy="245" r="3" fill="#fff" opacity=".04"/><circle cx="503" cy="622" r="2" fill="#fff" opacity=".04"/><circle cx="237" cy="607" r="2" fill="#fff" opacity=".04"/><circle cx="203" cy="227" r="1" fill="#fff" opacity=".04"/><circle cx="364" cy="442" r="3" fill="#fff" opacity=".04"/><circle cx="443" cy="16" r="2" fill="#fff" opacity=".04"/><circle cx="516" cy="198" r="1" fill="#fff" opacity=".04"/><circle cx="30" cy="425" r="2" fill="#fff" opacity=".04"/><circle cx="232" cy="255" r="3" fill="#fff" opacity=".04"/><circle cx="387" cy="330" r="1" fill="#fff" opacity=".04"/><circle cx="224" cy="532" r="1" fill="#fff" opacity=".04"/><circle cx="309" cy="402" r="2" fill="#fff" opacity=".04"/><circle cx="157" cy="359" r="1" fill="#fff" opacity=".04"/><circle cx="265" cy="100" r="2" fill="#fff" opacity=".04"/><circle cx="1118" cy="541" r="3" fill="#fff" opacity=".04"/><circle cx="490" cy="372" r="1" fill="#fff" opacity=".04"/><circle cx="857" cy="482" r="1" fill="#fff" opacity=".04"/><circle cx="795" cy="106" r="1" fill="#fff" opacity=".04"/><circle cx="116" cy="402" r="3" fill="#fff" opacity=".04"/><circle cx="660" cy="36" r="2" fill="#fff" opacity=".04"/><circle cx="1075" cy="173" r="2" fill="#fff" opacity=".04"/><circle cx="1025" cy="258" r="2" fill="#fff" opacity=".04"/><circle cx="110" cy="66" r="2" fill="#fff" opacity=".04"/><circle cx="62" cy="465" r="2" fill="#fff" opacity=".04"/><circle cx="648" cy="276" r="1" fill="#fff" opacity=".04"/><circle cx="114" cy="52" r="2" fill="#fff" opacity=".04"/><circle cx="406" cy="462" r="1" fill="#fff" opacity=".04"/><circle cx="29" cy="42" r="3" fill="#fff" opacity=".04"/><circle cx="1108" cy="543" r="3" fill="#fff" opacity=".04"/><circle cx="529" cy="230" r="1" fill="#fff" opacity=".04"/><circle cx="611" cy="403" r="1" fill="#fff" opacity=".04"/><circle cx="618" cy="445" r="1" fill="#fff" opacity=".04"/><circle cx="1160" cy="246" r="2" fill="#fff" opacity=".04"/><circle cx="1099" cy="194" r="2" fill="#fff" opacity=".04"/><circle cx="471" cy="340" r="3" fill="#fff" opacity=".04"/><circle cx="1112" cy="546" r="2" fill="#fff" opacity=".04"/><circle cx="409" cy="663" r="2" fill="#fff" opacity=".04"/><circle cx="900" cy="639" r="3" fill="#fff" opacity=".04"/><circle cx="83" cy="409" r="1" fill="#fff" opacity=".04"/><circle cx="1073" cy="621" r="2" fill="#fff" opacity=".04"/><circle cx="745" cy="335" r="2" fill="#fff" opacity=".04"/><circle cx="44" cy="543" r="2" fill="#fff" opacity=".04"/><circle cx="1061" cy="584" r="2" fill="#fff" opacity=".04"/><circle cx="105" cy="75" r="3" fill="#fff" opacity=".04"/><circle cx="946" cy="618" r="3" fill="#fff" opacity=".04"/><circle cx="36" cy="478" r="3" fill="#fff" opacity=".04"/><circle cx="958" cy="35" r="3" fill="#fff" opacity=".04"/><circle cx="709" cy="314" r="2" fill="#fff" opacity=".04"/><circle cx="757" cy="286" r="3" fill="#fff" opacity=".04"/><circle cx="807" cy="399" r="1" fill="#fff" opacity=".04"/><circle cx="1105" cy="476" r="3" fill="#fff" opacity=".04"/><circle cx="937" cy="130" r="3" fill="#fff" opacity=".04"/><circle cx="270" cy="482" r="2" fill="#fff" opacity=".04"/><circle cx="79" cy="379" r="3" fill="#fff" opacity=".04"/><circle cx="272" cy="56" r="3" fill="#fff" opacity=".04"/><circle cx="781" cy="702" r="3" fill="#fff" opacity=".04"/><circle cx="107" cy="408" r="1" fill="#fff" opacity=".04"/><circle cx="10" cy="673" r="2" fill="#fff" opacity=".04"/><circle cx="979" cy="182" r="2" fill="#fff" opacity=".04"/><circle cx="154" cy="332" r="1" fill="#fff" opacity=".04"/><circle cx="570" cy="702" r="3" fill="#fff" opacity=".04"/><circle cx="57" cy="601" r="3" fill="#fff" opacity=".04"/><circle cx="233" cy="212" r="3" fill="#fff" opacity=".04"/><circle cx="1033" cy="568" r="1" fill="#fff" opacity=".04"/><circle cx="94" cy="148" r="1" fill="#fff" opacity=".04"/><circle cx="625" cy="706" r="1" fill="#fff" opacity=".04"/><circle cx="199" cy="41" r="2" fill="#fff" opacity=".04"/><circle cx="81" cy="280" r="3" fill="#fff" opacity=".04"/><circle cx="475" cy="110" r="3" fill="#fff" opacity=".04"/><circle cx="56" cy="189" r="3" fill="#fff" opacity=".04"/><circle cx="231" cy="433" r="1" fill="#fff" opacity=".04"/><circle cx="59" cy="524" r="3" fill="#fff" opacity=".04"/><circle cx="274" cy="440" r="2" fill="#fff" opacity=".04"/><circle cx="156" cy="687" r="1" fill="#fff" opacity=".04"/><circle cx="1127" cy="201" r="3" fill="#fff" opacity=".04"/><circle cx="839" cy="39" r="1" fill="#fff" opacity=".04"/><circle cx="538" cy="538" r="1" fill="#fff" opacity=".04"/><circle cx="1077" cy="252" r="1" fill="#fff" opacity=".04"/><circle cx="813" cy="39" r="3" fill="#fff" opacity=".04"/><circle cx="1089" cy="125" r="3" fill="#fff" opacity=".04"/><circle cx="1057" cy="504" r="3" fill="#fff" opacity=".04"/><circle cx="232" cy="153" r="3" fill="#fff" opacity=".04"/><circle cx="54" cy="360" r="3" fill="#fff" opacity=".04"/><circle cx="831" cy="450" r="3" fill="#fff" opacity=".04"/><circle cx="1117" cy="498" r="1" fill="#fff" opacity=".04"/><circle cx="724" cy="158" r="2" fill="#fff" opacity=".04"/><circle cx="275" cy="313" r="2" fill="#fff" opacity=".04"/><circle cx="808" cy="479" r="3" fill="#fff" opacity=".04"/><circle cx="488" cy="508" r="2" fill="#fff" opacity=".04"/><circle cx="367" cy="446" r="2" fill="#fff" opacity=".04"/><circle cx="1178" cy="188" r="2" fill="#fff" opacity=".04"/><circle cx="110" cy="241" r="3" fill="#fff" opacity=".04"/><circle cx="784" cy="551" r="3" fill="#fff" opacity=".04"/><circle cx="518" cy="455" r="1" fill="#fff" opacity=".04"/><circle cx="124" cy="260" r="3" fill="#fff" opacity=".04"/><circle cx="130" cy="416" r="3" fill="#fff" opacity=".04"/><circle cx="916" cy="49" r="3" fill="#fff" opacity=".04"/><circle cx="641" cy="131" r="3" fill="#fff" opacity=".04"/><circle cx="344" cy="343" r="1" fill="#fff" opacity=".04"/><circle cx="912" cy="20" r="3" fill="#fff" opacity=".04"/><circle cx="1171" cy="447" r="2" fill="#fff" opacity=".04"/><circle cx="228" cy="458" r="1" fill="#fff" opacity=".04"/><circle cx="482" cy="645" r="1" fill="#fff" opacity=".04"/><circle cx="226" cy="315" r="3" fill="#fff" opacity=".04"/><circle cx="191" cy="635" r="3" fill="#fff" opacity=".04"/><circle cx="291" cy="11" r="1" fill="#fff" opacity=".04"/><circle cx="651" cy="506" r="1" fill="#fff" opacity=".04"/><circle cx="581" cy="92" r="2" fill="#fff" opacity=".04"/><circle cx="1117" cy="283" r="3" fill="#fff" opacity=".04"/><circle cx="1092" cy="709" r="2" fill="#fff" opacity=".04"/><circle cx="167" cy="538" r="2" fill="#fff" opacity=".04"/><circle cx="550" cy="305" r="3" fill="#fff" opacity=".04"/><circle cx="839" cy="249" r="1" fill="#fff" opacity=".04"/><circle cx="777" cy="535" r="3" fill="#fff" opacity=".04"/><circle cx="426" cy="70" r="1" fill="#fff" opacity=".04"/><circle cx="1036" cy="556" r="2" fill="#fff" opacity=".04"/><circle cx="331" cy="558" r="1" fill="#fff" opacity=".04"/><circle cx="664" cy="131" r="2" fill="#fff" opacity=".04"/><circle cx="303" cy="481" r="1" fill="#fff" opacity=".04"/><circle cx="467" cy="106" r="3" fill="#fff" opacity=".04"/><circle cx="1080" cy="237" r="3" fill="#fff" opacity=".04"/><circle cx="460" cy="124" r="1" fill="#fff" opacity=".04"/><circle cx="974" cy="229" r="2" fill="#fff" opacity=".04"/><circle cx="491" cy="44" r="3" fill="#fff" opacity=".04"/><circle cx="484" cy="259" r="2" fill="#fff" opacity=".04"/><circle cx="484" cy="169" r="2" fill="#fff" opacity=".04"/><circle cx="521" cy="658" r="3" fill="#fff" opacity=".04"/><circle cx="157" cy="200" r="3" fill="#fff" opacity=".04"/><circle cx="946" cy="741" r="2" fill="#fff" opacity=".04"/><circle cx="826" cy="167" r="3" fill="#fff" opacity=".04"/><circle cx="317" cy="429" r="1" fill="#fff" opacity=".04"/><circle cx="884" cy="53" r="2" fill="#fff" opacity=".04"/><circle cx="75" cy="146" r="2" fill="#fff" opacity=".04"/><circle cx="28" cy="694" r="2" fill="#fff" opacity=".04"/><circle cx="916" cy="0" r="3" fill="#fff" opacity=".04"/><circle cx="457" cy="629" r="3" fill="#fff" opacity=".04"/><circle cx="950" cy="163" r="1" fill="#fff" opacity=".04"/><circle cx="364" cy="363" r="2" fill="#fff" opacity=".04"/><circle cx="859" cy="466" r="2" fill="#fff" opacity=".04"/><circle cx="41" cy="78" r="2" fill="#fff" opacity=".04"/><circle cx="649" cy="539" r="2" fill="#fff" opacity=".04"/><circle cx="919" cy="667" r="1" fill="#fff" opacity=".04"/><circle cx="1007" cy="104" r="3" fill="#fff" opacity=".04"/><circle cx="726" cy="703" r="3" fill="#fff" opacity=".04"/><circle cx="228" cy="501" r="2" fill="#fff" opacity=".04"/><circle cx="334" cy="81" r="2" fill="#fff" opacity=".04"/><circle cx="780" cy="638" r="1" fill="#fff" opacity=".04"/><circle cx="597" cy="681" r="1" fill="#fff" opacity=".04"/><circle cx="885" cy="456" r="3" fill="#fff" opacity=".04"/><circle cx="736" cy="733" r="3" fill="#fff" opacity=".04"/><circle cx="767" cy="210" r="1" fill="#fff" opacity=".04"/><circle cx="1176" cy="170" r="1" fill="#fff" opacity=".04"/><circle cx="227" cy="23" r="1" fill="#fff" opacity=".04"/><circle cx="816" cy="115" r="2" fill="#fff" opacity=".04"/><circle cx="639" cy="716" r="3" fill="#fff" opacity=".04"/><circle cx="376" cy="282" r="2" fill="#fff" opacity=".04"/><circle cx="615" cy="138" r="2" fill="#fff" opacity=".04"/><circle cx="135" cy="180" r="1" fill="#fff" opacity=".04"/><circle cx="246" cy="523" r="2" fill="#fff" opacity=".04"/><circle cx="1191" cy="27" r="1" fill="#fff" opacity=".04"/><circle cx="484" cy="280" r="1" fill="#fff" opacity=".04"/><circle cx="101" cy="725" r="3" fill="#fff" opacity=".04"/><circle cx="163" cy="692" r="2" fill="#fff" opacity=".04"/><circle cx="11" cy="251" r="3" fill="#fff" opacity=".04"/><circle cx="627" cy="661" r="2" fill="#fff" opacity=".04"/><circle cx="113" cy="671" r="2" fill="#fff" opacity=".04"/><circle cx="195" cy="448" r="1" fill="#fff" opacity=".04"/><circle cx="348" cy="87" r="3" fill="#fff" opacity=".04"/><circle cx="393" cy="571" r="1" fill="#fff" opacity=".04"/><circle cx="900" cy="441" r="3" fill="#fff" opacity=".04"/><circle cx="915" cy="397" r="2" fill="#fff" opacity=".04"/><circle cx="743" cy="619" r="2" fill="#fff" opacity=".04"/><circle cx="347" cy="108" r="2" fill="#fff" opacity=".04"/><circle cx="345" cy="53" r="1" fill="#fff" opacity=".04"/><circle cx="440" cy="10" r="1" fill="#fff" opacity=".04"/><circle cx="85" cy="709" r="1" fill="#fff" opacity=".04"/><circle cx="578" cy="33" r="3" fill="#fff" opacity=".04"/><circle cx="432" cy="77" r="3" fill="#fff" opacity=".04"/><circle cx="637" cy="733" r="2" fill="#fff" opacity=".04"/><circle cx="1169" cy="14" r="2" fill="#fff" opacity=".04"/><circle cx="120" cy="491" r="3" fill="#fff" opacity=".04"/><circle cx="976" cy="248" r="1" fill="#fff" opacity=".04"/><circle cx="792" cy="30" r="2" fill="#fff" opacity=".04"/><circle cx="48" cy="442" r="3" fill="#fff" opacity=".04"/><circle cx="430" cy="102" r="2" fill="#fff" opacity=".04"/><circle cx="141" cy="22" r="2" fill="#fff" opacity=".04"/><circle cx="752" cy="461" r="3" fill="#fff" opacity=".04"/><circle cx="558" cy="435" r="1" fill="#fff" opacity=".04"/><circle cx="335" cy="611" r="2" fill="#fff" opacity=".04"/><circle cx="111" cy="242" r="2" fill="#fff" opacity=".04"/><circle cx="172" cy="717" r="3" fill="#fff" opacity=".04"/><circle cx="1087" cy="162" r="2" fill="#fff" opacity=".04"/><circle cx="378" cy="529" r="2" fill="#fff" opacity=".04"/><circle cx="929" cy="327" r="1" fill="#fff" opacity=".04"/><circle cx="417" cy="176" r="2" fill="#fff" opacity=".04"/><circle cx="75" cy="428" r="3" fill="#fff" opacity=".04"/><circle cx="381" cy="604" r="3" fill="#fff" opacity=".04"/><circle cx="981" cy="305" r="1" fill="#fff" opacity=".04"/><circle cx="1085" cy="539" r="1" fill="#fff" opacity=".04"/><circle cx="162" cy="106" r="2" fill="#fff" opacity=".04"/><circle cx="1034" cy="473" r="3" fill="#fff" opacity=".04"/><circle cx="841" cy="411" r="1" fill="#fff" opacity=".04"/><circle cx="98" cy="401" r="3" fill="#fff" opacity=".04"/><circle cx="513" cy="524" r="1" fill="#fff" opacity=".04"/><circle cx="951" cy="51" r="3" fill="#fff" opacity=".04"/><circle cx="422" cy="371" r="2" fill="#fff" opacity=".04"/><circle cx="43" cy="300" r="3" fill="#fff" opacity=".04"/><circle cx="10" cy="408" r="3" fill="#fff" opacity=".04"/><circle cx="459" cy="1" r="1" fill="#fff" opacity=".04"/><circle cx="608" cy="472" r="3" fill="#fff" opacity=".04"/><circle cx="546" cy="700" r="1" fill="#fff" opacity=".04"/><circle cx="1019" cy="621" r="2" fill="#fff" opacity=".04"/><circle cx="285" cy="18" r="2" fill="#fff" opacity=".04"/><circle cx="1064" cy="665" r="3" fill="#fff" opacity=".04"/><circle cx="1151" cy="687" r="3" fill="#fff" opacity=".04"/><circle cx="18" cy="196" r="2" fill="#fff" opacity=".04"/><circle cx="855" cy="713" r="1" fill="#fff" opacity=".04"/><circle cx="43" cy="538" r="1" fill="#fff" opacity=".04"/><circle cx="303" cy="518" r="2" fill="#fff" opacity=".04"/><circle cx="1116" cy="659" r="2" fill="#fff" opacity=".04"/><circle cx="312" cy="411" r="2" fill="#fff" opacity=".04"/><circle cx="830" cy="98" r="2" fill="#fff" opacity=".04"/><circle cx="756" cy="53" r="2" fill="#fff" opacity=".04"/><circle cx="293" cy="3" r="2" fill="#fff" opacity=".04"/><circle cx="334" cy="167" r="1" fill="#fff" opacity=".04"/><circle cx="606" cy="275" r="1" fill="#fff" opacity=".04"/><circle cx="78" cy="667" r="3" fill="#fff" opacity=".04"/><circle cx="552" cy="487" r="3" fill="#fff" opacity=".04"/><circle cx="649" cy="642" r="1" fill="#fff" opacity=".04"/><circle cx="361" cy="364" r="3" fill="#fff" opacity=".04"/><circle cx="920" cy="579" r="2" fill="#fff" opacity=".04"/><circle cx="62" cy="353" r="1" fill="#fff" opacity=".04"/><circle cx="252" cy="510" r="3" fill="#fff" opacity=".04"/><circle cx="683" cy="240" r="2" fill="#fff" opacity=".04"/><circle cx="570" cy="443" r="3" fill="#fff" opacity=".04"/><circle cx="497" cy="307" r="2" fill="#fff" opacity=".04"/><circle cx="1020" cy="598" r="3" fill="#fff" opacity=".04"/><circle cx="440" cy="558" r="2" fill="#fff" opacity=".04"/><circle cx="687" cy="701" r="3" fill="#fff" opacity=".04"/><circle cx="201" cy="274" r="3" fill="#fff" opacity=".04"/><circle cx="264" cy="524" r="3" fill="#fff" opacity=".04"/><circle cx="1090" cy="77" r="3" fill="#fff" opacity=".04"/><circle cx="595" cy="641" r="1" fill="#fff" opacity=".04"/><circle cx="577" cy="292" r="3" fill="#fff" opacity=".04"/><circle cx="107" cy="317" r="1" fill="#fff" opacity=".04"/><circle cx="87" cy="217" r="3" fill="#fff" opacity=".04"/><circle cx="567" cy="228" r="1" fill="#fff" opacity=".04"/><circle cx="788" cy="438" r="2" fill="#fff" opacity=".04"/><circle cx="197" cy="397" r="2" fill="#fff" opacity=".04"/><circle cx="933" cy="728" r="1" fill="#fff" opacity=".04"/><circle cx="608" cy="258" r="2" fill="#fff" opacity=".04"/><circle cx="232" cy="646" r="2" fill="#fff" opacity=".04"/><circle cx="514" cy="675" r="1" fill="#fff" opacity=".04"/><circle cx="146" cy="691" r="3" fill="#fff" opacity=".04"/><circle cx="306" cy="654" r="2" fill="#fff" opacity=".04"/><circle cx="168" cy="358" r="3" fill="#fff" opacity=".04"/><rect x="-30" y="40" width="6" height="230" fill="#f8fafc" opacity=".85"/><rect x="120" y="40" width="6" height="230" fill="#f8fafc" opacity=".85"/><rect x="270" y="40" width="6" height="230" fill="#f8fafc" opacity=".85"/><g transform="translate(348.0,155.0) rotate(180)"><rect x="-44.0" y="-89.0" width="96" height="190" rx="28.799999999999997" fill="#000" opacity=".35"/><rect x="-48.0" y="-95.0" width="96" height="190" rx="28.799999999999997" fill="#94a3b8"/><rect x="-36.480000000000004" y="-49.4" width="72.96000000000001" height="38.0" rx="9.600000000000001" fill="#1e293b" opacity=".85"/><rect x="-34.56" y="30.400000000000002" width="69.12" height="26.6" rx="7.68" fill="#1e293b" opacity=".8"/><rect x="-34.56" y="-9.5" width="69.12" height="38.0" rx="7.68" fill="#fff" opacity=".12"/><rect x="-40.32" y="-93.0" width="19.200000000000003" height="7.6000000000000005" rx="2" fill="#fef08a"/><rect x="21.12" y="-93.0" width="19.200000000000003" height="7.6000000000000005" rx="2" fill="#fef08a"/></g><rect x="420" y="40" width="6" height="230" fill="#f8fafc" opacity=".85"/><g transform="translate(498.0,155.0) rotate(180)"><rect x="-44.0" y="-89.0" width="96" height="190" rx="28.799999999999997" fill="#000" opacity=".35"/><rect x="-48.0" y="-95.0" width="96" height="190" rx="28.799999999999997" fill="#f8fafc"/><rect x="-36.480000000000004" y="-49.4" width="72.96000000000001" height="38.0" rx="9.600000000000001" fill="#1e293b" opacity=".85"/><rect x="-34.56" y="30.400000000000002" width="69.12" height="26.6" rx="7.68" fill="#1e293b" opacity=".8"/><rect x="-34.56" y="-9.5" width="69.12" height="38.0" rx="7.68" fill="#fff" opacity=".12"/><rect x="-40.32" y="-93.0" width="19.200000000000003" height="7.6000000000000005" rx="2" fill="#fef08a"/><rect x="21.12" y="-93.0" width="19.200000000000003" height="7.6000000000000005" rx="2" fill="#fef08a"/></g><rect x="570" y="40" width="6" height="230" fill="#f8fafc" opacity=".85"/><g transform="translate(648.0,155.0) rotate(180)"><rect x="-44.0" y="-89.0" width="96" height="190" rx="28.799999999999997" fill="#000" opacity=".35"/><rect x="-48.0" y="-95.0" width="96" height="190" rx="28.799999999999997" fill="#f8fafc"/><rect x="-36.480000000000004" y="-49.4" width="72.96000000000001" height="38.0" rx="9.600000000000001" fill="#1e293b" opacity=".85"/><rect x="-34.56" y="30.400000000000002" width="69.12" height="26.6" rx="7.68" fill="#1e293b" opacity=".8"/><rect x="-34.56" y="-9.5" width="69.12" height="38.0" rx="7.68" fill="#fff" opacity=".12"/><rect x="-40.32" y="-93.0" width="19.200000000000003" height="7.6000000000000005" rx="2" fill="#fef08a"/><rect x="21.12" y="-93.0" width="19.200000000000003" height="7.6000000000000005" rx="2" fill="#fef08a"/></g><rect x="720" y="40" width="6" height="230" fill="#f8fafc" opacity=".85"/><rect x="870" y="40" width="6" height="230" fill="#f8fafc" opacity=".85"/><rect x="1020" y="40" width="6" height="230" fill="#f8fafc" opacity=".85"/><g transform="translate(1098.0,155.0) rotate(180)"><rect x="-44.0" y="-89.0" width="96" height="190" rx="28.799999999999997" fill="#000" opacity=".35"/><rect x="-48.0" y="-95.0" width="96" height="190" rx="28.799999999999997" fill="#a855f7"/><rect x="-36.480000000000004" y="-49.4" width="72.96000000000001" height="38.0" rx="9.600000000000001" fill="#1e293b" opacity=".85"/><rect x="-34.56" y="30.400000000000002" width="69.12" height="26.6" rx="7.68" fill="#1e293b" opacity=".8"/><rect x="-34.56" y="-9.5" width="69.12" height="38.0" rx="7.68" fill="#fff" opacity=".12"/><rect x="-40.32" y="-93.0" width="19.200000000000003" height="7.6000000000000005" rx="2" fill="#fef08a"/><rect x="21.12" y="-93.0" width="19.200000000000003" height="7.6000000000000005" rx="2" fill="#fef08a"/></g><rect x="1170" y="40" width="6" height="230" fill="#f8fafc" opacity=".85"/><rect x="-30" y="267" width="1260" height="6" fill="#f8fafc" opacity=".85"/><rect x="-30" y="480" width="6" height="230" fill="#f8fafc" opacity=".85"/><g transform="translate(48.0,595.0) rotate(0)"><rect x="-44.0" y="-89.0" width="96" height="190" rx="28.799999999999997" fill="#000" opacity=".35"/><rect x="-48.0" y="-95.0" width="96" height="190" rx="28.799999999999997" fill="#14b8a6"/><rect x="-36.480000000000004" y="-49.4" width="72.96000000000001" height="38.0" rx="9.600000000000001" fill="#1e293b" opacity=".85"/><rect x="-34.56" y="30.400000000000002" width="69.12" height="26.6" rx="7.68" fill="#1e293b" opacity=".8"/><rect x="-34.56" y="-9.5" width="69.12" height="38.0" rx="7.68" fill="#fff" opacity=".12"/><rect x="-40.32" y="-93.0" width="19.200000000000003" height="7.6000000000000005" rx="2" fill="#fef08a"/><rect x="21.12" y="-93.0" width="19.200000000000003" height="7.6000000000000005" rx="2" fill="#fef08a"/></g><rect x="120" y="480" width="6" height="230" fill="#f8fafc" opacity=".85"/><rect x="270" y="480" width="6" height="230" fill="#f8fafc" opacity=".85"/><g transform="translate(348.0,595.0) rotate(0)"><rect x="-44.0" y="-89.0" width="96" height="190" rx="28.799999999999997" fill="#000" opacity=".35"/><rect x="-48.0" y="-95.0" width="96" height="190" rx="28.799999999999997" fill="#ef4444"/><rect x="-36.480000000000004" y="-49.4" width="72.96000000000001" height="38.0" rx="9.600000000000001" fill="#1e293b" opacity=".85"/><rect x="-34.56" y="30.400000000000002" width="69.12" height="26.6" rx="7.68" fill="#1e293b" opacity=".8"/><rect x="-34.56" y="-9.5" width="69.12" height="38.0" rx="7.68" fill="#fff" opacity=".12"/><rect x="-40.32" y="-93.0" width="19.200000000000003" height="7.6000000000000005" rx="2" fill="#fef08a"/><rect x="21.12" y="-93.0" width="19.200000000000003" height="7.6000000000000005" rx="2" fill="#fef08a"/></g><rect x="420" y="480" width="6" height="230" fill="#f8fafc" opacity=".85"/><g transform="translate(498.0,595.0) rotate(0)"><rect x="-44.0" y="-89.0" width="96" height="190" rx="28.799999999999997" fill="#000" opacity=".35"/><rect x="-48.0" y="-95.0" width="96" height="190" rx="28.799999999999997" fill="#ef4444"/><rect x="-36.480000000000004" y="-49.4" width="72.96000000000001" height="38.0" rx="9.600000000000001" fill="#1e293b" opacity=".85"/><rect x="-34.56" y="30.400000000000002" width="69.12" height="26.6" rx="7.68" fill="#1e293b" opacity=".8"/><rect x="-34.56" y="-9.5" width="69.12" height="38.0" rx="7.68" fill="#fff" opacity=".12"/><rect x="-40.32" y="-93.0" width="19.200000000000003" height="7.6000000000000005" rx="2" fill="#fef08a"/><rect x="21.12" y="-93.0" width="19.200000000000003" height="7.6000000000000005" rx="2" fill="#fef08a"/></g><rect x="570" y="480" width="6" height="230" fill="#f8fafc" opacity=".85"/><g transform="translate(648.0,595.0) rotate(0)"><rect x="-44.0" y="-89.0" width="96" height="190" rx="28.799999999999997" fill="#000" opacity=".35"/><rect x="-48.0" y="-95.0" width="96" height="190" rx="28.799999999999997" fill="#94a3b8"/><rect x="-36.480000000000004" y="-49.4" width="72.96000000000001" height="38.0" rx="9.600000000000001" fill="#1e293b" opacity=".85"/><rect x="-34.56" y="30.400000000000002" width="69.12" height="26.6" rx="7.68" fill="#1e293b" opacity=".8"/><rect x="-34.56" y="-9.5" width="69.12" height="38.0" rx="7.68" fill="#fff" opacity=".12"/><rect x="-40.32" y="-93.0" width="19.200000000000003" height="7.6000000000000005" rx="2" fill="#fef08a"/><rect x="21.12" y="-93.0" width="19.200000000000003" height="7.6000000000000005" rx="2" fill="#fef08a"/></g><rect x="720" y="480" width="6" height="230" fill="#f8fafc" opacity=".85"/><g transform="translate(798.0,595.0) rotate(0)"><rect x="-44.0" y="-89.0" width="96" height="190" rx="28.799999999999997" fill="#000" opacity=".35"/><rect x="-48.0" y="-95.0" width="96" height="190" rx="28.799999999999997" fill="#94a3b8"/><rect x="-36.480000000000004" y="-49.4" width="72.96000000000001" height="38.0" rx="9.600000000000001" fill="#1e293b" opacity=".85"/><rect x="-34.56" y="30.400000000000002" width="69.12" height="26.6" rx="7.68" fill="#1e293b" opacity=".8"/><rect x="-34.56" y="-9.5" width="69.12" height="38.0" rx="7.68" fill="#fff" opacity=".12"/><rect x="-40.32" y="-93.0" width="19.200000000000003" height="7.6000000000000005" rx="2" fill="#fef08a"/><rect x="21.12" y="-93.0" width="19.200000000000003" height="7.6000000000000005" rx="2" fill="#fef08a"/></g><rect x="870" y="480" width="6" height="230" fill="#f8fafc" opacity=".85"/><g transform="translate(948.0,595.0) rotate(0)"><rect x="-44.0" y="-89.0" width="96" height="190" rx="28.799999999999997" fill="#000" opacity=".35"/><rect x="-48.0" y="-95.0" width="96" height="190" rx="28.799999999999997" fill="#f8fafc"/><rect x="-36.480000000000004" y="-49.4" width="72.96000000000001" height="38.0" rx="9.600000000000001" fill="#1e293b" opacity=".85"/><rect x="-34.56" y="30.400000000000002" width="69.12" height="26.6" rx="7.68" fill="#1e293b" opacity=".8"/><rect x="-34.56" y="-9.5" width="69.12" height="38.0" rx="7.68" fill="#fff" opacity=".12"/><rect x="-40.32" y="-93.0" width="19.200000000000003" height="7.6000000000000005" rx="2" fill="#fef08a"/><rect x="21.12" y="-93.0" width="19.200000000000003" height="7.6000000000000005" rx="2" fill="#fef08a"/></g><rect x="1020" y="480" width="6" height="230" fill="#f8fafc" opacity=".85"/><rect x="1170" y="480" width="6" height="230" fill="#f8fafc" opacity=".85"/><g transform="translate(1248.0,595.0) rotate(0)"><rect x="-44.0" y="-89.0" width="96" height="190" rx="28.799999999999997" fill="#000" opacity=".35"/><rect x="-48.0" y="-95.0" width="96" height="190" rx="28.799999999999997" fill="#22c55e"/><rect x="-36.480000000000004" y="-49.4" width="72.96000000000001" height="38.0" rx="9.600000000000001" fill="#1e293b" opacity=".85"/><rect x="-34.56" y="30.400000000000002" width="69.12" height="26.6" rx="7.68" fill="#1e293b" opacity=".8"/><rect x="-34.56" y="-9.5" width="69.12" height="38.0" rx="7.68" fill="#fff" opacity=".12"/><rect x="-40.32" y="-93.0" width="19.200000000000003" height="7.6000000000000005" rx="2" fill="#fef08a"/><rect x="21.12" y="-93.0" width="19.200000000000003" height="7.6000000000000005" rx="2" fill="#fef08a"/></g><rect x="-30" y="477" width="1260" height="6" fill="#f8fafc" opacity=".85"/><rect x="20" y="371.0" width="60" height="8" rx="3" fill="#facc15" opacity=".8"/><rect x="140" y="371.0" width="60" height="8" rx="3" fill="#facc15" opacity=".8"/><rect x="260" y="371.0" width="60" height="8" rx="3" fill="#facc15" opacity=".8"/><rect x="380" y="371.0" width="60" height="8" rx="3" fill="#facc15" opacity=".8"/><rect x="500" y="371.0" width="60" height="8" rx="3" fill="#facc15" opacity=".8"/><rect x="620" y="371.0" width="60" height="8" rx="3" fill="#facc15" opacity=".8"/><rect x="740" y="371.0" width="60" height="8" rx="3" fill="#facc15" opacity=".8"/><rect x="860" y="371.0" width="60" height="8" rx="3" fill="#facc15" opacity=".8"/><rect x="980" y="371.0" width="60" height="8" rx="3" fill="#facc15" opacity=".8"/><rect x="1100" y="371.0" width="60" height="8" rx="3" fill="#facc15" opacity=".8"/><path d="M624.0,335.0 l40,40 l-40,40" stroke="#f8fafc" stroke-width="10" fill="none" opacity=".6" stroke-linecap="round"/><g transform="translate(360.0,375.0) rotate(90)"><rect x="-46.0" y="-92.0" width="100" height="196" rx="30.0" fill="#000" opacity=".35"/><rect x="-50.0" y="-98.0" width="100" height="196" rx="30.0" fill="#f8fafc"/><rect x="-38.0" y="-50.96" width="76.0" height="39.2" rx="10.0" fill="#1e293b" opacity=".85"/><rect x="-36.0" y="31.36" width="72.0" height="27.44" rx="8.0" fill="#1e293b" opacity=".8"/><rect x="-36.0" y="-9.8" width="72.0" height="39.2" rx="8.0" fill="#fff" opacity=".12"/><rect x="-42.0" y="-96.0" width="20.0" height="7.84" rx="2" fill="#fef08a"/><rect x="22.0" y="-96.0" width="20.0" height="7.84" rx="2" fill="#fef08a"/></g><circle cx="60" cy="375.0" r="70" fill="#166534" opacity=".9"/><circle cx="80" cy="355.0" r="40" fill="#22c55e" opacity=".5"/><circle cx="1140" cy="375.0" r="70" fill="#166534" opacity=".9"/><circle cx="1160" cy="355.0" r="40" fill="#22c55e" opacity=".5"/><rect x="864.0" y="317.0" width="116" height="116" rx="22" fill="#14b88a" opacity=".92"/><text x="922.0" y="411.0" text-anchor="middle" font-family="Arial, sans-serif" font-weight="900" font-size="96" fill="#fff">P</text><rect width="1200" height="750" fill="#020617" opacity="0.17"/></svg>