<svg xmlns="http://www.w3.org/2000/svg" viewBox="0 0 1200 750" preserveAspectRatio="xMidYMid slice" role="img" aria-label="Illustration of lot parking"><rect width="1200" height="750" fill="#1e2533"/><circle cx="356" cy="153" r="2" fill="#fff" opacity=".04"/><circle cx="357" cy="448" r="1" fill="#fff" opacity=".04"/><circle cx="1197" cy="66" r="1" fill="#fff" opacity=".04"/><circle cx="930" cy="53" r="3" fill="#fff" opacity=".04"/><circle cx="671" cy="488" r="1" fill="#fff" opacity=".04"/><circle cx="1184" cy="747" r="2" fill="#fff" opacity=".04"/><circle cx="316" cy="211" r="3" fill="#fff" opacity=".04"/><circle cx="1034" cy="684" r="1" fill="#fff" opacity=".04"/><circle cx="516" cy="330" r="2" fill="#fff" opacity=".04"/><circle cx="898" cy="146" r="2" fill="#fff" opacity=".04"/><circle cx="1051" cy="470" r="3" fill="#fff" opacity=".04"/><circle cx="871" cy="599" r="3" fill="#fff" opacity=".04"/><circle cx="268" cy="594" r="1" fill="#fff" opacity=".04"/><circle cx="727" cy="468" r="2" fill="#fff" opacity=".04"/><circle cx="117" cy="699" r="2" fill="#fff" opacity=".04"/><circle cx="853" cy="228" r="1" fill="#fff" opacity=".04"/><circle cx="578" cy="688" r="2" fill="#fff" opacity=".04"/><circle cx="1144" cy="739" r="2" fill="#fff" opacity=".04"/><circle cx="393" cy="141" r="1" fill="#fff" opacity=".04"/><circle cx="444" cy="589" r="3" fill="#fff" opacity=".04"/><circle cx="211" cy="747" r="2" fill="#fff" opacity=".04"/><circle cx="722" cy="702" r="2" fill="#fff" opacity=".04"/><circle cx="1018" cy="46" r="1" fill="#fff" opacity=".04"/><circle cx="1043" cy="12" r="2" fill="#fff" opacity=".04"/><circle cx="17" cy="264" r="1" fill="#fff" opacity=".04"/><circle cx="1136" cy="524" r="3" fill="#fff" opacity=".04"/><circle cx="1141" cy="221" r="1" fill="#fff" opacity=".04"/><circle cx="375" cy="488" r="1" fill="#fff" opacity=".04"/><circle cx="750" cy="545" r="1" fill="#fff" opacity=".04"/><circle cx="843" cy="310" r="1" fill="#fff" opacity=".04"/><circle cx="638" cy="461" r="3" fill="#fff" opacity=".04"/><circle cx="55" cy="707" r="1" fill="#fff" opacity=".04"/><circle cx="57" cy="696" r="2" fill="#fff" opacity=".04"/><circle cx="455" cy="643" r="2" fill="#fff" opacity=".04"/><circle cx="514" cy="662" r="3" fill="#fff" opacity=".04"/><circle cx="571" cy="528" r="1" fill="#fff" opacity=".04"/><circle cx="107" cy="495" r="3" fill="#fff" opacity=".04"/><circle cx="23" cy="286" r="3" fill="#fff" opacity=".04"/><circle cx="652" cy="715" r="2" fill="#fff" opacity=".04"/><circle cx="97" cy="238" r="3" fill="#fff" opacity=".04"/><circle cx="621" cy="580" r="2" fill="#fff" opacity=".04"/><circle cx="674" cy="587" r="3" fill="#fff" opacity=".04"/><circle cx="1128" cy="588" r="2" fill="#fff" opacity=".04"/><circle cx="1055" cy="428" r="3" fill="#fff" opacity=".04"/><circle cx="338" cy="331" r="2" fill="#fff" opacity=".04"/><circle cx="976" cy="377" r="3" fill="#fff" opacity=".04"/><circle cx="386" cy="352" r="3" fill="#fff" opacity=".04"/><circle cx="120" cy="66" r="3" fill="#fff" opacity=".04"/><circle cx="557" cy="50" r="3" fill="#fff" opacity=".04"/><circle cx="317" cy="360" r="2" fill="#fff" opacity=".04"/><circle cx="887" cy="321" r="2" fill="#fff" opacity=".04"/><circle cx="327" cy="642" r="3" fill="#fff" opacity=".04"/><circle cx="1128" cy="213" r="1" fill="#fff" opacity=".04"/><circle cx="1110" cy="86" r="3" fill="#fff" opacity=".04"/><circle cx="125" cy="121" r="2" fill="#fff" opacity=".04"/><circle cx="804" cy="267" r="2" fill="#fff" opacity=".04"/><circle cx="139" cy="128" r="3" fill="#fff" opacity=".04"/><circle cx="792" cy="563" r="1" fill="#fff" opacity=".04"/><circle cx="109" cy="244" r="3" fill="#fff" opacity=".04"/><circle cx="340" cy="707" r="2" fill="#fff" opacity=".04"/><circle cx="843" cy="457" r="3" fill="#fff" opacity=".04"/><circle cx="589" cy="243" r="2" fill="#fff" opacity=".04"/><circle cx="315" cy="207" r="1" fill="#fff" opacity=".04"/><circle cx="491" cy="457" r="1" fill="#fff" opacity=".04"/><circle cx="181" cy="503" r="2" fill="#fff" opacity=".04"/><circle cx="469" cy="541" r="3" fill="#fff" opacity=".04"/><circle cx="67" cy="289" r="2" fill="#fff" opacity=".04"/><circle cx="830" cy="18" r="3" fill="#fff" opacity=".04"/><circle cx="511" cy="281" r="3" fill="#fff" opacity=".04"/><circle cx="13" cy="511" r="3" fill="#fff" opacity=".04"/><circle cx="968" cy="316" r="3" fill="#fff" opacity=".04"/><circle cx="826" cy="163" r="1" fill="#fff" opacity=".04"/><circle cx="117" cy="119" r="2" fill="#fff" opacity=".04"/><circle cx="131" cy="229" r="3" fill="#fff" opacity=".04"/><circle cx="426" cy="607" r="3" fill="#fff" opacity=".04"/><circle cx="177" cy="729" r="1" fill="#fff" opacity=".04"/><circle cx="696" cy="610" r="2" fill="#fff" opacity=".04"/><circle cx="950" cy="641" r="1" fill="#fff" opacity=".04"/><circle cx="282" cy="565" r="1" fill="#fff" opacity=".04"/><circle cx="915" cy="565" r="2" fill="#fff" opacity=".04"/><circle cx="283" cy="215" r="2" fill="#fff" opacity=".04"/><circle cx="669" cy="636" r="2" fill="#fff" opacity=".04"/><circle cx="622" cy="646" r="2" fill="#fff" opacity=".04"/><circle cx="834" cy="637" r="3" fill="#fff" opacity=".04"/><circle cx="184" cy="671" r="1" fill="#fff" opacity=".04"/><circle cx="517" cy="196" r="2" fill="#fff" opacity=".04"/><circle cx="867" cy="361" r="1" fill="#fff" opacity=".04"/><circle cx="307" cy="369" r="2" fill="#fff" opacity=".04"/><circle cx="593" cy="182" r="3" fill="#fff" opacity=".04"/><circle cx="610" cy="414" r="2" fill="#fff" opacity=".04"/><circle cx="395" cy="289" r="2" fill="#fff" opacity=".04"/><circle cx="686" cy="246" r="2" fill="#fff" opacity=".04"/><circle cx="923" cy="548" r="2" fill="#fff" opacity=".04"/><circle cx="1109" cy="727" r="3" fill="#fff" opacity=".04"/><circle cx="362" cy="610" r="1" fill="#fff" opacity=".04"/><circle cx="69" cy="122" r="3" fill="#fff" opacity=".04"/><circle cx="641" cy="13" r="3" fill="#fff" opacity=".04"/><circle cx="1199" cy="621" r="3" fill="#fff" opacity=".04"/><circle cx="145" cy="328" r="2" fill="#fff" opacity=".04"/><circle cx="988" cy="398" r="1" fill="#fff" opacity=".04"/><circle cx="813" cy="709" r="1" fill="#fff" opacity=".04"/><circle cx="710" cy="93" r="3" fill="#fff" opacity=".04"/><circle cx="1142" cy="21" r="2" fill="#fff" opacity=".04"/><circle cx="753" cy="639" r="3" fill="#fff" opacity=".04"/><circle cx="171" cy="136" r="2" fill="#fff" opacity=".04"/><circle cx="24" cy="312" r="1" fill="#fff" opacity=".04"/><circle cx="933" cy="558" r="1" fill="#fff" opacity=".04"/><circle cx="651" cy="510" r="3" fill="#fff" opacity=".04"/><circle cx="190" cy="692" r="3" fill="#fff" opacity=".04"/><circle cx="457" cy="174" r="1" fill="#fff" opacity=".04"/><circle cx="705" cy="700" r="1" fill="#fff" opacity=".04"/><circle cx="685" cy="77" r="1" fill="#fff" opacity=".04"/><circle cx="849" cy="422" r="2" fill="#fff" opacity=".04"/><circle cx="125" cy="107" r="3" fill="#fff" opacity=".04"/><circle cx="188" cy="420" r="2" fill="#fff" opacity=".04"/><circle cx="222" cy="565" r="3" fill="#fff" opacity=".04"/><circle cx="311" cy="450" r="1" fill="#fff" opacity=".04"/><circle cx="170" cy="608" r="1" fill="#fff" opacity=".04"/><circle cx="1092" cy="138" r="2" fill="#fff" opacity=".04"/><circle cx="472" cy="563" r="2" fill="#fff" opacity=".04"/><circle cx="1115" cy="680" r="2" fill="#fff" opacity=".04"/><circle cx="953" cy="267" r="2" fill="#fff" opacity=".04"/><circle cx="335" cy="221" r="1" fill="#fff" opacity=".04"/><circle cx="868" cy="306" r="3" fill="#fff" opacity=".04"/><circle cx="850" cy="496" r="3" fill="#fff" opacity=".04"/><circle cx="981" cy="289" r="2" fill="#fff" opacity=".04"/><circle cx="467" cy="225" r="2" fill="#fff" opacity=".04"/><circle cx="991" cy="388" r="3" fill="#fff" opacity=".04"/><circle cx="1050" cy="75" r="2" fill="#fff" opacity=".04"/><circle cx="67" cy="104" r="2" fill="#fff" opacity=".04"/><circle cx="637" cy="234" r="2" fill="#fff" opacity=".04"/><circle cx="16" cy="494" r="3" fill="#fff" opacity=".04"/><circle cx="277" cy="663" r="3" fill="#fff" opacity=".04"/><circle cx="6" cy="547" r="3" fill="#fff" opacity=".04"/><circle cx="541" cy="422" r="2" fill="#fff" opacity=".04"/><circle cx="939" cy="699" r="2" fill="#fff" opacity=".04"/><circle cx="987" cy="232" r="1" fill="#fff" opacity=".04"/><circle cx="1074" cy="189" r="3" fill="#fff" opacity=".04"/><circle cx="608" cy="307" r="1" fill="#fff" opacity=".04"/><circle cx="569" cy="678" r="2" fill="#fff" opacity=".04"/><circle cx="917" cy="389" r="1" fill="#fff" opacity=".04"/><circle cx="964" cy="610" r="1" fill="#fff" opacity=".04"/><circle cx="435" cy="323" r="2" fill="#fff" opacity=".04"/><circle cx="1052" cy="321" r="2" fill="#fff" opacity=".04"/><circle cx="1021" cy="335" r="3" fill="#fff" opacity=".04"/><circle cx="70" cy="466" r="3" fill="#fff" opacity=".04"/><circle cx="521" cy="323" r="1" fill="#fff" opacity=".04"/><circle cx="145" cy="267" r="3" fill="#fff" opacity=".04"/><circle cx="490" cy="470" r="2" fill="#fff" opacity=".04"/><circle cx="266" cy="504" r="3" fill="#fff" opacity=".04"/><circle cx="627" cy="391" r="1" fill="#fff" opacity=".04"/><circle cx="490" cy="563" r="3" fill="#fff" opacity=".04"/><circle cx="499" cy="383" r="1" fill="#fff" opacity=".04"/><circle cx="302" cy="468" r="3" fill="#fff" opacity=".04"/><circle cx="740" cy="722" r="3" fill="#fff" opacity=".04"/><circle cx="152" cy="162" r="1" fill="#fff" opacity=".04"/><circle cx="447" cy="151" r="2" fill="#fff" opacity=".04"/><circle cx="36" cy="375" r="2" fill="#fff" opacity=".04"/><circle cx="54" cy="96" r="1" fill="#fff" opacity=".04"/><circle cx="1156" cy="724" r="3" fill="#fff" opacity=".04"/><circle cx="155" cy="329" r="3" fill="#fff" opacity=".04"/><circle cx="452" cy="606" r="1" fill="#fff" opacity=".04"/><circle cx="850" cy="707" r="3" fill="#fff" opacity=".04"/><circle cx="998" cy="243" r="2" fill="#fff" opacity=".04"/><circle cx="1019" cy="486" r="1" fill="#fff" opacity=".04"/><circle cx="762" cy="480" r="2" fill="#fff" opacity=".04"/><circle cx="295" cy="116" r="2" fill="#fff" opacity=".04"/><circle cx="268" cy="465" r="3" fill="#fff" opacity=".04"/><circle cx="765" cy="455" r="2" fill="#fff" opacity=".04"/><circle cx="547" cy="276" r="1" fill="#fff" opacity=".04"/><circle cx="222" cy="546" r="3" fill="#fff" opacity=".04"/><circle cx="383" cy="695" r="1" fill="#fff" opacity=".04"/><circle cx="326" cy="358" r="1" fill="#fff" opacity=".04"/><circle cx="131" cy="518" r="2" fill="#fff" opacity=".04"/><circle cx="140" cy="299" r="3" fill="#fff" opacity=".04"/><circle cx="372" cy="339" r="1" fill="#fff" opacity=".04"/><circle cx="869" cy="106" r="2" fill="#fff" opacity=".04"/><circle cx="803" cy="519" r="3" fill="#fff" opacity=".04"/><circle cx="1084" cy="287" r="2" fill="#fff" opacity=".04"/><circle cx="959" cy="60" r="3" fill="#fff" opacity=".04"/><circle cx="684" cy="548" r="3" fill="#fff" opacity=".04"/><circle cx="1129" cy="680" r="1" fill="#fff" opacity=".04"/><circle cx="764" cy="563" r="3" fill="#fff" opacity=".04"/><circle cx="407" cy="336" r="1" fill="#fff" opacity=".04"/><circle cx="298" cy="601" r="1" fill="#fff" opacity=".04"/><circle cx="1073" cy="137" r="2" fill="#fff" opacity=".04"/><circle cx="517" cy="120" r="2" fill="#fff" opacity=".04"/><circle cx="1053" cy="497" r="2" fill="#fff" opacity=".04"/><circle cx="1018" cy="299" r="3" fill="#fff" opacity=".04"/><circle cx="1073" cy="506" r="3" fill="#fff" opacity=".04"/><circle cx="490" cy="19" r="3" fill="#fff" opacity=".04"/><circle cx="303" cy="609" r="1" fill="#fff" opacity=".04"/><circle cx="228" cy="535" r="2" fill="#fff" opacity=".04"/><circle cx="58" cy="489" r="3" fill="#fff" opacity=".04"/><circle cx="200" cy="535" r="2" fill="#fff" opacity=".04"/><circle cx="349" cy="42" r="2" fill="#fff" opacity=".04"/><circle cx="970" cy="119" r="1" fill="#fff" opacity=".04"/><circle cx="646" cy="143" r="3" fill="#fff" opacity=".04"/><circle cx="948" cy="390" r="3" fill="#fff" opacity=".04"/><circle cx="341" cy="224" r="2" fill="#fff" opacity=".04"/><circle cx="494" cy="305" r="1" fill="#fff" opacity=".04"/><circle cx="1002" cy="573" r="2" fill="#fff" opacity=".04"/><circle cx="626" cy="41" r="2" fill="#fff" opacity=".04"/><circle cx="558" cy="370" r="2" fill="#fff" opacity=".04"/><circle cx="490" cy="710" r="3" fill="#fff" opacity=".04"/><circle cx="1081" cy="726" r="2" fill="#fff" opacity=".04"/><circle cx="859" cy="613" r="2" fill="#fff" opacity=".04"/><circle cx="430" cy="61" r="2" fill="#fff" opacity=".04"/><circle cx="896" cy="31" r="3" fill="#fff" opacity=".04"/><circle cx="649" cy="628" r="3" fill="#fff" opacity=".04"/><circle cx="859" cy="643" r="3" fill="#fff" opacity=".04"/><circle cx="519" cy="40" r="3" fill="#fff" opacity=".04"/><circle cx="716" cy="245" r="1" fill="#fff" opacity=".04"/><circle cx="1188" cy="625" r="1" fill="#fff" opacity=".04"/><circle cx="334" cy="197" r="1" fill="#fff" opacity=".04"/><circle cx="340" cy="264" r="3" fill="#fff" opacity=".04"/><circle cx="147" cy="223" r="2" fill="#fff" opacity=".04"/><circle cx="88" cy="96" r="3" fill="#fff" opacity=".04"/><circle cx="225" cy="364" r="2" fill="#fff" opacity=".04"/><circle cx="361" cy="612" r="3" fill="#fff" opacity=".04"/><circle cx="1022" cy="332" r="1" fill="#fff" opacity=".04"/><circle cx="213" cy="415" r="3" fill="#fff" opacity=".04"/><circle cx="1007" cy="532" r="3" fill="#fff" opacity=".04"/><circle cx="1029" cy="299" r="2" fill="#fff" opacity=".04"/><circle cx="736" cy="98" r="2" fill="#fff" opacity=".04"/><circle cx="61" cy="132" r="2" fill="#fff" opacity=".04"/><circle cx="490" cy="638" r="2" fill="#fff" opacity=".04"/><circle cx="49" cy="397" r="2" fill="#fff" opacity=".04"/><circle cx="924" cy="260" r="1" fill="#fff" opacity=".04"/><circle cx="825" cy="359" r="2" fill="#fff" opacity=".04"/><circle cx="340" cy="157" r="2" fill="#fff" opacity=".04"/><circle cx="1151" cy="634" r="1" fill="#fff" opacity=".04"/><circle cx="153" cy="131" r="3" fill="#fff" opacity=".04"/><circle cx="1091" cy="421" r="3" fill="#fff" opacity=".04"/><circle cx="835" cy="554" r="3" fill="#fff" opacity=".04"/><circle cx="1091" cy="628" r="1" fill="#fff" opacity=".04"/><circle cx="658" cy="501" r="2" fill="#fff" opacity=".04"/><circle cx="85" cy="172" r="2" fill="#fff" opacity=".04"/><circle cx="1045" cy="391" r="3" fill="#fff" opacity=".04"/><circle cx="794" cy="103" r="2" fill="#fff" opacity=".04"/><circle cx="530" cy="583" r="3" fill="#fff" opacity=".04"/><circle cx="171" cy="284" r="3" fill="#fff" opacity=".04"/><circle cx="646" cy="729" r="1" fill="#fff" opacity=".04"/><circle cx="1043" cy="510" r="2" fill="#fff" opacity=".04"/><circle cx="1161" cy="84" r="2" fill="#fff" opacity=".04"/><circle cx="939" cy="144" r="3" fill="#fff" opacity=".04"/><circle cx="223" cy="87" r="2" fill="#fff" opacity=".04"/><circle cx="1112" cy="69" r="3" fill="#fff" opacity=".04"/><circle cx="666" cy="135" r="2" fill="#fff" opacity=".04"/><circle cx="501" cy="109" r="1" fill="#fff" opacity=".04"/><circle cx="294" cy="50" r="2" fill="#fff" opacity=".04"/><circle cx="966" cy="308" r="2" fill="#fff" opacity=".04"/><circle cx="801" cy="454" r="2" fill="#fff" opacity=".04"/><circle cx="369" cy="126" r="3" fill="#fff" opacity=".04"/><circle cx="1045" cy="693" r="3" fill="#fff" opacity=".04"/><circle cx="673" cy="256" r="2" fill="#fff" opacity=".04"/><circle cx="1007" cy="187" r="1" fill="#fff" opacity=".04"/><circle cx="731" cy="402" r="1" fill="#fff" opacity=".04"/><circle cx="979" cy="355" r="3" fill="#fff" opacity=".04"/><circle cx="165" cy="466" r="3" fill="#fff" opacity=".04"/><rect x="-30" y="40" width="6" height="230" fill="#f8fafc" opacity=".85"/><rect x="120" y="40" width="6" height="230" fill="#f8fafc" opacity=".85"/><g transform="translate(198.0,155.0) rotate(180)"><rect x="-44.0" y="-89.0" width="96" height="190" rx="28.799999999999997" fill="#000" opacity=".35"/><rect x="-48.0" y="-95.0" width="96" height="190" rx="28.799999999999997" fill="#0ea5e9"/><rect x="-36.480000000000004" y="-49.4" width="72.96000000000001" height="38.0" rx="9.600000000000001" fill="#1e293b" opacity=".85"/><rect x="-34.56" y="30.400000000000002" width="69.12" height="26.6" rx="7.68" fill="#1e293b" opacity=".8"/><rect x="-34.56" y="-9.5" width="69.12" height="38.0" rx="7.68" fill="#fff" opacity=".12"/><rect x="-40.32" y="-93.0" width="19.200000000000003" height="7.6000000000000005" rx="2" fill="#fef08a"/><rect x="21.12" y="-93.0" width="19.200000000000003" height="7.6000000000000005" rx="2" fill="#fef08a"/></g><rect x="270" y="40" width="6" height="230" fill="#f8fafc" opacity=".85"/><g transform="translate(348.0,155.0) rotate(180)"><rect x="-44.0" y="-89.0" width="96" height="190" rx="28.799999999999997" fill="#000" opacity=".35"/><rect x="-48.0" y="-95.0" width="96" height="190" rx="28.799999999999997" fill="#0ea5e9"/><rect x="-36.480000000000004" y="-49.4" width="72.96000000000001" height="38.0" rx="9.600000000000001" fill="#1e293b" opacity=".85"/><rect x="-34.56" y="30.400000000000002" width="69.12" height="26.6" rx="7.68" fill="#1e293b" opacity=".8"/><rect x="-34.56" y="-9.5" width="69.12" height="38.0" rx="7.68" fill="#fff" opacity=".12"/><rect x="-40.32" y="-93.0" width="19.200000000000003" height="7.6000000000000005" rx="2" fill="#fef08a"/><rect x="21.12" y="-93.0" width="19.200000000000003" height="7.6000000000000005" rx="2" fill="#fef08a"/></g><rect x="420" y="40" width="6" height="230" fill="#f8fafc" opacity=".85"/><rect x="570" y="40" width="6" height="230" fill="#f8fafc" opacity=".85"/><g transform="translate(648.0,155.0) rotate(180)"><rect x="-44.0" y="-89.0" width="96" height="190" rx="28.799999999999997" fill="#000" opacity=".35"/><rect x="-48.0" y="-95.0" width="96" height="190" rx="28.799999999999997" fill="#f97316"/><rect x="-36.480000000000004" y="-49.4" width="72.96000000000001" height="38.0" rx="9.600000000000001" fill="#1e293b" opacity=".85"/><rect x="-34.56" y="30.400000000000002" width="69.12" height="26.6" rx="7.68" fill="#1e293b" opacity=".8"/><rect x="-34.56" y="-9.5" width="69.12" height="38.0" rx="7.68" fill="#fff" opacity=".12"/><rect x="-40.32" y="-93.0" width="19.200000000000003" height="7.6000000000000005" rx="2" fill="#fef08a"/><rect x="21.12" y="-93.0" width="19.200000000000003" height="7.6000000000000005" rx="2" fill="#fef08a"/></g><rect x="720" y="40" width="6" height="230" fill="#f8fafc" opacity=".85"/><g transform="translate(798.0,155.0) rotate(180)"><rect x="-44.0" y="-89.0" width="96" height="190" rx="28.799999999999997" fill="#000" opacity=".35"/><rect x="-48.0" y="-95.0" width="96" height="190" rx="28.799999999999997" fill="#22c55e"/><rect x="-36.480000000000004" y="-49.4" width="72.96000000000001" height="38.0" rx="9.600000000000001" fill="#1e293b" opacity=".85"/><rect x="-34.56" y="30.400000000000002" width="69.12" height="26.6" rx="7.68" fill="#1e293b" opacity=".8"/><rect x="-34.56" y="-9.5" width="69.12" height="38.0" rx="7.68" fill="#fff" opacity=".12"/><rect x="-40.32" y="-93.0" width="19.200000000000003" height="7.6000000000000005" rx="2" fill="#fef08a"/><rect x="21.12" y="-93.0" width="19.200000000000003" height="7.6000000000000005" rx="2" fill="#fef08a"/></g><rect x="870" y="40" width="6" height="230" fill="#f8fafc" opacity=".85"/><g transform="translate(948.0,155.0) rotate(180)"><rect x="-44.0" y="-89.0" width="96" height="190" rx="28.799999999999997" fill="#000" opacity=".35"/><rect x="-48.0" y="-95.0" width="96" height="190" rx="28.799999999999997" fill="#a855f7"/><rect x="-36.480000000000004" y="-49.4" width="72.96000000000001" height="38.0" rx="9.600000000000001" fill="#1e293b" opacity=".85"/><rect x="-34.56" y="30.400000000000002" width="69.12" height="26.6" rx="7.68" fill="#1e293b" opacity=".8"/><rect x="-34.56" y="-9.5" width="69.12" height="38.0" rx="7.68" fill="#fff" opacity=".12"/><rect x="-40.32" y="-93.0" width="19.200000000000003" height="7.6000000000000005" rx="2" fill="#fef08a"/><rect x="21.12" y="-93.0" width="19.200000000000003" height="7.6000000000000005" rx="2" fill="#fef08a"/></g><rect x="1020" y="40" width="6" height="230" fill="#f8fafc" opacity=".85"/><g transform="translate(1098.0,155.0) rotate(180)"><rect x="-44.0" y="-89.0" width="96" height="190" rx="28.799999999999997" fill="#000" opacity=".35"/><rect x="-48.0" y="-95.0" width="96" height="190" rx="28.799999999999997" fill="#94a3b8"/><rect x="-36.480000000000004" y="-49.4" width="72.96000000000001" height="38.0" rx="9.600000000000001" fill="#1e293b" opacity=".85"/><rect x="-34.56" y="30.400000000000002" width="69.12" height="26.6" rx="7.68" fill="#1e293b" opacity=".8"/><rect x="-34.56" y="-9.5" width="69.12" height="38.0" rx="7.68" fill="#fff" opacity=".12"/><rect x="-40.32" y="-93.0" width="19.200000000000003" height="7.6000000000000005" rx="2" fill="#fef08a"/><rect x="21.12" y="-93.0" width="19.200000000000003" height="7.6000000000000005" rx="2" fill="#fef08a"/></g><rect x="1170" y="40" width="6" height="230" fill="#f8fafc" opacity=".85"/><g transform="translate(1248.0,155.0) rotate(180)"><rect x="-44.0" y="-89.0" width="96" height="190" rx="28.799999999999997" fill="#000" opacity=".35"/><rect x="-48.0" y="-95.0" width="96" height="190" rx="28.799999999999997" fill="#22c55e"/><rect x="-36.480000000000004" y="-49.4" width="72.96000000000001" height="38.0" rx="9.600000000000001" fill="#1e293b" opacity=".85"/><rect x="-34.56" y="30.400000000000002" width="69.12" height="26.6" rx="7.68" fill="#1e293b" opacity=".8"/><rect x="-34.56" y="-9.5" width="69.12" height="38.0" rx="7.68" fill="#fff" opacity=".12"/><rect x="-40.32" y="-93.0" width="19.200000000000003" height="7.6000000000000005" rx="2" fill="#fef08a"/><rect x="21.12" y="-93.0" width="19.200000000000003" height="7.6000000000000005" rx="2" fill="#fef08a"/></g><rect x="-30" y="267" width="1260" height="6" fill="#f8fafc" opacity=".85"/><rect x="-30" y="480" width="6" height="230" fill="#f8fafc" opacity=".85"/><g transform="translate(48.0,595.0) rotate(0)"><rect x="-44.0" y="-89.0" width="96" height="190" rx="28.799999999999997" fill="#000" opacity=".35"/><rect x="-48.0" y="-95.0" width="96" height="190" rx="28.799999999999997" fill="#94a3b8"/><rect x="-36.480000000000004" y="-49.4" width="72.96000000000001" height="38.0" rx="9.600000000000001" fill="#1e293b" opacity=".85"/><rect x="-34.56" y="30.400000000000002" width="69.12" height="26.6" rx="7.68" fill="#1e293b" opacity=".8"/><rect x="-34.56" y="-9.5" width="69.12" height="38.0" rx="7.68" fill="#fff" opacity=".12"/><rect x="-40.32" y="-93.0" width="19.200000000000003" height="7.6000000000000005" rx="2" fill="#fef08a"/><rect x="21.12" y="-93.0" width="19.200000000000003" height="7.6000000000000005" rx="2" fill="#fef08a"/></g><rect x="120" y="480" width="6" height="230" fill="#f8fafc" opacity=".85"/><rect x="270" y="480" width="6" height="230" fill="#f8fafc" opacity=".85"/><g transform="translate(348.0,595.0) rotate(0)"><rect x="-44.0" y="-89.0" width="96" height="190" rx="28.799999999999997" fill="#000" opacity=".35"/><rect x="-48.0" y="-95.0" width="96" height="190" rx="28.799999999999997" fill="#14b8a6"/><rect x="-36.480000000000004" y="-49.4" width="72.96000000000001" height="38.0" rx="9.600000000000001" fill="#1e293b" opacity=".85"/><rect x="-34.56" y="30.400000000000002" width="69.12" height="26.6" rx="7.68" fill="#1e293b" opacity=".8"/><rect x="-34.56" y="-9.5" width="69.12" height="38.0" rx="7.68" fill="#fff" opacity=".12"/><rect x="-40.32" y="-93.0" width="19.200000000000003" height="7.6000000000000005" rx="2" fill="#fef08a"/><rect x="21.12" y="-93.0" width="19.200000000000003" height="7.6000000000000005" rx="2" fill="#fef08a"/></g><rect x="420" y="480" width="6" height="230" fill="#f8fafc" opacity=".85"/><rect x="570" y="480" width="6" height="230" fill="#f8fafc" opacity=".85"/><g transform="translate(648.0,595.0) rotate(0)"><rect x="-44.0" y="-89.0" width="96" height="190" rx="28.799999999999997" fill="#000" opacity=".35"/><rect x="-48.0" y="-95.0" width="96" height="190" rx="28.799999999999997" fill="#f8fafc"/><rect x="-36.480000000000004" y="-49.4" width="72.96000000000001" height="38.0" rx="9.600000000000001" fill="#1e293b" opacity=".85"/><rect x="-34.56" y="30.400000000000002" width="69.12" height="26.6" rx="7.68" fill="#1e293b" opacity=".8"/><rect x="-34.56" y="-9.5" width="69.12" height="38.0" rx="7.68" fill="#fff" opacity=".12"/><rect x="-40.32" y="-93.0" width="19.200000000000003" height="7.6000000000000005" rx="2" fill="#fef08a"/><rect x="21.12" y="-93.0" width="19.200000000000003" height="7.6000000000000005" rx="2" fill="#fef08a"/></g><rect x="720" y="480" width="6" height="230" fill="#f8fafc" opacity=".85"/><g transform="translate(798.0,595.0) rotate(0)"><rect x="-44.0" y="-89.0" width="96" height="190" rx="28.799999999999997" fill="#000" opacity=".35"/><rect x="-48.0" y="-95.0" width="96" height="190" rx="28.799999999999997" fill="#a855f7"/><rect x="-36.480000000000004" y="-49.4" width="72.96000000000001" height="38.0" rx="9.600000000000001" fill="#1e293b" opacity=".85"/><rect x="-34.56" y="30.400000000000002" width="69.12" height="26.6" rx="7.68" fill="#1e293b" opacity=".8"/><rect x="-34.56" y="-9.5" width="69.12" height="38.0" rx="7.68" fill="#fff" opacity=".12"/><rect x="-40.32" y="-93.0" width="19.200000000000003" height="7.6000000000000005" rx="2" fill="#fef08a"/><rect x="21.12" y="-93.0" width="19.200000000000003" height="7.6000000000000005" rx="2" fill="#fef08a"/></g><rect x="870" y="480" width="6" height="230" fill="#f8fafc" opacity=".85"/><rect x="1020" y="480" width="6" height="230" fill="#f8fafc" opacity=".85"/><g transform="translate(1098.0,595.0) rotate(0)"><rect x="-44.0" y="-89.0" width="96" height="190" rx="28.799999999999997" fill="#000" opacity=".35"/><rect x="-48.0" y="-95.0" width="96" height="190" rx="28.799999999999997" fill="#22c55e"/><rect x="-36.480000000000004" y="-49.4" width="72.96000000000001" height="38.0" rx="9.600000000000001" fill="#1e293b" opacity=".85"/><rect x="-34.56" y="30.400000000000002" width="69.12" height="26.6" rx="7.68" fill="#1e293b" opacity=".8"/><rect x="-34.56" y="-9.5" width="69.12" height="38.0" rx="7.68" fill="#fff" opacity=".12"/><rect x="-40.32" y="-93.0" width="19.200000000000003" height="7.6000000000000005" rx="2" fill="#fef08a"/><rect x="21.12" y="-93.0" width="19.200000000000003" height="7.6000000000000005" rx="2" fill="#fef08a"/></g><rect x="1170" y="480" width="6" height="230" fill="#f8fafc" opacity=".85"/><g transform="translate(1248.0,595.0) rotate(0)"><rect x="-44.0" y="-89.0" width="96" height="190" rx="28.799999999999997" fill="#000" opacity=".35"/><rect x="-48.0" y="-95.0" width="96" height="190" rx="28.799999999999997" fill="#0ea5e9"/><rect x="-36.480000000000004" y="-49.4" width="72.96000000000001" height="38.0" rx="9.600000000000001" fill="#1e293b" opacity=".85"/><rect x="-34.56" y="30.400000000000002" width="69.12" height="26.6" rx="7.68" fill="#1e293b" opacity=".8"/><rect x="-34.56" y="-9.5" width="69.12" height="38.0" rx="7.68" fill="#fff" opacity=".12"/><rect x="-40.32" y="-93.0" width="19.200000000000003" height="7.6000000000000005" rx="2" fill="#fef08a"/><rect x="21.12" y="-93.0" width="19.200000000000003" height="7.6000000000000005" rx="2" fill="#fef08a"/></g><rect x="-30" y="477" width="1260" height="6" fill="#f8fafc" opacity=".85"/><rect x="20" y="371.0" width="60" height="8" rx="3" fill="#facc15" opacity=".8"/><rect x="140" y="371.0" width="60" height="8" rx="3" fill="#facc15" opacity=".8"/><rect x="260" y="371.0" width="60" height="8" rx="3" fill="#facc15" opacity=".8"/><rect x="380" y="371.0" width="60" height="8" rx="3" fill="#facc15" opacity=".8"/><rect x="500" y="371.0" width="60" height="8" rx="3" fill="#facc15" opacity=".8"/><rect x="620" y="371.0" width="60" height="8" rx="3" fill="#facc15" opacity=".8"/><rect x="740" y="371.0" width="60" height="8" rx="3" fill="#facc15" opacity=".8"/><rect x="860" y="371.0" width="60" height="8" rx="3" fill="#facc15" opacity=".8"/><rect x="980" y="371.0" width="60" height="8" rx="3" fill="#facc15" opacity=".8"/><rect x="1100" y="371.0" width="60" height="8" rx="3" fill="#facc15" opacity=".8"/><path d="M624.0,335.0 l40,40 l-40,40" stroke="#f8fafc" stroke-width="10" fill="none" opacity=".6" stroke-linecap="round"/><g transform="translate(360.0,375.0) rotate(90)"><rect x="-46.0" y="-92.0" width="100" height="196" rx="30.0" fill="#000" opacity=".35"/><rect x="-50.0" y="-98.0" width="100" height="196" rx="30.0" fill="#0ea5e9"/><rect x="-38.0" y="-50.96" width="76.0" height="39.2" rx="10.0" fill="#1e293b" opacity=".85"/><rect x="-36.0" y="31.36" width="72.0" height="27.44" rx="8.0" fill="#1e293b" opacity=".8"/><rect x="-36.0" y="-9.8" width="72.0" height="39.2" rx="8.0" fill="#fff" opacity=".12"/><rect x="-42.0" y="-96.0" width="20.0" height="7.84" rx="2" fill="#fef08a"/><rect x="22.0" y="-96.0" width="20.0" height="7.84" rx="2" fill="#fef08a"/></g><circle cx="60" cy="375.0" r="70" fill="#166534" opacity=".9"/><circle cx="80" cy="355.0" r="40" fill="#22c55e" opacity=".5"/><circle cx="1140" cy="375.0" r="70" fill="#166534" opacity=".9"/><circle cx="1160" cy="355.0" r="40" fill="#22c55e" opacity=".5"/><rect x="864.0" y="317.0" width="116" height="116" rx="22" fill="#14b88a" opacity=".92"/><text x="922.0" y="411.0" text-anchor="middle" font-family="Arial, sans-serif" font-weight="900" font-size="96" fill="#fff">P</text><rect width="1200" height="750" fill="#020617" opacity="0.35"/></svg>