<svg xmlns="http://www.w3.org/2000/svg" viewBox="0 0 1200 750" preserveAspectRatio="xMidYMid slice" role="img" aria-label="Illustration of lot parking"><rect width="1200" height="750" fill="#3f4a5c"/><circle cx="847" cy="191" r="3" fill="#fff" opacity=".04"/><circle cx="1064" cy="264" r="2" fill="#fff" opacity=".04"/><circle cx="818" cy="470" r="1" fill="#fff" opacity=".04"/><circle cx="928" cy="393" r="3" fill="#fff" opacity=".04"/><circle cx="139" cy="611" r="1" fill="#fff" opacity=".04"/><circle cx="450" cy="12" r="2" fill="#fff" opacity=".04"/><circle cx="180" cy="326" r="3" fill="#fff" opacity=".04"/><circle cx="397" cy="2" r="2" fill="#fff" opacity=".04"/><circle cx="85" cy="507" r="2" fill="#fff" opacity=".04"/><circle cx="381" cy="628" r="3" fill="#fff" opacity=".04"/><circle cx="1019" cy="384" r="3" fill="#fff" opacity=".04"/><circle cx="53" cy="610" r="1" fill="#fff" opacity=".04"/><circle cx="502" cy="201" r="1" fill="#fff" opacity=".04"/><circle cx="829" cy="608" r="2" fill="#fff" opacity=".04"/><circle cx="432" cy="160" r="2" fill="#fff" opacity=".04"/><circle cx="717" cy="339" r="2" fill="#fff" opacity=".04"/><circle cx="343" cy="170" r="1" fill="#fff" opacity=".04"/><circle cx="1037" cy="45" r="3" fill="#fff" opacity=".04"/><circle cx="29" cy="605" r="1" fill="#fff" opacity=".04"/><circle cx="1155" cy="226" r="2" fill="#fff" opacity=".04"/><circle cx="1152" cy="412" r="3" fill="#fff" opacity=".04"/><circle cx="272" cy="584" r="3" fill="#fff" opacity=".04"/><circle cx="514" cy="416" r="2" fill="#fff" opacity=".04"/><circle cx="744" cy="263" r="1" fill="#fff" opacity=".04"/><circle cx="158" cy="105" r="1" fill="#fff" opacity=".04"/><circle cx="215" cy="461" r="2" fill="#fff" opacity=".04"/><circle cx="334" cy="614" r="3" fill="#fff" opacity=".04"/><circle cx="267" cy="386" r="3" fill="#fff" opacity=".04"/><circle cx="702" cy="448" r="3" fill="#fff" opacity=".04"/><circle cx="113" cy="493" r="3" fill="#fff" opacity=".04"/><circle cx="821" cy="200" r="1" fill="#fff" opacity=".04"/><circle cx="26" cy="259" r="2" fill="#fff" opacity=".04"/><circle cx="280" cy="588" r="3" fill="#fff" opacity=".04"/><circle cx="719" cy="687" r="2" fill="#fff" opacity=".04"/><circle cx="430" cy="154" r="3" fill="#fff" opacity=".04"/><circle cx="121" cy="466" r="2" fill="#fff" opacity=".04"/><circle cx="881" cy="191" r="1" fill="#fff" opacity=".04"/><circle cx="1065" cy="18" r="2" fill="#fff" opacity=".04"/><circle cx="433" cy="443" r="2" fill="#fff" opacity=".04"/><circle cx="819" cy="122" r="3" fill="#fff" opacity=".04"/><circle cx="430" cy="746" r="3" fill="#fff" opacity=".04"/><circle cx="509" cy="626" r="2" fill="#fff" opacity=".04"/><circle cx="440" cy="137" r="2" fill="#fff" opacity=".04"/><circle cx="618" cy="317" r="2" fill="#fff" opacity=".04"/><circle cx="1079" cy="511" r="1" fill="#fff" opacity=".04"/><circle cx="137" cy="450" r="1" fill="#fff" opacity=".04"/><circle cx="473" cy="92" r="1" fill="#fff" opacity=".04"/><circle cx="497" cy="486" r="2" fill="#fff" opacity=".04"/><circle cx="109" cy="285" r="1" fill="#fff" opacity=".04"/><circle cx="798" cy="447" r="1" fill="#fff" opacity=".04"/><circle cx="877" cy="702" r="2" fill="#fff" opacity=".04"/><circle cx="783" cy="254" r="1" fill="#fff" opacity=".04"/><circle cx="419" cy="543" r="3" fill="#fff" opacity=".04"/><circle cx="649" cy="356" r="3" fill="#fff" opacity=".04"/><circle cx="421" cy="642" r="2" fill="#fff" opacity=".04"/><circle cx="880" cy="268" r="3" fill="#fff" opacity=".04"/><circle cx="775" cy="501" r="2" fill="#fff" opacity=".04"/><circle cx="1108" cy="124" r="2" fill="#fff" opacity=".04"/><circle cx="182" cy="1" r="3" fill="#fff" opacity=".04"/><circle cx="398" cy="567" r="2" fill="#fff" opacity=".04"/><circle cx="573" cy="529" r="1" fill="#fff" opacity=".04"/><circle cx="644" cy="170" r="3" fill="#fff" opacity=".04"/><circle cx="985" cy="451" r="1" fill="#fff" opacity=".04"/><circle cx="929" cy="122" r="3" fill="#fff" opacity=".04"/><circle cx="365" cy="179" r="3" fill="#fff" opacity=".04"/><circle cx="890" cy="213" r="2" fill="#fff" opacity=".04"/><circle cx="1063" cy="44" r="2" fill="#fff" opacity=".04"/><circle cx="947" cy="65" r="3" fill="#fff" opacity=".04"/><circle cx="271" cy="46" r="1" fill="#fff" opacity=".04"/><circle cx="432" cy="380" r="2" fill="#fff" opacity=".04"/><circle cx="531" cy="729" r="3" fill="#fff" opacity=".04"/><circle cx="778" cy="724" r="1" fill="#fff" opacity=".04"/><circle cx="459" cy="732" r="2" fill="#fff" opacity=".04"/><circle cx="853" cy="270" r="2" fill="#fff" opacity=".04"/><circle cx="515" cy="530" r="2" fill="#fff" opacity=".04"/><circle cx="780" cy="62" r="2" fill="#fff" opacity=".04"/><circle cx="506" cy="203" r="3" fill="#fff" opacity=".04"/><circle cx="81" cy="745" r="3" fill="#fff" opacity=".04"/><circle cx="1133" cy="248" r="2" fill="#fff" opacity=".04"/><circle cx="175" cy="553" r="3" fill="#fff" opacity=".04"/><circle cx="624" cy="79" r="1" fill="#fff" opacity=".04"/><circle cx="86" cy="208" r="3" fill="#fff" opacity=".04"/><circle cx="1184" cy="670" r="3" fill="#fff" opacity=".04"/><circle cx="249" cy="555" r="2" fill="#fff" opacity=".04"/><circle cx="319" cy="513" r="2" fill="#fff" opacity=".04"/><circle cx="453" cy="618" r="3" fill="#fff" opacity=".04"/><circle cx="170" cy="264" r="1" fill="#fff" opacity=".04"/><circle cx="711" cy="32" r="2" fill="#fff" opacity=".04"/><circle cx="454" cy="464" r="2" fill="#fff" opacity=".04"/><circle cx="643" cy="22" r="3" fill="#fff" opacity=".04"/><circle cx="214" cy="166" r="3" fill="#fff" opacity=".04"/><circle cx="1161" cy="254" r="1" fill="#fff" opacity=".04"/><circle cx="303" cy="78" r="1" fill="#fff" opacity=".04"/><circle cx="766" cy="15" r="1" fill="#fff" opacity=".04"/><circle cx="289" cy="180" r="3" fill="#fff" opacity=".04"/><circle cx="489" cy="568" r="3" fill="#fff" opacity=".04"/><circle cx="85" cy="329" r="2" fill="#fff" opacity=".04"/><circle cx="1046" cy="333" r="2" fill="#fff" opacity=".04"/><circle cx="256" cy="355" r="1" fill="#fff" opacity=".04"/><circle cx="72" cy="516" r="3" fill="#fff" opacity=".04"/><circle cx="761" cy="616" r="3" fill="#fff" opacity=".04"/><circle cx="201" cy="191" r="3" fill="#fff" opacity=".04"/><circle cx="423" cy="424" r="1" fill="#fff" opacity=".04"/><circle cx="680" cy="439" r="1" fill="#fff" opacity=".04"/><circle cx="765" cy="637" r="3" fill="#fff" opacity=".04"/><circle cx="549" cy="739" r="2" fill="#fff" opacity=".04"/><circle cx="182" cy="391" r="1" fill="#fff" opacity=".04"/><circle cx="497" cy="76" r="1" fill="#fff" opacity=".04"/><circle cx="1010" cy="332" r="1" fill="#fff" opacity=".04"/><circle cx="789" cy="576" r="2" fill="#fff" opacity=".04"/><circle cx="217" cy="712" r="1" fill="#fff" opacity=".04"/><circle cx="1023" cy="736" r="2" fill="#fff" opacity=".04"/><circle cx="1174" cy="466" r="1" fill="#fff" opacity=".04"/><circle cx="494" cy="28" r="2" fill="#fff" opacity=".04"/><circle cx="276" cy="703" r="3" fill="#fff" opacity=".04"/><circle cx="1073" cy="28" r="3" fill="#fff" opacity=".04"/><circle cx="122" cy="736" r="1" fill="#fff" opacity=".04"/><circle cx="711" cy="464" r="1" fill="#fff" opacity=".04"/><circle cx="779" cy="200" r="3" fill="#fff" opacity=".04"/><circle cx="367" cy="553" r="3" fill="#fff" opacity=".04"/><circle cx="981" cy="38" r="3" fill="#fff" opacity=".04"/><circle cx="490" cy="689" r="3" fill="#fff" opacity=".04"/><circle cx="1094" cy="383" r="1" fill="#fff" opacity=".04"/><circle cx="625" cy="499" r="3" fill="#fff" opacity=".04"/><circle cx="1067" cy="59" r="3" fill="#fff" opacity=".04"/><circle cx="522" cy="69" r="3" fill="#fff" opacity=".04"/><circle cx="53" cy="694" r="2" fill="#fff" opacity=".04"/><circle cx="978" cy="202" r="1" fill="#fff" opacity=".04"/><circle cx="447" cy="299" r="3" fill="#fff" opacity=".04"/><circle cx="1018" cy="18" r="1" fill="#fff" opacity=".04"/><circle cx="241" cy="309" r="1" fill="#fff" opacity=".04"/><circle cx="534" cy="302" r="1" fill="#fff" opacity=".04"/><circle cx="108" cy="344" r="1" fill="#fff" opacity=".04"/><circle cx="485" cy="215" r="2" fill="#fff" opacity=".04"/><circle cx="306" cy="107" r="3" fill="#fff" opacity=".04"/><circle cx="536" cy="4" r="2" fill="#fff" opacity=".04"/><circle cx="899" cy="677" r="2" fill="#fff" opacity=".04"/><circle cx="449" cy="370" r="3" fill="#fff" opacity=".04"/><circle cx="417" cy="732" r="1" fill="#fff" opacity=".04"/><circle cx="181" cy="745" r="2" fill="#fff" opacity=".04"/><circle cx="1059" cy="145" r="2" fill="#fff" opacity=".04"/><circle cx="1049" cy="30" r="3" fill="#fff" opacity=".04"/><circle cx="850" cy="235" r="2" fill="#fff" opacity=".04"/><circle cx="619" cy="29" r="3" fill="#fff" opacity=".04"/><circle cx="962" cy="120" r="1" fill="#fff" opacity=".04"/><circle cx="707" cy="480" r="2" fill="#fff" opacity=".04"/><circle cx="406" cy="448" r="3" fill="#fff" opacity=".04"/><circle cx="243" cy="616" r="3" fill="#fff" opacity=".04"/><circle cx="65" cy="621" r="2" fill="#fff" opacity=".04"/><circle cx="1053" cy="439" r="2" fill="#fff" opacity=".04"/><circle cx="939" cy="502" r="1" fill="#fff" opacity=".04"/><circle cx="747" cy="368" r="3" fill="#fff" opacity=".04"/><circle cx="472" cy="560" r="1" fill="#fff" opacity=".04"/><circle cx="878" cy="134" r="1" fill="#fff" opacity=".04"/><circle cx="855" cy="669" r="2" fill="#fff" opacity=".04"/><circle cx="1198" cy="312" r="1" fill="#fff" opacity=".04"/><circle cx="747" cy="337" r="1" fill="#fff" opacity=".04"/><circle cx="823" cy="649" r="1" fill="#fff" opacity=".04"/><circle cx="1084" cy="726" r="2" fill="#fff" opacity=".04"/><circle cx="622" cy="70" r="1" fill="#fff" opacity=".04"/><circle cx="964" cy="256" r="1" fill="#fff" opacity=".04"/><circle cx="746" cy="537" r="2" fill="#fff" opacity=".04"/><circle cx="1136" cy="225" r="3" fill="#fff" opacity=".04"/><circle cx="970" cy="441" r="3" fill="#fff" opacity=".04"/><circle cx="973" cy="607" r="1" fill="#fff" opacity=".04"/><circle cx="343" cy="177" r="1" fill="#fff" opacity=".04"/><circle cx="198" cy="2" r="3" fill="#fff" opacity=".04"/><circle cx="263" cy="693" r="1" fill="#fff" opacity=".04"/><circle cx="61" cy="606" r="2" fill="#fff" opacity=".04"/><circle cx="876" cy="491" r="1" fill="#fff" opacity=".04"/><circle cx="1165" cy="638" r="3" fill="#fff" opacity=".04"/><circle cx="416" cy="329" r="1" fill="#fff" opacity=".04"/><circle cx="89" cy="253" r="2" fill="#fff" opacity=".04"/><circle cx="104" cy="61" r="1" fill="#fff" opacity=".04"/><circle cx="903" cy="626" r="1" fill="#fff" opacity=".04"/><circle cx="223" cy="84" r="2" fill="#fff" opacity=".04"/><circle cx="1118" cy="307" r="1" fill="#fff" opacity=".04"/><circle cx="44" cy="71" r="1" fill="#fff" opacity=".04"/><circle cx="669" cy="514" r="3" fill="#fff" opacity=".04"/><circle cx="547" cy="686" r="2" fill="#fff" opacity=".04"/><circle cx="1153" cy="17" r="3" fill="#fff" opacity=".04"/><circle cx="901" cy="343" r="2" fill="#fff" opacity=".04"/><circle cx="169" cy="118" r="1" fill="#fff" opacity=".04"/><circle cx="45" cy="169" r="1" fill="#fff" opacity=".04"/><circle cx="1189" cy="396" r="1" fill="#fff" opacity=".04"/><circle cx="1054" cy="349" r="1" fill="#fff" opacity=".04"/><circle cx="1187" cy="124" r="1" fill="#fff" opacity=".04"/><circle cx="921" cy="191" r="3" fill="#fff" opacity=".04"/><circle cx="1181" cy="677" r="2" fill="#fff" opacity=".04"/><circle cx="878" cy="59" r="2" fill="#fff" opacity=".04"/><circle cx="326" cy="732" r="3" fill="#fff" opacity=".04"/><circle cx="66" cy="163" r="2" fill="#fff" opacity=".04"/><circle cx="442" cy="49" r="1" fill="#fff" opacity=".04"/><circle cx="798" cy="89" r="2" fill="#fff" opacity=".04"/><circle cx="999" cy="672" r="3" fill="#fff" opacity=".04"/><circle cx="259" cy="181" r="2" fill="#fff" opacity=".04"/><circle cx="1102" cy="257" r="2" fill="#fff" opacity=".04"/><circle cx="445" cy="96" r="1" fill="#fff" opacity=".04"/><circle cx="954" cy="171" r="2" fill="#fff" opacity=".04"/><circle cx="427" cy="208" r="3" fill="#fff" opacity=".04"/><circle cx="1112" cy="440" r="1" fill="#fff" opacity=".04"/><circle cx="725" cy="180" r="3" fill="#fff" opacity=".04"/><circle cx="718" cy="615" r="1" fill="#fff" opacity=".04"/><circle cx="584" cy="379" r="3" fill="#fff" opacity=".04"/><circle cx="277" cy="375" r="1" fill="#fff" opacity=".04"/><circle cx="977" cy="211" r="1" fill="#fff" opacity=".04"/><circle cx="795" cy="616" r="1" fill="#fff" opacity=".04"/><circle cx="406" cy="393" r="2" fill="#fff" opacity=".04"/><circle cx="666" cy="94" r="3" fill="#fff" opacity=".04"/><circle cx="1167" cy="706" r="3" fill="#fff" opacity=".04"/><circle cx="1200" cy="254" r="2" fill="#fff" opacity=".04"/><circle cx="299" cy="659" r="2" fill="#fff" opacity=".04"/><circle cx="402" cy="468" r="1" fill="#fff" opacity=".04"/><circle cx="1085" cy="337" r="2" fill="#fff" opacity=".04"/><circle cx="643" cy="694" r="2" fill="#fff" opacity=".04"/><circle cx="1056" cy="735" r="2" fill="#fff" opacity=".04"/><circle cx="928" cy="541" r="2" fill="#fff" opacity=".04"/><circle cx="889" cy="729" r="2" fill="#fff" opacity=".04"/><circle cx="184" cy="89" r="2" fill="#fff" opacity=".04"/><circle cx="1099" cy="606" r="3" fill="#fff" opacity=".04"/><circle cx="1074" cy="50" r="3" fill="#fff" opacity=".04"/><circle cx="423" cy="132" r="1" fill="#fff" opacity=".04"/><circle cx="808" cy="620" r="3" fill="#fff" opacity=".04"/><circle cx="900" cy="270" r="1" fill="#fff" opacity=".04"/><circle cx="805" cy="380" r="3" fill="#fff" opacity=".04"/><circle cx="63" cy="54" r="1" fill="#fff" opacity=".04"/><circle cx="901" cy="654" r="1" fill="#fff" opacity=".04"/><circle cx="699" cy="225" r="3" fill="#fff" opacity=".04"/><circle cx="647" cy="141" r="2" fill="#fff" opacity=".04"/><circle cx="617" cy="583" r="1" fill="#fff" opacity=".04"/><circle cx="92" cy="506" r="3" fill="#fff" opacity=".04"/><circle cx="698" cy="660" r="1" fill="#fff" opacity=".04"/><circle cx="1198" cy="613" r="3" fill="#fff" opacity=".04"/><circle cx="1014" cy="270" r="3" fill="#fff" opacity=".04"/><circle cx="492" cy="292" r="3" fill="#fff" opacity=".04"/><circle cx="190" cy="60" r="3" fill="#fff" opacity=".04"/><circle cx="1128" cy="277" r="1" fill="#fff" opacity=".04"/><circle cx="393" cy="8" r="2" fill="#fff" opacity=".04"/><circle cx="360" cy="438" r="3" fill="#fff" opacity=".04"/><circle cx="928" cy="383" r="1" fill="#fff" opacity=".04"/><circle cx="205" cy="657" r="3" fill="#fff" opacity=".04"/><circle cx="377" cy="739" r="2" fill="#fff" opacity=".04"/><circle cx="313" cy="516" r="1" fill="#fff" opacity=".04"/><circle cx="404" cy="244" r="1" fill="#fff" opacity=".04"/><circle cx="300" cy="121" r="2" fill="#fff" opacity=".04"/><circle cx="136" cy="336" r="3" fill="#fff" opacity=".04"/><circle cx="493" cy="3" r="2" fill="#fff" opacity=".04"/><circle cx="296" cy="623" r="1" fill="#fff" opacity=".04"/><circle cx="1141" cy="348" r="3" fill="#fff" opacity=".04"/><circle cx="494" cy="728" r="3" fill="#fff" opacity=".04"/><circle cx="105" cy="273" r="3" fill="#fff" opacity=".04"/><circle cx="726" cy="129" r="2" fill="#fff" opacity=".04"/><circle cx="304" cy="24" r="3" fill="#fff" opacity=".04"/><circle cx="523" cy="328" r="3" fill="#fff" opacity=".04"/><circle cx="981" cy="719" r="3" fill="#fff" opacity=".04"/><circle cx="20" cy="406" r="3" fill="#fff" opacity=".04"/><circle cx="217" cy="429" r="3" fill="#fff" opacity=".04"/><circle cx="743" cy="357" r="1" fill="#fff" opacity=".04"/><circle cx="310" cy="162" r="2" fill="#fff" opacity=".04"/><circle cx="757" cy="321" r="1" fill="#fff" opacity=".04"/><rect x="-30" y="40" width="6" height="230" fill="#f8fafc" opacity=".85"/><rect x="120" y="40" width="6" height="230" fill="#f8fafc" opacity=".85"/><rect x="270" y="40" width="6" height="230" fill="#f8fafc" opacity=".85"/><g transform="translate(348.0,155.0) rotate(180)"><rect x="-44.0" y="-89.0" width="96" height="190" rx="28.799999999999997" fill="#000" opacity=".35"/><rect x="-48.0" y="-95.0" width="96" height="190" rx="28.799999999999997" fill="#22c55e"/><rect x="-36.480000000000004" y="-49.4" width="72.96000000000001" height="38.0" rx="9.600000000000001" fill="#1e293b" opacity=".85"/><rect x="-34.56" y="30.400000000000002" width="69.12" height="26.6" rx="7.68" fill="#1e293b" opacity=".8"/><rect x="-34.56" y="-9.5" width="69.12" height="38.0" rx="7.68" fill="#fff" opacity=".12"/><rect x="-40.32" y="-93.0" width="19.200000000000003" height="7.6000000000000005" rx="2" fill="#fef08a"/><rect x="21.12" y="-93.0" width="19.200000000000003" height="7.6000000000000005" rx="2" fill="#fef08a"/></g><rect x="420" y="40" width="6" height="230" fill="#f8fafc" opacity=".85"/><rect x="570" y="40" width="6" height="230" fill="#f8fafc" opacity=".85"/><g transform="translate(648.0,155.0) rotate(180)"><rect x="-44.0" y="-89.0" width="96" height="190" rx="28.799999999999997" fill="#000" opacity=".35"/><rect x="-48.0" y="-95.0" width="96" height="190" rx="28.799999999999997" fill="#a855f7"/><rect x="-36.480000000000004" y="-49.4" width="72.96000000000001" height="38.0" rx="9.600000000000001" fill="#1e293b" opacity=".85"/><rect x="-34.56" y="30.400000000000002" width="69.12" height="26.6" rx="7.68" fill="#1e293b" opacity=".8"/><rect x="-34.56" y="-9.5" width="69.12" height="38.0" rx="7.68" fill="#fff" opacity=".12"/><rect x="-40.32" y="-93.0" width="19.200000000000003" height="7.6000000000000005" rx="2" fill="#fef08a"/><rect x="21.12" y="-93.0" width="19.200000000000003" height="7.6000000000000005" rx="2" fill="#fef08a"/></g><rect x="720" y="40" width="6" height="230" fill="#f8fafc" opacity=".85"/><g transform="translate(798.0,155.0) rotate(180)"><rect x="-44.0" y="-89.0" width="96" height="190" rx="28.799999999999997" fill="#000" opacity=".35"/><rect x="-48.0" y="-95.0" width="96" height="190" rx="28.799999999999997" fill="#a855f7"/><rect x="-36.480000000000004" y="-49.4" width="72.96000000000001" height="38.0" rx="9.600000000000001" fill="#1e293b" opacity=".85"/><rect x="-34.56" y="30.400000000000002" width="69.12" height="26.6" rx="7.68" fill="#1e293b" opacity=".8"/><rect x="-34.56" y="-9.5" width="69.12" height="38.0" rx="7.68" fill="#fff" opacity=".12"/><rect x="-40.32" y="-93.0" width="19.200000000000003" height="7.6000000000000005" rx="2" fill="#fef08a"/><rect x="21.12" y="-93.0" width="19.200000000000003" height="7.6000000000000005" rx="2" fill="#fef08a"/></g><rect x="870" y="40" width="6" height="230" fill="#f8fafc" opacity=".85"/><g transform="translate(948.0,155.0) rotate(180)"><rect x="-44.0" y="-89.0" width="96" height="190" rx="28.799999999999997" fill="#000" opacity=".35"/><rect x="-48.0" y="-95.0" width="96" height="190" rx="28.799999999999997" fill="#1f2937"/><rect x="-36.480000000000004" y="-49.4" width="72.96000000000001" height="38.0" rx="9.600000000000001" fill="#1e293b" opacity=".85"/><rect x="-34.56" y="30.400000000000002" width="69.12" height="26.6" rx="7.68" fill="#1e293b" opacity=".8"/><rect x="-34.56" y="-9.5" width="69.12" height="38.0" rx="7.68" fill="#fff" opacity=".12"/><rect x="-40.32" y="-93.0" width="19.200000000000003" height="7.6000000000000005" rx="2" fill="#fef08a"/><rect x="21.12" y="-93.0" width="19.200000000000003" height="7.6000000000000005" rx="2" fill="#fef08a"/></g><rect x="1020" y="40" width="6" height="230" fill="#f8fafc" opacity=".85"/><rect x="1170" y="40" width="6" height="230" fill="#f8fafc" opacity=".85"/><rect x="-30" y="267" width="1260" height="6" fill="#f8fafc" opacity=".85"/><rect x="-30" y="480" width="6" height="230" fill="#f8fafc" opacity=".85"/><rect x="120" y="480" width="6" height="230" fill="#f8fafc" opacity=".85"/><rect x="270" y="480" width="6" height="230" fill="#f8fafc" opacity=".85"/><g transform="translate(348.0,595.0) rotate(0)"><rect x="-44.0" y="-89.0" width="96" height="190" rx="28.799999999999997" fill="#000" opacity=".35"/><rect x="-48.0" y="-95.0" width="96" height="190" rx="28.799999999999997" fill="#1f2937"/><rect x="-36.480000000000004" y="-49.4" width="72.96000000000001" height="38.0" rx="9.600000000000001" fill="#1e293b" opacity=".85"/><rect x="-34.56" y="30.400000000000002" width="69.12" height="26.6" rx="7.68" fill="#1e293b" opacity=".8"/><rect x="-34.56" y="-9.5" width="69.12" height="38.0" rx="7.68" fill="#fff" opacity=".12"/><rect x="-40.32" y="-93.0" width="19.200000000000003" height="7.6000000000000005" rx="2" fill="#fef08a"/><rect x="21.12" y="-93.0" width="19.200000000000003" height="7.6000000000000005" rx="2" fill="#fef08a"/></g><rect x="420" y="480" width="6" height="230" fill="#f8fafc" opacity=".85"/><rect x="570" y="480" width="6" height="230" fill="#f8fafc" opacity=".85"/><g transform="translate(648.0,595.0) rotate(0)"><rect x="-44.0" y="-89.0" width="96" height="190" rx="28.799999999999997" fill="#000" opacity=".35"/><rect x="-48.0" y="-95.0" width="96" height="190" rx="28.799999999999997" fill="#f97316"/><rect x="-36.480000000000004" y="-49.4" width="72.96000000000001" height="38.0" rx="9.600000000000001" fill="#1e293b" opacity=".85"/><rect x="-34.56" y="30.400000000000002" width="69.12" height="26.6" rx="7.68" fill="#1e293b" opacity=".8"/><rect x="-34.56" y="-9.5" width="69.12" height="38.0" rx="7.68" fill="#fff" opacity=".12"/><rect x="-40.32" y="-93.0" width="19.200000000000003" height="7.6000000000000005" rx="2" fill="#fef08a"/><rect x="21.12" y="-93.0" width="19.200000000000003" height="7.6000000000000005" rx="2" fill="#fef08a"/></g><rect x="720" y="480" width="6" height="230" fill="#f8fafc" opacity=".85"/><rect x="870" y="480" width="6" height="230" fill="#f8fafc" opacity=".85"/><rect x="1020" y="480" width="6" height="230" fill="#f8fafc" opacity=".85"/><g transform="translate(1098.0,595.0) rotate(0)"><rect x="-44.0" y="-89.0" width="96" height="190" rx="28.799999999999997" fill="#000" opacity=".35"/><rect x="-48.0" y="-95.0" width="96" height="190" rx="28.799999999999997" fill="#ef4444"/><rect x="-36.480000000000004" y="-49.4" width="72.96000000000001" height="38.0" rx="9.600000000000001" fill="#1e293b" opacity=".85"/><rect x="-34.56" y="30.400000000000002" width="69.12" height="26.6" rx="7.68" fill="#1e293b" opacity=".8"/><rect x="-34.56" y="-9.5" width="69.12" height="38.0" rx="7.68" fill="#fff" opacity=".12"/><rect x="-40.32" y="-93.0" width="19.200000000000003" height="7.6000000000000005" rx="2" fill="#fef08a"/><rect x="21.12" y="-93.0" width="19.200000000000003" height="7.6000000000000005" rx="2" fill="#fef08a"/></g><rect x="1170" y="480" width="6" height="230" fill="#f8fafc" opacity=".85"/><g transform="translate(1248.0,595.0) rotate(0)"><rect x="-44.0" y="-89.0" width="96" height="190" rx="28.799999999999997" fill="#000" opacity=".35"/><rect x="-48.0" y="-95.0" width="96" height="190" rx="28.799999999999997" fill="#14b8a6"/><rect x="-36.480000000000004" y="-49.4" width="72.96000000000001" height="38.0" rx="9.600000000000001" fill="#1e293b" opacity=".85"/><rect x="-34.56" y="30.400000000000002" width="69.12" height="26.6" rx="7.68" fill="#1e293b" opacity=".8"/><rect x="-34.56" y="-9.5" width="69.12" height="38.0" rx="7.68" fill="#fff" opacity=".12"/><rect x="-40.32" y="-93.0" width="19.200000000000003" height="7.6000000000000005" rx="2" fill="#fef08a"/><rect x="21.12" y="-93.0" width="19.200000000000003" height="7.6000000000000005" rx="2" fill="#fef08a"/></g><rect x="-30" y="477" width="1260" height="6" fill="#f8fafc" opacity=".85"/><rect x="20" y="371.0" width="60" height="8" rx="3" fill="#facc15" opacity=".8"/><rect x="140" y="371.0" width="60" height="8" rx="3" fill="#facc15" opacity=".8"/><rect x="260" y="371.0" width="60" height="8" rx="3" fill="#facc15" opacity=".8"/><rect x="380" y="371.0" width="60" height="8" rx="3" fill="#facc15" opacity=".8"/><rect x="500" y="371.0" width="60" height="8" rx="3" fill="#facc15" opacity=".8"/><rect x="620" y="371.0" width="60" height="8" rx="3" fill="#facc15" opacity=".8"/><rect x="740" y="371.0" width="60" height="8" rx="3" fill="#facc15" opacity=".8"/><rect x="860" y="371.0" width="60" height="8" rx="3" fill="#facc15" opacity=".8"/><rect x="980" y="371.0" width="60" height="8" rx="3" fill="#facc15" opacity=".8"/><rect x="1100" y="371.0" width="60" height="8" rx="3" fill="#facc15" opacity=".8"/><path d="M624.0,335.0 l40,40 l-40,40" stroke="#f8fafc" stroke-width="10" fill="none" opacity=".6" stroke-linecap="round"/><g transform="translate(360.0,375.0) rotate(90)"><rect x="-46.0" y="-92.0" width="100" height="196" rx="30.0" fill="#000" opacity=".35"/><rect x="-50.0" y="-98.0" width="100" height="196" rx="30.0" fill="#f97316"/><rect x="-38.0" y="-50.96" width="76.0" height="39.2" rx="10.0" fill="#1e293b" opacity=".85"/><rect x="-36.0" y="31.36" width="72.0" height="27.44" rx="8.0" fill="#1e293b" opacity=".8"/><rect x="-36.0" y="-9.8" width="72.0" height="39.2" rx="8.0" fill="#fff" opacity=".12"/><rect x="-42.0" y="-96.0" width="20.0" height="7.84" rx="2" fill="#fef08a"/><rect x="22.0" y="-96.0" width="20.0" height="7.84" rx="2" fill="#fef08a"/></g><circle cx="60" cy="375.0" r="70" fill="#166534" opacity=".9"/><circle cx="80" cy="355.0" r="40" fill="#22c55e" opacity=".5"/><circle cx="1140" cy="375.0" r="70" fill="#166534" opacity=".9"/><circle cx="1160" cy="355.0" r="40" fill="#22c55e" opacity=".5"/><rect x="864.0" y="317.0" width="116" height="116" rx="22" fill="#14b88a" opacity=".92"/><text x="922.0" y="411.0" text-anchor="middle" font-family="Arial, sans-serif" font-weight="900" font-size="96" fill="#fff">P</text></svg>