<svg xmlns="http://www.w3.org/2000/svg" viewBox="0 0 1200 750" preserveAspectRatio="xMidYMid slice" role="img" aria-label="Illustration of garage parking"><defs><linearGradient id="sky" x1="0" y1="0" x2="0" y2="1"><stop offset="0" stop-color="#312e81"/><stop offset="1" stop-color="#fb923c"/></linearGradient></defs><rect width="1200" height="750" fill="url(#sky)"/><circle cx="699" cy="119" r="60" fill="#fdba74" opacity=".9"/><rect x="-20" y="325" width="89" height="105" fill="#0f172a" opacity="0.50"/><rect x="-10" y="367" width="10" height="12" fill="#fde68a" opacity=".8"/><rect x="12" y="393" width="10" height="12" fill="#fde68a" opacity=".8"/><rect x="-10" y="419" width="10" height="12" fill="#fde68a" opacity=".8"/><rect x="79" y="267" width="83" height="163" fill="#0f172a" opacity="0.50"/><rect x="89" y="283" width="10" height="12" fill="#fde68a" opacity=".8"/><rect x="133" y="283" width="10" height="12" fill="#fde68a" opacity=".8"/><rect x="111" y="335" width="10" height="12" fill="#fde68a" opacity=".8"/><rect x="133" y="335" width="10" height="12" fill="#fde68a" opacity=".8"/><rect x="133" y="387" width="10" height="12" fill="#fde68a" opacity=".8"/><rect x="173" y="235" width="114" height="195" fill="#0f172a" opacity="0.50"/><rect x="183" y="251" width="10" height="12" fill="#fde68a" opacity=".8"/><rect x="205" y="277" width="10" height="12" fill="#fde68a" opacity=".8"/><rect x="227" y="277" width="10" height="12" fill="#fde68a" opacity=".8"/><rect x="205" y="303" width="10" height="12" fill="#fde68a" opacity=".8"/><rect x="227" y="303" width="10" height="12" fill="#fde68a" opacity=".8"/><rect x="227" y="329" width="10" height="12" fill="#fde68a" opacity=".8"/><rect x="271" y="329" width="10" height="12" fill="#fde68a" opacity=".8"/><rect x="249" y="355" width="10" height="12" fill="#fde68a" opacity=".8"/><rect x="183" y="381" width="10" height="12" fill="#fde68a" opacity=".8"/><rect x="227" y="381" width="10" height="12" fill="#fde68a" opacity=".8"/><rect x="205" y="407" width="10" height="12" fill="#fde68a" opacity=".8"/><rect x="227" y="407" width="10" height="12" fill="#fde68a" opacity=".8"/><rect x="297" y="192" width="74" height="238" fill="#0f172a" opacity="0.50"/><rect x="329" y="208" width="10" height="12" fill="#fde68a" opacity=".8"/><rect x="351" y="208" width="10" height="12" fill="#fde68a" opacity=".8"/><rect x="307" y="260" width="10" height="12" fill="#fde68a" opacity=".8"/><rect x="351" y="286" width="10" height="12" fill="#fde68a" opacity=".8"/><rect x="329" y="312" width="10" height="12" fill="#fde68a" opacity=".8"/><rect x="329" y="338" width="10" height="12" fill="#fde68a" opacity=".8"/><rect x="329" y="390" width="10" height="12" fill="#fde68a" opacity=".8"/><rect x="389" y="176" width="60" height="254" fill="#0f172a" opacity="0.50"/><rect x="399" y="218" width="10" height="12" fill="#fde68a" opacity=".8"/><rect x="421" y="218" width="10" height="12" fill="#fde68a" opacity=".8"/><rect x="399" y="244" width="10" height="12" fill="#fde68a" opacity=".8"/><rect x="421" y="270" width="10" height="12" fill="#fde68a" opacity=".8"/><rect x="399" y="322" width="10" height="12" fill="#fde68a" opacity=".8"/><rect x="399" y="348" width="10" height="12" fill="#fde68a" opacity=".8"/><rect x="399" y="400" width="10" height="12" fill="#fde68a" opacity=".8"/><rect x="455" y="236" width="108" height="194" fill="#0f172a" opacity="0.50"/><rect x="487" y="252" width="10" height="12" fill="#fde68a" opacity=".8"/><rect x="487" y="278" width="10" height="12" fill="#fde68a" opacity=".8"/><rect x="531" y="278" width="10" height="12" fill="#fde68a" opacity=".8"/><rect x="465" y="304" width="10" height="12" fill="#fde68a" opacity=".8"/><rect x="487" y="304" width="10" height="12" fill="#fde68a" opacity=".8"/><rect x="509" y="330" width="10" height="12" fill="#fde68a" opacity=".8"/><rect x="531" y="330" width="10" height="12" fill="#fde68a" opacity=".8"/><rect x="465" y="356" width="10" height="12" fill="#fde68a" opacity=".8"/><rect x="509" y="356" width="10" height="12" fill="#fde68a" opacity=".8"/><rect x="465" y="408" width="10" height="12" fill="#fde68a" opacity=".8"/><rect x="487" y="408" width="10" height="12" fill="#fde68a" opacity=".8"/><rect x="578" y="191" width="71" height="239" fill="#0f172a" opacity="0.50"/><rect x="610" y="207" width="10" height="12" fill="#fde68a" opacity=".8"/><rect x="588" y="233" width="10" height="12" fill="#fde68a" opacity=".8"/><rect x="610" y="233" width="10" height="12" fill="#fde68a" opacity=".8"/><rect x="610" y="259" width="10" height="12" fill="#fde68a" opacity=".8"/><rect x="588" y="285" width="10" height="12" fill="#fde68a" opacity=".8"/><rect x="632" y="285" width="10" height="12" fill="#fde68a" opacity=".8"/><rect x="588" y="311" width="10" height="12" fill="#fde68a" opacity=".8"/><rect x="610" y="337" width="10" height="12" fill="#fde68a" opacity=".8"/><rect x="632" y="363" width="10" height="12" fill="#fde68a" opacity=".8"/><rect x="632" y="389" width="10" height="12" fill="#fde68a" opacity=".8"/><rect x="632" y="415" width="10" height="12" fill="#fde68a" opacity=".8"/><rect x="656" y="258" width="128" height="172" fill="#0f172a" opacity="0.50"/><rect x="732" y="274" width="10" height="12" fill="#fde68a" opacity=".8"/><rect x="754" y="274" width="10" height="12" fill="#fde68a" opacity=".8"/><rect x="710" y="300" width="10" height="12" fill="#fde68a" opacity=".8"/><rect x="666" y="326" width="10" height="12" fill="#fde68a" opacity=".8"/><rect x="754" y="326" width="10" height="12" fill="#fde68a" opacity=".8"/><rect x="666" y="404" width="10" height="12" fill="#fde68a" opacity=".8"/><rect x="688" y="404" width="10" height="12" fill="#fde68a" opacity=".8"/><rect x="732" y="404" width="10" height="12" fill="#fde68a" opacity=".8"/><rect x="754" y="404" width="10" height="12" fill="#fde68a" opacity=".8"/><rect x="800" y="214" width="111" height="216" fill="#0f172a" opacity="0.50"/><rect x="832" y="230" width="10" height="12" fill="#fde68a" opacity=".8"/><rect x="854" y="230" width="10" height="12" fill="#fde68a" opacity=".8"/><rect x="876" y="230" width="10" height="12" fill="#fde68a" opacity=".8"/><rect x="832" y="256" width="10" height="12" fill="#fde68a" opacity=".8"/><rect x="832" y="282" width="10" height="12" fill="#fde68a" opacity=".8"/><rect x="854" y="282" width="10" height="12" fill="#fde68a" opacity=".8"/><rect x="810" y="308" width="10" height="12" fill="#fde68a" opacity=".8"/><rect x="854" y="308" width="10" height="12" fill="#fde68a" opacity=".8"/><rect x="876" y="308" width="10" height="12" fill="#fde68a" opacity=".8"/><rect x="810" y="334" width="10" height="12" fill="#fde68a" opacity=".8"/><rect x="854" y="360" width="10" height="12" fill="#fde68a" opacity=".8"/><rect x="876" y="360" width="10" height="12" fill="#fde68a" opacity=".8"/><rect x="876" y="386" width="10" height="12" fill="#fde68a" opacity=".8"/><rect x="876" y="412" width="10" height="12" fill="#fde68a" opacity=".8"/><rect x="930" y="222" width="112" height="208" fill="#0f172a" opacity="0.50"/><rect x="1006" y="238" width="10" height="12" fill="#fde68a" opacity=".8"/><rect x="940" y="264" width="10" height="12" fill="#fde68a" opacity=".8"/><rect x="962" y="264" width="10" height="12" fill="#fde68a" opacity=".8"/><rect x="1006" y="264" width="10" height="12" fill="#fde68a" opacity=".8"/><rect x="940" y="290" width="10" height="12" fill="#fde68a" opacity=".8"/><rect x="984" y="290" width="10" height="12" fill="#fde68a" opacity=".8"/><rect x="962" y="316" width="10" height="12" fill="#fde68a" opacity=".8"/><rect x="1006" y="316" width="10" height="12" fill="#fde68a" opacity=".8"/><rect x="962" y="368" width="10" height="12" fill="#fde68a" opacity=".8"/><rect x="940" y="394" width="10" height="12" fill="#fde68a" opacity=".8"/><rect x="962" y="394" width="10" height="12" fill="#fde68a" opacity=".8"/><rect x="1048" y="207" width="139" height="223" fill="#0f172a" opacity="0.50"/><rect x="1102" y="223" width="10" height="12" fill="#fde68a" opacity=".8"/><rect x="1146" y="223" width="10" height="12" fill="#fde68a" opacity=".8"/><rect x="1146" y="249" width="10" height="12" fill="#fde68a" opacity=".8"/><rect x="1168" y="275" width="10" height="12" fill="#fde68a" opacity=".8"/><rect x="1080" y="301" width="10" height="12" fill="#fde68a" opacity=".8"/><rect x="1102" y="301" width="10" height="12" fill="#fde68a" opacity=".8"/><rect x="1124" y="301" width="10" height="12" fill="#fde68a" opacity=".8"/><rect x="1058" y="327" width="10" height="12" fill="#fde68a" opacity=".8"/><rect x="1102" y="327" width="10" height="12" fill="#fde68a" opacity=".8"/><rect x="1146" y="327" width="10" height="12" fill="#fde68a" opacity=".8"/><rect x="1124" y="353" width="10" height="12" fill="#fde68a" opacity=".8"/><rect x="1168" y="353" width="10" height="12" fill="#fde68a" opacity=".8"/><rect x="1146" y="379" width="10" height="12" fill="#fde68a" opacity=".8"/><rect x="1168" y="379" width="10" height="12" fill="#fde68a" opacity=".8"/><rect x="1058" y="405" width="10" height="12" fill="#fde68a" opacity=".8"/><rect x="1146" y="405" width="10" height="12" fill="#fde68a" opacity=".8"/><rect x="1193" y="295" width="106" height="135" fill="#0f172a" opacity="0.50"/><rect x="1203" y="311" width="10" height="12" fill="#fde68a" opacity=".8"/><rect x="1247" y="337" width="10" height="12" fill="#fde68a" opacity=".8"/><rect x="1269" y="337" width="10" height="12" fill="#fde68a" opacity=".8"/><rect x="1203" y="363" width="10" height="12" fill="#fde68a" opacity=".8"/><rect x="1225" y="363" width="10" height="12" fill="#fde68a" opacity=".8"/><rect x="1247" y="389" width="10" height="12" fill="#fde68a" opacity=".8"/><rect x="1247" y="415" width="10" height="12" fill="#fde68a" opacity=".8"/><rect y="430" width="1200" height="320" fill="#2a3140"/><rect x="60" y="170" width="1080" height="44" fill="#64748b"/><rect x="40" y="150" width="1120" height="26" rx="6" fill="#cbd5e1"/><rect x="60" y="214" width="1080" height="460" fill="#0f172a" opacity=".55"/><rect x="90" y="214" width="34" height="460" fill="#cbd5e1" opacity=".9"/><ellipse cx="270" cy="232" rx="44" ry="8" fill="#fef9c3"/><path d="M226,236 L170,560 L370,560 L314,236 Z" fill="#fef9c3" opacity=".08"/><rect x="430" y="214" width="34" height="460" fill="#cbd5e1" opacity=".9"/><ellipse cx="610" cy="232" rx="44" ry="8" fill="#fef9c3"/><path d="M566,236 L510,560 L710,560 L654,236 Z" fill="#fef9c3" opacity=".08"/><rect x="770" y="214" width="34" height="460" fill="#cbd5e1" opacity=".9"/><ellipse cx="950" cy="232" rx="44" ry="8" fill="#fef9c3"/><path d="M906,236 L850,560 L1050,560 L994,236 Z" fill="#fef9c3" opacity=".08"/><rect x="1110" y="214" width="34" height="460" fill="#cbd5e1" opacity=".9"/><ellipse cx="1290" cy="232" rx="44" ry="8" fill="#fef9c3"/><path d="M1246,236 L1190,560 L1390,560 L1334,236 Z" fill="#fef9c3" opacity=".08"/><g transform="translate(410,640) scale(-1,1)"><ellipse cx="130.0" cy="4" rx="135.20000000000002" ry="9.36" fill="#000" opacity=".35"/><path d="M5.2,-16.848 Q0,-51.480000000000004 31.2,-56.16 L67.60000000000001,-59.903999999999996 L93.6,-91.728 Q104.0,-97.344 124.8,-97.344 L171.6,-97.344 Q187.2,-95.472 197.6,-87.984 L223.6,-61.775999999999996 L249.6,-56.16 Q262.6,-51.480000000000004 260,-16.848 Z" fill="#ef4444"/><path d="M78.0,-61.775999999999996 L101.4,-87.048 L143.0,-87.048 L143.0,-61.775999999999996 Z" fill="#bfdbfe" opacity=".75"/><path d="M150.79999999999998,-61.775999999999996 L150.79999999999998,-87.048 L182.0,-87.048 L208.0,-61.775999999999996 Z" fill="#bfdbfe" opacity=".75"/><rect x="15.6" y="-39.312" width="228.8" height="4.68" fill="#000" opacity=".15"/><rect x="247.0" y="-46.8" width="13.0" height="9.36" rx="3" fill="#fef08a"/><rect x="0" y="-46.8" width="9.100000000000001" height="9.36" rx="3" fill="#ef4444"/><circle cx="57.2" cy="-14.975999999999999" r="18.72" fill="#0b0f17"/><circle cx="57.2" cy="-14.975999999999999" r="8.424" fill="#9ca3af"/><circle cx="202.8" cy="-14.975999999999999" r="18.72" fill="#0b0f17"/><circle cx="202.8" cy="-14.975999999999999" r="8.424" fill="#9ca3af"/></g><g transform="translate(830,640) scale(1,1)"><ellipse cx="130.0" cy="4" rx="135.20000000000002" ry="9.36" fill="#000" opacity=".35"/><path d="M5.2,-16.848 Q0,-51.480000000000004 31.2,-56.16 L67.60000000000001,-59.903999999999996 L93.6,-91.728 Q104.0,-97.344 124.8,-97.344 L171.6,-97.344 Q187.2,-95.472 197.6,-87.984 L223.6,-61.775999999999996 L249.6,-56.16 Q262.6,-51.480000000000004 260,-16.848 Z" fill="#ef4444"/><path d="M78.0,-61.775999999999996 L101.4,-87.048 L143.0,-87.048 L143.0,-61.775999999999996 Z" fill="#bfdbfe" opacity=".75"/><path d="M150.79999999999998,-61.775999999999996 L150.79999999999998,-87.048 L182.0,-87.048 L208.0,-61.775999999999996 Z" fill="#bfdbfe" opacity=".75"/><rect x="15.6" y="-39.312" width="228.8" height="4.68" fill="#000" opacity=".15"/><rect x="247.0" y="-46.8" width="13.0" height="9.36" rx="3" fill="#fef08a"/><rect x="0" y="-46.8" width="9.100000000000001" height="9.36" rx="3" fill="#ef4444"/><circle cx="57.2" cy="-14.975999999999999" r="18.72" fill="#0b0f17"/><circle cx="57.2" cy="-14.975999999999999" r="8.424" fill="#9ca3af"/><circle cx="202.8" cy="-14.975999999999999" r="18.72" fill="#0b0f17"/><circle cx="202.8" cy="-14.975999999999999" r="8.424" fill="#9ca3af"/></g><rect y="674" width="1200" height="76" fill="#2a3140"/><rect x="20" y="700" width="70" height="8" fill="#f8fafc" opacity=".5"/><rect x="160" y="700" width="70" height="8" fill="#f8fafc" opacity=".5"/><rect x="300" y="700" width="70" height="8" fill="#f8fafc" opacity=".5"/><rect x="440" y="700" width="70" height="8" fill="#f8fafc" opacity=".5"/><rect x="580" y="700" width="70" height="8" fill="#f8fafc" opacity=".5"/><rect x="720" y="700" width="70" height="8" fill="#f8fafc" opacity=".5"/><rect x="860" y="700" width="70" height="8" fill="#f8fafc" opacity=".5"/><rect x="1000" y="700" width="70" height="8" fill="#f8fafc" opacity=".5"/><rect x="1140" y="700" width="70" height="8" fill="#f8fafc" opacity=".5"/><g transform="translate(1110,520) scale(0.8)"><rect x="-4" y="0" width="8" height="150" fill="#64748b"/><rect x="-42" y="-80" width="84" height="84" rx="14" fill="#14b88a" stroke="#fff" stroke-width="5"/><text x="0" y="-18" text-anchor="middle" font-family="Arial, sans-serif" font-weight="900" font-size="62" fill="#fff">P</text></g></svg>