<svg xmlns="http://www.w3.org/2000/svg" viewBox="0 0 1200 750" preserveAspectRatio="xMidYMid slice" role="img" aria-label="Illustration of lot parking"><rect width="1200" height="750" fill="#1e2533"/><circle cx="26" cy="135" r="2" fill="#fff" opacity=".04"/><circle cx="48" cy="701" r="2" fill="#fff" opacity=".04"/><circle cx="197" cy="90" r="3" fill="#fff" opacity=".04"/><circle cx="1021" cy="397" r="3" fill="#fff" opacity=".04"/><circle cx="115" cy="550" r="3" fill="#fff" opacity=".04"/><circle cx="895" cy="592" r="1" fill="#fff" opacity=".04"/><circle cx="557" cy="494" r="3" fill="#fff" opacity=".04"/><circle cx="988" cy="71" r="3" fill="#fff" opacity=".04"/><circle cx="38" cy="150" r="1" fill="#fff" opacity=".04"/><circle cx="533" cy="665" r="2" fill="#fff" opacity=".04"/><circle cx="666" cy="79" r="3" fill="#fff" opacity=".04"/><circle cx="1054" cy="123" r="2" fill="#fff" opacity=".04"/><circle cx="648" cy="3" r="3" fill="#fff" opacity=".04"/><circle cx="473" cy="518" r="1" fill="#fff" opacity=".04"/><circle cx="274" cy="639" r="1" fill="#fff" opacity=".04"/><circle cx="737" cy="39" r="2" fill="#fff" opacity=".04"/><circle cx="877" cy="636" r="2" fill="#fff" opacity=".04"/><circle cx="734" cy="567" r="2" fill="#fff" opacity=".04"/><circle cx="487" cy="183" r="1" fill="#fff" opacity=".04"/><circle cx="926" cy="103" r="1" fill="#fff" opacity=".04"/><circle cx="1140" cy="44" r="1" fill="#fff" opacity=".04"/><circle cx="195" cy="420" r="1" fill="#fff" opacity=".04"/><circle cx="315" cy="395" r="1" fill="#fff" opacity=".04"/><circle cx="1170" cy="624" r="3" fill="#fff" opacity=".04"/><circle cx="446" cy="700" r="1" fill="#fff" opacity=".04"/><circle cx="314" cy="342" r="3" fill="#fff" opacity=".04"/><circle cx="1138" cy="598" r="1" fill="#fff" opacity=".04"/><circle cx="1032" cy="702" r="3" fill="#fff" opacity=".04"/><circle cx="885" cy="56" r="1" fill="#fff" opacity=".04"/><circle cx="143" cy="515" r="1" fill="#fff" opacity=".04"/><circle cx="699" cy="82" r="1" fill="#fff" opacity=".04"/><circle cx="922" cy="679" r="1" fill="#fff" opacity=".04"/><circle cx="252" cy="343" r="2" fill="#fff" opacity=".04"/><circle cx="12" cy="317" r="2" fill="#fff" opacity=".04"/><circle cx="1077" cy="2" r="1" fill="#fff" opacity=".04"/><circle cx="788" cy="123" r="2" fill="#fff" opacity=".04"/><circle cx="347" cy="430" r="1" fill="#fff" opacity=".04"/><circle cx="909" cy="433" r="2" fill="#fff" opacity=".04"/><circle cx="528" cy="483" r="1" fill="#fff" opacity=".04"/><circle cx="822" cy="664" r="1" fill="#fff" opacity=".04"/><circle cx="837" cy="320" r="2" fill="#fff" opacity=".04"/><circle cx="421" cy="650" r="1" fill="#fff" opacity=".04"/><circle cx="320" cy="699" r="2" fill="#fff" opacity=".04"/><circle cx="959" cy="228" r="2" fill="#fff" opacity=".04"/><circle cx="972" cy="65" r="3" fill="#fff" opacity=".04"/><circle cx="390" cy="490" r="1" fill="#fff" opacity=".04"/><circle cx="511" cy="696" r="2" fill="#fff" opacity=".04"/><circle cx="1105" cy="442" r="2" fill="#fff" opacity=".04"/><circle cx="759" cy="111" r="1" fill="#fff" opacity=".04"/><circle cx="105" cy="527" r="1" fill="#fff" opacity=".04"/><circle cx="853" cy="194" r="3" fill="#fff" opacity=".04"/><circle cx="399" cy="27" r="3" fill="#fff" opacity=".04"/><circle cx="608" cy="230" r="1" fill="#fff" opacity=".04"/><circle cx="374" cy="539" r="3" fill="#fff" opacity=".04"/><circle cx="741" cy="118" r="2" fill="#fff" opacity=".04"/><circle cx="857" cy="646" r="3" fill="#fff" opacity=".04"/><circle cx="1011" cy="449" r="3" fill="#fff" opacity=".04"/><circle cx="866" cy="434" r="1" fill="#fff" opacity=".04"/><circle cx="856" cy="493" r="1" fill="#fff" opacity=".04"/><circle cx="260" cy="687" r="3" fill="#fff" opacity=".04"/><circle cx="131" cy="244" r="2" fill="#fff" opacity=".04"/><circle cx="488" cy="631" r="3" fill="#fff" opacity=".04"/><circle cx="259" cy="482" r="1" fill="#fff" opacity=".04"/><circle cx="368" cy="294" r="3" fill="#fff" opacity=".04"/><circle cx="1116" cy="256" r="3" fill="#fff" opacity=".04"/><circle cx="187" cy="690" r="1" fill="#fff" opacity=".04"/><circle cx="167" cy="148" r="1" fill="#fff" opacity=".04"/><circle cx="265" cy="503" r="3" fill="#fff" opacity=".04"/><circle cx="331" cy="639" r="3" fill="#fff" opacity=".04"/><circle cx="1079" cy="440" r="1" fill="#fff" opacity=".04"/><circle cx="1064" cy="553" r="2" fill="#fff" opacity=".04"/><circle cx="1144" cy="680" r="2" fill="#fff" opacity=".04"/><circle cx="696" cy="683" r="2" fill="#fff" opacity=".04"/><circle cx="657" cy="254" r="1" fill="#fff" opacity=".04"/><circle cx="856" cy="664" r="1" fill="#fff" opacity=".04"/><circle cx="96" cy="114" r="3" fill="#fff" opacity=".04"/><circle cx="998" cy="658" r="1" fill="#fff" opacity=".04"/><circle cx="1070" cy="366" r="2" fill="#fff" opacity=".04"/><circle cx="980" cy="41" r="2" fill="#fff" opacity=".04"/><circle cx="720" cy="245" r="2" fill="#fff" opacity=".04"/><circle cx="204" cy="79" r="3" fill="#fff" opacity=".04"/><circle cx="1197" cy="270" r="3" fill="#fff" opacity=".04"/><circle cx="469" cy="600" r="1" fill="#fff" opacity=".04"/><circle cx="778" cy="343" r="3" fill="#fff" opacity=".04"/><circle cx="639" cy="150" r="1" fill="#fff" opacity=".04"/><circle cx="457" cy="693" r="1" fill="#fff" opacity=".04"/><circle cx="895" cy="473" r="2" fill="#fff" opacity=".04"/><circle cx="368" cy="0" r="2" fill="#fff" opacity=".04"/><circle cx="462" cy="244" r="3" fill="#fff" opacity=".04"/><circle cx="692" cy="660" r="3" fill="#fff" opacity=".04"/><circle cx="109" cy="65" r="2" fill="#fff" opacity=".04"/><circle cx="1161" cy="702" r="1" fill="#fff" opacity=".04"/><circle cx="172" cy="542" r="3" fill="#fff" opacity=".04"/><circle cx="641" cy="600" r="1" fill="#fff" opacity=".04"/><circle cx="231" cy="557" r="1" fill="#fff" opacity=".04"/><circle cx="436" cy="272" r="1" fill="#fff" opacity=".04"/><circle cx="1148" cy="282" r="3" fill="#fff" opacity=".04"/><circle cx="949" cy="641" r="1" fill="#fff" opacity=".04"/><circle cx="644" cy="46" r="1" fill="#fff" opacity=".04"/><circle cx="1124" cy="42" r="2" fill="#fff" opacity=".04"/><circle cx="610" cy="259" r="2" fill="#fff" opacity=".04"/><circle cx="522" cy="400" r="3" fill="#fff" opacity=".04"/><circle cx="462" cy="550" r="2" fill="#fff" opacity=".04"/><circle cx="944" cy="424" r="2" fill="#fff" opacity=".04"/><circle cx="320" cy="283" r="2" fill="#fff" opacity=".04"/><circle cx="1069" cy="477" r="3" fill="#fff" opacity=".04"/><circle cx="795" cy="729" r="1" fill="#fff" opacity=".04"/><circle cx="20" cy="452" r="3" fill="#fff" opacity=".04"/><circle cx="1146" cy="637" r="2" fill="#fff" opacity=".04"/><circle cx="267" cy="307" r="1" fill="#fff" opacity=".04"/><circle cx="290" cy="493" r="3" fill="#fff" opacity=".04"/><circle cx="142" cy="61" r="3" fill="#fff" opacity=".04"/><circle cx="464" cy="620" r="1" fill="#fff" opacity=".04"/><circle cx="825" cy="563" r="1" fill="#fff" opacity=".04"/><circle cx="779" cy="733" r="1" fill="#fff" opacity=".04"/><circle cx="1159" cy="133" r="1" fill="#fff" opacity=".04"/><circle cx="512" cy="705" r="1" fill="#fff" opacity=".04"/><circle cx="752" cy="234" r="3" fill="#fff" opacity=".04"/><circle cx="699" cy="33" r="1" fill="#fff" opacity=".04"/><circle cx="239" cy="358" r="1" fill="#fff" opacity=".04"/><circle cx="926" cy="138" r="3" fill="#fff" opacity=".04"/><circle cx="445" cy="457" r="1" fill="#fff" opacity=".04"/><circle cx="893" cy="238" r="2" fill="#fff" opacity=".04"/><circle cx="1186" cy="118" r="2" fill="#fff" opacity=".04"/><circle cx="503" cy="238" r="1" fill="#fff" opacity=".04"/><circle cx="1126" cy="604" r="2" fill="#fff" opacity=".04"/><circle cx="756" cy="518" r="3" fill="#fff" opacity=".04"/><circle cx="83" cy="716" r="1" fill="#fff" opacity=".04"/><circle cx="575" cy="174" r="2" fill="#fff" opacity=".04"/><circle cx="1172" cy="475" r="1" fill="#fff" opacity=".04"/><circle cx="788" cy="119" r="2" fill="#fff" opacity=".04"/><circle cx="486" cy="648" r="2" fill="#fff" opacity=".04"/><circle cx="201" cy="483" r="3" fill="#fff" opacity=".04"/><circle cx="509" cy="313" r="1" fill="#fff" opacity=".04"/><circle cx="592" cy="232" r="3" fill="#fff" opacity=".04"/><circle cx="1119" cy="187" r="3" fill="#fff" opacity=".04"/><circle cx="459" cy="594" r="1" fill="#fff" opacity=".04"/><circle cx="915" cy="420" r="2" fill="#fff" opacity=".04"/><circle cx="1089" cy="691" r="2" fill="#fff" opacity=".04"/><circle cx="97" cy="741" r="2" fill="#fff" opacity=".04"/><circle cx="117" cy="186" r="1" fill="#fff" opacity=".04"/><circle cx="587" cy="321" r="3" fill="#fff" opacity=".04"/><circle cx="10" cy="721" r="2" fill="#fff" opacity=".04"/><circle cx="985" cy="10" r="3" fill="#fff" opacity=".04"/><circle cx="935" cy="468" r="2" fill="#fff" opacity=".04"/><circle cx="145" cy="693" r="2" fill="#fff" opacity=".04"/><circle cx="553" cy="415" r="2" fill="#fff" opacity=".04"/><circle cx="176" cy="297" r="3" fill="#fff" opacity=".04"/><circle cx="704" cy="462" r="2" fill="#fff" opacity=".04"/><circle cx="330" cy="257" r="1" fill="#fff" opacity=".04"/><circle cx="1022" cy="101" r="2" fill="#fff" opacity=".04"/><circle cx="384" cy="707" r="1" fill="#fff" opacity=".04"/><circle cx="923" cy="242" r="1" fill="#fff" opacity=".04"/><circle cx="629" cy="570" r="1" fill="#fff" opacity=".04"/><circle cx="722" cy="160" r="1" fill="#fff" opacity=".04"/><circle cx="604" cy="299" r="1" fill="#fff" opacity=".04"/><circle cx="470" cy="613" r="3" fill="#fff" opacity=".04"/><circle cx="845" cy="176" r="1" fill="#fff" opacity=".04"/><circle cx="870" cy="309" r="3" fill="#fff" opacity=".04"/><circle cx="615" cy="508" r="2" fill="#fff" opacity=".04"/><circle cx="308" cy="320" r="3" fill="#fff" opacity=".04"/><circle cx="1067" cy="285" r="1" fill="#fff" opacity=".04"/><circle cx="207" cy="680" r="1" fill="#fff" opacity=".04"/><circle cx="923" cy="175" r="2" fill="#fff" opacity=".04"/><circle cx="120" cy="356" r="3" fill="#fff" opacity=".04"/><circle cx="801" cy="276" r="3" fill="#fff" opacity=".04"/><circle cx="959" cy="446" r="1" fill="#fff" opacity=".04"/><circle cx="1084" cy="395" r="2" fill="#fff" opacity=".04"/><circle cx="996" cy="531" r="1" fill="#fff" opacity=".04"/><circle cx="601" cy="588" r="1" fill="#fff" opacity=".04"/><circle cx="800" cy="19" r="1" fill="#fff" opacity=".04"/><circle cx="870" cy="219" r="3" fill="#fff" opacity=".04"/><circle cx="137" cy="444" r="1" fill="#fff" opacity=".04"/><circle cx="7" cy="65" r="2" fill="#fff" opacity=".04"/><circle cx="89" cy="566" r="3" fill="#fff" opacity=".04"/><circle cx="189" cy="373" r="2" fill="#fff" opacity=".04"/><circle cx="210" cy="346" r="1" fill="#fff" opacity=".04"/><circle cx="384" cy="208" r="3" fill="#fff" opacity=".04"/><circle cx="1013" cy="320" r="1" fill="#fff" opacity=".04"/><circle cx="634" cy="60" r="2" fill="#fff" opacity=".04"/><circle cx="408" cy="470" r="3" fill="#fff" opacity=".04"/><circle cx="678" cy="566" r="3" fill="#fff" opacity=".04"/><circle cx="886" cy="623" r="3" fill="#fff" opacity=".04"/><circle cx="77" cy="323" r="2" fill="#fff" opacity=".04"/><circle cx="707" cy="301" r="3" fill="#fff" opacity=".04"/><circle cx="390" cy="429" r="3" fill="#fff" opacity=".04"/><circle cx="899" cy="390" r="1" fill="#fff" opacity=".04"/><circle cx="755" cy="116" r="2" fill="#fff" opacity=".04"/><circle cx="1021" cy="586" r="1" fill="#fff" opacity=".04"/><circle cx="550" cy="703" r="2" fill="#fff" opacity=".04"/><circle cx="1118" cy="518" r="1" fill="#fff" opacity=".04"/><circle cx="897" cy="375" r="3" fill="#fff" opacity=".04"/><circle cx="251" cy="99" r="1" fill="#fff" opacity=".04"/><circle cx="722" cy="277" r="1" fill="#fff" opacity=".04"/><circle cx="355" cy="598" r="2" fill="#fff" opacity=".04"/><circle cx="186" cy="655" r="1" fill="#fff" opacity=".04"/><circle cx="569" cy="455" r="3" fill="#fff" opacity=".04"/><circle cx="293" cy="473" r="2" fill="#fff" opacity=".04"/><circle cx="589" cy="654" r="3" fill="#fff" opacity=".04"/><circle cx="264" cy="140" r="3" fill="#fff" opacity=".04"/><circle cx="440" cy="360" r="3" fill="#fff" opacity=".04"/><circle cx="840" cy="136" r="2" fill="#fff" opacity=".04"/><circle cx="227" cy="318" r="1" fill="#fff" opacity=".04"/><circle cx="882" cy="0" r="3" fill="#fff" opacity=".04"/><circle cx="278" cy="35" r="1" fill="#fff" opacity=".04"/><circle cx="257" cy="477" r="1" fill="#fff" opacity=".04"/><circle cx="203" cy="445" r="3" fill="#fff" opacity=".04"/><circle cx="872" cy="461" r="1" fill="#fff" opacity=".04"/><circle cx="595" cy="495" r="1" fill="#fff" opacity=".04"/><circle cx="509" cy="106" r="3" fill="#fff" opacity=".04"/><circle cx="905" cy="506" r="1" fill="#fff" opacity=".04"/><circle cx="365" cy="371" r="2" fill="#fff" opacity=".04"/><circle cx="355" cy="738" r="3" fill="#fff" opacity=".04"/><circle cx="98" cy="477" r="3" fill="#fff" opacity=".04"/><circle cx="535" cy="377" r="3" fill="#fff" opacity=".04"/><circle cx="358" cy="232" r="2" fill="#fff" opacity=".04"/><circle cx="1191" cy="215" r="3" fill="#fff" opacity=".04"/><circle cx="1113" cy="11" r="3" fill="#fff" opacity=".04"/><circle cx="908" cy="143" r="3" fill="#fff" opacity=".04"/><circle cx="580" cy="473" r="1" fill="#fff" opacity=".04"/><circle cx="495" cy="621" r="1" fill="#fff" opacity=".04"/><circle cx="2" cy="348" r="1" fill="#fff" opacity=".04"/><circle cx="470" cy="611" r="1" fill="#fff" opacity=".04"/><circle cx="749" cy="125" r="1" fill="#fff" opacity=".04"/><circle cx="478" cy="186" r="3" fill="#fff" opacity=".04"/><circle cx="577" cy="46" r="1" fill="#fff" opacity=".04"/><circle cx="73" cy="590" r="1" fill="#fff" opacity=".04"/><circle cx="735" cy="470" r="2" fill="#fff" opacity=".04"/><circle cx="996" cy="380" r="1" fill="#fff" opacity=".04"/><circle cx="260" cy="616" r="3" fill="#fff" opacity=".04"/><circle cx="98" cy="53" r="3" fill="#fff" opacity=".04"/><circle cx="79" cy="250" r="2" fill="#fff" opacity=".04"/><circle cx="498" cy="73" r="2" fill="#fff" opacity=".04"/><circle cx="557" cy="408" r="2" fill="#fff" opacity=".04"/><circle cx="170" cy="153" r="3" fill="#fff" opacity=".04"/><circle cx="145" cy="216" r="3" fill="#fff" opacity=".04"/><circle cx="177" cy="514" r="2" fill="#fff" opacity=".04"/><circle cx="995" cy="55" r="3" fill="#fff" opacity=".04"/><circle cx="576" cy="199" r="3" fill="#fff" opacity=".04"/><circle cx="466" cy="175" r="3" fill="#fff" opacity=".04"/><circle cx="508" cy="545" r="1" fill="#fff" opacity=".04"/><circle cx="1060" cy="230" r="1" fill="#fff" opacity=".04"/><circle cx="529" cy="7" r="2" fill="#fff" opacity=".04"/><circle cx="719" cy="580" r="1" fill="#fff" opacity=".04"/><circle cx="493" cy="639" r="2" fill="#fff" opacity=".04"/><circle cx="1132" cy="566" r="1" fill="#fff" opacity=".04"/><circle cx="185" cy="145" r="3" fill="#fff" opacity=".04"/><circle cx="9" cy="277" r="3" fill="#fff" opacity=".04"/><circle cx="589" cy="688" r="3" fill="#fff" opacity=".04"/><circle cx="356" cy="625" r="1" fill="#fff" opacity=".04"/><circle cx="191" cy="451" r="2" fill="#fff" opacity=".04"/><circle cx="24" cy="18" r="2" fill="#fff" opacity=".04"/><circle cx="559" cy="660" r="1" fill="#fff" opacity=".04"/><circle cx="798" cy="398" r="3" fill="#fff" opacity=".04"/><circle cx="713" cy="716" r="3" fill="#fff" opacity=".04"/><circle cx="918" cy="651" r="3" fill="#fff" opacity=".04"/><circle cx="1185" cy="713" r="1" fill="#fff" opacity=".04"/><circle cx="359" cy="503" r="3" fill="#fff" opacity=".04"/><circle cx="1091" cy="546" r="3" fill="#fff" opacity=".04"/><circle cx="622" cy="145" r="1" fill="#fff" opacity=".04"/><rect x="-30" y="40" width="6" height="230" fill="#f8fafc" opacity=".85"/><g transform="translate(48.0,155.0) rotate(180)"><rect x="-44.0" y="-89.0" width="96" height="190" rx="28.799999999999997" fill="#000" opacity=".35"/><rect x="-48.0" y="-95.0" width="96" height="190" rx="28.799999999999997" fill="#ef4444"/><rect x="-36.480000000000004" y="-49.4" width="72.96000000000001" height="38.0" rx="9.600000000000001" fill="#1e293b" opacity=".85"/><rect x="-34.56" y="30.400000000000002" width="69.12" height="26.6" rx="7.68" fill="#1e293b" opacity=".8"/><rect x="-34.56" y="-9.5" width="69.12" height="38.0" rx="7.68" fill="#fff" opacity=".12"/><rect x="-40.32" y="-93.0" width="19.200000000000003" height="7.6000000000000005" rx="2" fill="#fef08a"/><rect x="21.12" y="-93.0" width="19.200000000000003" height="7.6000000000000005" rx="2" fill="#fef08a"/></g><rect x="120" y="40" width="6" height="230" fill="#f8fafc" opacity=".85"/><rect x="270" y="40" width="6" height="230" fill="#f8fafc" opacity=".85"/><g transform="translate(348.0,155.0) rotate(180)"><rect x="-44.0" y="-89.0" width="96" height="190" rx="28.799999999999997" fill="#000" opacity=".35"/><rect x="-48.0" y="-95.0" width="96" height="190" rx="28.799999999999997" fill="#94a3b8"/><rect x="-36.480000000000004" y="-49.4" width="72.96000000000001" height="38.0" rx="9.600000000000001" fill="#1e293b" opacity=".85"/><rect x="-34.56" y="30.400000000000002" width="69.12" height="26.6" rx="7.68" fill="#1e293b" opacity=".8"/><rect x="-34.56" y="-9.5" width="69.12" height="38.0" rx="7.68" fill="#fff" opacity=".12"/><rect x="-40.32" y="-93.0" width="19.200000000000003" height="7.6000000000000005" rx="2" fill="#fef08a"/><rect x="21.12" y="-93.0" width="19.200000000000003" height="7.6000000000000005" rx="2" fill="#fef08a"/></g><rect x="420" y="40" width="6" height="230" fill="#f8fafc" opacity=".85"/><rect x="570" y="40" width="6" height="230" fill="#f8fafc" opacity=".85"/><g transform="translate(648.0,155.0) rotate(180)"><rect x="-44.0" y="-89.0" width="96" height="190" rx="28.799999999999997" fill="#000" opacity=".35"/><rect x="-48.0" y="-95.0" width="96" height="190" rx="28.799999999999997" fill="#facc15"/><rect x="-36.480000000000004" y="-49.4" width="72.96000000000001" height="38.0" rx="9.600000000000001" fill="#1e293b" opacity=".85"/><rect x="-34.56" y="30.400000000000002" width="69.12" height="26.6" rx="7.68" fill="#1e293b" opacity=".8"/><rect x="-34.56" y="-9.5" width="69.12" height="38.0" rx="7.68" fill="#fff" opacity=".12"/><rect x="-40.32" y="-93.0" width="19.200000000000003" height="7.6000000000000005" rx="2" fill="#fef08a"/><rect x="21.12" y="-93.0" width="19.200000000000003" height="7.6000000000000005" rx="2" fill="#fef08a"/></g><rect x="720" y="40" width="6" height="230" fill="#f8fafc" opacity=".85"/><g transform="translate(798.0,155.0) rotate(180)"><rect x="-44.0" y="-89.0" width="96" height="190" rx="28.799999999999997" fill="#000" opacity=".35"/><rect x="-48.0" y="-95.0" width="96" height="190" rx="28.799999999999997" fill="#14b8a6"/><rect x="-36.480000000000004" y="-49.4" width="72.96000000000001" height="38.0" rx="9.600000000000001" fill="#1e293b" opacity=".85"/><rect x="-34.56" y="30.400000000000002" width="69.12" height="26.6" rx="7.68" fill="#1e293b" opacity=".8"/><rect x="-34.56" y="-9.5" width="69.12" height="38.0" rx="7.68" fill="#fff" opacity=".12"/><rect x="-40.32" y="-93.0" width="19.200000000000003" height="7.6000000000000005" rx="2" fill="#fef08a"/><rect x="21.12" y="-93.0" width="19.200000000000003" height="7.6000000000000005" rx="2" fill="#fef08a"/></g><rect x="870" y="40" width="6" height="230" fill="#f8fafc" opacity=".85"/><rect x="1020" y="40" width="6" height="230" fill="#f8fafc" opacity=".85"/><rect x="1170" y="40" width="6" height="230" fill="#f8fafc" opacity=".85"/><g transform="translate(1248.0,155.0) rotate(180)"><rect x="-44.0" y="-89.0" width="96" height="190" rx="28.799999999999997" fill="#000" opacity=".35"/><rect x="-48.0" y="-95.0" width="96" height="190" rx="28.799999999999997" fill="#f8fafc"/><rect x="-36.480000000000004" y="-49.4" width="72.96000000000001" height="38.0" rx="9.600000000000001" fill="#1e293b" opacity=".85"/><rect x="-34.56" y="30.400000000000002" width="69.12" height="26.6" rx="7.68" fill="#1e293b" opacity=".8"/><rect x="-34.56" y="-9.5" width="69.12" height="38.0" rx="7.68" fill="#fff" opacity=".12"/><rect x="-40.32" y="-93.0" width="19.200000000000003" height="7.6000000000000005" rx="2" fill="#fef08a"/><rect x="21.12" y="-93.0" width="19.200000000000003" height="7.6000000000000005" rx="2" fill="#fef08a"/></g><rect x="-30" y="267" width="1260" height="6" fill="#f8fafc" opacity=".85"/><rect x="-30" y="480" width="6" height="230" fill="#f8fafc" opacity=".85"/><rect x="120" y="480" width="6" height="230" fill="#f8fafc" opacity=".85"/><rect x="270" y="480" width="6" height="230" fill="#f8fafc" opacity=".85"/><g transform="translate(348.0,595.0) rotate(0)"><rect x="-44.0" y="-89.0" width="96" height="190" rx="28.799999999999997" fill="#000" opacity=".35"/><rect x="-48.0" y="-95.0" width="96" height="190" rx="28.799999999999997" fill="#94a3b8"/><rect x="-36.480000000000004" y="-49.4" width="72.96000000000001" height="38.0" rx="9.600000000000001" fill="#1e293b" opacity=".85"/><rect x="-34.56" y="30.400000000000002" width="69.12" height="26.6" rx="7.68" fill="#1e293b" opacity=".8"/><rect x="-34.56" y="-9.5" width="69.12" height="38.0" rx="7.68" fill="#fff" opacity=".12"/><rect x="-40.32" y="-93.0" width="19.200000000000003" height="7.6000000000000005" rx="2" fill="#fef08a"/><rect x="21.12" y="-93.0" width="19.200000000000003" height="7.6000000000000005" rx="2" fill="#fef08a"/></g><rect x="420" y="480" width="6" height="230" fill="#f8fafc" opacity=".85"/><g transform="translate(498.0,595.0) rotate(0)"><rect x="-44.0" y="-89.0" width="96" height="190" rx="28.799999999999997" fill="#000" opacity=".35"/><rect x="-48.0" y="-95.0" width="96" height="190" rx="28.799999999999997" fill="#94a3b8"/><rect x="-36.480000000000004" y="-49.4" width="72.96000000000001" height="38.0" rx="9.600000000000001" fill="#1e293b" opacity=".85"/><rect x="-34.56" y="30.400000000000002" width="69.12" height="26.6" rx="7.68" fill="#1e293b" opacity=".8"/><rect x="-34.56" y="-9.5" width="69.12" height="38.0" rx="7.68" fill="#fff" opacity=".12"/><rect x="-40.32" y="-93.0" width="19.200000000000003" height="7.6000000000000005" rx="2" fill="#fef08a"/><rect x="21.12" y="-93.0" width="19.200000000000003" height="7.6000000000000005" rx="2" fill="#fef08a"/></g><rect x="570" y="480" width="6" height="230" fill="#f8fafc" opacity=".85"/><rect x="720" y="480" width="6" height="230" fill="#f8fafc" opacity=".85"/><g transform="translate(798.0,595.0) rotate(0)"><rect x="-44.0" y="-89.0" width="96" height="190" rx="28.799999999999997" fill="#000" opacity=".35"/><rect x="-48.0" y="-95.0" width="96" height="190" rx="28.799999999999997" fill="#22c55e"/><rect x="-36.480000000000004" y="-49.4" width="72.96000000000001" height="38.0" rx="9.600000000000001" fill="#1e293b" opacity=".85"/><rect x="-34.56" y="30.400000000000002" width="69.12" height="26.6" rx="7.68" fill="#1e293b" opacity=".8"/><rect x="-34.56" y="-9.5" width="69.12" height="38.0" rx="7.68" fill="#fff" opacity=".12"/><rect x="-40.32" y="-93.0" width="19.200000000000003" height="7.6000000000000005" rx="2" fill="#fef08a"/><rect x="21.12" y="-93.0" width="19.200000000000003" height="7.6000000000000005" rx="2" fill="#fef08a"/></g><rect x="870" y="480" width="6" height="230" fill="#f8fafc" opacity=".85"/><g transform="translate(948.0,595.0) rotate(0)"><rect x="-44.0" y="-89.0" width="96" height="190" rx="28.799999999999997" fill="#000" opacity=".35"/><rect x="-48.0" y="-95.0" width="96" height="190" rx="28.799999999999997" fill="#22c55e"/><rect x="-36.480000000000004" y="-49.4" width="72.96000000000001" height="38.0" rx="9.600000000000001" fill="#1e293b" opacity=".85"/><rect x="-34.56" y="30.400000000000002" width="69.12" height="26.6" rx="7.68" fill="#1e293b" opacity=".8"/><rect x="-34.56" y="-9.5" width="69.12" height="38.0" rx="7.68" fill="#fff" opacity=".12"/><rect x="-40.32" y="-93.0" width="19.200000000000003" height="7.6000000000000005" rx="2" fill="#fef08a"/><rect x="21.12" y="-93.0" width="19.200000000000003" height="7.6000000000000005" rx="2" fill="#fef08a"/></g><rect x="1020" y="480" width="6" height="230" fill="#f8fafc" opacity=".85"/><rect x="1170" y="480" width="6" height="230" fill="#f8fafc" opacity=".85"/><g transform="translate(1248.0,595.0) rotate(0)"><rect x="-44.0" y="-89.0" width="96" height="190" rx="28.799999999999997" fill="#000" opacity=".35"/><rect x="-48.0" y="-95.0" width="96" height="190" rx="28.799999999999997" fill="#f8fafc"/><rect x="-36.480000000000004" y="-49.4" width="72.96000000000001" height="38.0" rx="9.600000000000001" fill="#1e293b" opacity=".85"/><rect x="-34.56" y="30.400000000000002" width="69.12" height="26.6" rx="7.68" fill="#1e293b" opacity=".8"/><rect x="-34.56" y="-9.5" width="69.12" height="38.0" rx="7.68" fill="#fff" opacity=".12"/><rect x="-40.32" y="-93.0" width="19.200000000000003" height="7.6000000000000005" rx="2" fill="#fef08a"/><rect x="21.12" y="-93.0" width="19.200000000000003" height="7.6000000000000005" rx="2" fill="#fef08a"/></g><rect x="-30" y="477" width="1260" height="6" fill="#f8fafc" opacity=".85"/><rect x="20" y="371.0" width="60" height="8" rx="3" fill="#facc15" opacity=".8"/><rect x="140" y="371.0" width="60" height="8" rx="3" fill="#facc15" opacity=".8"/><rect x="260" y="371.0" width="60" height="8" rx="3" fill="#facc15" opacity=".8"/><rect x="380" y="371.0" width="60" height="8" rx="3" fill="#facc15" opacity=".8"/><rect x="500" y="371.0" width="60" height="8" rx="3" fill="#facc15" opacity=".8"/><rect x="620" y="371.0" width="60" height="8" rx="3" fill="#facc15" opacity=".8"/><rect x="740" y="371.0" width="60" height="8" rx="3" fill="#facc15" opacity=".8"/><rect x="860" y="371.0" width="60" height="8" rx="3" fill="#facc15" opacity=".8"/><rect x="980" y="371.0" width="60" height="8" rx="3" fill="#facc15" opacity=".8"/><rect x="1100" y="371.0" width="60" height="8" rx="3" fill="#facc15" opacity=".8"/><path d="M624.0,335.0 l40,40 l-40,40" stroke="#f8fafc" stroke-width="10" fill="none" opacity=".6" stroke-linecap="round"/><g transform="translate(360.0,375.0) rotate(90)"><rect x="-46.0" y="-92.0" width="100" height="196" rx="30.0" fill="#000" opacity=".35"/><rect x="-50.0" y="-98.0" width="100" height="196" rx="30.0" fill="#f97316"/><rect x="-38.0" y="-50.96" width="76.0" height="39.2" rx="10.0" fill="#1e293b" opacity=".85"/><rect x="-36.0" y="31.36" width="72.0" height="27.44" rx="8.0" fill="#1e293b" opacity=".8"/><rect x="-36.0" y="-9.8" width="72.0" height="39.2" rx="8.0" fill="#fff" opacity=".12"/><rect x="-42.0" y="-96.0" width="20.0" height="7.84" rx="2" fill="#fef08a"/><rect x="22.0" y="-96.0" width="20.0" height="7.84" rx="2" fill="#fef08a"/></g><circle cx="60" cy="375.0" r="70" fill="#166534" opacity=".9"/><circle cx="80" cy="355.0" r="40" fill="#22c55e" opacity=".5"/><circle cx="1140" cy="375.0" r="70" fill="#166534" opacity=".9"/><circle cx="1160" cy="355.0" r="40" fill="#22c55e" opacity=".5"/><rect x="864.0" y="317.0" width="116" height="116" rx="22" fill="#14b88a" opacity=".92"/><text x="922.0" y="411.0" text-anchor="middle" font-family="Arial, sans-serif" font-weight="900" font-size="96" fill="#fff">P</text><rect width="1200" height="750" fill="#020617" opacity="0.35"/></svg>