<svg xmlns="http://www.w3.org/2000/svg" viewBox="0 0 1200 750" preserveAspectRatio="xMidYMid slice" role="img" aria-label="Illustration of beach parking"><defs><linearGradient id="sky" x1="0" y1="0" x2="0" y2="1"><stop offset="0" stop-color="#020617"/><stop offset="1" stop-color="#1e3a8a"/></linearGradient></defs><rect width="1200" height="750" fill="url(#sky)"/><circle cx="197" cy="144" r="2" fill="#fff" opacity="0.72"/><circle cx="218" cy="278" r="1.5" fill="#fff" opacity="0.85"/><circle cx="1037" cy="285" r="1.5" fill="#fff" opacity="0.63"/><circle cx="688" cy="218" r="2.5" fill="#fff" opacity="0.85"/><circle cx="59" cy="63" r="1.5" fill="#fff" opacity="0.68"/><circle cx="850" cy="39" r="2.5" fill="#fff" opacity="0.42"/><circle cx="377" cy="280" r="2.5" fill="#fff" opacity="0.76"/><circle cx="1156" cy="87" r="2" fill="#fff" opacity="0.58"/><circle cx="501" cy="76" r="1.5" fill="#fff" opacity="0.73"/><circle cx="415" cy="46" r="2.5" fill="#fff" opacity="0.81"/><circle cx="855" cy="116" r="2" fill="#fff" opacity="0.88"/><circle cx="517" cy="244" r="2.5" fill="#fff" opacity="0.76"/><circle cx="408" cy="82" r="1.5" fill="#fff" opacity="0.47"/><circle cx="731" cy="210" r="1.5" fill="#fff" opacity="0.63"/><circle cx="1044" cy="154" r="1.5" fill="#fff" opacity="0.46"/><circle cx="405" cy="287" r="1.5" fill="#fff" opacity="0.77"/><circle cx="563" cy="24" r="2" fill="#fff" opacity="0.66"/><circle cx="83" cy="161" r="2" fill="#fff" opacity="0.65"/><circle cx="466" cy="182" r="2.5" fill="#fff" opacity="0.55"/><circle cx="641" cy="255" r="2" fill="#fff" opacity="0.52"/><circle cx="1098" cy="87" r="1.5" fill="#fff" opacity="0.60"/><circle cx="1008" cy="35" r="2" fill="#fff" opacity="0.48"/><circle cx="206" cy="226" r="1.5" fill="#fff" opacity="0.65"/><circle cx="988" cy="123" r="2.5" fill="#fff" opacity="0.81"/><circle cx="816" cy="36" r="2" fill="#fff" opacity="0.82"/><circle cx="229" cy="76" r="2" fill="#fff" opacity="0.68"/><circle cx="978" cy="127" r="1.5" fill="#fff" opacity="0.74"/><circle cx="718" cy="243" r="2" fill="#fff" opacity="0.79"/><circle cx="423" cy="91" r="2.5" fill="#fff" opacity="0.55"/><circle cx="586" cy="191" r="2" fill="#fff" opacity="0.52"/><circle cx="968" cy="69" r="1.5" fill="#fff" opacity="0.46"/><circle cx="337" cy="193" r="2.5" fill="#fff" opacity="0.78"/><circle cx="5" cy="267" r="1.5" fill="#fff" opacity="0.42"/><circle cx="949" cy="56" r="2.5" fill="#fff" opacity="0.45"/><circle cx="619" cy="97" r="2.5" fill="#fff" opacity="0.62"/><circle cx="760" cy="233" r="2.5" fill="#fff" opacity="0.57"/><circle cx="392" cy="64" r="1.5" fill="#fff" opacity="0.48"/><circle cx="285" cy="142" r="2.5" fill="#fff" opacity="0.48"/><circle cx="559" cy="279" r="2.5" fill="#fff" opacity="0.57"/><circle cx="242" cy="186" r="2.5" fill="#fff" opacity="0.51"/><circle cx="289" cy="175" r="2.5" fill="#fff" opacity="0.66"/><circle cx="648" cy="198" r="2.5" fill="#fff" opacity="0.68"/><circle cx="279" cy="298" r="1.5" fill="#fff" opacity="0.42"/><circle cx="1105" cy="264" r="2.5" fill="#fff" opacity="0.67"/><circle cx="1110" cy="28" r="1.5" fill="#fff" opacity="0.43"/><circle cx="182" cy="31" r="2.5" fill="#fff" opacity="0.60"/><circle cx="374" cy="138" r="2" fill="#fff" opacity="0.89"/><circle cx="367" cy="14" r="1.5" fill="#fff" opacity="0.84"/><circle cx="641" cy="120" r="1.5" fill="#fff" opacity="0.43"/><circle cx="559" cy="181" r="2.5" fill="#fff" opacity="0.86"/><circle cx="427" cy="85" r="1.5" fill="#fff" opacity="0.51"/><circle cx="425" cy="300" r="2" fill="#fff" opacity="0.86"/><circle cx="289" cy="118" r="2.5" fill="#fff" opacity="0.59"/><circle cx="870" cy="62" r="2" fill="#fff" opacity="0.81"/><circle cx="322" cy="28" r="1.5" fill="#fff" opacity="0.57"/><circle cx="250" cy="240" r="2.5" fill="#fff" opacity="0.59"/><circle cx="901" cy="173" r="1.5" fill="#fff" opacity="0.53"/><circle cx="492" cy="174" r="2" fill="#fff" opacity="0.76"/><circle cx="389" cy="179" r="2" fill="#fff" opacity="0.79"/><circle cx="582" cy="71" r="2" fill="#fff" opacity="0.88"/><circle cx="573" cy="99" r="40" fill="#f8fafc" opacity=".9"/><rect y="330" width="1200" height="130" fill="#0e7490"/><path d="M300,365 q30,-10 60,0" stroke="#e0f2fe" stroke-width="4" fill="none" opacity=".45"/><path d="M178,352 q30,-10 60,0" stroke="#e0f2fe" stroke-width="4" fill="none" opacity=".45"/><path d="M474,430 q30,-10 60,0" stroke="#e0f2fe" stroke-width="4" fill="none" opacity=".45"/><path d="M392,409 q30,-10 60,0" stroke="#e0f2fe" stroke-width="4" fill="none" opacity=".45"/><path d="M188,380 q30,-10 60,0" stroke="#e0f2fe" stroke-width="4" fill="none" opacity=".45"/><path d="M583,418 q30,-10 60,0" stroke="#e0f2fe" stroke-width="4" fill="none" opacity=".45"/><path d="M686,399 q30,-10 60,0" stroke="#e0f2fe" stroke-width="4" fill="none" opacity=".45"/><path d="M530,396 q30,-10 60,0" stroke="#e0f2fe" stroke-width="4" fill="none" opacity=".45"/><path d="M1039,429 q30,-10 60,0" stroke="#e0f2fe" stroke-width="4" fill="none" opacity=".45"/><path d="M163,370 q30,-10 60,0" stroke="#e0f2fe" stroke-width="4" fill="none" opacity=".45"/><path d="M809,369 q30,-10 60,0" stroke="#e0f2fe" stroke-width="4" fill="none" opacity=".45"/><path d="M1059,438 q30,-10 60,0" stroke="#e0f2fe" stroke-width="4" fill="none" opacity=".45"/><path d="M794,359 q30,-10 60,0" stroke="#e0f2fe" stroke-width="4" fill="none" opacity=".45"/><path d="M384,351 q30,-10 60,0" stroke="#e0f2fe" stroke-width="4" fill="none" opacity=".45"/><path d="M546,395 q30,-10 60,0" stroke="#e0f2fe" stroke-width="4" fill="none" opacity=".45"/><path d="M841,389 q30,-10 60,0" stroke="#e0f2fe" stroke-width="4" fill="none" opacity=".45"/><path d="M266,366 q30,-10 60,0" stroke="#e0f2fe" stroke-width="4" fill="none" opacity=".45"/><path d="M193,429 q30,-10 60,0" stroke="#e0f2fe" stroke-width="4" fill="none" opacity=".45"/><path d="M0,460 Q600.0,420 1200,460 L1200,540 L0,540 Z" fill="#fcd9a4"/><g transform="translate(160,530) scale(0.9)"><path d="M0,0 Q-14,-120 12,-250" stroke="#3f2d1d" stroke-width="16" fill="none" stroke-linecap="round"/><path d="M12,-250 q60,-30 110,20 q-60,-10 -110,-20" fill="#166534" transform="rotate(-150 12 -250)"/><path d="M12,-250 q60,-30 110,20 q-60,-10 -110,-20" fill="#166534" transform="rotate(-110 12 -250)"/><path d="M12,-250 q60,-30 110,20 q-60,-10 -110,-20" fill="#166534" transform="rotate(-60 12 -250)"/><path d="M12,-250 q60,-30 110,20 q-60,-10 -110,-20" fill="#166534" transform="rotate(-20 12 -250)"/><path d="M12,-250 q60,-30 110,20 q-60,-10 -110,-20" fill="#166534" transform="rotate(25 12 -250)"/><path d="M12,-250 q60,-30 110,20 q-60,-10 -110,-20" fill="#166534" transform="rotate(70 12 -250)"/></g><g transform="translate(1030,540) scale(1.05)"><path d="M0,0 Q-14,-120 12,-250" stroke="#3f2d1d" stroke-width="16" fill="none" stroke-linecap="round"/><path d="M12,-250 q60,-30 110,20 q-60,-10 -110,-20" fill="#166534" transform="rotate(-150 12 -250)"/><path d="M12,-250 q60,-30 110,20 q-60,-10 -110,-20" fill="#166534" transform="rotate(-110 12 -250)"/><path d="M12,-250 q60,-30 110,20 q-60,-10 -110,-20" fill="#166534" transform="rotate(-60 12 -250)"/><path d="M12,-250 q60,-30 110,20 q-60,-10 -110,-20" fill="#166534" transform="rotate(-20 12 -250)"/><path d="M12,-250 q60,-30 110,20 q-60,-10 -110,-20" fill="#166534" transform="rotate(25 12 -250)"/><path d="M12,-250 q60,-30 110,20 q-60,-10 -110,-20" fill="#166534" transform="rotate(70 12 -250)"/></g><g transform="translate(1120,520) scale(0.7)"><path d="M0,0 Q-14,-120 12,-250" stroke="#3f2d1d" stroke-width="16" fill="none" stroke-linecap="round"/><path d="M12,-250 q60,-30 110,20 q-60,-10 -110,-20" fill="#166534" transform="rotate(-150 12 -250)"/><path d="M12,-250 q60,-30 110,20 q-60,-10 -110,-20" fill="#166534" transform="rotate(-110 12 -250)"/><path d="M12,-250 q60,-30 110,20 q-60,-10 -110,-20" fill="#166534" transform="rotate(-60 12 -250)"/><path d="M12,-250 q60,-30 110,20 q-60,-10 -110,-20" fill="#166534" transform="rotate(-20 12 -250)"/><path d="M12,-250 q60,-30 110,20 q-60,-10 -110,-20" fill="#166534" transform="rotate(25 12 -250)"/><path d="M12,-250 q60,-30 110,20 q-60,-10 -110,-20" fill="#166534" transform="rotate(70 12 -250)"/></g><rect y="540" width="1200" height="210" fill="#1e2533"/><rect y="540" width="1200" height="10" fill="#e2e8f0"/><rect x="30" y="620" width="80" height="8" fill="#f8fafc" opacity=".6"/><rect x="190" y="620" width="80" height="8" fill="#f8fafc" opacity=".6"/><rect x="350" y="620" width="80" height="8" fill="#f8fafc" opacity=".6"/><rect x="510" y="620" width="80" height="8" fill="#f8fafc" opacity=".6"/><rect x="670" y="620" width="80" height="8" fill="#f8fafc" opacity=".6"/><rect x="830" y="620" width="80" height="8" fill="#f8fafc" opacity=".6"/><rect x="990" y="620" width="80" height="8" fill="#f8fafc" opacity=".6"/><rect x="1150" y="620" width="80" height="8" fill="#f8fafc" opacity=".6"/><g transform="translate(80,700) scale(1,1)"><ellipse cx="125.0" cy="4" rx="130.0" ry="9.0" fill="#000" opacity=".35"/><path d="M5.0,-16.2 Q0,-49.50000000000001 30.0,-54.0 L65.0,-57.6 L90.0,-88.2 Q100.0,-93.60000000000001 120.0,-93.60000000000001 L165.0,-93.60000000000001 Q180.0,-91.8 190.0,-84.6 L215.0,-59.400000000000006 L240.0,-54.0 Q252.5,-49.50000000000001 250,-16.2 Z" fill="#facc15"/><path d="M75.0,-59.400000000000006 L97.5,-83.7 L137.5,-83.7 L137.5,-59.400000000000006 Z" fill="#bfdbfe" opacity=".75"/><path d="M145.0,-59.400000000000006 L145.0,-83.7 L175.0,-83.7 L200.0,-59.400000000000006 Z" fill="#bfdbfe" opacity=".75"/><rect x="15.0" y="-37.8" width="220.0" height="4.5" fill="#000" opacity=".15"/><rect x="237.5" y="-45.0" width="12.5" height="9.0" rx="3" fill="#fef08a"/><rect x="0" y="-45.0" width="8.75" height="9.0" rx="3" fill="#ef4444"/><path d="M250,-41.4 L400.0,-72.0 L400.0,9.0 Z" fill="#fef9c3" opacity="0.18"/><circle cx="55.0" cy="-14.4" r="18.0" fill="#0b0f17"/><circle cx="55.0" cy="-14.4" r="8.1" fill="#9ca3af"/><circle cx="195.0" cy="-14.4" r="18.0" fill="#0b0f17"/><circle cx="195.0" cy="-14.4" r="8.1" fill="#9ca3af"/></g><g transform="translate(440,700) scale(1,1)"><ellipse cx="125.0" cy="4" rx="130.0" ry="9.0" fill="#000" opacity=".35"/><path d="M5.0,-16.2 Q0,-49.50000000000001 30.0,-54.0 L65.0,-57.6 L90.0,-88.2 Q100.0,-93.60000000000001 120.0,-93.60000000000001 L165.0,-93.60000000000001 Q180.0,-91.8 190.0,-84.6 L215.0,-59.400000000000006 L240.0,-54.0 Q252.5,-49.50000000000001 250,-16.2 Z" fill="#f97316"/><path d="M75.0,-59.400000000000006 L97.5,-83.7 L137.5,-83.7 L137.5,-59.400000000000006 Z" fill="#bfdbfe" opacity=".75"/><path d="M145.0,-59.400000000000006 L145.0,-83.7 L175.0,-83.7 L200.0,-59.400000000000006 Z" fill="#bfdbfe" opacity=".75"/><rect x="15.0" y="-37.8" width="220.0" height="4.5" fill="#000" opacity=".15"/><rect x="237.5" y="-45.0" width="12.5" height="9.0" rx="3" fill="#fef08a"/><rect x="0" y="-45.0" width="8.75" height="9.0" rx="3" fill="#ef4444"/><path d="M250,-41.4 L400.0,-72.0 L400.0,9.0 Z" fill="#fef9c3" opacity="0.18"/><circle cx="55.0" cy="-14.4" r="18.0" fill="#0b0f17"/><circle cx="55.0" cy="-14.4" r="8.1" fill="#9ca3af"/><circle cx="195.0" cy="-14.4" r="18.0" fill="#0b0f17"/><circle cx="195.0" cy="-14.4" r="8.1" fill="#9ca3af"/></g><g transform="translate(800,700) scale(1,1)"><ellipse cx="125.0" cy="4" rx="130.0" ry="9.0" fill="#000" opacity=".35"/><path d="M5.0,-16.2 Q0,-49.50000000000001 30.0,-54.0 L65.0,-57.6 L90.0,-88.2 Q100.0,-93.60000000000001 120.0,-93.60000000000001 L165.0,-93.60000000000001 Q180.0,-91.8 190.0,-84.6 L215.0,-59.400000000000006 L240.0,-54.0 Q252.5,-49.50000000000001 250,-16.2 Z" fill="#22c55e"/><path d="M75.0,-59.400000000000006 L97.5,-83.7 L137.5,-83.7 L137.5,-59.400000000000006 Z" fill="#bfdbfe" opacity=".75"/><path d="M145.0,-59.400000000000006 L145.0,-83.7 L175.0,-83.7 L200.0,-59.400000000000006 Z" fill="#bfdbfe" opacity=".75"/><rect x="15.0" y="-37.8" width="220.0" height="4.5" fill="#000" opacity=".15"/><rect x="237.5" y="-45.0" width="12.5" height="9.0" rx="3" fill="#fef08a"/><rect x="0" y="-45.0" width="8.75" height="9.0" rx="3" fill="#ef4444"/><path d="M250,-41.4 L400.0,-72.0 L400.0,9.0 Z" fill="#fef9c3" opacity="0.18"/><circle cx="55.0" cy="-14.4" r="18.0" fill="#0b0f17"/><circle cx="55.0" cy="-14.4" r="8.1" fill="#9ca3af"/><circle cx="195.0" cy="-14.4" r="18.0" fill="#0b0f17"/><circle cx="195.0" cy="-14.4" r="8.1" fill="#9ca3af"/></g><g transform="translate(1150,400) scale(0.7)"><rect x="-4" y="0" width="8" height="150" fill="#64748b"/><rect x="-42" y="-80" width="84" height="84" rx="14" fill="#14b88a" stroke="#fff" stroke-width="5"/><text x="0" y="-18" text-anchor="middle" font-family="Arial, sans-serif" font-weight="900" font-size="62" fill="#fff">P</text></g></svg>