<svg xmlns="http://www.w3.org/2000/svg" viewBox="0 0 1200 750" preserveAspectRatio="xMidYMid slice" role="img" aria-label="Illustration of garage parking"><defs><linearGradient id="sky" x1="0" y1="0" x2="0" y2="1"><stop offset="0" stop-color="#020617"/><stop offset="1" stop-color="#1e3a8a"/></linearGradient></defs><rect width="1200" height="750" fill="url(#sky)"/><circle cx="664" cy="4" r="2" fill="#fff" opacity="0.67"/><circle cx="624" cy="237" r="2" fill="#fff" opacity="0.79"/><circle cx="1016" cy="55" r="1.5" fill="#fff" opacity="0.82"/><circle cx="18" cy="194" r="2.5" fill="#fff" opacity="0.77"/><circle cx="632" cy="86" r="2.5" fill="#fff" opacity="0.75"/><circle cx="1080" cy="143" r="2.5" fill="#fff" opacity="0.60"/><circle cx="1030" cy="211" r="2.5" fill="#fff" opacity="0.41"/><circle cx="580" cy="263" r="2.5" fill="#fff" opacity="0.53"/><circle cx="393" cy="248" r="2.5" fill="#fff" opacity="0.65"/><circle cx="241" cy="126" r="1.5" fill="#fff" opacity="0.47"/><circle cx="1173" cy="3" r="2" fill="#fff" opacity="0.48"/><circle cx="432" cy="155" r="2" fill="#fff" opacity="0.74"/><circle cx="162" cy="75" r="1.5" fill="#fff" opacity="0.85"/><circle cx="335" cy="143" r="2.5" fill="#fff" opacity="0.45"/><circle cx="700" cy="90" r="2" fill="#fff" opacity="0.83"/><circle cx="137" cy="191" r="1.5" fill="#fff" opacity="0.42"/><circle cx="758" cy="156" r="1.5" fill="#fff" opacity="0.64"/><circle cx="599" cy="216" r="1.5" fill="#fff" opacity="0.77"/><circle cx="840" cy="129" r="1.5" fill="#fff" opacity="0.53"/><circle cx="55" cy="76" r="1.5" fill="#fff" opacity="0.49"/><circle cx="938" cy="73" r="2.5" fill="#fff" opacity="0.87"/><circle cx="120" cy="258" r="1.5" fill="#fff" opacity="0.84"/><circle cx="503" cy="41" r="2" fill="#fff" opacity="0.69"/><circle cx="1051" cy="94" r="2.5" fill="#fff" opacity="0.58"/><circle cx="711" cy="176" r="2" fill="#fff" opacity="0.51"/><circle cx="1179" cy="90" r="2.5" fill="#fff" opacity="0.81"/><circle cx="185" cy="234" r="1.5" fill="#fff" opacity="0.68"/><circle cx="1123" cy="244" r="1.5" fill="#fff" opacity="0.60"/><circle cx="830" cy="103" r="2" fill="#fff" opacity="0.56"/><circle cx="836" cy="161" r="2" fill="#fff" opacity="0.46"/><circle cx="484" cy="147" r="2.5" fill="#fff" opacity="0.59"/><circle cx="1191" cy="217" r="1.5" fill="#fff" opacity="0.76"/><circle cx="364" cy="276" r="1.5" fill="#fff" opacity="0.77"/><circle cx="88" cy="264" r="1.5" fill="#fff" opacity="0.66"/><circle cx="195" cy="87" r="2" fill="#fff" opacity="0.85"/><circle cx="710" cy="10" r="2.5" fill="#fff" opacity="0.69"/><circle cx="561" cy="215" r="2.5" fill="#fff" opacity="0.87"/><circle cx="706" cy="44" r="2.5" fill="#fff" opacity="0.46"/><circle cx="745" cy="141" r="2" fill="#fff" opacity="0.85"/><circle cx="684" cy="2" r="1.5" fill="#fff" opacity="0.82"/><circle cx="637" cy="277" r="1.5" fill="#fff" opacity="0.78"/><circle cx="577" cy="95" r="1.5" fill="#fff" opacity="0.79"/><circle cx="1146" cy="84" r="2.5" fill="#fff" opacity="0.90"/><circle cx="63" cy="205" r="2" fill="#fff" opacity="0.50"/><circle cx="193" cy="203" r="2.5" fill="#fff" opacity="0.72"/><circle cx="933" cy="207" r="1.5" fill="#fff" opacity="0.52"/><circle cx="87" cy="41" r="2.5" fill="#fff" opacity="0.90"/><circle cx="496" cy="15" r="1.5" fill="#fff" opacity="0.89"/><circle cx="999" cy="206" r="1.5" fill="#fff" opacity="0.86"/><circle cx="564" cy="32" r="1.5" fill="#fff" opacity="0.54"/><circle cx="1103" cy="286" r="2" fill="#fff" opacity="0.66"/><circle cx="446" cy="252" r="1.5" fill="#fff" opacity="0.49"/><circle cx="1113" cy="55" r="2" fill="#fff" opacity="0.78"/><circle cx="615" cy="91" r="2" fill="#fff" opacity="0.86"/><circle cx="116" cy="276" r="2.5" fill="#fff" opacity="0.70"/><circle cx="212" cy="104" r="1.5" fill="#fff" opacity="0.54"/><circle cx="188" cy="27" r="2.5" fill="#fff" opacity="0.80"/><circle cx="848" cy="19" r="1.5" fill="#fff" opacity="0.84"/><circle cx="811" cy="271" r="1.5" fill="#fff" opacity="0.42"/><circle cx="1134" cy="298" r="2" fill="#fff" opacity="0.87"/><circle cx="556" cy="119" r="40" fill="#f8fafc" opacity=".9"/><rect x="-20" y="229" width="132" height="201" fill="#0f172a" opacity="0.65"/><rect x="78" y="245" width="10" height="12" fill="#fde68a" opacity=".8"/><rect x="12" y="271" width="10" height="12" fill="#fde68a" opacity=".8"/><rect x="78" y="271" width="10" height="12" fill="#fde68a" opacity=".8"/><rect x="-10" y="297" width="10" height="12" fill="#fde68a" opacity=".8"/><rect x="34" y="297" width="10" height="12" fill="#fde68a" opacity=".8"/><rect x="12" y="323" width="10" height="12" fill="#fde68a" opacity=".8"/><rect x="78" y="323" width="10" height="12" fill="#fde68a" opacity=".8"/><rect x="-10" y="349" width="10" height="12" fill="#fde68a" opacity=".8"/><rect x="130" y="171" width="88" height="259" fill="#0f172a" opacity="0.65"/><rect x="184" y="187" width="10" height="12" fill="#fde68a" opacity=".8"/><rect x="162" y="213" width="10" height="12" fill="#fde68a" opacity=".8"/><rect x="140" y="239" width="10" height="12" fill="#fde68a" opacity=".8"/><rect x="162" y="265" width="10" height="12" fill="#fde68a" opacity=".8"/><rect x="140" y="317" width="10" height="12" fill="#fde68a" opacity=".8"/><rect x="184" y="343" width="10" height="12" fill="#fde68a" opacity=".8"/><rect x="230" y="276" width="121" height="154" fill="#0f172a" opacity="0.65"/><rect x="262" y="318" width="10" height="12" fill="#fde68a" opacity=".8"/><rect x="328" y="318" width="10" height="12" fill="#fde68a" opacity=".8"/><rect x="284" y="344" width="10" height="12" fill="#fde68a" opacity=".8"/><rect x="306" y="344" width="10" height="12" fill="#fde68a" opacity=".8"/><rect x="262" y="370" width="10" height="12" fill="#fde68a" opacity=".8"/><rect x="306" y="370" width="10" height="12" fill="#fde68a" opacity=".8"/><rect x="284" y="396" width="10" height="12" fill="#fde68a" opacity=".8"/><rect x="366" y="338" width="106" height="92" fill="#0f172a" opacity="0.65"/><rect x="398" y="354" width="10" height="12" fill="#fde68a" opacity=".8"/><rect x="442" y="354" width="10" height="12" fill="#fde68a" opacity=".8"/><rect x="420" y="380" width="10" height="12" fill="#fde68a" opacity=".8"/><rect x="442" y="380" width="10" height="12" fill="#fde68a" opacity=".8"/><rect x="398" y="406" width="10" height="12" fill="#fde68a" opacity=".8"/><rect x="420" y="406" width="10" height="12" fill="#fde68a" opacity=".8"/><rect x="479" y="210" width="86" height="220" fill="#0f172a" opacity="0.65"/><rect x="489" y="226" width="10" height="12" fill="#fde68a" opacity=".8"/><rect x="533" y="226" width="10" height="12" fill="#fde68a" opacity=".8"/><rect x="489" y="278" width="10" height="12" fill="#fde68a" opacity=".8"/><rect x="489" y="304" width="10" height="12" fill="#fde68a" opacity=".8"/><rect x="533" y="304" width="10" height="12" fill="#fde68a" opacity=".8"/><rect x="511" y="330" width="10" height="12" fill="#fde68a" opacity=".8"/><rect x="533" y="330" width="10" height="12" fill="#fde68a" opacity=".8"/><rect x="489" y="356" width="10" height="12" fill="#fde68a" opacity=".8"/><rect x="533" y="356" width="10" height="12" fill="#fde68a" opacity=".8"/><rect x="533" y="382" width="10" height="12" fill="#fde68a" opacity=".8"/><rect x="573" y="287" width="83" height="143" fill="#0f172a" opacity="0.65"/><rect x="605" y="329" width="10" height="12" fill="#fde68a" opacity=".8"/><rect x="605" y="381" width="10" height="12" fill="#fde68a" opacity=".8"/><rect x="627" y="381" width="10" height="12" fill="#fde68a" opacity=".8"/><rect x="605" y="407" width="10" height="12" fill="#fde68a" opacity=".8"/><rect x="627" y="407" width="10" height="12" fill="#fde68a" opacity=".8"/><rect x="663" y="205" width="125" height="225" fill="#0f172a" opacity="0.65"/><rect x="673" y="221" width="10" height="12" fill="#fde68a" opacity=".8"/><rect x="739" y="221" width="10" height="12" fill="#fde68a" opacity=".8"/><rect x="673" y="299" width="10" height="12" fill="#fde68a" opacity=".8"/><rect x="739" y="325" width="10" height="12" fill="#fde68a" opacity=".8"/><rect x="673" y="351" width="10" height="12" fill="#fde68a" opacity=".8"/><rect x="717" y="351" width="10" height="12" fill="#fde68a" opacity=".8"/><rect x="695" y="377" width="10" height="12" fill="#fde68a" opacity=".8"/><rect x="803" y="239" width="130" height="191" fill="#0f172a" opacity="0.65"/><rect x="857" y="255" width="10" height="12" fill="#fde68a" opacity=".8"/><rect x="813" y="281" width="10" height="12" fill="#fde68a" opacity=".8"/><rect x="857" y="307" width="10" height="12" fill="#fde68a" opacity=".8"/><rect x="813" y="359" width="10" height="12" fill="#fde68a" opacity=".8"/><rect x="857" y="359" width="10" height="12" fill="#fde68a" opacity=".8"/><rect x="879" y="385" width="10" height="12" fill="#fde68a" opacity=".8"/><rect x="835" y="411" width="10" height="12" fill="#fde68a" opacity=".8"/><rect x="879" y="411" width="10" height="12" fill="#fde68a" opacity=".8"/><rect x="901" y="411" width="10" height="12" fill="#fde68a" opacity=".8"/><rect x="953" y="219" width="113" height="211" fill="#0f172a" opacity="0.65"/><rect x="1007" y="261" width="10" height="12" fill="#fde68a" opacity=".8"/><rect x="1051" y="261" width="10" height="12" fill="#fde68a" opacity=".8"/><rect x="985" y="313" width="10" height="12" fill="#fde68a" opacity=".8"/><rect x="1007" y="339" width="10" height="12" fill="#fde68a" opacity=".8"/><rect x="1051" y="339" width="10" height="12" fill="#fde68a" opacity=".8"/><rect x="985" y="365" width="10" height="12" fill="#fde68a" opacity=".8"/><rect x="1029" y="365" width="10" height="12" fill="#fde68a" opacity=".8"/><rect x="985" y="391" width="10" height="12" fill="#fde68a" opacity=".8"/><rect x="985" y="417" width="10" height="12" fill="#fde68a" opacity=".8"/><rect x="1007" y="417" width="10" height="12" fill="#fde68a" opacity=".8"/><rect x="1029" y="417" width="10" height="12" fill="#fde68a" opacity=".8"/><rect x="1051" y="417" width="10" height="12" fill="#fde68a" opacity=".8"/><rect x="1078" y="275" width="111" height="155" fill="#0f172a" opacity="0.65"/><rect x="1110" y="317" width="10" height="12" fill="#fde68a" opacity=".8"/><rect x="1132" y="317" width="10" height="12" fill="#fde68a" opacity=".8"/><rect x="1154" y="317" width="10" height="12" fill="#fde68a" opacity=".8"/><rect x="1110" y="343" width="10" height="12" fill="#fde68a" opacity=".8"/><rect x="1154" y="343" width="10" height="12" fill="#fde68a" opacity=".8"/><rect x="1110" y="369" width="10" height="12" fill="#fde68a" opacity=".8"/><rect x="1132" y="369" width="10" height="12" fill="#fde68a" opacity=".8"/><rect y="430" width="1200" height="320" fill="#1e2533"/><rect x="60" y="170" width="1080" height="44" fill="#475569"/><rect x="40" y="150" width="1120" height="26" rx="6" fill="#94a3b8"/><rect x="60" y="214" width="1080" height="460" fill="#0f172a" opacity=".55"/><rect x="90" y="214" width="34" height="460" fill="#94a3b8" opacity=".9"/><ellipse cx="270" cy="232" rx="44" ry="8" fill="#fef9c3"/><path d="M226,236 L170,560 L370,560 L314,236 Z" fill="#fef9c3" opacity=".08"/><rect x="430" y="214" width="34" height="460" fill="#94a3b8" opacity=".9"/><ellipse cx="610" cy="232" rx="44" ry="8" fill="#fef9c3"/><path d="M566,236 L510,560 L710,560 L654,236 Z" fill="#fef9c3" opacity=".08"/><rect x="770" y="214" width="34" height="460" fill="#94a3b8" opacity=".9"/><ellipse cx="950" cy="232" rx="44" ry="8" fill="#fef9c3"/><path d="M906,236 L850,560 L1050,560 L994,236 Z" fill="#fef9c3" opacity=".08"/><rect x="1110" y="214" width="34" height="460" fill="#94a3b8" opacity=".9"/><ellipse cx="1290" cy="232" rx="44" ry="8" fill="#fef9c3"/><path d="M1246,236 L1190,560 L1390,560 L1334,236 Z" fill="#fef9c3" opacity=".08"/><g transform="translate(150,640) scale(1,1)"><ellipse cx="130.0" cy="4" rx="135.20000000000002" ry="9.36" fill="#000" opacity=".35"/><path d="M5.2,-16.848 Q0,-51.480000000000004 31.2,-56.16 L67.60000000000001,-59.903999999999996 L93.6,-91.728 Q104.0,-97.344 124.8,-97.344 L171.6,-97.344 Q187.2,-95.472 197.6,-87.984 L223.6,-61.775999999999996 L249.6,-56.16 Q262.6,-51.480000000000004 260,-16.848 Z" fill="#14b8a6"/><path d="M78.0,-61.775999999999996 L101.4,-87.048 L143.0,-87.048 L143.0,-61.775999999999996 Z" fill="#bfdbfe" opacity=".75"/><path d="M150.79999999999998,-61.775999999999996 L150.79999999999998,-87.048 L182.0,-87.048 L208.0,-61.775999999999996 Z" fill="#bfdbfe" opacity=".75"/><rect x="15.6" y="-39.312" width="228.8" height="4.68" fill="#000" opacity=".15"/><rect x="247.0" y="-46.8" width="13.0" height="9.36" rx="3" fill="#fef08a"/><rect x="0" y="-46.8" width="9.100000000000001" height="9.36" rx="3" fill="#ef4444"/><circle cx="57.2" cy="-14.975999999999999" r="18.72" fill="#0b0f17"/><circle cx="57.2" cy="-14.975999999999999" r="8.424" fill="#9ca3af"/><circle cx="202.8" cy="-14.975999999999999" r="18.72" fill="#0b0f17"/><circle cx="202.8" cy="-14.975999999999999" r="8.424" fill="#9ca3af"/></g><g transform="translate(490,640) scale(1,1)"><ellipse cx="130.0" cy="4" rx="135.20000000000002" ry="9.36" fill="#000" opacity=".35"/><path d="M5.2,-16.848 Q0,-51.480000000000004 31.2,-56.16 L67.60000000000001,-59.903999999999996 L93.6,-91.728 Q104.0,-97.344 124.8,-97.344 L171.6,-97.344 Q187.2,-95.472 197.6,-87.984 L223.6,-61.775999999999996 L249.6,-56.16 Q262.6,-51.480000000000004 260,-16.848 Z" fill="#a855f7"/><path d="M78.0,-61.775999999999996 L101.4,-87.048 L143.0,-87.048 L143.0,-61.775999999999996 Z" fill="#bfdbfe" opacity=".75"/><path d="M150.79999999999998,-61.775999999999996 L150.79999999999998,-87.048 L182.0,-87.048 L208.0,-61.775999999999996 Z" fill="#bfdbfe" opacity=".75"/><rect x="15.6" y="-39.312" width="228.8" height="4.68" fill="#000" opacity=".15"/><rect x="247.0" y="-46.8" width="13.0" height="9.36" rx="3" fill="#fef08a"/><rect x="0" y="-46.8" width="9.100000000000001" height="9.36" rx="3" fill="#ef4444"/><circle cx="57.2" cy="-14.975999999999999" r="18.72" fill="#0b0f17"/><circle cx="57.2" cy="-14.975999999999999" r="8.424" fill="#9ca3af"/><circle cx="202.8" cy="-14.975999999999999" r="18.72" fill="#0b0f17"/><circle cx="202.8" cy="-14.975999999999999" r="8.424" fill="#9ca3af"/></g><g transform="translate(1090,640) scale(-1,1)"><ellipse cx="130.0" cy="4" rx="135.20000000000002" ry="9.36" fill="#000" opacity=".35"/><path d="M5.2,-16.848 Q0,-51.480000000000004 31.2,-56.16 L67.60000000000001,-59.903999999999996 L93.6,-91.728 Q104.0,-97.344 124.8,-97.344 L171.6,-97.344 Q187.2,-95.472 197.6,-87.984 L223.6,-61.775999999999996 L249.6,-56.16 Q262.6,-51.480000000000004 260,-16.848 Z" fill="#14b8a6"/><path d="M78.0,-61.775999999999996 L101.4,-87.048 L143.0,-87.048 L143.0,-61.775999999999996 Z" fill="#bfdbfe" opacity=".75"/><path d="M150.79999999999998,-61.775999999999996 L150.79999999999998,-87.048 L182.0,-87.048 L208.0,-61.775999999999996 Z" fill="#bfdbfe" opacity=".75"/><rect x="15.6" y="-39.312" width="228.8" height="4.68" fill="#000" opacity=".15"/><rect x="247.0" y="-46.8" width="13.0" height="9.36" rx="3" fill="#fef08a"/><rect x="0" y="-46.8" width="9.100000000000001" height="9.36" rx="3" fill="#ef4444"/><circle cx="57.2" cy="-14.975999999999999" r="18.72" fill="#0b0f17"/><circle cx="57.2" cy="-14.975999999999999" r="8.424" fill="#9ca3af"/><circle cx="202.8" cy="-14.975999999999999" r="18.72" fill="#0b0f17"/><circle cx="202.8" cy="-14.975999999999999" r="8.424" fill="#9ca3af"/></g><rect y="674" width="1200" height="76" fill="#1e2533"/><rect x="20" y="700" width="70" height="8" fill="#f8fafc" opacity=".5"/><rect x="160" y="700" width="70" height="8" fill="#f8fafc" opacity=".5"/><rect x="300" y="700" width="70" height="8" fill="#f8fafc" opacity=".5"/><rect x="440" y="700" width="70" height="8" fill="#f8fafc" opacity=".5"/><rect x="580" y="700" width="70" height="8" fill="#f8fafc" opacity=".5"/><rect x="720" y="700" width="70" height="8" fill="#f8fafc" opacity=".5"/><rect x="860" y="700" width="70" height="8" fill="#f8fafc" opacity=".5"/><rect x="1000" y="700" width="70" height="8" fill="#f8fafc" opacity=".5"/><rect x="1140" y="700" width="70" height="8" fill="#f8fafc" opacity=".5"/><g transform="translate(1110,520) scale(0.8)"><rect x="-4" y="0" width="8" height="150" fill="#64748b"/><rect x="-42" y="-80" width="84" height="84" rx="14" fill="#14b88a" stroke="#fff" stroke-width="5"/><text x="0" y="-18" text-anchor="middle" font-family="Arial, sans-serif" font-weight="900" font-size="62" fill="#fff">P</text></g></svg>